<?xml version="1.0" encoding="UTF-8" standalone="no"?>
<!-- Created with Inkscape (http://www.inkscape.org/) -->

<svg
   xmlns:dc="http://purl.org/dc/elements/1.1/"
   xmlns:cc="http://creativecommons.org/ns#"
   xmlns:rdf="http://www.w3.org/1999/02/22-rdf-syntax-ns#"
   xmlns:svg="http://www.w3.org/2000/svg"
   xmlns="http://www.w3.org/2000/svg"
   xmlns:xlink="http://www.w3.org/1999/xlink"
   xmlns:sodipodi="http://sodipodi.sourceforge.net/DTD/sodipodi-0.dtd"
   xmlns:inkscape="http://www.inkscape.org/namespaces/inkscape"
   id="svg2440"
   sodipodi:version="0.32"
   inkscape:version="0.47 r22583"
   width="294.09448"
   height="198.42519"
   xml:space="preserve"
   sodipodi:docname="fig_forces.svg"
   inkscape:output_extension="org.inkscape.output.svg.inkscape"
   version="1.0"><metadata
     id="metadata2445"><rdf:RDF><cc:Work
         rdf:about=""><dc:format>image/svg+xml</dc:format><dc:type
           rdf:resource="http://purl.org/dc/dcmitype/StillImage" /></cc:Work></rdf:RDF></metadata><defs
     id="defs2443"><inkscape:perspective
       sodipodi:type="inkscape:persp3d"
       inkscape:vp_x="0 : 99.212593 : 1"
       inkscape:vp_y="0 : 1000 : 0"
       inkscape:vp_z="294.09448 : 99.212593 : 1"
       inkscape:persp3d-origin="147.04724 : 66.141729 : 1"
       id="perspective3992" /></defs><sodipodi:namedview
     inkscape:window-height="856"
     inkscape:window-width="1050"
     inkscape:pageshadow="2"
     inkscape:pageopacity="1"
     guidetolerance="10.0"
     gridtolerance="10.0"
     objecttolerance="10.0"
     borderopacity="1.0"
     bordercolor="#666666"
     pagecolor="#ffffff"
     id="base"
     showgrid="false"
     inkscape:zoom="2.8284271"
     inkscape:cx="161.62007"
     inkscape:cy="104.40482"
     inkscape:window-x="0"
     inkscape:window-y="0"
     inkscape:current-layer="g2449"
     units="cm"
     inkscape:window-maximized="0" /><g
     id="g2449"
     inkscape:groupmode="layer"
     inkscape:label="Figure4"
     transform="matrix(1.25,0,0,-1.25,0,900.42504)"><g
   id="g3303"
   transform="matrix(1,0,0,-1,1.6,1362.2723)"><path
     id="path2473"
     style="fill:#000000;fill-opacity:1;fill-rule:nonzero;stroke:none"
     d="m 28.752794,661.40126 -0.133501,-0.16443 0.462369,-0.10257 -1.828323,-1.24385 0.841724,2.04486 0.195363,-0.43144 0.133505,0.16444 0.328863,-0.26701" /><path
     id="path2475"
     style="fill:#000000;fill-opacity:1;fill-rule:nonzero;stroke:none"
     d="m 37.148366,661.42189 -0.113508,-0.2905 0.690676,0.0631 -1.995543,-2.55024 0.262177,3.22756 0.464902,-0.51468 0.113503,0.2905 0.577793,-0.22575" /><path
     sodipodi:nodetypes="ccccccccc"
     id="path2477"
     d="M 44.825,661.625 44.45,660.3 43.95,660.775 44,658 l 0.3,0 1.425,2.25 -0.675,-0.125 0.375,1.325 -0.6,0.175 z"
     style="fill:#000000;fill-opacity:1;fill-rule:nonzero;stroke:none" /><path
     sodipodi:nodetypes="ccccccccc"
     id="path2479"
     d="m 53.1,661.625 -0.55,-2 -0.525,0.475 0.05,-2.1 0.75,0 1,1.6 -0.675,-0.125 0.55,1.975 -0.6,0.175 z"
     style="fill:#000000;fill-opacity:1;fill-rule:nonzero;stroke:none" /><path
     sodipodi:nodetypes="ccccccccc"
     id="path2481"
     d="m 61.375,661.625 -0.6,-1.9 -0.5,0.475 -0.025,-2.25 0.65,0 1.15,1.7 -0.675,-0.1 0.6,1.9 -0.6,0.175 z"
     style="fill:#000000;fill-opacity:1;fill-rule:nonzero;stroke:none" /><path
     id="path2483"
     style="fill:#000000;fill-opacity:1;fill-rule:nonzero;stroke:none"
     d="m 70.232809,661.42197 -0.303039,-0.77622 0.690647,0.0633 -1.994785,-2.55086 0.261252,3.22768 0.465056,-0.51455 0.303038,0.77622 0.577831,-0.22559" /><path
     id="path2485"
     style="fill:#000000;fill-opacity:1;fill-rule:nonzero;stroke:none"
     d="m 78.331975,661.47459 -0.06016,-0.11699 0.294123,-0.003 -0.952733,-0.98927 0.250838,1.35034 0.173807,-0.23734 0.06016,0.11698 0.233965,-0.12035" /><path
     id="path2491"
     style="fill:#000000;fill-opacity:1;fill-rule:nonzero;stroke:none"
     d="m 28.760168,667.58272 -0.146945,-0.17181 0.490556,-0.12211 -1.984883,-1.27722 0.95405,2.15892 0.196666,-0.46572 0.146945,0.17181 0.343611,-0.29387" /><path
     id="path2493"
     style="fill:#000000;fill-opacity:1;fill-rule:nonzero;stroke:none"
     d="m 37.132223,667.59788 -0.131772,-0.27275 0.677278,0.009 -2.135969,-2.33224 0.499451,3.12287 0.413738,-0.5363 0.131768,0.27275 0.545506,-0.26354" /><path
     id="path2495"
     style="fill:#000000;fill-opacity:1;fill-rule:nonzero;stroke:none"
     d="m 45.421928,667.62329 -0.31712,-0.86874 0.689106,0.0786 -1.937628,-2.59453 0.18943,3.23269 0.476388,-0.5041 0.317119,0.86879 0.582705,-0.21272" /><path
     id="path2497"
     style="fill:#000000;fill-opacity:1;fill-rule:nonzero;stroke:none"
     d="m 53.695443,667.63013 -0.37686,-1.11238 0.687022,0.0947 -1.876553,-2.63906 0.113983,3.23622 0.48801,-0.4928 0.376861,1.11238 0.587537,-0.19905" /><path
     id="path2499"
     style="fill:#000000;fill-opacity:1;fill-rule:nonzero;stroke:none"
     d="m 61.964834,667.62521 -0.22355,-0.62499 0.688564,0.0831 -1.920755,-2.60711 0.168475,3.23385 0.479637,-0.50096 0.22355,0.62495 0.584079,-0.20889" /><path
     id="path2501"
     style="fill:#000000;fill-opacity:1;fill-rule:nonzero;stroke:none"
     d="m 70.127533,667.65825 -0.07141,-0.1836 0.438642,0.0408 -1.264769,-1.62201 0.163017,2.05036 0.295873,-0.32641 0.07136,0.18364 0.367279,-0.14281" /><path
     id="path2503"
     style="fill:#000000;fill-opacity:1;fill-rule:nonzero;stroke:none"
     d="m 78.459456,667.92054 -0.28754,0.11627 -0.244464,-0.19093 0.04308,-0.30712 0.28754,-0.11627 0.244464,0.19089 -0.04308,0.30716 -0.28754,0.11627" /><path
     id="path2509"
     style="fill:#000000;fill-opacity:1;fill-rule:nonzero;stroke:none"
     d="m 28.726081,674.26751 -0.13358,-0.13773 0.40901,-0.12944 -1.748918,-0.97644 0.922621,1.77791 0.141854,-0.4049 0.13358,0.13773 0.275433,-0.26713" /><path
     id="path2511"
     style="fill:#000000;fill-opacity:1;fill-rule:nonzero;stroke:none"
     d="m 37.072328,674.27972 -0.121366,-0.21289 0.547077,-0.0299 -1.852219,-1.76444 0.575081,2.49262 0.304346,-0.45555 0.121365,0.21284 0.425716,-0.24271" /><path
     id="path2513"
     style="fill:#000000;fill-opacity:1;fill-rule:nonzero;stroke:none"
     d="m 45.385266,674.29121 -0.109858,-0.25467 0.619199,0.0349 -1.862639,-2.21721 0.334575,2.8764 0.399482,-0.47439 0.109859,0.25467 0.509382,-0.21972" /><path
     id="path2515"
     style="fill:#000000;fill-opacity:1;fill-rule:nonzero;stroke:none"
     d="m 53.645117,674.30884 -0.09224,-0.24342 0.579039,0.059 -1.652421,-2.15752 0.19193,2.71081 0.394608,-0.42781 0.09224,0.24342 0.486844,-0.18447" /><path
     id="path2517"
     style="fill:#000000;fill-opacity:1;fill-rule:nonzero;stroke:none"
     d="m 61.834895,674.34704 -0.05403,-0.1621 0.378236,0.054 -1.026555,-1.45886 0.05395,1.78302 0.270168,-0.27012 0.05403,0.1621 0.324202,-0.10807" /><path
     id="path2519"
     style="fill:#000000;fill-opacity:1;fill-rule:nonzero;stroke:none"
     d="m 70.233933,674.29121 -0.04987,0.30613 -0.29004,0.10985 -0.240173,-0.19626 0.04987,-0.30612 0.29004,-0.10986 0.240172,0.19626 -0.04987,0.30613" /><path
     id="path2521"
     style="fill:#000000;fill-opacity:1;fill-rule:nonzero;stroke:none"
     d="m 78.03277,674.57659 0.175515,0.18222 -0.539961,0.16885 2.301907,1.29564 -1.20857,-2.34881 -0.188889,0.53329 -0.175557,-0.18222 -0.364445,0.35103" /><path
     id="path2527"
     style="fill:#000000;fill-opacity:1;fill-rule:nonzero;stroke:none"
     d="m 28.65533,680.50333 -0.09265,-0.067 0.226579,-0.11836 -1.127382,-0.39169 0.725579,0.94761 0.04129,-0.25225 0.09265,0.0669 0.133935,-0.18526" /><path
     id="path2529"
     style="fill:#000000;fill-opacity:1;fill-rule:nonzero;stroke:none"
     d="m 36.978713,680.51533 -0.08065,-0.11928 0.31914,-0.042 -1.164243,-0.95048 0.448779,1.43436 0.157839,-0.28054 0.08065,0.11924 0.23849,-0.16127" /><path
     id="path2531"
     style="fill:#000000;fill-opacity:1;fill-rule:nonzero;stroke:none"
     d="m 45.263951,680.53512 -0.06087,-0.1334 0.327618,0.0117 -1.008599,-1.15116 0.208343,1.51628 0.205886,-0.25509 0.06087,0.1334 0.266752,-0.12169" /><path
     id="path2533"
     style="fill:#000000;fill-opacity:1;fill-rule:nonzero;stroke:none"
     d="m 53.497098,680.57003 -0.02591,-0.0954 0.216759,0.0436 -0.545377,-0.87649 -0.02716,1.03197 0.164933,-0.14727 0.02591,0.0954 0.190847,-0.0518" /><path
     id="path2535"
     style="fill:#000000;fill-opacity:1;fill-rule:nonzero;stroke:none"
     d="m 61.98254,680.61227 -0.169017,0.26009 -0.309745,-0.0163 -0.140729,-0.27638 0.169016,-0.26008 0.309704,0.0163 0.140771,0.27642 -0.169017,0.26009" /><path
     id="path2537"
     style="fill:#000000;fill-opacity:1;fill-rule:nonzero;stroke:none"
     d="m 69.795207,680.74675 0.150769,0.14869 -0.448141,0.15289 1.953958,1.03456 -1.061841,-1.9393 -0.146562,0.45027 -0.15081,-0.14869 -0.297373,0.30158" /><path
     id="path2539"
     style="fill:#000000;fill-opacity:1;fill-rule:nonzero;stroke:none"
     d="m 78.002857,680.82224 1.277976,1.19799 -0.650528,0.24042 2.899276,1.44237 -1.626549,-2.80008 -0.197929,0.66469 -1.277976,-1.19795 -0.42427,0.45256" /><path
     id="path2545"
     style="fill:#000000;fill-opacity:1;fill-rule:nonzero;stroke:none"
     d="m 28.436691,687.06139 -0.158468,-0.26662 0.151669,-0.27055 0.310142,-0.004 0.158472,0.26667 -0.151669,0.27055 -0.310146,0.004 -0.158468,-0.26662" /><path
     id="path2547"
     style="fill:#000000;fill-opacity:1;fill-rule:nonzero;stroke:none"
     d="m 36.618279,686.98586 -0.04829,-0.30637 0.241193,-0.19505 0.289482,0.1114 0.04829,0.30637 -0.241194,0.19501 -0.289477,-0.11136 -0.04829,-0.30637" /><path
     id="path2549"
     style="fill:#000000;fill-opacity:1;fill-rule:nonzero;stroke:none"
     d="m 45.400347,686.94391 -0.267418,0.1571 -0.269793,-0.15306 -0.0023,-0.31016 0.267418,-0.1571 0.269793,0.15306 0.0023,0.31016 -0.267418,0.1571" /><path
     id="path2551"
     style="fill:#000000;fill-opacity:1;fill-rule:nonzero;stroke:none"
     d="m 53.334539,686.86692 0.07603,0.0672 -0.210385,0.0849 0.962064,0.44344 -0.559083,-0.89978 -0.05828,0.21925 -0.07603,-0.0671 -0.134313,0.15214" /><path
     id="path2553"
     style="fill:#000000;fill-opacity:1;fill-rule:nonzero;stroke:none"
     d="m 61.505653,686.95653 0.165683,0.1671 -0.499925,0.16419 2.158011,1.17428 -1.155244,-2.16826 -0.1686,0.49847 -0.165684,-0.16714 -0.334241,0.33136" /><path
     id="path2555"
     style="fill:#000000;fill-opacity:1;fill-rule:nonzero;stroke:none"
     d="m 69.728842,687.01436 1.062883,1.02268 -0.653611,0.23192 2.880237,1.48003 -1.589929,-2.82104 -0.206594,0.66207 -1.062883,-1.02268 -0.430103,0.44702" /><path
     id="path2563"
     style="fill:#000000;fill-opacity:1;fill-rule:nonzero;stroke:none"
     d="m 28.408462,693.55551 0.09324,0.17989 -0.453045,0.007 1.472118,1.51927 -0.392717,-2.07869 -0.26656,0.36636 -0.09324,-0.17989 -0.359801,0.18648" /><path
     id="path2565"
     style="fill:#000000;fill-opacity:1;fill-rule:nonzero;stroke:none"
     d="m 36.695188,693.57446 0.112213,0.16427 -0.440768,0.0602 1.614947,1.30614 -0.629273,-1.97938 -0.216351,0.38865 -0.112209,-0.16422 -0.328559,0.22438" /><path
     id="path2567"
     style="fill:#000000;fill-opacity:1;fill-rule:nonzero;stroke:none"
     d="m 44.945249,693.61683 0.154602,0.18531 -0.525214,0.12381 2.101603,1.38942 -0.989727,-2.31682 -0.216051,0.49447 -0.15456,-0.18531 -0.370653,0.30912" /><path
     id="path2569"
     style="fill:#000000;fill-opacity:1;fill-rule:nonzero;stroke:none"
     d="m 53.174896,693.67386 0.374027,0.40086 -0.665151,0.19639 2.796292,1.63305 -1.43562,-2.90261 -0.241963,0.64998 -0.374028,-0.40085 -0.453557,0.42318" /><path
     id="path2571"
     style="fill:#000000;fill-opacity:1;fill-rule:nonzero;stroke:none"
     d="m 61.45666,693.68474 1.426245,1.38542 -0.654735,0.22884 2.873154,1.49369 -1.576473,-2.82858 -0.209718,0.66107 -1.426246,-1.38542 -0.432227,0.44498" /><path
     id="path2581"
     style="fill:#000000;fill-opacity:1;fill-rule:nonzero;stroke:none"
     d="m 28.337473,699.83953 0.728787,1.0026 -0.684148,0.11386 2.576341,1.96179 -1.071007,-3.05601 -0.319411,0.61562 -0.728783,-1.0026 -0.501779,0.36474" /><path
     id="path2583"
     style="fill:#000000;fill-opacity:1;fill-rule:nonzero;stroke:none"
     d="m 36.619645,699.85382 0.851523,1.0383 -0.676341,0.15356 2.686362,1.80819 -1.247397,-2.98835 -0.282975,0.6332 -0.851522,-1.03826 -0.47965,0.39336" /><path
     id="path2585"
     style="fill:#000000;fill-opacity:1;fill-rule:nonzero;stroke:none"
     d="m 44.902297,699.86715 1.277559,1.38867 -0.666525,0.19172 2.784792,1.65267 -1.415205,-2.91265 -0.246505,0.64828 -1.277559,-1.38867 -0.456557,0.41998" /><path
     id="path2587"
     style="fill:#000000;fill-opacity:1;fill-rule:nonzero;stroke:none"
     d="m 53.185269,699.87935 2.073816,2.0197 -0.655028,0.22805 2.871197,1.49745 -1.572765,-2.83066 -0.210594,0.66077 -2.073815,-2.0197 -0.432811,0.44439" /><path
     id="path2589"
     style="fill:#000000;fill-opacity:1;fill-rule:nonzero;stroke:none"
     d="m 61.470449,699.89223 3.304674,2.84416 -0.63978,0.26787 2.957892,1.31802 -1.743906,-2.72856 -0.169558,0.67249 -3.304674,-2.84416 -0.404648,0.47018" /></g><path
   d="m 133.57718,705.51338 82.71107,0 0,-44.47612 -82.71107,0 0,44.47612"
   style="fill:#ffffff;fill-opacity:1;fill-rule:nonzero;stroke:none"
   id="path2747" /><path
   d="m 183.31044,704.9044 -0.30554,0.0533 -0.10661,0.29125 0.19893,0.23797 0.30558,-0.0533 0.10661,-0.2913 -0.19897,-0.23796 -0.30554,0.0533"
   style="fill:#000000;fill-opacity:1;fill-rule:nonzero;stroke:none"
   id="path2767" /><path
   d="m 191.31716,705.02985 0.16585,-0.15778 -0.48143,-0.17393 2.13176,-1.08042 -1.18502,2.07548 -0.14973,-0.48947 -0.16585,0.15777 -0.31558,-0.33165"
   style="fill:#000000;fill-opacity:1;fill-rule:nonzero;stroke:none"
   id="path2769" /><path
   d="m 142.15157,699.06578 -0.67806,3.1639 0.67156,-0.17331 -1.55985,2.83784 -0.25984,-3.22783 0.54155,0.43327 0.67811,-3.16385 0.60653,0.12998"
   style="fill:#000000;fill-opacity:1;fill-rule:nonzero;stroke:none"
   id="path2775" /><path
   d="m 150.41422,699.09719 -0.76122,2.32778 0.68597,-0.10199 -1.84846,2.65882 0.0796,-3.23723 0.49322,0.48759 0.76122,-2.32778 0.58962,0.19281"
   style="fill:#000000;fill-opacity:1;fill-rule:nonzero;stroke:none"
   id="path2777" /><path
   d="m 158.67397,699.12672 -0.48208,1.08484 0.69285,-0.0315 -2.10986,2.45656 0.40921,-3.21223 0.44092,0.5353 0.48206,-1.0848 0.5669,0.25187"
   style="fill:#000000;fill-opacity:1;fill-rule:nonzero;stroke:none"
   id="path2779" /><path
   d="m 166.87163,699.11814 -0.11735,0.21006 0.53743,0.0247 -1.80383,1.74808 0.54367,-2.45231 0.30267,0.44476 0.1174,-0.21 0.42001,0.23471"
   style="fill:#000000;fill-opacity:1;fill-rule:nonzero;stroke:none"
   id="path2781" /><path
   d="m 174.98838,699.03295 -0.0322,0.0556 0.14339,0.009 -0.4883,0.45993 0.15451,-0.65278 0.0791,0.11991 0.0322,-0.0556 0.11128,0.0643"
   style="fill:#000000;fill-opacity:1;fill-rule:nonzero;stroke:none"
   id="path2783" /><path
   d="m 183.11471,698.91206 0.0888,-0.0891 -0.26696,-0.0884 1.15471,-0.6249 -0.62008,1.15733 -0.0895,-0.26659 -0.0888,0.0891 -0.17822,-0.17746"
   style="fill:#000000;fill-opacity:1;fill-rule:nonzero;stroke:none"
   id="path2785" /><path
   d="m 191.26495,698.77248 0.33396,-0.30715 -0.64824,-0.24656 2.9127,-1.41503 -1.6528,2.78467 -0.19168,-0.66653 -0.33395,0.30716 -0.41999,-0.45656"
   style="fill:#000000;fill-opacity:1;fill-rule:nonzero;stroke:none"
   id="path2787" /><path
   d="m 142.15137,692.3954 -0.30016,1.37783 0.6721,-0.17101 -1.56936,2.83253 -0.24896,-3.22868 0.54009,0.43515 0.30016,-1.37785 0.60613,0.13203"
   style="fill:#000000;fill-opacity:1;fill-rule:nonzero;stroke:none"
   id="path2793" /><path
   d="m 150.4163,692.41918 -0.21272,0.70307 0.68362,-0.11728 -1.78883,2.69935 0.008,-3.23823 0.50393,0.47652 0.21268,-0.70307 0.59378,0.17964"
   style="fill:#000000;fill-opacity:1;fill-rule:nonzero;stroke:none"
   id="path2795" /><path
   d="m 158.61679,692.41473 -0.0853,0.22626 0.53788,-0.0556 -1.53227,2.00674 0.1746,-2.51881 0.36723,0.39696 0.0853,-0.22626 0.45257,0.17068"
   style="fill:#000000;fill-opacity:1;fill-rule:nonzero;stroke:none"
   id="path2797" /><path
   d="m 166.75595,692.36328 -0.0339,0.0944 0.22263,-0.0265 -0.62235,0.84163 0.0563,-1.04522 0.15477,0.16222 0.034,-0.0944 0.18864,0.0679"
   style="fill:#000000;fill-opacity:1;fill-rule:nonzero;stroke:none"
   id="path2799" /><path
   d="m 174.88915,692.27716 0.0522,-0.0436 -0.1394,-0.0608 0.65292,-0.27926 -0.39138,0.59255 -0.035,-0.14802 -0.0522,0.0436 -0.0872,-0.1044"
   style="fill:#000000;fill-opacity:1;fill-rule:nonzero;stroke:none"
   id="path2801" /><path
   d="m 183.02618,692.15943 0.16994,-0.17764 -0.52525,-0.16222 2.23232,-1.26673 -1.1664,2.28633 -0.18535,-0.51751 -0.16994,0.17764 -0.35532,-0.33987"
   style="fill:#000000;fill-opacity:1;fill-rule:nonzero;stroke:none"
   id="path2803" /><path
   d="m 142.09133,686.19531 -0.0608,0.24306 0.54687,-0.1214 -1.33742,2.24774 -0.12074,-2.61272 0.42524,0.36469 0.0608,-0.24306 0.48605,0.12169"
   style="fill:#000000;fill-opacity:1;fill-rule:nonzero;stroke:none"
   id="path2811" /><path
   d="m 150.30195,686.18857 -0.0541,0.18256 0.41914,-0.0743 -1.08857,1.66293 -0.007,-1.98759 0.31097,0.29076 0.0541,-0.18252 0.36508,0.10819"
   style="fill:#000000;fill-opacity:1;fill-rule:nonzero;stroke:none"
   id="path2813" /><path
   d="m 158.4788,686.15829 -0.0238,0.0883 0.20042,-0.0407 -0.50284,0.81162 -0.027,-0.95435 0.1528,0.13586 0.0238,-0.0883 0.17659,0.0476"
   style="fill:#000000;fill-opacity:1;fill-rule:nonzero;stroke:none"
   id="path2815" /><path
   d="m 166.90876,685.94706 -0.28587,-0.12031 -0.24714,0.18742 0.0387,0.30771 0.28588,0.12032 0.24714,-0.18738 -0.0387,-0.30776 -0.28587,-0.12031"
   style="fill:#000000;fill-opacity:1;fill-rule:nonzero;stroke:none"
   id="path2817" /><path
   d="m 174.78229,686.01068 0.12381,-0.15044 -0.42468,-0.0971 1.68933,-1.13297 -0.78671,1.87577 -0.17706,-0.39807 -0.12381,0.15044 -0.30088,-0.24759"
   style="fill:#000000;fill-opacity:1;fill-rule:nonzero;stroke:none"
   id="path2819" /><path
   d="m 182.97065,685.92999 0.564,-0.6432 -0.67086,-0.17581 2.74459,-1.7185 -1.34542,2.94548 -0.26187,-0.64219 -0.56405,0.6432 -0.46639,-0.40898"
   style="fill:#000000;fill-opacity:1;fill-rule:nonzero;stroke:none"
   id="path2821" /><path
   d="m 141.92286,679.97605 -0.0365,0.0746 0.1856,-0.002 -0.58828,0.63627 0.14089,-0.85503 0.11265,0.14748 0.0365,-0.0746 0.1491,0.0729"
   style="fill:#000000;fill-opacity:1;fill-rule:nonzero;stroke:none"
   id="path2829" /><path
   d="m 149.97345,680.21329 0.31003,-0.0104 0.14594,-0.27371 -0.16406,-0.26321 -0.30999,0.0104 -0.14594,0.27367 0.16402,0.26325 0.31003,-0.0104"
   style="fill:#000000;fill-opacity:1;fill-rule:nonzero;stroke:none"
   id="path2831" /><path
   d="m 158.33358,679.90926 0.0303,-0.0569 -0.14419,-0.004 0.47394,-0.47834 -0.13237,0.66023 -0.0835,-0.11757 -0.0303,0.057 -0.11385,-0.0607"
   style="fill:#000000;fill-opacity:1;fill-rule:nonzero;stroke:none"
   id="path2833" /><path
   d="m 166.5041,679.84251 0.0971,-0.15755 -0.4121,-0.0366 1.44337,-1.28402 -0.49826,1.86647 -0.21797,-0.35169 -0.0971,0.15751 -0.31505,-0.19414"
   style="fill:#000000;fill-opacity:1;fill-rule:nonzero;stroke:none"
   id="path2835" /><path
   d="m 174.67922,679.76086 0.28459,-0.40364 -0.68573,-0.10391 2.54761,-1.9989 -1.02659,3.07115 -0.32828,-0.6109 -0.28459,0.40365 -0.50701,-0.35745"
   style="fill:#000000;fill-opacity:1;fill-rule:nonzero;stroke:none"
   id="path2837" /><path
   d="m 141.74073,673.28212 -0.014,-0.10757 -0.20118,0.13548 0.18323,-1.11762 0.46222,1.03393 -0.2291,-0.0797 0.014,0.10757 -0.21516,0.0279"
   style="fill:#000000;fill-opacity:1;fill-rule:nonzero;stroke:none"
   id="path2847" /><path
   d="m 149.96903,673.24209 0.0261,-0.15036 -0.32687,0.0982 0.71194,-1.42558 0.19038,1.58206 -0.27471,-0.2025 -0.0261,0.15034 -0.30076,-0.0521"
   style="fill:#000000;fill-opacity:1;fill-rule:nonzero;stroke:none"
   id="path2849" /><path
   d="m 158.17126,673.1866 0.0816,-0.21926 -0.52014,0.0561 1.47362,-1.94797 -0.15803,2.43743 -0.35693,-0.38244 -0.0816,0.21929 -0.43852,-0.16317"
   style="fill:#000000;fill-opacity:1;fill-rule:nonzero;stroke:none"
   id="path2851" /><path
   d="m 166.38542,673.12705 0.29783,-0.58303 -0.69356,-0.006 2.23965,-2.33885 -0.58236,3.18544 -0.41131,-0.55837 -0.29784,0.58299 -0.55241,-0.28222"
   style="fill:#000000;fill-opacity:1;fill-rule:nonzero;stroke:none"
   id="path2853" /><path
   d="m 141.57113,667.06913 0.004,-0.27717 -0.55853,0.26888 0.87308,-2.75939 0.79004,2.7843 -0.55021,-0.2855 -0.004,0.27717 -0.55436,-0.008"
   style="fill:#000000;fill-opacity:1;fill-rule:nonzero;stroke:none"
   id="path2865" /><path
   d="m 149.8143,667.01743 0.0723,-0.39498 -0.66607,0.19338 1.47383,-2.8834 0.35677,3.21852 -0.55432,-0.41676 -0.0723,0.39497 -0.61021,-0.11173"
   style="fill:#000000;fill-opacity:1;fill-rule:nonzero;stroke:none"
   id="path2867" /><path
   d="m 158.09603,666.97593 0.36066,-1.09088 -0.68636,0.0997 1.85709,-2.65277 -0.0901,3.23693 -0.49159,-0.48917 -0.36065,1.09088 -0.589,-0.19473"
   style="fill:#000000;fill-opacity:1;fill-rule:nonzero;stroke:none"
   id="path2869" /><path
   d="m 222.92001,686.43386 3.79565,0 -0.31017,0.62037 3.10167,-0.93053 -3.10167,-0.93049 0.31017,0.62033 -3.79565,0 0,0.62032"
   style="fill:#000000;fill-opacity:1;fill-rule:nonzero;stroke:none"
   id="path2891" /><path
   style="fill:#000000;fill-opacity:1;fill-rule:nonzero;stroke:none"
   d="m 35.45,621.275 -1.75,2.575 -0.35,-0.6 -0.4,1.3 1.65,0 0.3,-0.25 -0.675,-0.1 1.725,-2.575 -0.5,-0.35 z"
   id="path3053"
   sodipodi:nodetypes="ccccccccc" /><path
   style="fill:#000000;fill-opacity:1;fill-rule:nonzero;stroke:none"
   d="m 49.225,621.3 -1.7,2.8 -0.375,-0.575 -0.25,1.025 1.775,0 0.075,-0.075 -0.7,-0.05 1.7,-2.8 -0.525,-0.325 z"
   id="path3055"
   sodipodi:nodetypes="ccccccccc" /><path
   style="fill:#000000;fill-opacity:1;fill-rule:nonzero;stroke:none"
   d="M 63,621.3 61.375,624.275 61,623.7 l -0.175,0.85 1.8,0.05 -0.7,-0.025 0.025,-0.025 1.6,-2.95 -0.55,-0.3 z"
   id="path3057"
   sodipodi:nodetypes="ccccccccc" /><path
   style="fill:#000000;fill-opacity:1;fill-rule:nonzero;stroke:none"
   d="m 76.775,621.325 -1.5,3 -0.4,-0.55 -0.125,0.775 1.775,0.05 -0.675,0 0.025,-0.05 1.45,-2.95 -0.55,-0.275 z"
   id="path3059"
   sodipodi:nodetypes="ccccccccc" /><path
   style="fill:#000000;fill-opacity:1;fill-rule:nonzero;stroke:none"
   d="m 90.55,621.325 -1.325,2.925 -0.425,-0.525 -0.125,0.85 1.725,0 0.07496,-0.075 -0.675,0.025 1.325,-2.95 -0.575,-0.25 z"
   id="path3061"
   sodipodi:nodetypes="ccccccccc" /><path
   style="fill:#000000;fill-opacity:1;fill-rule:nonzero;stroke:none"
   d="m 104.35,621.325 -1.15,2.725 -0.45,-0.525 -0.1,1 1.6,0 0.225,-0.275 -0.7,0.05 0.6,-1.275 -0.025,-1.7 z"
   id="path3063"
   sodipodi:nodetypes="ccccccccc" /><path
   d="m 35.92942,611.26438 -0.185801,0.22701 0.63978,0.1446 -2.539001,1.7125 1.177075,-2.82729 0.268172,0.59858 0.185802,-0.22697 0.453973,0.37157"
   style="fill:#000000;fill-opacity:1;fill-rule:nonzero;stroke:none"
   id="path3067" /><path
   d="m 49.733356,611.24422 -0.1656,0.24576 0.657152,0.0855 -2.393434,1.96075 0.918862,-2.95443 0.32591,0.57695 0.1656,-0.24575 0.49151,0.33124"
   style="fill:#000000;fill-opacity:1;fill-rule:nonzero;stroke:none"
   id="path3069" /><path
   d="m 63.526465,611.22068 -0.142104,0.25371 0.649486,0.0305 -2.182007,2.11052 0.659901,-2.9631 0.365279,0.53788 0.142104,-0.25367 0.507341,0.28416"
   style="fill:#000000;fill-opacity:1;fill-rule:nonzero;stroke:none"
   id="path3071" /><path
   d="m 77.30795,611.19344 -0.114816,0.24996 0.614825,-0.0204 -1.898134,2.15551 0.398149,-2.84437 0.385193,0.4796 0.114816,-0.24997 0.499967,0.22964"
   style="fill:#000000;fill-opacity:1;fill-rule:nonzero;stroke:none"
   id="path3073" /><path
   d="m 91.077145,611.16186 -0.08324,0.23396 0.551251,-0.0675 -1.534396,2.09027 0.130355,-2.58969 0.384776,0.40044 0.08324,-0.23397 0.468013,0.16648"
   style="fill:#000000;fill-opacity:1;fill-rule:nonzero;stroke:none"
   id="path3075" /><path
   d="m 21.874422,602.23219 -0.04881,-0.0428 -0.03686,0.14044 -0.359567,-0.57479 0.616579,0.28196 -0.134476,0.0548 0.04881,0.0428 -0.08567,0.0976"
   style="fill:#000000;fill-opacity:1;fill-rule:nonzero;stroke:none"
   id="path3079" /><path
   d="m 35.46124,601.98835 -0.04828,0.30641 0.241193,0.19502 0.289478,-0.1114 0.04829,-0.30637 -0.241193,-0.19502 -0.289482,0.11136 -0.04828,0.30641"
   style="fill:#000000;fill-opacity:1;fill-rule:nonzero;stroke:none"
   id="path3081" /><path
   d="m 49.380076,601.89245 -0.198179,0.23859 0.107526,0.29091 0.305704,0.0524 0.19822,-0.23859 -0.107567,-0.29096 -0.305704,-0.0523 -0.198179,0.23859"
   style="fill:#000000;fill-opacity:1;fill-rule:nonzero;stroke:none"
   id="path3083" /><path
   d="m 63.52859,602.00797 -0.279792,-0.13381 -0.255837,0.17539 0.02404,0.30925 0.279792,0.13381 0.255795,-0.17539 -0.024,-0.30925 -0.279792,-0.13381"
   style="fill:#000000;fill-opacity:1;fill-rule:nonzero;stroke:none"
   id="path3085" /><path
   d="m 77.029533,602.12783 0.05553,-0.0284 -0.1124,-0.0826 0.640571,-0.11774 -0.469972,0.45089 -0.0013,-0.13948 -0.05553,0.0284 -0.05687,-0.11107"
   style="fill:#000000;fill-opacity:1;fill-rule:nonzero;stroke:none"
   id="path3087" /><path
   d="m 90.790063,602.08988 0.09353,-0.0531 -0.199637,-0.13398 1.094378,-0.25004 -0.776009,0.81117 -0.01258,-0.24013 -0.09353,0.0531 -0.106151,-0.18701"
   style="fill:#000000;fill-opacity:1;fill-rule:nonzero;stroke:none"
   id="path3089" /><path
   d="m 21.638357,591.66989 0.479737,-0.98585 -0.693513,0.007 2.193847,-2.38186 -0.520455,3.19615 -0.422083,-0.55033 -0.479733,0.98585 -0.5578,-0.27142"
   style="fill:#000000;fill-opacity:1;fill-rule:nonzero;stroke:none"
   id="path3093" /><path
   d="m 35.432978,591.65202 0.553276,-0.97052 -0.692526,-0.0378 2.344483,-2.23375 -0.727745,3.1554 -0.385301,-0.57666 -0.553276,0.97052 -0.538911,-0.3072"
   style="fill:#000000;fill-opacity:1;fill-rule:nonzero;stroke:none"
   id="path3095" /><path
   d="m 49.228015,591.63585 0.692064,-1.05834 -0.688939,-0.0799 2.476297,-2.08665 -0.918738,3.10516 -0.349448,-0.59912 -0.692063,1.05835 -0.519173,-0.3395"
   style="fill:#000000;fill-opacity:1;fill-rule:nonzero;stroke:none"
   id="path3097" /><path
   d="m 63.022415,591.62256 0.909489,-1.24398 -0.683856,-0.11573 2.581781,-1.95467 -1.079463,3.05301 -0.317703,-0.61649 -0.909489,1.24398 -0.500759,-0.36612"
   style="fill:#000000;fill-opacity:1;fill-rule:nonzero;stroke:none"
   id="path3099" /><path
   d="m 76.815315,591.61244 1.213194,-1.52377 -0.678482,-0.14373 2.659895,-1.84693 -1.203987,3.00609 -0.292123,-0.62903 -1.213194,1.52373 -0.485303,-0.38636"
   style="fill:#000000;fill-opacity:1;fill-rule:nonzero;stroke:none"
   id="path3101" /><path
   d="m 90.606424,591.60519 1.60626,-1.8973 -0.673816,-0.1641 2.714262,-1.76598 -1.293932,2.96847 -0.273043,-0.63757 -1.606302,1.8973 -0.473429,-0.40082"
   style="fill:#000000;fill-opacity:1;fill-rule:nonzero;stroke:none"
   id="path3103" /><path
   style="fill:#000000;fill-opacity:1;fill-rule:nonzero;stroke:none"
   d="m 24.475,576.85 -2.825,4.4 0.525,0.35 2.825,-4.425 0.35,0.6 0.3,-1.05 -1.175,0.125 z"
   id="path3107"
   sodipodi:nodetypes="ccccccc" /><path
   style="fill:#000000;fill-opacity:1;fill-rule:nonzero;stroke:none"
   d="m 38.125,576.775 0.35,0.05 -3.025,4.425 0.5,0.35 3.025,-4.425 0.35,0.6 0.325,-1 -1.525,0 z"
   id="path3109"
   sodipodi:nodetypes="cccccccc" /><path
   style="fill:#000000;fill-opacity:1;fill-rule:nonzero;stroke:none"
   d="m 52.525,576.7 -0.05,0.075 -3.25,4.475 0.525,0.35 3.275,-4.525 0.325,0.6 0.325,-0.9 -1.15,-0.075 z"
   id="path3111"
   sodipodi:nodetypes="cccccccc" /><path
   style="fill:#000000;fill-opacity:1;fill-rule:nonzero;stroke:none"
   d="m 66.45,576.775 -3.425,4.475 0.5,0.375 3.625,-4.775 0.3,0.625 0.275,-0.7 -1.275,0 z"
   id="path3113"
   sodipodi:nodetypes="ccccccc" /><path
   style="fill:#000000;fill-opacity:1;fill-rule:nonzero;stroke:none"
   d="m 80.4,576.775 -3.575,4.45 0.475,0.4 3.9,-4.85 -0.8,0 z"
   id="path3115"
   sodipodi:nodetypes="ccccc" /><path
   style="fill:#000000;fill-opacity:1;fill-rule:nonzero;stroke:none"
   d="m 94.35,576.725 -3.75,4.5 0.475,0.4 4.1,-4.9 -0.825,0 z"
   id="path3117"
   sodipodi:nodetypes="ccccc" /><path
   style="fill:#000000;fill-opacity:1;fill-rule:nonzero;stroke:none"
   d="m 147.075,621.2 -0.95,3.2 0.625,0 0.9,-3.025 -0.575,-0.175 z"
   id="path3295"
   sodipodi:nodetypes="ccccc" /><path
   style="fill:#000000;fill-opacity:1;fill-rule:nonzero;stroke:none"
   d="m 160.85,621.2 -0.95,3.175 0.625,0 0.925,-3 -0.6,-0.175 z"
   id="path3297"
   sodipodi:nodetypes="ccccc" /><path
   style="fill:#000000;fill-opacity:1;fill-rule:nonzero;stroke:none"
   d="m 174.625,621.2 -0.975,3.175 -0.5,-0.475 0,0.55 1.1,0.125 0.05,-0.125 0.925,-3.075 -0.6,-0.175 z"
   id="path3299"
   sodipodi:nodetypes="cccccccc" /><path
   style="fill:#000000;fill-opacity:1;fill-rule:nonzero;stroke:none"
   d="m 188.425,621.2 -0.65,2.15 -0.5,-0.475 0,1.525 1.125,0 0.65,-1 -0.675,0.125 0.65,-2.15 -0.6,-0.175 z"
   id="path3301"
   sodipodi:nodetypes="ccccccccc" /><path
   style="fill:#000000;fill-opacity:1;fill-rule:nonzero;stroke:none"
   d="m 202.2,621.2 -0.275,1.025 -0.525,-0.45 0.075,2.625 0.4,0 1.325,-2.15 -0.675,0.15 0.275,-1.05 -0.6,-0.15 z"
   id="path3303"
   sodipodi:nodetypes="ccccccccc" /><path
   d="m 147.65787,610.99781 -0.46385,1.45529 0.68523,-0.10715 -1.82856,2.67256 0.0554,-3.23773 0.49684,0.48389 0.46385,-1.45529 0.59104,0.18843"
   style="fill:#000000;fill-opacity:1;fill-rule:nonzero;stroke:none"
   id="path3309" /><path
   d="m 161.44414,610.9944 -0.19551,0.63882 0.68394,-0.11507 -1.79748,2.6936 0.018,-3.23818 0.50238,0.47809 0.19551,-0.63882 0.5932,0.18156"
   style="fill:#000000;fill-opacity:1;fill-rule:nonzero;stroke:none"
   id="path3311" /><path
   d="m 175.17522,610.96886 -0.0653,0.24251 0.55025,-0.11195 -1.38025,2.229 -0.0747,-2.62065 0.41969,0.37303 0.0653,-0.24246 0.48497,0.13052"
   style="fill:#000000;fill-opacity:1;fill-rule:nonzero;stroke:none"
   id="path3313" /><path
   d="m 188.86514,610.92649 -0.0229,0.14727 0.31742,-0.10144 -0.6709,1.40387 -0.21264,-1.54131 0.27159,0.19305 0.0229,-0.14722 0.2945,0.0458"
   style="fill:#000000;fill-opacity:1;fill-rule:nonzero;stroke:none"
   id="path3315" /><path
   d="m 202.65658,611.17312 0.15664,-0.26767 -0.15348,-0.26954 -0.31016,-0.002 -0.15668,0.26767 0.15347,0.26954 0.31021,0.002 0.15664,-0.26767"
   style="fill:#000000;fill-opacity:1;fill-rule:nonzero;stroke:none"
   id="path3317" /><path
   d="m 147.46252,602.06177 -0.0534,0.10015 0.25367,0.007 -0.83437,0.84121 0.23355,-1.16158 0.14689,0.20693 0.0534,-0.10011 0.2003,0.10677"
   style="fill:#000000;fill-opacity:1;fill-rule:nonzero;stroke:none"
   id="path3323" /><path
   d="m 160.97692,602.26741 0.30962,0.0182 0.17064,-0.25905 -0.13902,-0.27725 -0.30962,-0.0183 -0.17064,0.25901 0.13902,0.27729 0.30962,0.0182"
   style="fill:#000000;fill-opacity:1;fill-rule:nonzero;stroke:none"
   id="path3325" /><path
   d="m 174.87577,601.9827 0.0257,-0.057 -0.13956,0.006 0.42756,-0.49256 -0.0858,0.64657 -0.0883,-0.10831 -0.0257,0.057 -0.1139,-0.0514"
   style="fill:#000000;fill-opacity:1;fill-rule:nonzero;stroke:none"
   id="path3327" /><path
   d="m 188.57214,601.93458 0.0738,-0.14577 -0.36532,-0.002 1.17528,-1.23615 -0.30074,1.67896 -0.21772,-0.29337 -0.0738,0.14577 -0.2915,-0.14761"
   style="fill:#000000;fill-opacity:1;fill-rule:nonzero;stroke:none"
   id="path3329" /><path
   d="m 202.26255,601.8803 0.12811,-0.24046 -0.60908,-0.0156 2.00208,-2.02078 -0.55908,2.78913 -0.35295,-0.49664 -0.12806,0.24051 -0.48102,-0.25613"
   style="fill:#000000;fill-opacity:1;fill-rule:nonzero;stroke:none"
   id="path3331" /><path
   d="m 147.09616,591.59929 0.0313,-0.26617 -0.56367,0.20356 1.11171,-2.56791 0.48539,2.75579 -0.50105,-0.32882 -0.0313,0.26621 -0.53238,-0.0627"
   style="fill:#000000;fill-opacity:1;fill-rule:nonzero;stroke:none"
   id="path3337" /><path
   d="m 160.84503,591.56226 0.14185,-0.62795 -0.67344,0.16585 1.59122,-2.82033 0.22405,3.23048 -0.53675,-0.43927 -0.1419,0.62795 -0.60503,-0.13673"
   style="fill:#000000;fill-opacity:1;fill-rule:nonzero;stroke:none"
   id="path3339" /><path
   d="m 174.63601,591.5403 0.43768,-1.43783 -0.68377,0.11607 1.79348,-2.69622 -0.0131,3.23818 -0.50313,-0.47734 -0.43769,1.43778 -0.59345,-0.18064"
   style="fill:#000000;fill-opacity:1;fill-rule:nonzero;stroke:none"
   id="path3341" /><path
   d="m 188.42649,591.52439 0.84075,-2.30612 -0.68902,0.0789 1.93659,-2.59532 -0.18818,3.23276 -0.47656,-0.50388 -0.84075,2.30611 -0.58283,-0.21246"
   style="fill:#000000;fill-opacity:1;fill-rule:nonzero;stroke:none"
   id="path3343" /><path
   d="m 202.21639,591.51218 1.33281,-3.22623 -0.69178,0.0498 2.04428,-2.51138 -0.32424,3.22194 -0.45493,-0.52351 -1.33276,3.22623 -0.57338,-0.23684"
   style="fill:#000000;fill-opacity:1;fill-rule:nonzero;stroke:none"
   id="path3345" /><path
   d="m 133.26881,581.21947 0.32616,-3.01164 -0.33535,-0.50427 0.47215,-1.11878 0.69382,0.0751 0.0739,0.39798 0.29556,1.59191 -0.58333,-0.37515 -0.32616,3.01159 -0.61674,-0.0668"
   style="fill:#000000;fill-opacity:1;fill-rule:nonzero;stroke:none"
   id="path3349"
   sodipodi:nodetypes="cccccccccc" /><path
   d="m 147.05675,581.19984 0.6247,-3.60267 -0.66419,0.19964 0.54253,-1.08642 1.12184,-0.002 0.16927,1.40659 -0.55825,-0.41156 -0.6247,3.60263 -0.6112,-0.10599"
   style="fill:#000000;fill-opacity:1;fill-rule:nonzero;stroke:none"
   id="path3351"
   sodipodi:nodetypes="ccccccccc" /><path
   style="fill:#000000;fill-opacity:1;fill-rule:nonzero;stroke:none"
   d="m 161.45,576.55 -0.3,0.525 0.675,-0.15 -0.975,4.25 0.6,0.15 1,-4.275 0.525,0.45 -0.05,-0.95 -1.475,0 z"
   id="path3353"
   sodipodi:nodetypes="ccccccccc" /><path
   style="fill:#000000;fill-opacity:1;fill-rule:nonzero;stroke:none"
   d="m 175.925,576.625 -1.3,4.55 0.6,0.15 1.35,-4.7 -0.65,0 z"
   id="path3355"
   sodipodi:nodetypes="ccccc" /><path
   style="fill:#000000;fill-opacity:1;fill-rule:nonzero;stroke:none"
   d="m 189.925,576.6 -1.5,4.55 0.575,0.2 1.575,-4.75 -0.65,0 z"
   id="path3357"
   sodipodi:nodetypes="ccccc" /><path
   style="fill:#000000;fill-opacity:1;fill-rule:nonzero;stroke:none"
   d="m 203.9,576.6 -1.7,4.55 0.6,0.2 1.775,-4.75 -0.675,0 z"
   id="path3359"
   sodipodi:nodetypes="ccccc" /><path
   d="m 223.43077,604.07206 2.77417,0 -0.31016,0.62033 3.10162,-0.93049 -3.10162,-0.93048 0.31016,0.62032 -2.77417,0 0,0.62032"
   style="fill:#000000;fill-opacity:1;fill-rule:nonzero;stroke:none"
   id="path3371" /><g
   id="g2778"
   transform="translate(1.6,0)"><g
   transform="translate(1.6,-68.8)"
   id="g9862"><text
   sodipodi:linespacing="125%"
   id="text13353"
   y="-728.02039"
   x="9.6306324"
   style="font-size:6.4000001px;font-style:normal;font-variant:normal;font-weight:normal;font-stretch:normal;text-align:start;line-height:125%;writing-mode:lr-tb;text-anchor:start;fill:#000000;fill-opacity:1;stroke:none;font-family:Helvetica Neue;-inkscape-font-specification:Helvetica Neue"
   xml:space="preserve"
   transform="scale(1,-1)"><tspan
     y="-728.02039"
     x="9.6306324"
     id="tspan13355"
     sodipodi:role="line">38</tspan></text>






<text
   sodipodi:linespacing="125%"
   id="text13357"
   y="-740.96295"
   x="9.4699631"
   style="font-size:6.4000001px;font-style:normal;font-variant:normal;font-weight:normal;font-stretch:normal;text-align:start;line-height:125%;writing-mode:lr-tb;text-anchor:start;fill:#000000;fill-opacity:1;stroke:none;font-family:Helvetica Neue;-inkscape-font-specification:Helvetica Neue"
   xml:space="preserve"
   transform="scale(1,-1)"><tspan
     y="-740.96295"
     x="9.4699631"
     id="tspan13359"
     sodipodi:role="line">34</tspan></text>






<text
   sodipodi:linespacing="125%"
   id="text13361"
   y="-753.72314"
   x="9.4699631"
   style="font-size:6.4000001px;font-style:normal;font-variant:normal;font-weight:normal;font-stretch:normal;text-align:start;line-height:125%;writing-mode:lr-tb;text-anchor:start;fill:#000000;fill-opacity:1;stroke:none;font-family:Helvetica Neue;-inkscape-font-specification:Helvetica Neue"
   xml:space="preserve"
   transform="scale(1,-1)"><tspan
     y="-753.72314"
     x="9.4699631"
     id="tspan13363"
     sodipodi:role="line">30</tspan></text>






<text
   sodipodi:linespacing="125%"
   id="text13365"
   y="-767.11249"
   x="9.52141"
   style="font-size:6.4000001px;font-style:normal;font-variant:normal;font-weight:normal;font-stretch:normal;text-align:start;line-height:125%;writing-mode:lr-tb;text-anchor:start;fill:#000000;fill-opacity:1;stroke:none;font-family:Helvetica Neue;-inkscape-font-specification:Helvetica Neue"
   xml:space="preserve"
   transform="scale(1,-1)"><tspan
     y="-767.11249"
     x="9.52141"
     id="tspan13367"
     sodipodi:role="line">26</tspan></text>






<path
   d="m 18.305944,768.38117 1.747367,0"
   style="fill:none;stroke:#000000;stroke-width:0.5;stroke-linecap:butt;stroke-linejoin:round;stroke-miterlimit:10;stroke-opacity:1;stroke-dasharray:none"
   id="path8367" /><path
   id="path9725"
   style="fill:none;stroke:#000000;stroke-width:0.5;stroke-linecap:butt;stroke-linejoin:round;stroke-miterlimit:10;stroke-opacity:1;stroke-dasharray:none"
   d="m 18.305944,755.54125 1.747367,0" /><path
   d="m 18.305944,742.70133 1.747367,0"
   style="fill:none;stroke:#000000;stroke-width:0.5;stroke-linecap:butt;stroke-linejoin:round;stroke-miterlimit:10;stroke-opacity:1;stroke-dasharray:none"
   id="path9727" /><path
   id="path9729"
   style="fill:none;stroke:#000000;stroke-width:0.5;stroke-linecap:butt;stroke-linejoin:round;stroke-miterlimit:10;stroke-opacity:1;stroke-dasharray:none"
   d="m 18.305944,729.8614 1.747367,0" /></g><g
   transform="matrix(0.9309447,0,0,0.9309447,-2.913284,-61.029961)"
   id="g9768"><path
     id="path4036"
     style="fill:#000000;fill-opacity:1;fill-rule:nonzero;stroke:none"
     d="m 9.4806627,784.86177 c 0,-0.36786 -0.131379,-0.66564 -0.411655,-0.87586 -0.271518,-0.2102 -0.5955847,-0.31529 -0.9809577,-0.31529 -0.367861,0 -0.7619905,0.0963 -1.164889,0.28902 -0.4028856,0.19269 -0.7357093,0.44668 -0.9984708,0.77951 -0.2627616,0.33282 -0.4028986,0.68317 -0.4028986,1.06854 0,0.17518 0.05255,0.32407 0.1489061,0.4642 0.096343,0.14019 0.218955,0.24524 0.3766173,0.32407 l -1.9531608,0.49048 c -0.096343,0.0176 -0.1751744,0.035 -0.2364802,0.0438 -0.087587,0 -0.1401366,-0.1927 -0.1401366,-0.56931 0,-0.0613 -0.035037,-0.0877 -0.1138684,-0.0877 -0.017512,0 -0.043793,0 -0.078818,0.0176 -0.035038,0.009 -0.061318,0.0176 -0.078832,0.035 -0.017512,0.0176 -0.035037,0.035 -0.035037,0.0701 l -0.096343,1.18241 c 0,0.0701 0.043793,0.10506 0.1138683,0.10506 l 5.0361587,-1.26123 c 0.105112,-0.0438 0.24525,-0.0613 0.4204117,-0.0613 0.254005,0 0.376616,0.0789 0.376616,0.25401 0,0.17517 -0.113847,0.3153 -0.350335,0.41165 -0.2277237,0.0963 -0.4992427,0.17516 -0.8057837,0.24524 -0.03503,0.009 -0.05256,0.035 -0.05256,0.0701 l 0,0.10507 c 0,0.0176 0.01753,0.035 0.03503,0.0525 0.01753,0.0176 0.03503,0.0263 0.05255,0.0263 0.411655,-0.10507 0.7357207,-0.21896 0.9809577,-0.34159 0.24525,-0.12263 0.359106,-0.31531 0.359106,-0.58683 0,-0.20144 -0.0613,-0.37662 -0.16642,-0.52551 -0.105097,-0.1489 -0.262748,-0.24523 -0.455434,-0.28028 0.42041,-0.37662 0.621854,-0.75322 0.621854,-1.12984 m -0.21897,0.009 c 0,0.21021 -0.07882,0.41165 -0.236479,0.61309 -0.15765,0.1927 -0.3415797,0.36787 -0.5605477,0.508 0,0 -0.01752,0.009 -0.03503,0.009 l -1.9268916,0.48173 c -0.2014427,-0.0351 -0.3766171,-0.11384 -0.5255102,-0.22772 -0.1488931,-0.12263 -0.2277241,-0.27152 -0.2277241,-0.46422 0,-0.20144 0.087587,-0.38537 0.2452364,-0.55178 0.1576621,-0.17517 0.3503487,-0.31532 0.5693168,-0.42917 0.2364802,-0.12262 0.5605476,-0.22772 0.9634331,-0.33282 0.4028976,-0.10507 0.7182096,-0.14889 0.9459206,-0.14889 0.210212,0 0.3941417,0.0438 0.5517907,0.13141 0.157662,0.0876 0.23648,0.21897 0.23648,0.41165" /><path
     id="path4040"
     style="fill:#000000;fill-opacity:1;fill-rule:nonzero;stroke:none"
     d="m 11.627161,788.46233 -0.214584,0 c 0,0.50873 -0.0613,0.76638 -0.196341,0.76638 l -3.218765,0 c 0.104367,-0.21458 0.153277,-0.48392 0.153277,-0.80287 l -0.214584,0 c 0,0.49632 -0.128462,0.87658 -0.3919432,1.13424 l 0,0.0862 c 0,0.0119 0.00583,0.0307 0.018241,0.0424 0.012412,0.0119 0.024082,0.019 0.036495,0.019 l 3.6172792,0 c 0.135039,0 0.196341,0.25107 0.196341,0.76563 l 0.214584,0 0,-2.01081" /><path
     id="path4044"
     style="fill:#000000;fill-opacity:1;fill-rule:nonzero;stroke:none"
     d="m 12.724459,791.5647 c -0.01825,0 -0.03649,0.006 -0.0489,0.0249 -0.147436,0.14674 -0.313113,0.25766 -0.497043,0.34306 -0.183932,0.0796 -0.379532,0.12263 -0.575875,0.12263 l -0.07371,0 c 0.06788,-0.0671 0.09853,-0.14674 0.09853,-0.24524 0,-0.0978 -0.03066,-0.17736 -0.09853,-0.23866 -0.06131,-0.0679 -0.140859,-0.0985 -0.238666,-0.0985 -0.09855,0 -0.178102,0.0307 -0.239409,0.0985 -0.0613,0.0613 -0.0978,0.14093 -0.0978,0.23866 0,0.14748 0.06715,0.2518 0.202171,0.31312 0.13504,0.0613 0.288302,0.092 0.447421,0.092 0.220425,0 0.435738,-0.0497 0.64375,-0.13498 0.202185,-0.092 0.386116,-0.22116 0.551792,-0.38612 0.0058,-0.0189 0.01235,-0.0307 0.01235,-0.0372 0,-0.0241 -0.01235,-0.043 -0.03066,-0.0613 -0.01826,-0.0241 -0.03724,-0.0307 -0.05548,-0.0307" /><path
     id="path4048"
     style="fill:#000000;fill-opacity:1;fill-rule:nonzero;stroke:none"
     d="m 11.755849,794.30954 c 0,-0.50288 -0.202172,-0.84592 -0.613098,-1.02402 -0.410926,-0.18392 -0.901399,-0.26932 -1.4714433,-0.26932 -0.35545,0 -0.686817,0.0307 -0.9992007,0.0978 -0.312384,0.0613 -0.576603,0.18976 -0.797028,0.3861 -0.2211531,0.18977 -0.3313657,0.45982 -0.3313657,0.80943 0,0.27007 0.067877,0.49048 0.1963427,0.66201 0.135025,0.17152 0.3007,0.30071 0.508726,0.39267 0.208743,0.0862 0.435738,0.14673 0.6744037,0.18394 0.239394,0.0307 0.491215,0.049 0.748122,0.049 0.3554623,0 0.6809863,-0.0372 0.9875293,-0.0985 0.306554,-0.0671 0.570044,-0.19559 0.778057,-0.3861 0.208742,-0.18977 0.318955,-0.45982 0.318955,-0.80287 m -0.153277,0 c 0,0.227 -0.11678,0.39851 -0.34888,0.50873 -0.233566,0.11027 -0.491214,0.17736 -0.772944,0.20217 -0.281732,0.0249 -0.5890153,0.043 -0.9072413,0.043 -0.306543,0 -0.589016,-0.0183 -0.8459357,-0.043 -0.257635,-0.0249 -0.497042,-0.092 -0.705056,-0.20217 -0.208741,-0.11028 -0.318954,-0.28173 -0.318954,-0.50873 0,-0.23283 0.110214,-0.40507 0.318954,-0.51529 0.208014,-0.11028 0.447421,-0.18393 0.705056,-0.20802 0.2569197,-0.0249 0.5393927,-0.0372 0.8459357,-0.0372 0.232838,0 0.4474203,0 0.6437503,0.0119 0.202184,0.0119 0.410926,0.043 0.62551,0.092 0.213854,0.049 0.391943,0.12263 0.539379,0.23285 0.146707,0.10432 0.220426,0.24524 0.220426,0.42331" /></g><text
   transform="matrix(0,1,1,0,0,0)"
   sodipodi:linespacing="125%"
   id="text9416"
   y="6.0846415"
   x="688.3324"
   style="font-size:4.70328856px;font-style:normal;font-variant:normal;font-weight:normal;font-stretch:normal;text-align:center;line-height:125%;writing-mode:lr-tb;text-anchor:middle;fill:#000000;fill-opacity:1;stroke:none;font-family:Helvetica Neue;-inkscape-font-specification:Helvetica Neue"
   xml:space="preserve"><tspan
     y="6.0846415"
     x="688.3324"
     id="tspan9418"
     sodipodi:role="line"
     style="font-size:7.19999981px">(nm)</tspan></text>





<rect
   transform="scale(1,-1)"
   ry="0"
   rx="5.255168"
   y="-705.76013"
   x="19.906746"
   height="47.797348"
   width="82.922256"
   id="rect9444"
   style="fill:none;stroke:#000000;stroke-width:0.75;stroke-linecap:square;stroke-linejoin:miter;stroke-miterlimit:4;stroke-opacity:1;stroke-dasharray:none;stroke-dashoffset:0;marker:none;visibility:visible;display:inline;overflow:visible;enable-background:accumulate" /><text
   transform="scale(1,-1)"
   sodipodi:linespacing="125%"
   id="text15959"
   y="-644.00421"
   x="61.257626"
   style="font-size:7.19999981px;font-style:normal;font-variant:normal;font-weight:normal;font-stretch:normal;text-align:center;line-height:125%;writing-mode:lr-tb;text-anchor:middle;fill:#000000;fill-opacity:1;stroke:none;font-family:Helvetica Neue;-inkscape-font-specification:Helvetica Neue"
   xml:space="preserve"><tspan
     style="font-size:7.19999981px"
     y="-644.00421"
     x="61.257626"
     id="tspan15961"
     sodipodi:role="line">Axial Offset (nm)</tspan></text>





<g
   transform="matrix(0.9798517,0,0,0.9798517,-3.6499312,-103.81224)"
   id="g9739"><text
   sodipodi:linespacing="125%"
   id="text13287"
   y="-770.21075"
   x="24.395319"
   style="font-size:6.53160048px;font-style:normal;font-variant:normal;font-weight:normal;font-stretch:normal;text-align:center;line-height:125%;writing-mode:lr-tb;text-anchor:middle;fill:#000000;fill-opacity:1;stroke:none;font-family:Helvetica Neue;-inkscape-font-specification:Helvetica Neue"
   xml:space="preserve"
   transform="scale(1,-1)"><tspan
     y="-770.21075"
     x="24.395319"
     id="tspan13289"
     sodipodi:role="line">0</tspan></text>






<text
   sodipodi:linespacing="125%"
   id="text13291"
   y="-770.21075"
   x="45.385155"
   style="font-size:6.53160048px;font-style:normal;font-variant:normal;font-weight:normal;font-stretch:normal;text-align:center;line-height:125%;writing-mode:lr-tb;text-anchor:middle;fill:#000000;fill-opacity:1;stroke:none;font-family:Helvetica Neue;-inkscape-font-specification:Helvetica Neue"
   xml:space="preserve"
   transform="scale(1,-1)"><tspan
     y="-770.21075"
     x="45.385155"
     id="tspan13293"
     sodipodi:role="line">5</tspan></text>






<text
   sodipodi:linespacing="125%"
   id="text13295"
   y="-770.21075"
   x="66.528664"
   style="font-size:6.53160048px;font-style:normal;font-variant:normal;font-weight:normal;font-stretch:normal;text-align:center;line-height:125%;writing-mode:lr-tb;text-anchor:middle;fill:#000000;fill-opacity:1;stroke:none;font-family:Helvetica Neue;-inkscape-font-specification:Helvetica Neue"
   xml:space="preserve"
   transform="scale(1,-1)"><tspan
     y="-770.21075"
     x="66.528664"
     id="tspan13297"
     sodipodi:role="line">10</tspan></text>






<text
   sodipodi:linespacing="125%"
   id="text13299"
   y="-770.21075"
   x="87.85173"
   style="font-size:6.53160048px;font-style:normal;font-variant:normal;font-weight:normal;font-stretch:normal;text-align:center;line-height:125%;writing-mode:lr-tb;text-anchor:middle;fill:#000000;fill-opacity:1;stroke:none;font-family:Helvetica Neue;-inkscape-font-specification:Helvetica Neue"
   xml:space="preserve"
   transform="scale(1,-1)"><tspan
     y="-770.21075"
     x="87.85173"
     id="tspan13301"
     sodipodi:role="line">15</tspan></text>






<text
   sodipodi:linespacing="125%"
   id="text13303"
   y="-770.21075"
   x="108.62856"
   style="font-size:6.53160048px;font-style:normal;font-variant:normal;font-weight:normal;font-stretch:normal;text-align:center;line-height:125%;writing-mode:lr-tb;text-anchor:middle;fill:#000000;fill-opacity:1;stroke:none;font-family:Helvetica Neue;-inkscape-font-specification:Helvetica Neue"
   xml:space="preserve"
   transform="scale(1,-1)"><tspan
     y="-770.21075"
     x="108.62856"
     id="tspan13305"
     sodipodi:role="line">20</tspan></text>






<path
   d="m 45.352002,777.48136 0,1.7833"
   style="fill:none;stroke:#000000;stroke-width:0.5102813;stroke-linecap:butt;stroke-linejoin:round;stroke-miterlimit:10;stroke-opacity:1;stroke-dasharray:none"
   id="path9731" /><path
   id="path9733"
   style="fill:none;stroke:#000000;stroke-width:0.5102813;stroke-linecap:butt;stroke-linejoin:round;stroke-miterlimit:10;stroke-opacity:1;stroke-dasharray:none"
   d="m 66.645007,777.48136 0,1.7833" /><path
   d="m 87.95496,777.48136 0,1.7833"
   style="fill:none;stroke:#000000;stroke-width:0.5102813;stroke-linecap:butt;stroke-linejoin:round;stroke-miterlimit:10;stroke-opacity:1;stroke-dasharray:none"
   id="path9735" /></g></g><text
   xml:space="preserve"
   style="font-size:9.60000038px;font-style:normal;font-variant:normal;font-weight:bold;font-stretch:normal;text-align:center;line-height:125%;writing-mode:lr-tb;text-anchor:middle;fill:#000000;fill-opacity:1;stroke:none;font-family:Helvetica Neue;-inkscape-font-specification:Helvetica Neue Bold"
   x="8.759798"
   y="-707.42609"
   id="text10540"
   sodipodi:linespacing="125%"
   transform="scale(1,-1)"><tspan
     sodipodi:role="line"
     id="tspan10542"
     x="8.759798"
     y="-707.42609">A</tspan></text>






<text
   xml:space="preserve"
   style="font-size:8px;font-style:normal;font-variant:normal;font-weight:normal;font-stretch:normal;text-align:center;line-height:125%;writing-mode:lr-tb;text-anchor:middle;fill:#000000;fill-opacity:1;stroke:none;font-family:Helvetica Neue;-inkscape-font-specification:Helvetica Neue"
   x="62.634312"
   y="-708.85162"
   id="text10544"
   sodipodi:linespacing="125%"
   transform="scale(1,-1)"><tspan
     sodipodi:role="line"
     id="tspan10546"
     x="62.634312"
     y="-708.85162">4sXB Force</tspan></text>






<text
   transform="scale(1,-1)"
   sodipodi:linespacing="125%"
   id="text10548"
   y="-708.85162"
   x="174.63432"
   style="font-size:8px;font-style:normal;font-variant:normal;font-weight:normal;font-stretch:normal;text-align:center;line-height:125%;writing-mode:lr-tb;text-anchor:middle;fill:#000000;fill-opacity:1;stroke:none;font-family:Helvetica Neue;-inkscape-font-specification:Helvetica Neue"
   xml:space="preserve"><tspan
     y="-708.85162"
     x="174.63432"
     id="tspan10550"
     sodipodi:role="line">2sXB Force</tspan></text>






<text
   xml:space="preserve"
   style="font-size:9.60000038px;font-style:normal;font-variant:normal;font-weight:bold;font-stretch:normal;text-align:center;line-height:125%;writing-mode:lr-tb;text-anchor:middle;fill:#000000;fill-opacity:1;stroke:none;font-family:Helvetica Neue;-inkscape-font-specification:Helvetica Neue Bold"
   x="121.2"
   y="-707.42609"
   id="text10552"
   sodipodi:linespacing="125%"
   transform="scale(1,-1)"><tspan
     sodipodi:role="line"
     id="tspan10554"
     x="121.2"
     y="-707.42609">B</tspan></text>






<text
   xml:space="preserve"
   style="font-size:9.60000038px;font-style:normal;font-variant:normal;font-weight:bold;font-stretch:normal;text-align:center;line-height:125%;writing-mode:lr-tb;text-anchor:middle;fill:#000000;fill-opacity:1;stroke:none;font-family:Helvetica Neue;-inkscape-font-specification:Helvetica Neue Bold"
   x="8.7554226"
   y="-624.76324"
   id="text10556"
   sodipodi:linespacing="125%"
   transform="scale(1,-1)"><tspan
     sodipodi:role="line"
     id="tspan10558"
     x="8.7554226"
     y="-624.76324">C</tspan></text>






<text
   xml:space="preserve"
   style="font-size:9.60000038px;font-style:normal;font-variant:normal;font-weight:bold;font-stretch:normal;text-align:center;line-height:125%;writing-mode:lr-tb;text-anchor:middle;fill:#000000;fill-opacity:1;stroke:none;font-family:Helvetica Neue;-inkscape-font-specification:Helvetica Neue Bold"
   x="121.15283"
   y="-624.76886"
   id="text10560"
   sodipodi:linespacing="125%"
   transform="scale(1,-1)"><tspan
     sodipodi:role="line"
     id="tspan10562"
     x="121.15283"
     y="-624.76886">D</tspan></text>






<g
   id="g11355"
   transform="translate(115.2,0)"><g
   id="g10990"
   transform="matrix(0.9309447,0,0,0.9309447,-116.51328,-142.25006)"><path
     d="m 9.3001137,787.09672 c 0,-0.35018 -0.12506,-0.63363 -0.391858,-0.83375 -0.25846,-0.20008 -0.566942,-0.30012 -0.9337829,-0.30012 -0.3501709,0 -0.7253462,0.0917 -1.1088692,0.27512 -0.3835106,0.18343 -0.7003287,0.4252 -0.9504539,0.74202 -0.2501253,0.31682 -0.383523,0.65032 -0.383523,1.01716 0,0.16675 0.050023,0.30848 0.1417451,0.44187 0.09171,0.13345 0.2084253,0.23345 0.3585056,0.30849 l -1.8592325,0.46689 c -0.09171,0.0167 -0.1667502,0.0333 -0.2251078,0.0417 -0.083375,0 -0.1333974,-0.18342 -0.1333974,-0.54193 0,-0.0584 -0.033352,-0.0834 -0.1083924,-0.0834 -0.016669,0 -0.041687,0 -0.075028,0.0167 -0.033353,0.009 -0.05837,0.0167 -0.075041,0.0333 -0.016669,0.0167 -0.033352,0.0333 -0.033352,0.0667 l -0.09171,1.12555 c 0,0.0667 0.041687,0.10001 0.1083924,0.10001 l 4.793968,-1.20058 c 0.100057,-0.0417 0.233456,-0.0584 0.400194,-0.0584 0.24179,0 0.358505,0.0751 0.358505,0.24179 0,0.16675 -0.108373,0.30014 -0.333487,0.39186 -0.216774,0.0917 -0.475234,0.16674 -0.7670344,0.23344 -0.033347,0.008 -0.050035,0.0333 -0.050035,0.0667 l 0,0.10001 c 0,0.0167 0.016688,0.0333 0.033348,0.05 0.016688,0.0167 0.033348,0.0251 0.050021,0.0251 0.3918584,-0.10001 0.7003404,-0.20843 0.9337834,-0.32516 0.233455,-0.11673 0.341835,-0.30014 0.341835,-0.5586 0,-0.19176 -0.05835,-0.35851 -0.158415,-0.50025 -0.100043,-0.14173 -0.250112,-0.23343 -0.433533,-0.26679 0.400192,-0.35851 0.591948,-0.717 0.591948,-1.07551 m -0.208438,0.009 c 0,0.2001 -0.07502,0.39186 -0.225107,0.58361 -0.150069,0.18343 -0.325153,0.35018 -0.533591,0.48357 0,0 -0.01667,0.009 -0.03335,0.009 l -1.8342265,0.45856 c -0.1917553,-0.0334 -0.3585055,-0.10837 -0.5002382,-0.21677 -0.1417328,-0.11673 -0.2167728,-0.25846 -0.2167728,-0.44189 0,-0.19176 0.083375,-0.36684 0.2334429,-0.52525 0.1500801,-0.16675 0.3335003,-0.30015 0.5419381,-0.40853 0.2251078,-0.11673 0.5335907,-0.21677 0.9171013,-0.31681 0.3835221,-0.10002 0.6836702,-0.14174 0.9004312,-0.14174 0.200102,0 0.375187,0.0417 0.525255,0.12509 0.15008,0.0834 0.225108,0.20845 0.225108,0.39186"
     style="fill:#000000;fill-opacity:1;fill-rule:nonzero;stroke:none"
     id="path10992" /><path
     d="m 11.343386,790.52413 -0.204265,0 c 0,0.48426 -0.05835,0.72952 -0.186899,0.72952 l -3.0639727,0 c 0.099349,-0.20426 0.1459063,-0.46065 0.1459063,-0.76426 l -0.2042646,0 c 0,0.47245 -0.1222839,0.83443 -0.3730945,1.07969 l 0,0.082 c 0,0.0113 0.00555,0.0292 0.017364,0.0404 0.011815,0.0113 0.022924,0.0181 0.03474,0.0181 l 3.4433225,0 c 0.128545,0 0.186899,0.239 0.186899,0.72881 l 0.204265,0 0,-1.91411"
     style="fill:#000000;fill-opacity:1;fill-rule:nonzero;stroke:none"
     id="path10994" /><path
     d="m 12.387915,793.4773 c -0.01737,0 -0.03474,0.006 -0.04655,0.0237 -0.140346,0.13968 -0.298056,0.24526 -0.47314,0.32656 -0.175086,0.0758 -0.36128,0.11673 -0.548181,0.11673 l -0.07017,0 c 0.06461,-0.0639 0.0938,-0.13968 0.0938,-0.23345 0,-0.0931 -0.02918,-0.16883 -0.0938,-0.22718 -0.05837,-0.0646 -0.134085,-0.0938 -0.227189,-0.0938 -0.09381,0 -0.169537,0.0292 -0.227895,0.0938 -0.05835,0.0584 -0.0931,0.13415 -0.0931,0.22718 0,0.14039 0.06392,0.2397 0.192448,0.29806 0.128545,0.0584 0.274438,0.0875 0.425904,0.0875 0.209825,0 0.414784,-0.0473 0.612792,-0.12849 0.192462,-0.0875 0.367548,-0.21052 0.525256,-0.36754 0.0055,-0.018 0.01176,-0.0292 0.01176,-0.0354 0,-0.023 -0.01176,-0.0409 -0.02918,-0.0584 -0.01738,-0.023 -0.03544,-0.0292 -0.05281,-0.0292"
     style="fill:#000000;fill-opacity:1;fill-rule:nonzero;stroke:none"
     id="path10996" /><path
     d="m 11.465885,796.09014 c 0,-0.47869 -0.19245,-0.80524 -0.583614,-0.97477 -0.391164,-0.17508 -0.85805,-0.25637 -1.4006803,-0.25637 -0.338356,0 -0.653787,0.0292 -0.951148,0.0931 -0.2973619,0.0584 -0.548874,0.18064 -0.7586989,0.36753 -0.210518,0.18065 -0.3154304,0.43772 -0.3154304,0.77051 0,0.25708 0.064613,0.4669 0.1869006,0.63018 0.1285312,0.16326 0.2862395,0.28624 0.484261,0.37378 0.1987047,0.082 0.4147837,0.13968 0.6419717,0.17509 0.227882,0.0292 0.467592,0.0466 0.712144,0.0466 0.338367,0 0.6482363,-0.0354 0.9400383,-0.0938 0.291812,-0.0639 0.54263,-0.18619 0.74064,-0.36753 0.198703,-0.18065 0.303616,-0.43771 0.303616,-0.76426 m -0.145906,0 c 0,0.21608 -0.111163,0.37934 -0.332102,0.48426 -0.222333,0.10497 -0.467591,0.16883 -0.735773,0.19245 -0.2681833,0.0237 -0.5606883,0.0409 -0.8636123,0.0409 -0.291799,0 -0.560688,-0.0174 -0.805253,-0.0409 -0.245245,-0.0237 -0.4731388,-0.0875 -0.6711489,-0.19245 -0.1987028,-0.10497 -0.3036155,-0.26818 -0.3036155,-0.48426 0,-0.22164 0.1049131,-0.3856 0.3036155,-0.49051 0.1980101,-0.10498 0.4259039,-0.17508 0.6711489,-0.19802 0.244565,-0.0237 0.513454,-0.0354 0.805253,-0.0354 0.221641,0 0.425905,0 0.6127933,0.0113 0.192461,0.0113 0.391164,0.0409 0.595428,0.0875 0.203571,0.0466 0.373095,0.11673 0.513441,0.22164 0.139652,0.0993 0.209825,0.23345 0.209825,0.40296"
     style="fill:#000000;fill-opacity:1;fill-rule:nonzero;stroke:none"
     id="path10998" /></g><text
   xml:space="preserve"
   style="font-size:6.4000001px;font-style:normal;font-variant:normal;font-weight:normal;font-stretch:normal;text-align:center;line-height:125%;writing-mode:lr-tb;text-anchor:middle;fill:#000000;fill-opacity:1;stroke:none;font-family:Helvetica Neue;-inkscape-font-specification:Helvetica Neue"
   x="607.1123"
   y="-107.93962"
   id="text11000"
   sodipodi:linespacing="125%"
   transform="matrix(0,1,1,0,0,0)"><tspan
     sodipodi:role="line"
     id="tspan11002"
     x="607.1123"
     y="-107.93962">(nm)</tspan></text>






<rect
   style="fill:none;stroke:#000000;stroke-width:0.60000002;stroke-linecap:square;stroke-linejoin:miter;stroke-miterlimit:4;stroke-opacity:1;stroke-dasharray:none;stroke-dashoffset:0;marker:none;visibility:visible;display:inline;overflow:visible;enable-background:accumulate"
   id="rect11004"
   width="82.922256"
   height="47.797348"
   x="-93.693253"
   y="-624.54004"
   rx="5.255168"
   ry="0"
   transform="scale(1,-1)" /><text
   xml:space="preserve"
   style="font-size:7.19999981px;font-style:normal;font-variant:normal;font-weight:normal;font-stretch:normal;text-align:center;line-height:125%;writing-mode:lr-tb;text-anchor:middle;fill:#000000;fill-opacity:1;stroke:none;font-family:Helvetica Neue;-inkscape-font-specification:Helvetica Neue"
   x="-52.342373"
   y="-563.58386"
   id="text11006"
   sodipodi:linespacing="125%"
   transform="scale(1,-1)"><tspan
     sodipodi:role="line"
     id="tspan11008"
     x="-52.342373"
     y="-563.58386"
     style="font-size:7.19999981px">Axial Offset (nm)</tspan></text>






<g
   transform="translate(-112,80)"
   id="g11241"><text
   transform="scale(1,-1)"
   xml:space="preserve"
   style="font-size:6.4000001px;font-style:normal;font-variant:normal;font-weight:normal;font-stretch:normal;text-align:center;line-height:125%;writing-mode:lr-tb;text-anchor:middle;fill:#000000;fill-opacity:1;stroke:none;font-family:Helvetica Neue;-inkscape-font-specification:Helvetica Neue"
   x="32.779636"
   y="-490.93988"
   id="text11016"
   sodipodi:linespacing="125%"><tspan
     sodipodi:role="line"
     id="tspan11018"
     x="32.779636"
     y="-490.93988">4</tspan></text>






<text
   transform="scale(1,-1)"
   xml:space="preserve"
   style="font-size:6.4000001px;font-style:normal;font-variant:normal;font-weight:normal;font-stretch:normal;text-align:center;line-height:125%;writing-mode:lr-tb;text-anchor:middle;fill:#000000;fill-opacity:1;stroke:none;font-family:Helvetica Neue;-inkscape-font-specification:Helvetica Neue"
   x="60.340736"
   y="-490.93988"
   id="text11020"
   sodipodi:linespacing="125%"><tspan
     sodipodi:role="line"
     id="tspan11022"
     x="60.340736"
     y="-490.93988">5</tspan></text>






<text
   transform="scale(1,-1)"
   xml:space="preserve"
   style="font-size:6.4000001px;font-style:normal;font-variant:normal;font-weight:normal;font-stretch:normal;text-align:center;line-height:125%;writing-mode:lr-tb;text-anchor:middle;fill:#000000;fill-opacity:1;stroke:none;font-family:Helvetica Neue;-inkscape-font-specification:Helvetica Neue"
   x="87.891754"
   y="-490.93988"
   id="text11024"
   sodipodi:linespacing="125%"><tspan
     sodipodi:role="line"
     id="tspan11026"
     x="87.891754"
     y="-490.93988">6</tspan></text>






<path
   id="path11032"
   style="fill:none;stroke:#000000;stroke-width:0.5;stroke-linecap:butt;stroke-linejoin:round;stroke-miterlimit:10;stroke-opacity:1;stroke-dasharray:none"
   d="m 32.746772,496.78409 0,1.74737" /><path
   d="m 60.45607,496.78409 0,1.74737"
   style="fill:none;stroke:#000000;stroke-width:0.5;stroke-linecap:butt;stroke-linejoin:round;stroke-miterlimit:10;stroke-opacity:1;stroke-dasharray:none"
   id="path11034" /><path
   id="path11036"
   style="fill:none;stroke:#000000;stroke-width:0.5;stroke-linecap:butt;stroke-linejoin:round;stroke-miterlimit:10;stroke-opacity:1;stroke-dasharray:none"
   d="m 87.994087,496.78409 0,1.74737" /></g><g
   id="g11338">

<text
   transform="scale(1,-1)"
   xml:space="preserve"
   style="font-size:6.4000001px;font-style:normal;font-variant:normal;font-weight:normal;font-stretch:normal;text-align:start;line-height:125%;writing-mode:lr-tb;text-anchor:start;fill:#000000;fill-opacity:1;stroke:none;font-family:Helvetica Neue;-inkscape-font-specification:Helvetica Neue"
   x="-102.20283"
   y="-590.41516"
   id="text10970"
   sodipodi:linespacing="125%"><tspan
     sodipodi:role="line"
     id="tspan10972"
     x="-102.20283"
     y="-590.41516">35</tspan></text>






<text
   transform="scale(1,-1)"
   xml:space="preserve"
   style="font-size:6.4000001px;font-style:normal;font-variant:normal;font-weight:normal;font-stretch:normal;text-align:start;line-height:125%;writing-mode:lr-tb;text-anchor:start;fill:#000000;fill-opacity:1;stroke:none;font-family:Helvetica Neue;-inkscape-font-specification:Helvetica Neue"
   x="-102.20283"
   y="-610.14978"
   id="text10974"
   sodipodi:linespacing="125%"><tspan
     sodipodi:role="line"
     id="tspan10976"
     x="-102.20283"
     y="-610.14978">33</tspan></text>






<text
   transform="scale(1,-1)"
   xml:space="preserve"
   style="font-size:6.4000001px;font-style:normal;font-variant:normal;font-weight:normal;font-stretch:normal;text-align:start;line-height:125%;writing-mode:lr-tb;text-anchor:start;fill:#000000;fill-opacity:1;stroke:none;font-family:Helvetica Neue;-inkscape-font-specification:Helvetica Neue"
   x="-102.15139"
   y="-620.06592"
   id="text10978"
   sodipodi:linespacing="125%"><tspan
     sodipodi:role="line"
     id="tspan10980"
     x="-102.15139"
     y="-620.06592">32</tspan></text>






<path
   id="path10982"
   style="fill:none;stroke:#000000;stroke-width:0.5;stroke-linecap:butt;stroke-linejoin:round;stroke-miterlimit:10;stroke-opacity:1;stroke-dasharray:none"
   d="m -93.694056,621.59245 1.747367,0" /><path
   d="m -93.694056,611.67636 1.747367,0"
   style="fill:none;stroke:#000000;stroke-width:0.5;stroke-linecap:butt;stroke-linejoin:round;stroke-miterlimit:10;stroke-opacity:1;stroke-dasharray:none"
   id="path10984" /><path
   id="path10986"
   style="fill:none;stroke:#000000;stroke-width:0.5;stroke-linecap:butt;stroke-linejoin:round;stroke-miterlimit:10;stroke-opacity:1;stroke-dasharray:none"
   d="m -93.694056,591.94169 1.747367,0" /><path
   d="m -93.694056,582.09062 1.747367,0"
   style="fill:none;stroke:#000000;stroke-width:0.5;stroke-linecap:butt;stroke-linejoin:round;stroke-miterlimit:10;stroke-opacity:1;stroke-dasharray:none"
   id="path10988" /><text
   sodipodi:linespacing="125%"
   id="text11332"
   y="-600.29871"
   x="-102.15138"
   style="font-size:6.4000001px;font-style:normal;font-variant:normal;font-weight:normal;font-stretch:normal;text-align:start;line-height:125%;writing-mode:lr-tb;text-anchor:start;fill:#000000;fill-opacity:1;stroke:none;font-family:Helvetica Neue;-inkscape-font-specification:Helvetica Neue"
   xml:space="preserve"
   transform="scale(1,-1)"><tspan
     y="-600.29871"
     x="-102.15138"
     id="tspan11334"
     sodipodi:role="line">34</tspan></text>






<path
   id="path11336"
   style="fill:none;stroke:#000000;stroke-width:0.5;stroke-linecap:butt;stroke-linejoin:round;stroke-miterlimit:10;stroke-opacity:1;stroke-dasharray:none"
   d="m -93.694056,601.82529 1.747367,0" /><text
   sodipodi:linespacing="125%"
   id="text3379"
   y="-580.56409"
   x="-102.04531"
   style="font-size:6.4000001px;font-style:normal;font-variant:normal;font-weight:normal;font-stretch:normal;text-align:start;line-height:125%;writing-mode:lr-tb;text-anchor:start;fill:#000000;fill-opacity:1;stroke:none;font-family:Helvetica Neue;-inkscape-font-specification:Helvetica Neue"
   xml:space="preserve"
   transform="scale(1,-1)"><tspan
     y="-580.56409"
     x="-102.04531"
     id="tspan3381"
     sodipodi:role="line">36</tspan></text>




</g></g><text
   transform="scale(1,-1)"
   sodipodi:linespacing="125%"
   id="text11673"
   y="-627.25165"
   x="62.634312"
   style="font-size:8px;font-style:normal;font-variant:normal;font-weight:normal;font-stretch:normal;text-align:center;line-height:125%;writing-mode:lr-tb;text-anchor:middle;fill:#000000;fill-opacity:1;stroke:none;font-family:Helvetica Neue;-inkscape-font-specification:Helvetica Neue"
   xml:space="preserve"><tspan
     y="-627.25165"
     x="62.634312"
     id="tspan11675"
     sodipodi:role="line">Small Offset 4sXB Force</tspan></text>






<text
   xml:space="preserve"
   style="font-size:8px;font-style:normal;font-variant:normal;font-weight:normal;font-stretch:normal;text-align:center;line-height:125%;writing-mode:lr-tb;text-anchor:middle;fill:#000000;fill-opacity:1;stroke:none;font-family:Helvetica Neue;-inkscape-font-specification:Helvetica Neue"
   x="174.63432"
   y="-627.25165"
   id="text11677"
   sodipodi:linespacing="125%"
   transform="scale(1,-1)"><tspan
     sodipodi:role="line"
     id="tspan11679"
     x="174.63432"
     y="-627.25165">Small Offset 2sXB Force</tspan></text>






<text
   transform="scale(1,-1)"
   sodipodi:linespacing="125%"
   id="text11798"
   y="-597.08453"
   x="226.7937"
   style="font-size:6.4;font-style:normal;font-variant:normal;font-weight:normal;font-stretch:normal;text-align:center;line-height:125%;writing-mode:lr-tb;text-anchor:middle;fill:#000000;fill-opacity:1;stroke:none;font-family:Helvetica Neue;-inkscape-font-specification:Helvetica Neue"
   xml:space="preserve"><tspan
     y="-597.08453"
     x="226.7937"
     id="tspan11800"
     sodipodi:role="line">2 pn</tspan></text>






<text
   xml:space="preserve"
   style="font-size:6.4;font-style:normal;font-variant:normal;font-weight:normal;font-stretch:normal;text-align:center;line-height:125%;writing-mode:lr-tb;text-anchor:middle;fill:#000000;fill-opacity:1;stroke:none;font-family:Helvetica Neue;-inkscape-font-specification:Helvetica Neue"
   x="226.7937"
   y="-679.43622"
   id="text11802"
   sodipodi:linespacing="125%"
   transform="scale(1,-1)"><tspan
     sodipodi:role="line"
     id="tspan11804"
     x="226.7937"
     y="-679.43622">10 pn</tspan></text>






<use
   x="0"
   y="0"
   xlink:href="#g2778"
   id="use3365"
   transform="translate(112,0)"
   width="294.09448"
   height="198.42519" /><use
   x="0"
   y="0"
   xlink:href="#g11355"
   id="use3387"
   transform="translate(112,0)"
   width="294.09448"
   height="198.42519" /></g></svg>