<?xml version="1.0" encoding="UTF-8" standalone="no"?>
<!-- Created with Inkscape (http://www.inkscape.org/) -->
<svg
   xmlns:dc="http://purl.org/dc/elements/1.1/"
   xmlns:cc="http://creativecommons.org/ns#"
   xmlns:rdf="http://www.w3.org/1999/02/22-rdf-syntax-ns#"
   xmlns:svg="http://www.w3.org/2000/svg"
   xmlns="http://www.w3.org/2000/svg"
   xmlns:xlink="http://www.w3.org/1999/xlink"
   xmlns:sodipodi="http://sodipodi.sourceforge.net/DTD/sodipodi-0.dtd"
   xmlns:inkscape="http://www.inkscape.org/namespaces/inkscape"
   id="svg3815"
   sodipodi:version="0.32"
   inkscape:version="0.46"
   width="294.09448"
   height="361.41733"
   xml:space="preserve"
   sodipodi:docname="fig_kinetics_contours.svg"
   version="1.0"
   inkscape:output_extension="org.inkscape.output.svg.inkscape"><metadata
     id="metadata3820"><rdf:RDF><cc:Work
         rdf:about=""><dc:format>image/svg+xml</dc:format><dc:type
           rdf:resource="http://purl.org/dc/dcmitype/StillImage" /></cc:Work></rdf:RDF></metadata><defs
     id="defs3818"><inkscape:perspective
   sodipodi:type="inkscape:persp3d"
   inkscape:vp_x="0 : 180 : 1"
   inkscape:vp_y="0 : 1000 : 0"
   inkscape:vp_z="292.5 : 180 : 1"
   inkscape:persp3d-origin="146.25 : 120 : 1"
   id="perspective7158" /><clipPath
   clipPathUnits="userSpaceOnUse"
   id="clipPath6043"><path
     d="m 512.64,410.4 4.68,0 0,93.6 -4.68,0 0,-93.6 z"
     id="path6045" /></clipPath><clipPath
   clipPathUnits="userSpaceOnUse"
   id="clipPath3729"><path
     d="m 315.697,572.733 191.183,0 0,104.067 -191.183,0 0,-104.067 z"
     id="path3731" /></clipPath><clipPath
   clipPathUnits="userSpaceOnUse"
   id="clipPath5969"><path
     d="m 512.64,576 4.68,0 0,93.6 -4.68,0 0,-93.6 z"
     id="path5971" /></clipPath><clipPath
   clipPathUnits="userSpaceOnUse"
   id="clipPath4043"><path
     d="m 57.6,401.022 191.183,0 0,104.067 -191.183,0 0,-104.067 z"
     id="path4045" /></clipPath><clipPath
   clipPathUnits="userSpaceOnUse"
   id="clipPath4353"><path
     d="m 315.697,401.022 191.183,0 0,104.067 -191.183,0 0,-104.067 z"
     id="path4355" /></clipPath><clipPath
   clipPathUnits="userSpaceOnUse"
   id="clipPath5001"><path
     d="m 315.697,229.31 191.183,0 0,104.068 -191.183,0 0,-104.068 z"
     id="path5003" /></clipPath><clipPath
   clipPathUnits="userSpaceOnUse"
   id="clipPath4687"><path
     d="m 57.6,229.31 191.183,0 0,104.068 -191.183,0 0,-104.068 z"
     id="path4689" /></clipPath><clipPath
   clipPathUnits="userSpaceOnUse"
   id="clipPath5315"><path
     d="m 57.6,57.6 191.183,0 0,104.067 -191.183,0 0,-104.067 z"
     id="path5317" /></clipPath><clipPath
   clipPathUnits="userSpaceOnUse"
   id="clipPath5641"><path
     d="m 315.697,57.6 191.183,0 0,104.067 -191.183,0 0,-104.067 z"
     id="path5643" /></clipPath>
</defs><sodipodi:namedview
     inkscape:window-height="754"
     inkscape:window-width="1024"
     inkscape:pageshadow="2"
     inkscape:pageopacity="0.0"
     guidetolerance="10.0"
     gridtolerance="10.0"
     objecttolerance="10.0"
     borderopacity="1.0"
     bordercolor="#666666"
     pagecolor="#ffffff"
     id="base"
     showgrid="false"
     units="cm"
     width="3.25in"
     inkscape:zoom="1.8040087"
     inkscape:cx="173.58048"
     inkscape:cy="181.53532"
     inkscape:window-x="0"
     inkscape:window-y="14"
     inkscape:current-layer="g3824"
     inkscape:window-maximized="0" /><g
     id="g3824"
     inkscape:groupmode="layer"
     inkscape:label="Figure2"
     transform="matrix(1.25,0,0,-1.25,0,901.41704)"><text
   xml:space="preserve"
   style="font-size:7.19999981px;font-style:normal;font-variant:normal;font-weight:normal;font-stretch:normal;text-align:center;line-height:125%;writing-mode:lr-tb;text-anchor:middle;fill:#000000;fill-opacity:1;stroke:none;font-family:Helvetica Neue;-inkscape-font-specification:Helvetica Neue"
   x="61.262547"
   y="-709.64325"
   id="text7135"
   sodipodi:linespacing="125%"
   transform="scale(1,-1)"><tspan
     sodipodi:role="line"
     id="tspan7137"
     x="61.262547"
     y="-709.64325">4sXB Free Energy</tspan></text>




<text
   xml:space="preserve"
   style="font-size:7.19999981px;font-style:normal;font-variant:normal;font-weight:normal;font-stretch:normal;text-align:center;line-height:125%;writing-mode:lr-tb;text-anchor:middle;fill:#000000;fill-opacity:1;stroke:none;font-family:Helvetica Neue;-inkscape-font-specification:Helvetica Neue"
   x="162.85999"
   y="-709.64325"
   id="text7139"
   sodipodi:linespacing="125%"
   transform="scale(1,-1)"><tspan
     sodipodi:role="line"
     id="tspan7141"
     x="162.85999"
     y="-709.64325">2sXB Free Energy</tspan></text>




<text
   xml:space="preserve"
   style="font-size:7.2;font-style:normal;font-variant:normal;font-weight:normal;font-stretch:normal;text-align:center;line-height:125%;writing-mode:lr-tb;text-anchor:middle;fill:#000000;fill-opacity:1;stroke:none;font-family:Helvetica Neue;-inkscape-font-specification:Helvetica Neue"
   x="61.262543"
   y="-637.11157"
   id="text7143"
   sodipodi:linespacing="125%"
   transform="scale(1,-1)"><tspan
     sodipodi:role="line"
     id="tspan7145"
     x="61.262543"
     y="-637.11157">4sXB Attachment Rate</tspan></text>




<text
   xml:space="preserve"
   style="font-size:7.19999981px;font-style:normal;font-variant:normal;font-weight:normal;font-stretch:normal;text-align:center;line-height:125%;writing-mode:lr-tb;text-anchor:middle;fill:#000000;fill-opacity:1;stroke:none;font-family:Helvetica Neue;-inkscape-font-specification:Helvetica Neue"
   x="162.85999"
   y="-637.11157"
   id="text7147"
   sodipodi:linespacing="125%"
   transform="scale(1,-1)"><tspan
     sodipodi:role="line"
     id="tspan7149"
     x="162.85999"
     y="-637.11157">2sXB Attachment Rate</tspan></text>




<text
   xml:space="preserve"
   style="font-size:7.2;font-style:normal;font-variant:normal;font-weight:normal;font-stretch:normal;text-align:center;line-height:125%;writing-mode:lr-tb;text-anchor:middle;fill:#000000;fill-opacity:1;stroke:none;font-family:Helvetica Neue;-inkscape-font-specification:Helvetica Neue"
   x="62.256916"
   y="-565.57434"
   id="text7151"
   sodipodi:linespacing="125%"
   transform="scale(1,-1)"><tspan
     sodipodi:role="line"
     id="tspan7153"
     x="62.256916"
     y="-565.57434">4sXB Powerstroke Rate</tspan></text>




<text
   xml:space="preserve"
   style="font-size:7.19999981px;font-style:normal;font-variant:normal;font-weight:normal;font-stretch:normal;text-align:center;line-height:125%;writing-mode:lr-tb;text-anchor:middle;fill:#000000;fill-opacity:1;stroke:none;font-family:Helvetica Neue;-inkscape-font-specification:Helvetica Neue"
   x="162.52855"
   y="-565.90582"
   id="text7155"
   sodipodi:linespacing="125%"
   transform="scale(1,-1)"><tspan
     sodipodi:role="line"
     id="tspan7157"
     x="162.52855"
     y="-565.90582">2sXB Powerstroke Rate</tspan></text>




<text
   xml:space="preserve"
   style="font-size:7.2;font-style:normal;font-variant:normal;font-weight:normal;font-stretch:normal;text-align:center;line-height:125%;writing-mode:lr-tb;text-anchor:middle;fill:#000000;fill-opacity:1;stroke:none;font-family:Helvetica Neue;-inkscape-font-specification:Helvetica Neue"
   x="61.319828"
   y="-492.37979"
   id="text7159"
   sodipodi:linespacing="125%"
   transform="scale(1,-1)"><tspan
     sodipodi:role="line"
     id="tspan7161"
     x="61.319828"
     y="-492.37979">4sXB Detachment Rate</tspan></text>




<text
   xml:space="preserve"
   style="font-size:7.19999981px;font-style:normal;font-variant:normal;font-weight:normal;font-stretch:normal;text-align:center;line-height:125%;writing-mode:lr-tb;text-anchor:middle;fill:#000000;fill-opacity:1;stroke:none;font-family:Helvetica Neue;-inkscape-font-specification:Helvetica Neue"
   x="162.52853"
   y="-492.37979"
   id="text7163"
   sodipodi:linespacing="125%"
   transform="scale(1,-1)"><tspan
     sodipodi:role="line"
     id="tspan7165"
     x="162.52853"
     y="-492.37979">2sXB Detachment Rate</tspan></text>




<g
   transform="matrix(0.2943977,0,0,0.2943977,-680.98523,664.96102)"
   id="g3011"><path
     d="M 2387.8139,141.1305 L 2652.7458,141.1305 L 2652.7458,-3.0803 L 2387.8139,-3.0803 L 2387.8139,141.1305 z"
     style="fill:#ffffff;fill-opacity:1;fill-rule:nonzero;stroke:none"
     id="path3413" /><g
     id="g3415"
     transform="matrix(1.3857503,0,0,-1.3857503,2611.681,138.4668)"><path
       style="fill:#4444bb;fill-opacity:1;fill-rule:nonzero;stroke:#4444bb;stroke-width:0.18792467;stroke-miterlimit:4;stroke-dasharray:none;stroke-opacity:1"
       d="M -6.4348773,4.4006871 C -3.051281,1.6095744 -2.3536248,1.0090332 1.713053,-0.57101767 C 7.968632,-2.2462381 6.2257513,11.098967 3.6587103,16.004936 C -5.2816441,42.957755 -28.213427,67.61619 -55.389501,77.462583 C -61.772847,79.827197 -73.166227,83.771675 -78.479236,78.823428 C -82.396518,76.809626 -78.385616,68.354363 -73.771162,65.180321 C -60.095025,52.081549 -46.227568,40.876333 -32.545085,28.627725 C -22.367893,18.76927 -9.8747844,7.2382503 -6.4348773,4.4006871 z"
       id="path3417"
       sodipodi:nodetypes="cccccccz" /></g><g
     id="g3419"
     transform="matrix(1.3857503,0,0,-1.3857503,2581.4584,141.1308)"><path
       style="fill:#2288ff;fill-opacity:1;fill-rule:nonzero;stroke:#2288ff;stroke-width:0.26041669"
       d="M 2451.4062,2184.5625 L 2448.75,2185.0625 L 2443.4375,2187.2188 L 2438.1562,2190.2812 L 2434.5312,2193.3125 L 2432.125,2196.2188 L 2430.5625,2199.125 L 2429.7188,2202.0625 L 2429.6558,2206.4062 L 2430.8746,2210.7812 L 2433.2808,2215.1562 L 2436.8121,2219.5312 L 2441.4058,2223.9062 L 2448.7496,2229.5938 L 2459.3434,2236.5312 L 2479.2184,2248.2812 L 2505.7184,2264.125 L 2521.5934,2274.625 L 2537.4996,2286.375 L 2549.9996,2296.7188 L 2562.5934,2308.375 L 2573.8121,2320.0312 L 2581.4684,2328.7812 L 2648.7808,2328.7812 L 2647.5621,2324.4062 L 2642.7808,2311.3125 L 2637.7184,2299.6562 L 2630.9996,2286.5312 L 2624.0621,2274.875 L 2616.1558,2263.2188 L 2607.0621,2251.5625 L 2598.0621,2241.375 L 2587.8434,2231.2188 L 2577.8121,2222.4375 L 2566.6558,2213.875 L 2556.0308,2206.7812 L 2545.4371,2200.6562 L 2534.8434,2195.375 L 2522.7808,2190.4062 L 2509.6871,2186.1562 L 2504.3746,2184.8125 L 2499.0934,2184.5625 L 2451.4058,2184.5625 L 2451.4062,2184.5625 z M 2511,2214.0625 L 2516.3125,2214.1245 L 2523.25,2215.1557 L 2530.875,2217.2495 L 2540.5312,2220.9995 L 2550.75,2226.187 L 2560.9688,2232.6245 L 2570.5938,2239.937 L 2580.375,2248.6557 L 2588.7188,2257.4057 L 2597.0625,2267.5933 L 2604.125,2277.7807 L 2610,2287.9995 L 2614.75,2298.187 L 2617.8125,2306.937 L 2619.5,2314.2183 L 2619.9062,2320.0307 L 2619.5312,2322.937 L 2618,2325.8745 L 2615.6562,2326.937 L 2613.6562,2326.687 L 2611.1875,2325.8745 L 2606.375,2322.9683 L 2599.2188,2317.1245 L 2585.2812,2304.0307 L 2560.5,2280.7183 L 2538.8125,2261.812 L 2513.75,2239.937 L 2506.8125,2232.6245 L 2503.5938,2228.2807 L 2501.4688,2223.9057 L 2501,2221 L 2501.8438,2218.0625 L 2503.0625,2216.6562 L 2505.6562,2215.1562 L 2511,2214.0625 z"
       transform="matrix(0.7216307,0,0,-0.7216307,-1862.8597,1680.5188)"
       id="path3421"
       sodipodi:nodetypes="ccccccccccccccccccccccccccccccccccccccccccccccccccccccccccccccccccccccccccccccc" /></g><g
     id="g3423"
     transform="matrix(1.3857503,0,0,-1.3857503,2565.1725,141.1308)"><path
       d="M 0,0 L 11.752,0 L 4.29,8.409 L -4.039,16.819 L -13.278,25.132 L -22.543,32.586 L -32.396,39.732 L -43.867,47.259 L -59.162,56.434 L -80.192,68.987 L -87.839,74.468 L -92.614,78.839 L -95.174,81.992 L -96.922,85.146 L -97.802,88.299 L -97.744,91.453 L -97.133,93.555 L -96.003,95.658 L -94.27,97.76 L -91.784,99.862 L -88.795,101.681 L -84.971,103.376 L -83.06,104.043 L -109.825,104.067 L -123.7466,104.067 L -124.899,103.016 L -127.556,99.862 L -127.987,98.811 L -127.902,78.839 L -125.25,75.685 L -121.75,72.532 L -117.472,69.46 L -110.781,65.56 L -102.178,61.37 L -86.562,54.662 L -65.853,45.691 L -52.47,39.131 L -40.999,32.728 L -30.85,26.279 L -22.068,19.972 L -14.25,13.666 L -6.163,6.307 L 0,0 z"
       style="fill:#77dd55;fill-opacity:1;fill-rule:nonzero;stroke:#77dd55;stroke-width:0.18792467"
       id="path3425"
       sodipodi:nodetypes="ccccccccccccccccccccccccccccccccccccccccccc" /></g><g
     id="g3427"
     transform="matrix(1.3857503,0,0,-1.3857503,2648.9231,141.1308)"><path
       d="M 0,0 L 1.803,0 L 1.803,19.972 L 0.434,23.126 L -4.473,32.586 L -10.101,42.047 L -16.534,51.508 L -23.02,59.917 L -30.353,68.327 L -37.587,75.685 L -45.757,83.043 L -53.641,89.314 L -62.244,95.331 L -70.847,100.573 L -76.583,103.667 L -78.494,104.067 L -105.055,104.067 L -95.701,101.477 L -87.098,98.33 L -79.45,94.908 L -71.803,90.875 L -62.572,85.146 L -53.921,78.839 L -46.405,72.532 L -38.724,65.173 L -31.978,57.815 L -25.209,49.406 L -19.291,40.996 L -13.518,31.536 L -8.584,22.075 L -4.422,12.614 L -0.984,3.153 L 0,0 z"
       style="fill:#77dd55;fill-opacity:1;fill-rule:nonzero;stroke:#77dd55;stroke-width:0.18792467"
       id="path3429" /></g><g
     id="g3431"
     transform="matrix(1.3857503,0,0,-1.3857503,2550.6606,141.1308)"><path
       d="M 0,0 L 10.472,0 L 3.216,7.358 L -5.02,14.716 L -14.276,21.979 L -23.547,28.382 L -33.395,34.409 L -44.866,40.61 L -58.249,46.998 L -77.367,55.199 L -94.573,62.699 L -103.177,67.134 L -109.868,71.447 L -113.691,74.618 L -116.636,77.788 L -117.43,78.839 L -117.515,74.634 L -117.515,55.712 L -114.647,54.185 L -102.221,50.055 L -65.896,38.498 L -53.421,33.638 L -41.848,28.382 L -32.439,23.451 L -23.13,17.87 L -14.276,11.797 L -5.945,5.256 L 0,0 z"
       style="fill:#ffdd44;fill-opacity:1;fill-rule:nonzero;stroke:#ffdd44;stroke-width:0.18792467"
       id="path3433" /></g><g
     id="g3435"
     transform="matrix(1.3857503,0,0,-1.3857503,2651.4212,113.0944)"><path
       d="M 0,0 L 0,14.457 L -1.654,17.61 L -7.48,27.071 L -14.076,36.532 L -21.55,45.993 L -29.054,54.402 L -37.528,62.812 L -45.884,70.143 L -54.02,76.477 L -63.09,82.713 L -64.861,83.835 L -79.165,83.835 L -69.782,78.677 L -60.223,72.524 L -51.62,66.136 L -42.765,58.607 L -35.153,51.249 L -27.467,42.839 L -20.68,34.43 L -13.954,24.969 L -8.068,15.508 L -2.925,6.047 L -0.37,0.792"
       style="fill:#ffdd44;fill-opacity:1;fill-rule:nonzero;stroke:#ffdd44;stroke-width:0.18792467"
       id="path3437" /></g><g
     id="g3439"
     transform="matrix(1.3857503,0,0,-1.3857503,2387.814,2.7465)"><path
       d="M 0,0 L 0,-0.629 L 0.432,0 L 0.956,0.691 L 1.231,1.051 L 1.912,1.862 L 2.115,2.103 L 2.868,2.917 L 3.088,3.154 L 3.824,3.88 L 4.156,4.205 L 3.824,4.205 L 2.868,4.205 L 1.912,4.205 L 0.956,4.205 L 0,4.205 L 0,3.154 L 0,2.103 L 0,1.051 L 0,0 z"
       style="fill:#ffdd44;fill-opacity:1;fill-rule:nonzero;stroke:none"
       id="path3441" /></g><g
     id="g3443"
     transform="matrix(1.3857503,0,0,-1.3857503,2387.814,141.1308)"><path
       d="M 0,0 L 117.81861,0 L 116.375,1.051 L 109.014,7.358 L 100.639,13.666 L 92.726,18.921 L 84.121,23.982 L 73.493,29.433 L 63.09,34.059 L 50.511,38.894 L 36.325,43.63 L 0,55.258 L 0,0 z"
       style="fill:#ff7722;fill-opacity:1;fill-rule:nonzero;stroke:#ff7722;stroke-width:0.18792467"
       id="path3445"
       sodipodi:nodetypes="ccccccccccccc" /></g><g
     id="g3447"
     transform="matrix(1.3857503,0,0,-1.3857503,2651.4212,92.7283)"><path
       d="M 0,0 L 0,69.138 L -64.861,69.138 L -55.465,62.832 L -45.917,55.473 L -37.528,48.115 L -30.057,40.756 L -22.441,32.347 L -15.657,23.938 L -8.877,14.477 L -2.885,5.016 L -0.456,0.812"
       style="fill:#ff7722;fill-opacity:1;fill-rule:nonzero;stroke:#ff7722;stroke-width:0.18792467"
       id="path3449" /></g></g><g
   id="g4041"
   clip-path="url(#clipPath4043)"
   transform="matrix(0.4042426,0,0,-0.4042426,-1.2254986,796.73051)"><g
     id="g4047"
     transform="translate(57.6001,401.022)"><path
       style="fill:#4444bb;fill-opacity:1;fill-rule:nonzero;stroke:#4444bb;stroke-width:0.18792467"
       d="m 0,0 c 46.417999,0 92.835999,0 139.254,0 -5.58122,4.5219866 -10.68159,9.49497 -16.25565,13.935994 -2.9385,2.954741 -6.34989,5.884181 -9.55617,8.642731 -10.31415,10.459532 -22.009791,19.571158 -31.704467,30.672347 -3.637277,3.384509 -6.495127,7.230826 -8.934935,11.288453 -2.197094,3.284275 -3.529662,7.091732 -4.515535,10.650649 -0.09625,3.374231 0.50477,7.240076 2.065984,9.490337 3.432303,3.004798 6.21322,4.747937 10.209744,6.352525 5.301303,1.191088 9.954428,1.21648 15.527458,0.700246 6.711901,-1.040751 13.605631,-2.766354 19.575571,-5.399282 4.87095,-2.01991 9.32665,-4.685841 13.89699,-7.162722 8.33151,-5.412809 15.38336,-12.022421 21.88769,-19.510388 8.33398,-9.249365 15.03033,-20.311306 19.33939,-31.770701 3.2585,-8.304259 5.7333,-18.9400358 5.69883,-27.88512643 3.57916,-0.00120167 9.39563,-0.05405457 14.74603,0 0.16799,4.02971833 0.084,94.48865543 0,104.14592743 -4.9669,0.084 -173.7976,0.0358 -191.19551941,-0.13223 C 0.03133236,99.813435 0,31.133595 0,0 z"
       id="path4049"
       sodipodi:nodetypes="ccccccccccccccccccc" /></g><g
     id="g4051"
     transform="translate(196.854,401.022)"><path
       style="fill:#2288ff;fill-opacity:1;fill-rule:nonzero;stroke:#2288ff;stroke-width:0.26041669"
       d="m 2511.0625,2438.8125 c -0.6856,0.01 -1.3751,0.01 -2.0625,0.031 -8.147,0.2546 -15.893,3.3366 -22.0938,8.6874 -6.3243,6.1119 -5.4292,15.5019 -2.0312,23.0626 3.9554,7.5959 8.817,14.719 14.8438,20.9374 11.0581,12.4431 23.3569,23.6619 35.5312,35 14.9383,13.7278 30.0789,27.025 45.5312,40.1876 8.3889,1.0869 39.2261,0 51.4376,0 1.5202,-20.3688 -7.0871,-39.5142 -15.8438,-57.3438 -11.4188,-19.9464 -27.5542,-37.1086 -46.125,-50.5312 -17.5753,-11.3944 -37.9346,-20.2517 -59.1875,-20.0313 l 0,3e-4 z m 25.6875,28.5 c 3.2533,-0.017 6.4971,0.5309 9,1.375 13.5389,4.1135 25.4896,12.8918 35.4688,22.5937 4.8656,5.8757 9.9869,11.5561 13.2812,18.5313 3.5554,7.2695 8.3909,14.5921 8.0625,22.9375 -1.0967,6.6092 -3.7333,9.7501 -8.822,12.0169 -6.2404,-2.2668 -23.3993,-11.9015 -29.8967,-17.6419 -10.5241,-8.1381 -19.7211,-17.9168 -28.5938,-27.8125 -4.8599,-6.4663 -10.2364,-13.1973 -12.0625,-21.0313 -0.7477,-8.1757 6.4053,-10.9318 13.5625,-10.9687 z"
       transform="matrix(0.7216307,0,0,-0.7216307,-1862.3739,1852.2296)"
       id="path4053"
       sodipodi:nodetypes="ccccccccccccccccccccc" /></g><g
     id="g4055"
     transform="translate(205.7666,416.7813)"><path
       style="fill:#77dd55;fill-opacity:1;fill-rule:nonzero;stroke:#77dd55;stroke-width:0.18792467"
       d="M -13.838251,6.9691257 C -10.280261,4.8277668 -4.0669864,0.36908459 0,0 3.8352882,-0.34805765 6.1899032,2.6222498 6.6349589,5.2843323 7.0766368,7.9262103 7.5163895,10.116959 5.5970632,15.774949 c -1.9193263,5.65799 -7.4825093,15.295802 -11.2405194,19.643717 -3.7580098,4.347915 -6.3893618,6.473991 -9.0367198,8.651351 -2.647357,2.177361 -5.877005,4.380396 -8.962774,6.247088 -3.085768,1.866692 -7.594459,4.075591 -11.409199,4.985338 -3.81474,0.909747 -8.589031,1.246143 -12.031293,-0.635822 -3.442262,-1.881964 -4.1104,-5.168185 -3.064085,-8.413102 1.046315,-3.244917 3.399172,-6.294855 5.568654,-9.715956 2.169482,-3.421101 5.739423,-6.963719 9.180597,-10.793938 3.441174,-3.830219 8.193792,-8.594372 12.064684,-11.600941 3.870892,-3.00657 5.937351,-5.0321994 9.495341,-7.1735583 l 0,0 z"
       id="path4057"
       sodipodi:nodetypes="cszzzzzzzzzzzs" /></g></g><g
   id="g4351"
   clip-path="url(#clipPath4353)"
   transform="matrix(0.4051003,0,0,-0.4051003,-5.221172,797.09459)"><g
     id="g4357"
     transform="translate(315.6973,401.022)"><path
       style="fill:#4444bb;fill-opacity:1;fill-rule:nonzero;stroke:#4444bb;stroke-width:0.18792467"
       d="M 0,0 C 11.439767,-0.19135124 132.71515,-0.1275675 141.476,0 C 137.49908,5.3231826 132.5329,9.3905299 128.19026,14.471257 C 117.65083,25.774801 106.03152,36.799037 95.172876,47.855677 C 90.708187,52.018957 86.809285,57.119126 82.037623,61.156218 C 80.253519,63.965197 77.497861,66.446391 75.102897,69.025191 C 73.284949,71.663725 71.491192,73.800933 69.744366,76.441874 C 67.851794,79.350371 66.784722,81.551912 66.093214,84.958788 C 66.238383,87.195127 67.508475,90.679131 69.181441,93.236207 C 72.143532,95.266169 73.815451,95.981233 76.727316,96.740876 C 80.842611,96.837036 83.554851,96.837286 87.248468,96.60951 C 94.252608,95.18187 101.06637,93.609068 107.29817,90.995894 C 112.2881,88.640428 117.23691,86.192979 122.00014,83.091308 C 132.23321,76.429085 138.48405,70.540494 145.299,63.855163 C 153.34789,55.959363 158.4274,46.890441 163.61533,36.787835 C 169.25613,27.199541 174.18349,16.634058 176.37514,5.7060561 C 176.85186,1.8050908 176.75553,0.73652262 176.83,-0.07447184 C 180.02005,-0.09287169 188.3646,-0.11907442 191.13942,-0.10069764 C 191.26699,5.9627867 191.5427,97.423895 191.22382,104.067 C 128.13348,104.067 63.091637,104.067 0.00130159,104.067 C -0.04365039,97.992866 -0.14262467,6.328516 0,0 z"
       id="path4359"
       sodipodi:nodetypes="cccccccccccccsccccccc" /></g><g
     id="g4361"
     transform="translate(457.7188,401.022)"><path
       style="fill:#2288ff;fill-opacity:1;fill-rule:nonzero;stroke:#2288ff;stroke-width:0.18792467"
       d="M -20.747316,46.960867 C -25.946298,53.112328 -27.133528,57.11413 -25.232492,58.708949 C -23.361825,60.27829 -17.361072,57.301963 -13.133164,53.761941 C -8.8922843,50.088264 -5.5743519,45.22958 -2.8621938,40.643417 C -0.82643926,35.856953 -2.2381535,31.743524 -8.6833,36.510892 M -60.322038,96.998228 C -65.900677,97.472556 -72.398456,95.797507 -74.938379,90.289083 C -78.011155,84.625797 -73.981641,78.689591 -70.850414,74.079237 C -61.886245,61.670581 -50.266692,51.529216 -39.711833,40.525574 C -28.122083,28.912444 -16.590424,17.2138 -5.4374773,5.1941023 C -2.1623662,1.2467926 -2.2620136,1.7041519 -0.65219979,-0.12871794 C 11.172152,-0.13247042 22.996071,9.313961e-05 34.820423,0.00651565 C 34.96843,10.201426 30.616203,19.727239 27.072274,29.05944 C 19.900564,42.971469 11.481948,56.492375 0.02923608,67.312795 C -13.649057,80.650911 -30.433105,91.423847 -49.202359,95.751611 C -52.856769,96.524622 -56.585218,96.96828 -60.322038,96.998228 L -60.322038,96.998228 L -60.322038,96.998228 z"
       id="path4363"
       sodipodi:nodetypes="czcccccccccccccc" /></g><g
     id="g4365"
     transform="translate(434.2305,453.9136)" /><g
     id="g4369"
     transform="translate(433.2744,457.7358)"><path
       d="M 0,0 L 0.023,0.05 L 0,0.136 L -0.033,0.05 L 0,0 z"
       style="fill:#2288ff;fill-opacity:1;fill-rule:nonzero;stroke:none"
       id="path4371" /></g><g
     id="g4373"
     transform="translate(437.0986,458.7495)" /><g
     id="g4377"
     transform="translate(453.2217,433.6084)"><path
       d="M 0,0 L 0.127,-0.08"
       style="fill:#77dd55;fill-opacity:1;fill-rule:nonzero;stroke:none"
       id="path4379" /></g><g
     id="g4381"
     transform="translate(454.708,436.7622)"><path
       style="fill:#77dd55;fill-opacity:1;fill-rule:nonzero;stroke:#77dd55;stroke-width:0.18792467"
       d="M -1.7495418,-1.3621756 C -0.08058914,-1.5549936 0.5328879,-1.1098916 0.94932669,0.16955441 C 1.3840888,1.5052954 0.84131882,3.4578424 0.16345011,5.1967684 C -0.53558488,6.9899914 -2.2773329,9.1025304 -3.4420517,10.776235 C -4.6274925,12.479717 -5.6745342,13.560131 -7.1876792,15.179049 C -8.6714064,16.766492 -9.2204251,17.287149 -10.887247,18.681017 C -14.25811,21.344077 -20.240124,25.562323 -23.025529,22.291019 C -24.400513,20.70464 -21.162472,15.764161 -19.539455,13.384556 C -17.916439,11.00495 -14.746598,7.9831684 -12.806541,6.3313664 C -10.866484,4.6795644 -9.0678899,3.1489854 -7.1541191,1.7676764 C -5.2403483,0.38636741 -3.3568959,-1.1764736 -1.7495418,-1.3621756 L -1.7495418,-1.3621756 L -1.7495418,-1.3621756 z"
       id="path4383"
       sodipodi:nodetypes="czzzzcczzzz" /></g><g
     id="g4385"
     transform="translate(458.1279,437.8018)"><path
       d="M 0,0 L 0.013,0.012 L 0,0.039 L -0.136,0.012 L 0,0 z"
       style="fill:#77dd55;fill-opacity:1;fill-rule:nonzero;stroke:none"
       id="path4387" /></g><g
     id="g4389"
     transform="translate(431.3623,461.9531)"><path
       d="M 0,0 L 0.052,0.038 L 0,0.052 L -0.017,0.038 L 0,0 z"
       style="fill:#77dd55;fill-opacity:1;fill-rule:nonzero;stroke:none"
       id="path4391" /></g></g><g
   id="g5313"
   clip-path="url(#clipPath5315)"
   transform="matrix(0.4053966,0,0,-0.4053966,-1.4677478,513.98324)"><g
     id="g5319"
     transform="translate(100.6162,108.0479)"><path
       style="fill:#4444bb;fill-opacity:1;fill-rule:nonzero;stroke:#4444bb;stroke-width:0.18792467"
       d="m 0,0 c 6.6786103,0.07226489 13.469551,0.4470324 19.860171,2.5410263 2.474926,0.8331085 4.955326,2.264371 5.949828,4.8069737 0.411164,3.232727 -2.207583,5.731238 -4.654681,7.388631 C 14.998726,18.674526 7.5289556,20.178316 0.29654273,20.041167 -5.7958723,19.759304 -12.129181,18.412146 -16.998345,14.526143 -19.194632,12.677449 -21.138919,9.5924309 -19.776044,6.703484 -18.651085,4.2759432 -16.050589,3.094273 -13.726366,2.0958366 -9.6354939,0.67266936 -5.2575637,0.24483621 -0.95599997,0.023"
       id="path5321" /></g><g
     id="g5323"
     transform="translate(72.8945,95.4326)"><path
       style="fill:#2288ff;fill-opacity:1;fill-rule:nonzero;stroke:#2288ff;stroke-width:0.18792467"
       d="M 24.845114,44.658801 C 20.493031,44.325985 16.140082,43.999591 11.883111,42.980937 8.8104794,42.291347 5.7763109,41.308919 2.8389132,40.180216 -0.31850979,38.895642 -3.3362972,37.3463 -6.1697802,35.447329 c -3.4075401,-2.156016 -6.4072868,-4.939273 -8.9003048,-8.107665 -0.481399,-5.081435 -0.107378,-10.208693 -0.225509,-15.30954 0,-1.902651 0,-3.8053026 0,-5.7079541 2.619519,-2.3792164 5.825075,-3.9502065 9.210389,-4.916903 4.7875867,-1.48590974 9.8307028,-1.84275612 14.8066351,-2.189644 8.2657749,-0.330579 16.5398479,-0.073029 24.7970349,0.35785666 9.273604,0.54526416 18.563228,0.88544087 27.793246,1.98881424 3.639255,0.3433519 7.267903,1.0076851 10.810677,1.8756625 2.941728,0.9437486 6.069492,1.758181 8.238713,4.1169753 2.648313,2.1005226 3.120259,6.0279254 1.867653,9.0421774 -1.064045,3.293811 -3.214793,6.182065 -5.596318,8.657547 -4.65156,5.036622 -10.501459,8.779432 -16.601115,11.823486 -5.806601,2.768104 -11.953957,4.843081 -18.277751,6.050802 -5.092115,1.158145 -10.332308,1.470394 -15.543203,1.497672 -0.455061,0.01068 -0.910193,0.02143 -1.365253,0.03218 l 0,5e-6 z m 2.886522,-11.974524 c 3.432004,-0.03572 6.852461,-0.185747 10.212085,-0.942954 3.955619,-0.910338 7.938876,-2.225149 11.236007,-4.67126 1.941908,-1.261122 3.822261,-3.098105 4.296517,-5.417715 0.461338,-2.015298 -0.805196,-3.86693 -2.556449,-4.761752 -1.852354,-1.417139 -4.243117,-1.876529 -6.40671,-2.647014 -4.367453,-1.006747 -8.85578,-1.379541 -13.322746,-1.559444 -4.730506,-0.03529 -9.484681,0.07707 -14.114519,1.137074 -2.321847,0.58582 -4.642611,1.499981 -6.70164,2.713909 -1.1241564,1.243658 -2.6733532,2.239941 -2.8126279,4.057079 -0.4242467,2.4814 1.1940102,4.771928 2.9743449,6.36233 2.330868,2.097636 5.35782,3.232184 8.266569,4.277754 2.931047,0.832113 5.894063,1.238463 8.929169,1.451993 l 0,0 z"
       id="path5325" /></g><g
     id="g5327"
     transform="translate(57.6001,59.7021)"><path
       style="fill:#77dd55;fill-opacity:1;fill-rule:nonzero;stroke:#77dd55;stroke-width:0.18792467"
       d="M 0,-0.30741581 C 23.92841,3.7478784 47.870732,9.1128126 72.286221,8.4568719 c 19.98764,-0.072111 39.589829,-4.727458 59.394689,-6.7107395 6.91524,-0.6225056 16.26867,0.2993367 19.06795,7.9031004 3.11005,9.1291722 -0.6128,18.9509992 -4.41845,27.3175832 -12.82517,25.987609 -36.4528,45.642082 -62.918628,56.767632 -10.334207,3.979593 -21.122107,7.454332 -32.209233,8.221242 -10.864755,-0.24084 -21.805709,0.28246 -32.62278,-0.43657 C 12.317106,100.44791 6.1622777,98.815935 0.17,96.709 -0.22406901,85.509948 0.11133585,74.28146 0,63.070999 c 5.4894292,6.063745 12.214165,10.992918 20.045818,13.547288 21.082814,7.379886 45.500717,3.54475 63.927813,-8.85215 C 90.390199,63.004643 97.7713,56.958942 98.209999,48.354 97.405549,41.367049 89.322717,39.497761 83.572652,38.306011 68.16335,35.84851 52.496982,35.443964 36.925242,34.920002 25.359541,34.877503 12.821427,34.129883 2.4644859,40.120982 -1.1600511,44.383143 0.23284075,38.503859 0,35.910577 0,23.837913 0,11.765248 0,-0.30741581 z"
       id="path5329"
       sodipodi:nodetypes="cccccccccccccccccc" /></g><g
     id="g5331"
     transform="translate(57.6001,57.5996)"><path
       d="m 0,0 189.85508,0 -0.30108,1.052 -2.69,9.461 -3.393,9.46 -4.105,9.461 -4.843,9.461 -5.632,9.459 -5.733,8.411 -6.497,8.409 -7.377,8.409 -7.302,7.358 -8.154,7.273 -8.123,6.393 -9.083,6.272 -4.78,2.964 -3.824,0.224 -54.785,0 1.254,-0.18 8.603,-1.611 8.603,-2.257 8.604,-2.93 7.647,-3.201 8.603,-4.325 8.603,-5.173 7.648,-5.411 7.647,-6.319 6.687,-6.435 5.666,-6.307 5.653,-7.358 4.716,-7.359 3.324,-6.306 2.632,-6.279 1.89,-6.336 0.854,-5.256 0.062,-4.205 -0.477,-3.153 -1.167,-3.153 L 148.855,8.41 146.382,6.308 144.266,5.256 140.52,4.271 136.696,3.93 129.652,4.205 119.489,5.511 92.724,9.308 80.297,10.313 68.826,10.618 57.355,10.29 45.884,9.337 33.457,7.668 16.25,4.618 0,1.856 0,0 z"
       style="fill:#ffdd44;fill-opacity:1;fill-rule:nonzero;stroke:#ffdd44;stroke-width:0.18792467"
       id="path5333"
       sodipodi:nodetypes="cccccccccccccccccccccccccccccccccccccccccccccccccccccc" /></g><g
     id="g5335"
     transform="translate(57.6001,156.4111)"><path
       d="M 0,0 0,-0.063 0.17,0 0.956,0.284 1.912,0.621 2.868,0.947 3.182,1.052 3.824,1.262 4.779,1.565 5.735,1.86 6.55,2.103 l 0.141,0.042 0.956,0.272 0.956,0.264 0.956,0.254 0.857,0.218 0.099,0.026 0.956,0.233 0.956,0.225 0.956,0.216 0.955,0.206 0.708,0.146 0.248,0.051 0.956,0.186 0.957,0.179 0.955,0.17 0.956,0.16 0.956,0.153 0.956,0.142 0.068,0.01 -0.068,0 -0.956,0 -0.956,0 -0.956,0 -0.955,0 -0.957,0 -0.956,0 -0.956,0 -0.955,0 -0.956,0 -0.956,0 -0.956,0 -0.956,0 -0.956,0 -0.956,0 -0.956,0 -0.956,0 -0.956,0 -0.955,0 -0.956,0 -0.956,0 -0.956,0 L 0,5.256 0,4.205 0,3.153 0,2.103 0,1.052 0,0 z"
       style="fill:#ffdd44;fill-opacity:1;fill-rule:nonzero;stroke:none"
       id="path5337" /></g><g
     id="g5339"
     transform="translate(247.4092,57.5996)"><path
       style="fill:#ff7722;fill-opacity:1;fill-rule:nonzero;stroke:#ff7722;stroke-width:0.18792467"
       d="M 0,0 C 0.83940138,-0.10027361 0.72131743,-0.04809412 1.4524073,-0.01307666 1.4524073,13.325858 1.8612615,37.118067 1.8612615,50.457001 -2.8909702,58.771685 -10.075824,66.522996 -16.088476,73.971503 -25.002554,85.01721 -35.148042,95.030394 -46.084,104.067 c -10.627667,0 -21.255335,0 -31.883003,0 9.322399,-6.223183 18.641231,-12.519244 26.863032,-20.183796 14.112445,-12.662996 26.020108,-27.724203 35.358376,-44.21631 C -8.8102562,27.187533 -3.4318966,13.868185 0,0 z"
       id="path5341"
       sodipodi:nodetypes="ccccccccc" /></g><g
     id="g5343"
     transform="translate(247.8271,108.3955)"><path
       d="m 1.040352,53.271 c -15.769472,0.01653 -31.750418,0.100237 -47.520211,0 0.744883,-0.696202 0.911388,-0.738279 1.261859,-1.05 2.508747,-2.231368 5.965836,-5.288893 8.432,-7.567236 5.754934,-5.283034 11.142043,-10.944017 16.286,-16.819 8.594665,-9.985225 14.0652568,-17.422311 21.5052615,-27.58288767"
       style="fill:#ff4466;fill-opacity:1;fill-rule:nonzero;stroke:none"
       id="path5345"
       sodipodi:nodetypes="ccsccc" /></g></g><g
   id="g5639"
   clip-path="url(#clipPath5641)"
   transform="matrix(0.4070909,0,0,-0.4070909,-5.8281089,514.13445)"><g
     id="g5645"
     transform="translate(379.7432,104.873)"><path
       style="fill:#4444bb;fill-opacity:1;fill-rule:nonzero;stroke:#4444bb;stroke-width:0.18792467"
       d="M -23.578911,6.292675 C -16.671915,3.6813704 -6.6573651,0.88845791 0,0 C 2.5577958,-0.1385367 6.5458791,-0.63924856 7.6350868,2.3202581 C 7.9800679,5.4492896 5.5771895,7.9991182 3.5482197,9.9461134 C -3.2844159,16.359611 -12.028052,20.411383 -21.025249,22.750529 C -28.005574,24.332018 -35.881221,25.38609 -42.506528,22.95944 C -46.356513,22.198897 -47.515518,18.295737 -43.705525,15.612807 C -37.701764,11.184517 -30.485907,8.9039796 -23.578911,6.292675 L -23.578911,6.292675 L -23.578911,6.292675 z"
       id="path5647"
       sodipodi:nodetypes="cccccccc" /></g><g
     id="g5649"
     transform="translate(403.6416,83.832)"><path
       style="fill:#2288ff;fill-opacity:1;fill-rule:nonzero;stroke:#2288ff;stroke-width:0.26041669"
       d="M 2772,2926.2188 C 2762.2949,2926.1848 2752.9107,2927.4535 2745.4688,2930.5938 C 2745.4688,2941.1599 2745.4688,2955.7151 2745.4688,2966.2812 C 2774.0305,2975.2072 2796.9717,2982.3243 2822.4062,2991.3261 C 2826.3604,2992.6942 2830.2984,2993.9956 2834.2188,2995.4578 C 2844.7952,2999.0647 2855.2284,3003.0836 2866.0312,3005.9688 L 2867.3438,3006.2812 C 2872.994,3007.0586 2879.6627,3008.8375 2884.5625,3004.9375 C 2888.7593,3000.0192 2886.3924,2993.1905 2884.25,2987.9062 C 2877.3507,2973.376 2865.4436,2961.8999 2852.625,2952.5 C 2835.4184,2940.1343 2815.3345,2931.939 2794.4688,2928.375 C 2787.3099,2927.0437 2779.5484,2926.2453 2772,2926.2188 L 2772,2926.2188 L 2772,2926.2188 z M 2785.6562,2943.4688 C 2788.4988,2943.3848 2791.3491,2943.5588 2794.0938,2943.8125 C 2808.5528,2945.1617 2822.606,2950.6799 2834.3125,2959.2188 C 2838.7829,2962.8982 2844.8683,2968.1753 2844.8302,2973.1562 C 2843.7981,2977.4245 2840.2457,2977.4908 2834.2188,2977.125 C 2820.473,2974.9923 2807.2326,2970.4812 2794.2188,2965.6875 C 2786.4075,2962.4979 2778.1018,2959.6572 2771.8438,2953.7812 C 2770.2512,2951.7445 2769.6664,2948.5903 2772.25,2947.0312 C 2776.2454,2944.4736 2780.9186,2943.6079 2785.6562,2943.4688 z"
       transform="matrix(0.7216307,0,0,-0.7216307,-2069.1615,2169.4196)"
       id="path5651"
       sodipodi:nodetypes="ccccccccccccccccccccc" /></g><g
     id="g5653"
     transform="translate(397.3369,57.5996)"><path
       style="fill:#77dd55;fill-opacity:1;fill-rule:nonzero;stroke:#77dd55;stroke-width:0.18792467"
       d="M 0,0 C 22.629333,0 45.258667,0 67.888,0 C 61.011752,30.915622 41.196869,57.963439 16.153708,76.862864 C -2.1831606,90.554586 -23.719446,100.3008 -46.369181,103.89103 C -57.790606,104.29778 -69.868459,103.95253 -81.304031,104.067 C -81.768184,96.40304 -81.639999,88.672875 -81.639999,80.973999 C -55.626434,87.900098 -27.193812,80.883939 -5.3524085,65.764335 C 4.9359775,58.343763 14.914402,49.111939 19.418393,36.971744 C 21.330205,32.957718 20.796737,26.403225 15.35979,25.821089 C 5.7396297,24.912382 -3.2408445,29.444145 -12.241145,32.156058 C -32.003232,39.095382 -51.683491,46.283874 -71.829973,52.052715 C -75.099982,53.05381 -78.369991,54.054905 -81.639999,55.056 C -81.639999,46.877666 -81.639999,38.699333 -81.639999,30.521 C -54.74884,26.753557 -28.755881,17.345029 -5.5227739,3.3186302 C -3.7750943,2.352984 -2.0826666,1.2961393 -0.38699999,0.243"
       id="path5655"
       sodipodi:nodetypes="ccccccccccccccc" /></g><g
     id="g5657"
     transform="translate(351.4668,57.5996)"><path
       style="fill:#ffdd44;fill-opacity:1;fill-rule:nonzero;stroke:#ffdd44;stroke-width:0.18792467"
       d="M 0,0 C 15.161001,0 30.322001,0 45.483002,0 C 40.99532,3.2389772 36.031724,5.7488399 31.243053,8.5043382 C 25.338402,11.58339 19.369818,14.526772 13.207115,17.058228 C 5.3957504,20.435643 -2.7097076,23.101713 -10.894412,25.413062 C -17.196732,27.022848 -23.520449,28.532082 -29.951423,29.537314 C -31.805451,29.862082 -33.928074,30.242821 -35.795702,30.483999 C -36.110347,24.13026 -35.636288,19.940613 -35.770002,14.673376 C -35.770002,12.935917 -35.770002,10.365359 -35.770002,8.6279008 C -23.552997,7.2540539 -11.510307,4.3143166 0,0 z"
       id="path5659"
       sodipodi:nodetypes="cccccccccc" /></g><g
     id="g5661"
     transform="translate(465.2246,57.5996)"><path
       style="fill:#ffdd44;fill-opacity:1;fill-rule:nonzero;stroke:#ffdd44;stroke-width:0.18792467"
       d="M 0,0 C 9.3293336,0 18.658667,0 27.988001,0 C 16.650484,35.422109 -5.4010443,67.346143 -34.730655,90.248296 C -41.283087,95.248069 -48.129456,100.26085 -55.38024,104.00342 C -74.972768,104.13608 -94.566113,104.03582 -114.159,104.06702 C -88.375769,99.451893 -63.909238,87.858225 -44.092376,70.721811 C -22.826944,52.322037 -6.0922211,27.698913 0,0 z"
       id="path5663" /></g><g
     id="g5665"
     transform="translate(315.6973,57.5996)"><path
       style="fill:#ff7722;fill-opacity:1;fill-rule:nonzero;stroke:#ff7722;stroke-width:0.18792467"
       d="M 0,0 C 11.923333,0 23.846667,0 35.77,0 C 24.294751,4.430451 12.233184,7.3354657 0,8.6219997 C 0,5.7479998 0,2.8739999 0,0 z"
       id="path5667" /></g><g
     id="g5669"
     transform="translate(493.2129,57.5996)"><path
       style="fill:#ff7722;fill-opacity:1;fill-rule:nonzero;stroke:#ff7722;stroke-width:0.18792467"
       d="M 0,0 C 4.2370001,0 8.6128502,0 12.84985,0 C 12.80752,9.4609998 12.76518,18.922 12.72285,28.382999 C 2.5538098,49.370487 -10.848956,68.881745 -26.981113,85.744744 C -33.106844,92.209691 -39.753922,98.144877 -46.556,103.887 C -58.656041,104.28524 -70.773038,103.9628 -82.879997,104.067 C -72.927384,97.689156 -62.985852,91.212259 -54.261474,83.181145 C -35.839799,66.933043 -20.695018,46.957424 -10.004985,24.843437 C -6.0477701,16.831118 -2.7831749,8.4879442 0,0 z"
       id="path5671"
       sodipodi:nodetypes="ccccccccc" /></g><g
     id="g5673"
     transform="translate(505.9238,85.7139)"><path
       style="fill:#ff4466;fill-opacity:1;fill-rule:nonzero;stroke:none"
       d="M 0,0 C 0.00599267,25.317681 -0.0002246062,50.635354 -0.044,75.953003 C -19.784999,75.930773 -39.789965,75.933493 -59.530965,75.953003 C -52.596934,69.842355 -45.410335,63.7102 -39.062207,56.982483 C -33.370259,50.909376 -28.001909,44.541707 -22.962519,37.915317 C -16.294328,28.922346 -10.202278,19.491822 -4.9388748,9.6056513 C -3.1887643,6.5687209 -1.7007727,3.3982833 -0.127,0.26899999"
       id="path5675"
       sodipodi:nodetypes="ccccccc" /></g></g><g
   id="g4685"
   clip-path="url(#clipPath4687)"
   transform="matrix(0.4061756,0,0,-0.4061756,-1.3000903,655.85196)"><g
     id="g4691"
     transform="translate(206.6523,229.3105)"><path
       style="fill:#4444bb;fill-opacity:1;fill-rule:nonzero;stroke:#4444bb;stroke-width:0.18792467"
       d="m 0,0 c 13.725,0 27.449999,0 41.174999,0 0,34.689 0,69.378001 0,104.067 -35.5079992,0 -71.015999,0 -106.523998,0 C -45.565833,87.747187 -28.86535,67.657983 -16.852451,44.976839 -9.3047119,30.790422 -3.6520922,15.649458 0,0 z"
       id="path4693" /></g><g
     id="g4695"
     transform="translate(194.5723,229.3105)"><path
       style="fill:#2288ff;fill-opacity:1;fill-rule:nonzero;stroke:#2288ff;stroke-width:0.18792467"
       d="M 0,0 C 3.7313334,0 8.2833704,0 12.014704,0 11.151054,3.8567962 11.556062,2.1789253 10.283381,6.9218122 3.6363783,31.747155 -8.5386621,55.003809 -24.588816,75.035831 -33.076328,85.704699 -42.80075,95.347213 -53.269001,104.067 c -12.471666,0 -24.943331,0 -37.414997,0 17.917185,-9.014704 34.534539,-20.71901 48.524073,-35.130567 C -28.468569,55.11056 -17.143645,38.968022 -8.6370238,21.470523 -5.4891053,14.447246 -2.4433829,7.3070125 0,0 z"
       id="path4697"
       sodipodi:nodetypes="ccccccccc" /></g><g
     id="g4699"
     transform="translate(57.6001,229.3105)"><path
       style="fill:#77dd55;fill-opacity:1;fill-rule:nonzero;stroke:#77dd55;stroke-width:0.18792467"
       d="M 0,0 C 45.657333,0 91.314667,0 136.972,0 134.02806,8.7024821 130.64638,17.255539 126.43119,25.412581 116.39836,45.008327 102.56012,62.719262 86.046485,77.290208 74.235096,87.815104 60.955834,96.649504 46.84,103.777 31.760721,104.43704 16.635585,103.886 1.5381669,104.067 -1.3852621,103.15739 0.56544287,98.764817 0,96.342405 0,64.22827 0,32.114135 0,0 z"
       id="path4701"
       sodipodi:nodetypes="cccccccc" /></g></g><g
   id="g4999"
   clip-path="url(#clipPath5001)"
   transform="matrix(0.4054986,0,0,-0.4054986,-5.28172,655.61831)"
   style="font-size:15.78303814px"><g
     id="g5005"
     transform="translate(463.3311,229.3105)"
     style="font-size:15.78303814px"><path
       style="font-size:15.78303814px;fill:#4444bb;fill-opacity:1;fill-rule:nonzero;stroke:#4444bb;stroke-width:0.18792467"
       d="M 0,0 C 13.879,0 29.950274,0 43.829274,0 C 43.744364,31.620184 43.758564,69.551298 43.758564,104.067 C -5.0437707,104.067 -55.011666,104.067 -103.814,104.067 C -69.211795,89.909849 -39.186901,65.107532 -18.437355,34.040035 C -11.154017,23.357212 -5.1455518,11.849766 0,0 z"
       id="path5007"
       sodipodi:nodetypes="cccccc" /></g><g
     id="g5009"
     transform="translate(453.251,229.3105)"
     style="font-size:15.78303814px"><path
       style="font-size:15.78303814px;fill:#2288ff;fill-opacity:1;fill-rule:nonzero;stroke:#2288ff;stroke-width:0.18792467"
       d="M -0.13884994,0 C 3.2211501,0 6.7199999,0 10.08,0 C -1.6064233,27.604003 -19.436599,52.604791 -42.075828,72.28944 C -57.46411,85.547649 -74.951931,96.32825 -93.734001,104.067 C -105.15434,104.067 -116.57467,104.067 -127.995,104.067 C -118.01016,101.32398 -107.7902,99.289314 -98.358537,94.879747 C -71.747685,84.960492 -48.228434,67.562323 -29.571031,46.280324 C -17.584356,32.359587 -7.761333,16.712138 -0.13884994,0 z"
       id="path5011"
       sodipodi:nodetypes="cccccccc" /></g><g
     id="g5013"
     transform="translate(315.6973,229.3105)"
     style="font-size:15.78303814px"><path
       style="font-size:15.78303814px;fill:#77dd55;fill-opacity:1;fill-rule:nonzero;stroke:#77dd55;stroke-width:0.18792467"
       d="M 0,0 C 45.851334,0 91.702667,0 137.554,0 C 132.80183,9.4731027 128.11772,18.985005 122.07174,27.720491 C 103.92199,55.083246 78.204953,77.464675 48.354664,91.233725 C 36.93532,96.706447 24.747532,100.30443 12.497135,103.38894 C 8.4435736,104.60933 4.1669265,103.85175 0,104.067 C 0,69.378001 0,34.689 0,0 z"
       id="path5015" /></g></g><g
   transform="matrix(0.3045848,0,0,-0.3045848,-715.38008,1373.7038)"
   id="g3159"><g
   id="g3146"><g
     transform="matrix(1.3857503,0,0,-1.3857503,2307.9947,3122.4441)"
     id="g5967"
     clip-path="url(#clipPath5969)"><g
       id="g5973"
       transform="translate(512.6396,576)"><path
         d="M 0,0 L 0,18.72 L 0,74.88 L 0,93.6 L 4.681,93.6 L 4.681,74.88 L 4.681,18.72 L 4.681,0 L 0,0 z"
         style="fill:#ffffff;fill-opacity:1;fill-rule:nonzero;stroke:none"
         id="path5975" /></g><g
       id="g5977"
       transform="translate(512.6396,576)"><path
         d="M 0,0 L 0,18.72 L 0,74.88 L 0,93.6 L 4.681,93.6 L 4.681,74.88 L 4.681,18.72 L 4.681,0 L 0,0"
         style="fill:none;stroke:#ffffff;stroke-width:0.01;stroke-linecap:square;stroke-linejoin:round;stroke-miterlimit:10;stroke-dasharray:none;stroke-opacity:1"
         id="path5979" /></g><path
       d="M 512.64,594.72 L 517.321,594.72 L 517.321,576 L 512.64,576 L 512.64,594.72 z"
       style="fill:#4444bb;fill-opacity:1;fill-rule:nonzero;stroke:#4444bb;stroke-width:1;stroke-linecap:butt;stroke-linejoin:round;stroke-miterlimit:10;stroke-dasharray:none;stroke-opacity:1"
       id="path5981" /><path
       d="M 512.64,613.44 L 517.321,613.44 L 517.321,594.72 L 512.64,594.72 L 512.64,613.44 z"
       style="fill:#2288ff;fill-opacity:1;fill-rule:nonzero;stroke:#2288ff;stroke-width:1;stroke-linecap:butt;stroke-linejoin:round;stroke-miterlimit:10;stroke-dasharray:none;stroke-opacity:1"
       id="path5983" /><path
       d="M 512.64,632.16 L 517.321,632.16 L 517.321,613.44 L 512.64,613.44 L 512.64,632.16 z"
       style="fill:#77dd55;fill-opacity:1;fill-rule:nonzero;stroke:#77dd55;stroke-width:1;stroke-linecap:butt;stroke-linejoin:round;stroke-miterlimit:10;stroke-dasharray:none;stroke-opacity:1"
       id="path5985" /><path
       d="M 512.64,650.88 L 517.321,650.88 L 517.321,632.16 L 512.64,632.16 L 512.64,650.88 z"
       style="fill:#ffdd44;fill-opacity:1;fill-rule:nonzero;stroke:#ffdd44;stroke-width:1;stroke-linecap:butt;stroke-linejoin:round;stroke-miterlimit:10;stroke-dasharray:none;stroke-opacity:1"
       id="path5987" /><path
       d="M 512.64,669.6 L 517.321,669.6 L 517.321,650.88 L 512.64,650.88 L 512.64,669.6 z"
       style="fill:#ff7722;fill-opacity:1;fill-rule:nonzero;stroke:#ff7722;stroke-width:1;stroke-linecap:butt;stroke-linejoin:round;stroke-miterlimit:10;stroke-dasharray:none;stroke-opacity:1"
       id="path5989" /></g><path
     d="M 3018.3852,2324.2519 L 3018.3852,2298.3107 L 3018.3852,2220.4869 L 3018.3852,2194.5457 L 3024.8719,2194.5457 L 3024.8719,2220.4869 L 3024.8719,2298.3107 L 3024.8719,2324.2519 L 3018.3852,2324.2519"
     style="fill:none;stroke:#000000;stroke-width:1.38575029;stroke-linecap:square;stroke-linejoin:round;stroke-miterlimit:10;stroke-dasharray:none;stroke-opacity:1"
     id="path6001" /></g><g
   id="g3064"
   transform="translate(-76,4)"><text
   sodipodi:linespacing="125%"
   id="text3040"
   y="2223.7373"
   x="3137.5"
   style="font-size:18.38568497px;font-style:normal;font-variant:normal;font-weight:normal;font-stretch:normal;text-align:end;line-height:125%;writing-mode:lr-tb;text-anchor:end;fill:#000000;fill-opacity:1;stroke:none;font-family:Helvetica Neue;-inkscape-font-specification:Helvetica Neue"
   xml:space="preserve"><tspan
     id="tspan3046"
     y="2223.7373"
     x="3137.5"
     sodipodi:role="line">5RT</tspan></text>




<text
   sodipodi:linespacing="125%"
   id="text3052"
   y="2248.825"
   x="3137.5"
   style="font-size:18.38568497px;font-style:normal;font-variant:normal;font-weight:normal;font-stretch:normal;text-align:end;line-height:125%;writing-mode:lr-tb;text-anchor:end;fill:#000000;fill-opacity:1;stroke:none;font-family:Helvetica Neue;-inkscape-font-specification:Helvetica Neue"
   xml:space="preserve"><tspan
     y="2248.825"
     x="3137.5"
     id="tspan3054"
     sodipodi:role="line">3RT</tspan></text>




<text
   sodipodi:linespacing="125%"
   id="text3056"
   y="2273.9124"
   x="3137.5"
   style="font-size:18.38568497px;font-style:normal;font-variant:normal;font-weight:normal;font-stretch:normal;text-align:end;line-height:125%;writing-mode:lr-tb;text-anchor:end;fill:#000000;fill-opacity:1;stroke:none;font-family:Helvetica Neue;-inkscape-font-specification:Helvetica Neue"
   xml:space="preserve"><tspan
     y="2273.9124"
     x="3137.5"
     id="tspan3058"
     sodipodi:role="line">RT</tspan></text>




<text
   sodipodi:linespacing="125%"
   id="text3060"
   y="2299"
   x="3137.5"
   style="font-size:18.38568497px;font-style:normal;font-variant:normal;font-weight:normal;font-stretch:normal;text-align:end;line-height:125%;writing-mode:lr-tb;text-anchor:end;fill:#000000;fill-opacity:1;stroke:none;font-family:Helvetica Neue;-inkscape-font-specification:Helvetica Neue"
   xml:space="preserve"><tspan
     y="2299"
     x="3137.5"
     id="tspan3062"
     sodipodi:role="line">-RT</tspan></text>




</g><text
   xml:space="preserve"
   style="font-size:21.01221085px;font-style:normal;font-variant:normal;font-weight:normal;font-stretch:normal;text-align:start;line-height:125%;writing-mode:lr-tb;text-anchor:start;fill:#000000;fill-opacity:1;stroke:none;font-family:Helvetica Neue;-inkscape-font-specification:Helvetica Neue"
   x="-2286.3899"
   y="3090.915"
   id="text3074"
   sodipodi:linespacing="125%"
   transform="matrix(0,-1,1,0,0,0)"><tspan
     sodipodi:role="line"
     x="-2286.3899"
     y="3090.915"
     id="tspan3078">Energy</tspan></text>




</g><g
   id="g3727"
   clip-path="url(#clipPath3729)"
   transform="matrix(0.4053571,0,0,-0.4053571,-5.2560524,938.74052)"><g
     id="g3733"
     transform="translate(467.4395,572.7329)"><path
       style="fill:#4444bb;fill-opacity:1;fill-rule:nonzero;stroke:#4444bb;stroke-width:0.18792467"
       d="M 0,0 C 7.3603331,0 14.720666,0 22.080999,0 C 18.909139,19.033913 9.1888266,36.383674 -2.6979657,51.339827 C -15.63901,67.154644 -31.93938,80.613205 -50.909349,88.488649 C -59.119583,91.659418 -68.105952,94.67261 -76.969578,92.872215 C -80.578469,92.413926 -82.805971,88.316865 -80.904063,85.133633 C -77.16202,77.200134 -69.979072,71.64942 -63.955589,65.490486 C -50.758981,52.823943 -37.183655,40.540121 -24.699598,27.154597 C -16.408298,18.157694 -8.2323762,9.051803 0,0 z"
       id="path3735" /></g><g
     id="g3737"
     transform="translate(444.3779,572.7329)"><path
       style="fill:#2288ff;fill-opacity:1;fill-rule:nonzero;stroke:#2288ff;stroke-width:0.18792467"
       d="M -0.08115265,0 C 7.3701808,0 15.633041,0 23.084374,0 C -4.0252192,30.646841 -11.828066,38.100688 -30.475707,55.839049 C -38.98175,64.590826 -48.826228,72.070537 -56.063508,81.952957 C -59.156181,87.125427 -59.252553,90.664352 -54.862379,92.479162 C -44.78569,94.997217 -34.698024,91.239236 -25.605756,87.524868 C 2.1345466,74.916586 24.19142,51.238855 37.464315,24.109902 C 41.066278,16.45688 43.834538,8.3715885 45.143002,0 C 50.610668,0 57.034681,0 62.502347,0 C 62.635787,5.7168435 62.545167,6.9683301 62.505647,11.798095 C 44.958015,54.683758 16.011226,85.153358 -17.488251,104.06076 C -53.450527,104.02846 -89.415735,104.06676 -125.38003,104.06676 C -124.12647,95.116744 -115.06878,90.44722 -108.28094,85.834087 C -85.237381,72.171034 -61.432519,59.411725 -40.870005,42.039418 C -25.700847,29.634641 -12.20988,15.373802 -0.08115265,0 z"
       id="path3739"
       sodipodi:nodetypes="ccccccccccccccc" /></g><g
     id="g3741"
     transform="translate(430.8457,572.7329)"><path
       style="fill:#77dd55;fill-opacity:1;fill-rule:nonzero;stroke:#77dd55;stroke-width:0.18792467"
       d="M 0,0 C 4.3146667,0 9.197402,0 13.512069,0 C -16.385732,36.958297 -35.184953,50.198722 -66.428513,69.210756 C -78.469246,76.674408 -90.901267,83.571439 -102.76266,91.281063 C -106.86817,94.52963 -111.3575,98.971775 -111.848,104.067 C -113.74291,104.1586 -113.38846,104.20316 -115.148,104.0783 C -115.148,96.311104 -115.148,83.501242 -115.148,75.734051 C -91.232172,67.384714 -67.639216,57.389452 -46.773515,42.841774 C -29.152264,31.007827 -13.51614,16.337146 0,0 z"
       id="path3743"
       sodipodi:nodetypes="ccccccccc" /></g><g
     id="g3745"
     transform="translate(505.9238,586.6479)"><path
       style="fill:#77dd55;fill-opacity:1;fill-rule:nonzero;stroke:#77dd55;stroke-width:0.18792467"
       d="M 0.95634557,-2.2547879 C 0.86591161,5.8123788 1.2995748,16.211586 0.98287546,24.230439 C -1.553201,29.272654 -5.8447059,34.011282 -8.9576146,38.722432 C -19.702669,54.596478 -32.596987,69.04314 -47.333966,81.310931 C -51.082248,84.179339 -54.607197,87.583485 -58.64274,89.926432 C -65.45537,90.387571 -72.293843,90.047908 -79.117996,90.152 C -67.148826,83.359715 -55.938018,75.247573 -45.833022,65.899318 C -34.808885,55.639232 -25.021153,44.066552 -16.73836,31.485646 C -10.336461,21.781269 -4.9551854,11.464348 -0.336,0.801"
       id="path3747"
       sodipodi:nodetypes="ccccccccc" /></g><g
     id="g3749"
     transform="translate(419.8633,572.7329)"><path
       style="fill:#ffdd44;fill-opacity:1;fill-rule:nonzero;stroke:#ffdd44;stroke-width:0.18792467"
       d="M 0,0 C 3.6606668,0 7.3213336,0 10.982,0 C -1.4240426,15.012527 -15.621172,28.559945 -31.47578,39.891811 C -55.455008,57.140233 -79.78031,67.555352 -104.1689,75.763941 C -104.1902,72.100552 -104.2376,66.484813 -104.2067,63.070999 C -82.671916,57.288417 -61.293209,48.847052 -42.548638,36.67123 C -26.662059,26.63015 -12.422902,14.079388 0,0 z"
       id="path3751"
       sodipodi:nodetypes="ccccccc" /></g><g
     id="g6668"
     transform="translate(505.9238,611.0303)"><path
       style="fill:#ffdd44;fill-opacity:1;fill-rule:nonzero;stroke:#ffdd44;stroke-width:0.18792467"
       d="M 0.95634557,-2.643065 C 0.89567891,2.8116018 1.1596228,9.1414619 1.0989562,14.596128 C -3.12949,20.731286 -8.6720733,28.609733 -13.407542,34.369254 C -17.145119,38.96083 -21.059438,43.428061 -25.144541,47.713729 C -30.715587,53.593082 -36.685048,59.076667 -42.836585,64.339893 C -43.867469,65.564597 -45.162738,66.06125 -46.744127,65.769997 C -50.713751,65.769997 -54.683376,65.769997 -58.653,65.769997 C -53.022716,61.525816 -47.421743,57.245599 -42.196829,52.503046 C -36.793982,47.621198 -31.583051,42.510373 -26.74349,37.064037 C -22.634318,32.581689 -18.819171,27.822684 -15.127514,22.994288 C -10.316825,16.624131 -5.953188,9.9364559 -1.8147755,3.1148591 C -1.3231837,2.2752394 0.12475372,-1.2074453 0.61634557,-2.047065"
       id="path3755"
       sodipodi:nodetypes="cccccccccccc" /></g><g
     id="g3757"
     transform="translate(315.6973,572.7329)"><path
       style="fill:#ff7722;fill-opacity:1;fill-rule:nonzero;stroke:#ff7722;stroke-width:0.18792467"
       d="M 0,0 C 34.412666,0 69.758588,0 104.17126,0 C 76.220827,32.711823 38.932339,53.063937 0,63.122778 C 0,43.30242 0,19.820358 0,0 z"
       id="path3759"
       sodipodi:nodetypes="cccc" /></g><g
     id="g3761"
     transform="translate(505.9238,627.1172)"><path
       style="fill:#ff7722;fill-opacity:1;fill-rule:nonzero;stroke:#ff7722;stroke-width:0.18792467"
       d="M 0.95634557,-1.6055668 C 0.95634557,14.955433 1.0374982,33.121999 1.0374982,49.682999 C -13.619835,49.682999 -30.108707,49.682999 -44.76604,49.682999 C -37.914876,44.387785 -31.750767,38.298225 -25.636007,32.185092 C -21.395381,27.534934 -17.055811,22.970119 -13.203906,17.98467 C -9.2223901,13.240495 -5.6696309,8.157148 -2.0895421,3.1093497"
       id="path3763"
       sodipodi:nodetypes="cccccc" /></g></g><g
   id="g17721"
   transform="translate(1.6004126,4.8)"><g
   id="g9432"><g
   id="g4034"
   transform="matrix(0.4487915,0,0,0.4487915,8.6237842,671.12784)" /><g
   id="g4038"
   transform="matrix(0.4487915,0,0,0.4487915,9.9436347,673.34177)" /><g
   id="g4042"
   transform="matrix(0.4487915,0,0,0.4487915,10.618348,675.24937)" /><g
   id="g4046"
   transform="matrix(0.4487915,0,0,0.4487915,10.022757,676.93713)" />



</g><rect
   ry="0"
   rx="4.9077435"
   transform="scale(1,-1)"
   y="-701.92126"
   x="20.382097"
   height="42.412952"
   width="77.440186"
   id="rect9444"
   style="fill:none;stroke:#000000;stroke-width:0.75;stroke-linecap:square;stroke-linejoin:miter;marker:none;stroke-miterlimit:4;stroke-dasharray:none;stroke-dashoffset:0;stroke-opacity:1;visibility:visible;display:inline;overflow:visible;enable-background:accumulate" /><g
   transform="matrix(0.2943977,0,0,-0.2943977,-682.58565,1345.3375)"
   id="g13331"><text
   sodipodi:linespacing="125%"
   id="text13287"
   y="2352.3201"
   x="2388.918"
   style="font-size:21.73929977px;font-style:normal;font-variant:normal;font-weight:normal;font-stretch:normal;text-align:center;line-height:125%;writing-mode:lr-tb;text-anchor:middle;fill:#000000;fill-opacity:1;stroke:none;font-family:Helvetica Neue;-inkscape-font-specification:Helvetica Neue"
   xml:space="preserve"><tspan
     y="2352.3201"
     x="2388.918"
     id="tspan13289"
     sodipodi:role="line">0</tspan></text>




<text
   sodipodi:linespacing="125%"
   id="text13291"
   y="2352.3201"
   x="2454.1604"
   style="font-size:21.73929977px;font-style:normal;font-variant:normal;font-weight:normal;font-stretch:normal;text-align:center;line-height:125%;writing-mode:lr-tb;text-anchor:middle;fill:#000000;fill-opacity:1;stroke:none;font-family:Helvetica Neue;-inkscape-font-specification:Helvetica Neue"
   xml:space="preserve"><tspan
     y="2352.3201"
     x="2454.1604"
     id="tspan13293"
     sodipodi:role="line">5</tspan></text>




<text
   sodipodi:linespacing="125%"
   id="text13295"
   y="2352.3201"
   x="2519.8806"
   style="font-size:21.73929977px;font-style:normal;font-variant:normal;font-weight:normal;font-stretch:normal;text-align:center;line-height:125%;writing-mode:lr-tb;text-anchor:middle;fill:#000000;fill-opacity:1;stroke:none;font-family:Helvetica Neue;-inkscape-font-specification:Helvetica Neue"
   xml:space="preserve"><tspan
     y="2352.3201"
     x="2519.8806"
     id="tspan13297"
     sodipodi:role="line">10</tspan></text>




<text
   sodipodi:linespacing="125%"
   id="text13299"
   y="2352.3201"
   x="2586.1587"
   style="font-size:21.73929977px;font-style:normal;font-variant:normal;font-weight:normal;font-stretch:normal;text-align:center;line-height:125%;writing-mode:lr-tb;text-anchor:middle;fill:#000000;fill-opacity:1;stroke:none;font-family:Helvetica Neue;-inkscape-font-specification:Helvetica Neue"
   xml:space="preserve"><tspan
     y="2352.3201"
     x="2586.1587"
     id="tspan13301"
     sodipodi:role="line">15</tspan></text>




<text
   sodipodi:linespacing="125%"
   id="text13303"
   y="2352.3201"
   x="2650.7393"
   style="font-size:21.73929977px;font-style:normal;font-variant:normal;font-weight:normal;font-stretch:normal;text-align:center;line-height:125%;writing-mode:lr-tb;text-anchor:middle;fill:#000000;fill-opacity:1;stroke:none;font-family:Helvetica Neue;-inkscape-font-specification:Helvetica Neue"
   xml:space="preserve"><tspan
     y="2352.3201"
     x="2650.7393"
     id="tspan13305"
     sodipodi:role="line">20</tspan></text>




</g><g
   transform="matrix(0.2943977,0,0,-0.2943977,-682.25419,1345.5032)"
   id="g13369"><text
   sodipodi:linespacing="125%"
   id="text13353"
   y="2328.2881"
   x="2358.8093"
   style="font-size:21.73929977px;font-style:normal;font-variant:normal;font-weight:normal;font-stretch:normal;text-align:start;line-height:125%;writing-mode:lr-tb;text-anchor:start;fill:#000000;fill-opacity:1;stroke:none;font-family:Helvetica Neue;-inkscape-font-specification:Helvetica Neue"
   xml:space="preserve"><tspan
     y="2328.2881"
     x="2358.8093"
     id="tspan13355"
     sodipodi:role="line">38</tspan></text>




<text
   sodipodi:linespacing="125%"
   id="text13357"
   y="2289.1033"
   x="2358.2996"
   style="font-size:21.73929977px;font-style:normal;font-variant:normal;font-weight:normal;font-stretch:normal;text-align:start;line-height:125%;writing-mode:lr-tb;text-anchor:start;fill:#000000;fill-opacity:1;stroke:none;font-family:Helvetica Neue;-inkscape-font-specification:Helvetica Neue"
   xml:space="preserve"><tspan
     y="2289.1033"
     x="2358.2996"
     id="tspan13359"
     sodipodi:role="line">34</tspan></text>




<text
   sodipodi:linespacing="125%"
   id="text13361"
   y="2251.8611"
   x="2358.2996"
   style="font-size:21.73929977px;font-style:normal;font-variant:normal;font-weight:normal;font-stretch:normal;text-align:start;line-height:125%;writing-mode:lr-tb;text-anchor:start;fill:#000000;fill-opacity:1;stroke:none;font-family:Helvetica Neue;-inkscape-font-specification:Helvetica Neue"
   xml:space="preserve"><tspan
     y="2251.8611"
     x="2358.2996"
     id="tspan13363"
     sodipodi:role="line">30</tspan></text>




<text
   sodipodi:linespacing="125%"
   id="text13365"
   y="2212.0173"
   x="2358.4629"
   style="font-size:21.73929977px;font-style:normal;font-variant:normal;font-weight:normal;font-stretch:normal;text-align:start;line-height:125%;writing-mode:lr-tb;text-anchor:start;fill:#000000;fill-opacity:1;stroke:none;font-family:Helvetica Neue;-inkscape-font-specification:Helvetica Neue"
   xml:space="preserve"><tspan
     y="2212.0173"
     x="2358.4629"
     id="tspan13367"
     sodipodi:role="line">26</tspan></text>




</g><g
   id="g17709"><path
     d="M 20.381353,695.41873 L 22.013199,695.41873"
     style="fill:none;stroke:#000000;stroke-width:0.75;stroke-linecap:butt;stroke-linejoin:round;stroke-miterlimit:10;stroke-dasharray:none;stroke-opacity:1"
     id="path3601" /><use
     height="3240"
     width="5400"
     transform="translate(-5.7984289e-7,-11.43585)"
     id="use13389"
     xlink:href="#path3601"
     y="0"
     x="0" /><use
     height="3240"
     width="5400"
     transform="translate(-5.7984289e-7,-22.871756)"
     id="use13391"
     xlink:href="#path3601"
     y="0"
     x="0" /><use
     height="3240"
     width="5400"
     transform="translate(-5.7984289e-7,-34.307437)"
     id="use13393"
     xlink:href="#path3601"
     y="0"
     x="0" /></g><g
   id="g17715"><use
     height="3240"
     width="5400"
     transform="matrix(0,1,-1,0,735.29882,639.1281)"
     id="use13395"
     xlink:href="#path3601"
     y="0"
     x="0" /><use
     height="3240"
     width="5400"
     transform="matrix(0,1,-1,0,754.79773,639.1281)"
     id="use13397"
     xlink:href="#path3601"
     y="0"
     x="0" /><use
     height="3240"
     width="5400"
     transform="matrix(0,1,-1,0,793.15532,639.1281)"
     id="use13399"
     xlink:href="#path3601"
     y="0"
     x="0" /><use
     height="3240"
     width="5400"
     transform="matrix(0,1,-1,0,774.2966,639.1281)"
     id="use13401"
     xlink:href="#path3601"
     y="0"
     x="0" /></g>



</g><text
   xml:space="preserve"
   style="font-size:9.60000038px;font-style:normal;font-variant:normal;font-weight:bold;font-stretch:normal;text-align:center;line-height:125%;writing-mode:lr-tb;text-anchor:middle;fill:#000000;fill-opacity:1;stroke:none;font-family:Helvetica Neue;-inkscape-font-specification:Helvetica Neue Bold"
   x="8.3629971"
   y="-707.31555"
   id="text15963"
   sodipodi:linespacing="125%"
   transform="scale(1,-1)"><tspan
     sodipodi:role="line"
     id="tspan15965"
     x="8.3629971"
     y="-707.31555">A</tspan></text>




<g
   id="g18440"
   transform="translate(-51.199588,1.6)"><g
   id="g6039"
   transform="matrix(0.4148528,0,0,0.4148528,42.669957,421.97385)"><g
     id="g6041"
     clip-path="url(#clipPath6043)"><g
       id="g6047"
       transform="translate(512.6396,410.3999)"><path
         d="M 0,0 L 0,9.435 L 0,74.824 L 0,93.6 L 4.681,93.6 L 4.681,74.824 L 4.681,9.435 L 4.681,0 L 0,0 z"
         style="fill:#ffffff;fill-opacity:1;fill-rule:nonzero;stroke:none"
         id="path6049" /></g><g
       id="g6051"
       transform="translate(512.6396,410.3999)"><path
         d="M 0,0 L 0,9.435 L 0,74.824 L 0,93.6 L 4.681,93.6 L 4.681,74.824 L 4.681,9.435 L 4.681,0 L 0,0"
         style="fill:none;stroke:#ffffff;stroke-width:0.01;stroke-linecap:square;stroke-linejoin:round;stroke-miterlimit:10;stroke-dasharray:none;stroke-opacity:1"
         id="path6053" /></g><path
       d="M 512.64,419.835 L 517.321,419.835 L 517.321,410.4 L 512.64,410.4 L 512.64,419.835 z"
       style="fill:#4444bb;fill-opacity:1;fill-rule:nonzero;stroke:#4444bb;stroke-width:1;stroke-linecap:butt;stroke-linejoin:round;stroke-miterlimit:10;stroke-dasharray:none;stroke-opacity:1"
       id="path6055" /><path
       d="M 512.64,429.176 L 517.321,429.176 L 517.321,419.835 L 512.64,419.835 L 512.64,429.176 z"
       style="fill:#2288ff;fill-opacity:1;fill-rule:nonzero;stroke:#2288ff;stroke-width:1;stroke-linecap:butt;stroke-linejoin:round;stroke-miterlimit:10;stroke-dasharray:none;stroke-opacity:1"
       id="path6057" /><path
       d="M 512.64,447.859 L 517.321,447.859 L 517.321,429.176 L 512.64,429.176 L 512.64,447.859 z"
       style="fill:#77dd55;fill-opacity:1;fill-rule:nonzero;stroke:#77dd55;stroke-width:1;stroke-linecap:butt;stroke-linejoin:round;stroke-miterlimit:10;stroke-dasharray:none;stroke-opacity:1"
       id="path6059" /><path
       d="M 512.64,466.542 L 517.321,466.542 L 517.321,447.859 L 512.64,447.859 L 512.64,466.542 z"
       style="fill:#ffdd44;fill-opacity:1;fill-rule:nonzero;stroke:#ffdd44;stroke-width:1;stroke-linecap:butt;stroke-linejoin:round;stroke-miterlimit:10;stroke-dasharray:none;stroke-opacity:1"
       id="path6061" /><path
       d="M 512.64,485.224 L 517.321,485.224 L 517.321,466.541 L 512.64,466.541 L 512.64,485.224 z"
       style="fill:#ff7722;fill-opacity:1;fill-rule:nonzero;stroke:#ff7722;stroke-width:1;stroke-linecap:butt;stroke-linejoin:round;stroke-miterlimit:10;stroke-dasharray:none;stroke-opacity:1"
       id="path6063" /><path
       d="M 512.64,504 L 517.321,504 L 517.321,485.224 L 512.64,485.224 L 512.64,504 z"
       style="fill:#ff4466;fill-opacity:1;fill-rule:nonzero;stroke:#ff4466;stroke-width:1;stroke-linecap:butt;stroke-linejoin:round;stroke-miterlimit:10;stroke-dasharray:none;stroke-opacity:1"
       id="path6065" /></g></g><path
   id="path6077"
   style="fill:none;stroke:#000000;stroke-width:0.41485277;stroke-linecap:square;stroke-linejoin:round;stroke-miterlimit:10;stroke-dasharray:none;stroke-opacity:1"
   d="M 255.33992,592.22938 L 255.33992,596.14353 L 255.33992,623.27033 L 255.33992,631.05959 L 257.28184,631.05959 L 257.28184,623.27033 L 257.28184,596.14353 L 257.28184,592.22938 L 255.33992,592.22938" /><path
   id="path6081"
   style="fill:none;stroke:#000000;stroke-width:0.20742638;stroke-linecap:butt;stroke-linejoin:round;stroke-miterlimit:10;stroke-dasharray:none;stroke-opacity:1"
   d="M 257.28172,592.26809 L 255.62231,592.26809" /><path
   id="path6101"
   style="fill:none;stroke:#000000;stroke-width:0.20742638;stroke-linecap:butt;stroke-linejoin:round;stroke-miterlimit:10;stroke-dasharray:none;stroke-opacity:1"
   d="M 257.28172,631.02095 L 255.62231,631.02095" /><text
   transform="scale(1,-1)"
   xml:space="preserve"
   style="font-size:5.5999999px;font-style:normal;font-variant:normal;font-weight:normal;font-stretch:normal;text-align:start;line-height:125%;writing-mode:lr-tb;text-anchor:start;fill:#000000;fill-opacity:1;stroke:none;font-family:Helvetica Neue;-inkscape-font-specification:Helvetica Neue"
   x="258.74066"
   y="-629.27118"
   id="text3289"
   sodipodi:linespacing="125%"><tspan
     sodipodi:role="line"
     id="tspan3291"
     x="258.74066"
     y="-629.27118">1000</tspan></text>




<text
   transform="scale(1,-1)"
   xml:space="preserve"
   style="font-size:5.5999999px;font-style:normal;font-variant:normal;font-weight:normal;font-stretch:normal;text-align:start;line-height:125%;writing-mode:lr-tb;text-anchor:start;fill:#000000;fill-opacity:1;stroke:none;font-family:Helvetica Neue;-inkscape-font-specification:Helvetica Neue"
   x="259.03778"
   y="-609.66241"
   id="text3293"
   sodipodi:linespacing="125%"><tspan
     sodipodi:role="line"
     id="tspan3295"
     x="259.03778"
     y="-609.66241">500</tspan></text>




<text
   transform="scale(1,-1)"
   xml:space="preserve"
   style="font-size:5.5999999px;font-style:normal;font-variant:normal;font-weight:normal;font-stretch:normal;text-align:start;line-height:125%;writing-mode:lr-tb;text-anchor:start;fill:#000000;fill-opacity:1;stroke:none;font-family:Helvetica Neue;-inkscape-font-specification:Helvetica Neue"
   x="258.88458"
   y="-590.43634"
   id="text3297"
   sodipodi:linespacing="125%"><tspan
     sodipodi:role="line"
     id="tspan3299"
     x="258.88458"
     y="-590.43634">0</tspan></text>




</g><text
   transform="matrix(0,1,1,0,0,0)"
   sodipodi:linespacing="110%"
   id="text3301"
   y="225.35745"
   x="612.30902"
   style="font-size:6.4px;font-style:normal;font-variant:normal;font-weight:normal;font-stretch:normal;text-align:center;line-height:110%;writing-mode:lr;text-anchor:middle;fill:#000000;fill-opacity:1;stroke:none;font-family:Helvetica Neue;-inkscape-font-specification:Helvetica Neue"
   xml:space="preserve"><tspan
     y="225.35745"
     x="613.19653"
     id="tspan3303"
     sodipodi:role="line">Binding </tspan><tspan
     y="233.35745"
     x="612.30902"
     sodipodi:role="line"
     id="tspan2681"
     dy="0 0 0 0 0 0 0 0 0 0 0 0 0 0 0 0 -1.6572815 0 1.6572815">Rate Constant (s<tspan
   style="font-size:4;-inkscape-font-specification:Helvetica Neue;font-family:Helvetica Neue;font-weight:normal;font-style:normal;font-stretch:normal;font-variant:normal;text-anchor:middle;text-align:center;writing-mode:lr;line-height:110%"
   id="tspan2693">-1</tspan>)</tspan></text>




<text
   xml:space="preserve"
   style="font-size:9.60000038px;font-style:normal;font-variant:normal;font-weight:bold;font-stretch:normal;text-align:center;line-height:125%;writing-mode:lr-tb;text-anchor:middle;fill:#000000;fill-opacity:1;stroke:none;font-family:Helvetica Neue;-inkscape-font-specification:Helvetica Neue Bold"
   x="110.33286"
   y="-706.55591"
   id="text17681"
   sodipodi:linespacing="125%"
   transform="scale(1,-1)"><tspan
     sodipodi:role="line"
     id="tspan17683"
     x="110.33286"
     y="-706.55591">B</tspan></text>




<text
   xml:space="preserve"
   style="font-size:9.60000038px;font-style:normal;font-variant:normal;font-weight:bold;font-stretch:normal;text-align:center;line-height:125%;writing-mode:lr-tb;text-anchor:middle;fill:#000000;fill-opacity:1;stroke:none;font-family:Helvetica Neue;-inkscape-font-specification:Helvetica Neue Bold"
   x="8.487422"
   y="-634.47827"
   id="text17685"
   sodipodi:linespacing="125%"
   transform="scale(1,-1)"><tspan
     sodipodi:role="line"
     id="tspan17687"
     x="8.487422"
     y="-634.47827">C</tspan></text>




<text
   xml:space="preserve"
   style="font-size:9.60000038px;font-style:normal;font-variant:normal;font-weight:bold;font-stretch:normal;text-align:center;line-height:125%;writing-mode:lr-tb;text-anchor:middle;fill:#000000;fill-opacity:1;stroke:none;font-family:Helvetica Neue;-inkscape-font-specification:Helvetica Neue Bold"
   x="110.14009"
   y="-634.28613"
   id="text17689"
   sodipodi:linespacing="125%"
   transform="scale(1,-1)"><tspan
     sodipodi:role="line"
     id="tspan17691"
     x="110.14009"
     y="-634.28613">D</tspan></text>




<text
   xml:space="preserve"
   style="font-size:9.60000038px;font-style:normal;font-variant:normal;font-weight:bold;font-stretch:normal;text-align:center;line-height:125%;writing-mode:lr-tb;text-anchor:middle;fill:#000000;fill-opacity:1;stroke:none;font-family:Helvetica Neue;-inkscape-font-specification:Helvetica Neue Bold"
   x="9.0735846"
   y="-562.31714"
   id="text17693"
   sodipodi:linespacing="125%"
   transform="scale(1,-1)"><tspan
     sodipodi:role="line"
     id="tspan17695"
     x="9.0735846"
     y="-562.31714">E</tspan></text>




<text
   xml:space="preserve"
   style="font-size:9.60000038px;font-style:normal;font-variant:normal;font-weight:bold;font-stretch:normal;text-align:center;line-height:125%;writing-mode:lr-tb;text-anchor:middle;fill:#000000;fill-opacity:1;stroke:none;font-family:Helvetica Neue;-inkscape-font-specification:Helvetica Neue Bold"
   x="110.75101"
   y="-562.39673"
   id="text17697"
   sodipodi:linespacing="125%"
   transform="scale(1,-1)"><tspan
     sodipodi:role="line"
     id="tspan17699"
     x="110.75101"
     y="-562.39673">F</tspan></text>




<text
   xml:space="preserve"
   style="font-size:9.60000038px;font-style:normal;font-variant:normal;font-weight:bold;font-stretch:normal;text-align:center;line-height:125%;writing-mode:lr-tb;text-anchor:middle;fill:#000000;fill-opacity:1;stroke:none;font-family:Helvetica Neue;-inkscape-font-specification:Helvetica Neue Bold"
   x="8.5272341"
   y="-490.87466"
   id="text17701"
   sodipodi:linespacing="125%"
   transform="scale(1,-1)"><tspan
     sodipodi:role="line"
     id="tspan17703"
     x="8.5272341"
     y="-490.87466">G</tspan></text>




<text
   xml:space="preserve"
   style="font-size:9.60000038px;font-style:normal;font-variant:normal;font-weight:bold;font-stretch:normal;text-align:center;line-height:125%;writing-mode:lr-tb;text-anchor:middle;fill:#000000;fill-opacity:1;stroke:none;font-family:Helvetica Neue;-inkscape-font-specification:Helvetica Neue Bold"
   x="110.49586"
   y="-490.20721"
   id="text17705"
   sodipodi:linespacing="125%"
   transform="scale(1,-1)"><tspan
     sodipodi:role="line"
     id="tspan17707"
     x="110.49586"
     y="-490.20721">H</tspan></text>




<use
   x="0"
   y="0"
   xlink:href="#g17721"
   id="use17767"
   transform="translate(100.8,0)"
   width="292.5"
   height="495" /><use
   x="0"
   y="0"
   xlink:href="#g17721"
   id="use18397"
   transform="translate(0,-72)"
   width="292.5"
   height="495" /><use
   x="0"
   y="0"
   xlink:href="#g17721"
   id="use18399"
   transform="translate(0,-144)"
   width="292.5"
   height="495" /><use
   x="0"
   y="0"
   xlink:href="#g17721"
   id="use18401"
   transform="translate(0,-216)"
   width="292.5"
   height="495" /><use
   x="0"
   y="0"
   xlink:href="#g17721"
   id="use18403"
   transform="translate(100.8,-72)"
   width="292.5"
   height="495" /><use
   x="0"
   y="0"
   xlink:href="#g17721"
   id="use18405"
   transform="translate(100.8,-144)"
   width="292.5"
   height="495" /><use
   x="0"
   y="0"
   xlink:href="#g17721"
   id="use18407"
   transform="translate(100.8,-216)"
   width="292.5"
   height="495" /><use
   x="0"
   y="0"
   xlink:href="#g18440"
   id="use18463"
   transform="translate(0,-71.337088)"
   width="292.5"
   height="495" /><text
   xml:space="preserve"
   style="font-size:6.4px;font-style:normal;font-variant:normal;font-weight:normal;font-stretch:normal;text-align:center;line-height:110%;writing-mode:lr;text-anchor:middle;fill:#000000;fill-opacity:1;stroke:none;font-family:Helvetica Neue;-inkscape-font-specification:Helvetica Neue"
   x="540.97186"
   y="225.35745"
   id="text18465"
   sodipodi:linespacing="110%"
   transform="matrix(0,1,1,0,0,0)"><tspan
     sodipodi:role="line"
     x="541.85938"
     y="225.35745"
     id="tspan2675">Powerstroke </tspan><tspan
     sodipodi:role="line"
     x="540.97186"
     y="233.35745"
     id="tspan2679"
     dy="0 0 0 0 0 0 0 0 0 0 0 0 0 0 0 0 -1.6572815 0 1.6572815">Rate Constant (s<tspan
   style="font-size:4;-inkscape-font-specification:Helvetica Neue;font-family:Helvetica Neue;font-weight:normal;font-style:normal;font-stretch:normal;font-variant:normal;text-anchor:middle;text-align:center;writing-mode:lr;line-height:110%"
   id="tspan2689">-1</tspan>)</tspan></text>




<use
   x="0"
   y="0"
   xlink:href="#g18440"
   id="use18469"
   transform="translate(0,-143.33708)"
   width="292.5"
   height="495" /><text
   xml:space="preserve"
   style="font-size:6.4px;font-style:normal;font-variant:normal;font-weight:normal;font-stretch:normal;text-align:center;line-height:110%;writing-mode:lr;text-anchor:middle;fill:#000000;fill-opacity:1;stroke:none;font-family:Helvetica Neue;-inkscape-font-specification:Helvetica Neue"
   x="468.97195"
   y="225.35745"
   id="text18471"
   sodipodi:linespacing="110%"
   transform="matrix(0,1,1,0,0,0)"><tspan
     sodipodi:role="line"
     x="469.85947"
     y="225.35745"
     id="tspan2670">Detachment </tspan><tspan
     sodipodi:role="line"
     x="468.97195"
     y="233.35745"
     dy="0 0 0 0 0 0 0 0 0 0 0 0 0 0 0 0 -1.6572815 0 1.6572815 0 0 0 0 0 0 0 0 0 0 0 0 0 0 0"
     id="tspan2685"><tspan
   dy="0 0 0 0"
   id="tspan2701"
   style="-inkscape-font-specification:Helvetica Neue;font-family:Helvetica Neue;font-weight:normal;font-style:normal;font-stretch:normal;font-variant:normal;font-size:6.4px;text-anchor:middle;text-align:center;writing-mode:lr;line-height:110%">Rate </tspan>Constant (s<tspan
   style="font-size:4;-inkscape-font-specification:Helvetica Neue;font-family:Helvetica Neue;font-weight:normal;font-style:normal;font-stretch:normal;font-variant:normal;text-anchor:middle;text-align:center;writing-mode:lr;line-height:110%"
   id="tspan2687">-1</tspan>)</tspan></text>




<text
   transform="scale(1,-1)"
   sodipodi:linespacing="125%"
   id="text3398"
   y="-434.259"
   x="60.600685"
   style="font-size:6.4000001px;font-style:normal;font-variant:normal;font-weight:normal;font-stretch:normal;text-align:center;line-height:125%;writing-mode:lr-tb;text-anchor:middle;fill:#000000;fill-opacity:1;stroke:none;font-family:Helvetica Neue;-inkscape-font-specification:Helvetica Neue"
   xml:space="preserve"><tspan
     style="font-size:6.4000001px"
     y="-434.259"
     x="60.600685"
     id="tspan3400"
     sodipodi:role="line">Axial Offset (nm)</tspan></text>
<text
   transform="scale(1,-1)"
   sodipodi:linespacing="125%"
   id="text3402"
   y="-434.25952"
   x="161.4016"
   style="font-size:6.4000001px;font-style:normal;font-variant:normal;font-weight:normal;font-stretch:normal;text-align:center;line-height:125%;writing-mode:lr-tb;text-anchor:middle;fill:#000000;fill-opacity:1;stroke:none;font-family:Helvetica Neue;-inkscape-font-specification:Helvetica Neue"
   xml:space="preserve"><tspan
     style="font-size:6.4000001px"
     y="-434.25952"
     x="161.4016"
     id="tspan3404"
     sodipodi:role="line">Axial Offset (nm)</tspan></text>
<g
   id="g3418"
   transform="translate(16.768212,-2.7577477)"><path
     id="path3406"
     style="fill:#000000;fill-opacity:1;fill-rule:nonzero;stroke:none"
     d="M -8.1313034,676.34717 C -8.1313034,676.04073 -8.2407469,675.79266 -8.4742263,675.61755 C -8.7004095,675.44244 -8.9703701,675.35488 -9.2914043,675.35488 C -9.597846,675.35488 -9.9261764,675.43514 -10.261803,675.59566 C -10.59743,675.75617 -10.874687,675.96777 -11.093574,676.24502 C -11.31246,676.52228 -11.4292,676.81413 -11.4292,677.13516 C -11.4292,677.28109 -11.38542,677.40512 -11.305164,677.52186 C -11.224906,677.6386 -11.122759,677.72616 -10.991426,677.79182 L -12.618486,678.20041 C -12.698745,678.215 -12.764411,678.2296 -12.815484,678.23689 C -12.888447,678.23689 -12.932224,678.07638 -12.932224,677.76264 C -12.932224,677.71157 -12.961409,677.68968 -13.027075,677.68968 C -13.04167,677.68968 -13.063557,677.68968 -13.092741,677.70427 C -13.121926,677.71157 -13.143815,677.71886 -13.158407,677.73346 C -13.173002,677.74805 -13.187592,677.76264 -13.187592,677.79183 L -13.267851,678.77682 C -13.267851,678.83519 -13.231369,678.86437 -13.173,678.86437 L -8.9776663,677.81372 C -8.8901115,677.77723 -8.7733718,677.76264 -8.6274472,677.76264 C -8.4158564,677.76264 -8.3137092,677.82831 -8.3137092,677.97423 C -8.3137092,678.12016 -8.4085602,678.2369 -8.6055584,678.31716 C -8.7952605,678.39741 -9.0214437,678.46308 -9.2768118,678.52145 C -9.3059967,678.52875 -9.3205892,678.55063 -9.3205892,678.57982 L -9.3205892,678.66737 C -9.3205892,678.68196 -9.3059967,678.69656 -9.2914043,678.71115 C -9.2768118,678.72574 -9.2622193,678.73304 -9.2476269,678.73304 C -8.904704,678.64548 -8.6347434,678.55063 -8.4304489,678.44848 C -8.2261544,678.34634 -8.1313034,678.18582 -8.1313034,677.95964 C -8.1313034,677.79182 -8.182377,677.6459 -8.2699318,677.52186 C -8.3574866,677.39783 -8.4888188,677.31757 -8.6493359,677.28838 C -8.2991167,676.97465 -8.1313034,676.66091 -8.1313034,676.34717 M -8.3137092,676.35447 C -8.3137092,676.52958 -8.3793752,676.69739 -8.5107074,676.8652 C -8.6420396,677.02572 -8.7952605,677.17165 -8.9776663,677.28838 C -8.9776663,677.28838 -8.9922587,677.29568 -9.0068512,677.29568 L -10.612022,677.69697 C -10.779836,677.66779 -10.92576,677.60212 -11.049796,677.50727 C -11.173832,677.40513 -11.239498,677.28109 -11.239498,677.12057 C -11.239498,676.95276 -11.166536,676.79954 -11.035204,676.66091 C -10.903872,676.51498 -10.743354,676.39825 -10.560949,676.30339 C -10.36395,676.20125 -10.09399,676.11369 -9.7583631,676.02614 C -9.4227364,675.93858 -9.1600721,675.9021 -8.97037,675.9021 C -8.7952605,675.9021 -8.6420396,675.93858 -8.5107074,676.01155 C -8.3793752,676.08451 -8.3137091,676.19395 -8.3137091,676.35447" /><path
     id="path3408"
     style="fill:#000000;fill-opacity:1;fill-rule:nonzero;stroke:none"
     d="M -6.3431804,679.34659 L -6.5219381,679.34659 C -6.5219381,679.77037 -6.5730117,679.98501 -6.6854953,679.98501 L -9.3668605,679.98501 C -9.2799138,679.80625 -9.2391765,679.58189 -9.2391765,679.31618 L -9.4179342,679.31618 C -9.4179342,679.72964 -9.5249456,680.04642 -9.7444404,680.26105 L -9.7444404,680.33279 C -9.7444404,680.34252 -9.7395755,680.35833 -9.7292398,680.36806 C -9.7189042,680.37839 -9.7091753,680.38387 -9.6988387,680.38387 L -6.6854949,680.38387 C -6.5730113,680.38387 -6.5219377,680.59302 -6.5219377,681.02168 L -6.34318,681.02168 L -6.34318,679.34658" /><path
     id="path3410"
     style="fill:#000000;fill-opacity:1;fill-rule:nonzero;stroke:none"
     d="M -5.4290832,681.93099 C -5.4442837,681.93099 -5.4594843,681.93646 -5.4698204,681.95166 C -5.5926403,682.07387 -5.7306607,682.16629 -5.8838816,682.23743 C -6.0371025,682.3037 -6.2000516,682.33958 -6.3636089,682.33958 L -6.4250188,682.33958 C -6.368473,682.28364 -6.3429362,682.21736 -6.3429362,682.13528 C -6.3429362,682.05381 -6.3684729,681.98753 -6.4250188,681.93646 C -6.4760924,681.87991 -6.5423665,681.85438 -6.6238411,681.85438 C -6.7059238,681.85438 -6.7721978,681.87991 -6.8232715,681.93646 C -6.8743451,681.98753 -6.9047461,682.05381 -6.9047461,682.13528 C -6.9047461,682.2581 -6.8488083,682.34505 -6.7363247,682.39612 C -6.6238411,682.44719 -6.4961571,682.47273 -6.3636089,682.47273 C -6.179987,682.47273 -6.0006213,682.43138 -5.8273358,682.36025 C -5.6589145,682.28364 -5.5056936,682.17602 -5.3676732,682.03861 C -5.3628092,682.0228 -5.3573366,682.01307 -5.3573366,682.0076 C -5.3573366,681.98753 -5.3676732,681.97173 -5.3828733,681.95652 C -5.3980739,681.93646 -5.4138821,681.93099 -5.4290828,681.93099" /><path
     id="path3412"
     style="fill:#000000;fill-opacity:1;fill-rule:nonzero;stroke:none"
     d="M -6.2359854,684.21755 C -6.2359854,683.79863 -6.4044067,683.51286 -6.7467216,683.3645 C -7.0890365,683.21128 -7.4976255,683.14014 -7.9724886,683.14014 C -8.268594,683.14014 -8.5446348,683.16568 -8.8048671,683.22162 C -9.0650993,683.27269 -9.2852024,683.3797 -9.4688242,683.54326 C -9.6530542,683.70134 -9.7448648,683.92631 -9.7448648,684.21755 C -9.7448648,684.44252 -9.6883193,684.62614 -9.5813078,684.76903 C -9.4688242,684.91191 -9.3308038,685.01953 -9.1575183,685.09614 C -8.9836248,685.16789 -8.7945308,685.21835 -8.5957084,685.24936 C -8.3962781,685.2749 -8.1865114,685.2901 -7.9724886,685.2901 C -7.6763832,685.2901 -7.4052066,685.25909 -7.1498384,685.20801 C -6.8944703,685.15208 -6.6749753,685.04507 -6.5016898,684.88637 C -6.3277963,684.72829 -6.2359854,684.50332 -6.2359854,684.21755 M -6.3636694,684.21755 C -6.3636694,684.40665 -6.4609525,684.54953 -6.6543027,684.64134 C -6.8488689,684.73315 -7.0634997,684.78909 -7.2981951,684.80976 C -7.5328906,684.83043 -7.7888668,684.84563 -8.0539632,684.84563 C -8.3093313,684.84563 -8.5446348,684.83043 -8.7586576,684.80976 C -8.9732885,684.78909 -9.1727188,684.73315 -9.3460043,684.64134 C -9.5198978,684.54953 -9.6117087,684.40665 -9.6117087,684.21755 C -9.6117087,684.02359 -9.5198978,683.8801 -9.3460043,683.78829 C -9.1727188,683.69648 -8.9732885,683.63507 -8.7586576,683.615 C -8.5446348,683.59433 -8.3093313,683.584 -8.0539632,683.584 C -7.860005,683.584 -7.6812473,683.584 -7.5176901,683.59433 C -7.3492688,683.60467 -7.1753753,683.6302 -6.9966176,683.67094 C -6.8184679,683.71168 -6.6701112,683.77309 -6.5472913,683.8649 C -6.4250794,683.95185 -6.3636694,684.0692 -6.3636694,684.21755" /><text
     transform="matrix(0,1,1,0,0,0)"
     sodipodi:linespacing="125%"
     id="text3414"
     y="-8.2026176"
     x="694.07483"
     style="font-size:6.4000001px;font-style:normal;font-variant:normal;font-weight:normal;font-stretch:normal;text-align:center;line-height:125%;writing-mode:lr-tb;text-anchor:middle;fill:#000000;fill-opacity:1;stroke:none;font-family:Helvetica Neue;-inkscape-font-specification:Helvetica Neue"
     xml:space="preserve"><tspan
       y="-8.2026176"
       x="694.07483"
       id="tspan3416"
       sodipodi:role="line">(nm)</tspan></text>
</g><use
   x="0"
   y="0"
   xlink:href="#g3418"
   id="use3426"
   transform="translate(0,-72)"
   width="294.09448"
   height="361.41733" /><g
   transform="translate(16.768212,-146.75775)"
   id="g3428"><path
     d="M -8.1313034,676.34717 C -8.1313034,676.04073 -8.2407469,675.79266 -8.4742263,675.61755 C -8.7004095,675.44244 -8.9703701,675.35488 -9.2914043,675.35488 C -9.597846,675.35488 -9.9261764,675.43514 -10.261803,675.59566 C -10.59743,675.75617 -10.874687,675.96777 -11.093574,676.24502 C -11.31246,676.52228 -11.4292,676.81413 -11.4292,677.13516 C -11.4292,677.28109 -11.38542,677.40512 -11.305164,677.52186 C -11.224906,677.6386 -11.122759,677.72616 -10.991426,677.79182 L -12.618486,678.20041 C -12.698745,678.215 -12.764411,678.2296 -12.815484,678.23689 C -12.888447,678.23689 -12.932224,678.07638 -12.932224,677.76264 C -12.932224,677.71157 -12.961409,677.68968 -13.027075,677.68968 C -13.04167,677.68968 -13.063557,677.68968 -13.092741,677.70427 C -13.121926,677.71157 -13.143815,677.71886 -13.158407,677.73346 C -13.173002,677.74805 -13.187592,677.76264 -13.187592,677.79183 L -13.267851,678.77682 C -13.267851,678.83519 -13.231369,678.86437 -13.173,678.86437 L -8.9776663,677.81372 C -8.8901115,677.77723 -8.7733718,677.76264 -8.6274472,677.76264 C -8.4158564,677.76264 -8.3137092,677.82831 -8.3137092,677.97423 C -8.3137092,678.12016 -8.4085602,678.2369 -8.6055584,678.31716 C -8.7952605,678.39741 -9.0214437,678.46308 -9.2768118,678.52145 C -9.3059967,678.52875 -9.3205892,678.55063 -9.3205892,678.57982 L -9.3205892,678.66737 C -9.3205892,678.68196 -9.3059967,678.69656 -9.2914043,678.71115 C -9.2768118,678.72574 -9.2622193,678.73304 -9.2476269,678.73304 C -8.904704,678.64548 -8.6347434,678.55063 -8.4304489,678.44848 C -8.2261544,678.34634 -8.1313034,678.18582 -8.1313034,677.95964 C -8.1313034,677.79182 -8.182377,677.6459 -8.2699318,677.52186 C -8.3574866,677.39783 -8.4888188,677.31757 -8.6493359,677.28838 C -8.2991167,676.97465 -8.1313034,676.66091 -8.1313034,676.34717 M -8.3137092,676.35447 C -8.3137092,676.52958 -8.3793752,676.69739 -8.5107074,676.8652 C -8.6420396,677.02572 -8.7952605,677.17165 -8.9776663,677.28838 C -8.9776663,677.28838 -8.9922587,677.29568 -9.0068512,677.29568 L -10.612022,677.69697 C -10.779836,677.66779 -10.92576,677.60212 -11.049796,677.50727 C -11.173832,677.40513 -11.239498,677.28109 -11.239498,677.12057 C -11.239498,676.95276 -11.166536,676.79954 -11.035204,676.66091 C -10.903872,676.51498 -10.743354,676.39825 -10.560949,676.30339 C -10.36395,676.20125 -10.09399,676.11369 -9.7583631,676.02614 C -9.4227364,675.93858 -9.1600721,675.9021 -8.97037,675.9021 C -8.7952605,675.9021 -8.6420396,675.93858 -8.5107074,676.01155 C -8.3793752,676.08451 -8.3137091,676.19395 -8.3137091,676.35447"
     style="fill:#000000;fill-opacity:1;fill-rule:nonzero;stroke:none"
     id="path3430" /><path
     d="M -6.3431804,679.34659 L -6.5219381,679.34659 C -6.5219381,679.77037 -6.5730117,679.98501 -6.6854953,679.98501 L -9.3668605,679.98501 C -9.2799138,679.80625 -9.2391765,679.58189 -9.2391765,679.31618 L -9.4179342,679.31618 C -9.4179342,679.72964 -9.5249456,680.04642 -9.7444404,680.26105 L -9.7444404,680.33279 C -9.7444404,680.34252 -9.7395755,680.35833 -9.7292398,680.36806 C -9.7189042,680.37839 -9.7091753,680.38387 -9.6988387,680.38387 L -6.6854949,680.38387 C -6.5730113,680.38387 -6.5219377,680.59302 -6.5219377,681.02168 L -6.34318,681.02168 L -6.34318,679.34658"
     style="fill:#000000;fill-opacity:1;fill-rule:nonzero;stroke:none"
     id="path3432" /><path
     d="M -5.4290832,681.93099 C -5.4442837,681.93099 -5.4594843,681.93646 -5.4698204,681.95166 C -5.5926403,682.07387 -5.7306607,682.16629 -5.8838816,682.23743 C -6.0371025,682.3037 -6.2000516,682.33958 -6.3636089,682.33958 L -6.4250188,682.33958 C -6.368473,682.28364 -6.3429362,682.21736 -6.3429362,682.13528 C -6.3429362,682.05381 -6.3684729,681.98753 -6.4250188,681.93646 C -6.4760924,681.87991 -6.5423665,681.85438 -6.6238411,681.85438 C -6.7059238,681.85438 -6.7721978,681.87991 -6.8232715,681.93646 C -6.8743451,681.98753 -6.9047461,682.05381 -6.9047461,682.13528 C -6.9047461,682.2581 -6.8488083,682.34505 -6.7363247,682.39612 C -6.6238411,682.44719 -6.4961571,682.47273 -6.3636089,682.47273 C -6.179987,682.47273 -6.0006213,682.43138 -5.8273358,682.36025 C -5.6589145,682.28364 -5.5056936,682.17602 -5.3676732,682.03861 C -5.3628092,682.0228 -5.3573366,682.01307 -5.3573366,682.0076 C -5.3573366,681.98753 -5.3676732,681.97173 -5.3828733,681.95652 C -5.3980739,681.93646 -5.4138821,681.93099 -5.4290828,681.93099"
     style="fill:#000000;fill-opacity:1;fill-rule:nonzero;stroke:none"
     id="path3434" /><path
     d="M -6.2359854,684.21755 C -6.2359854,683.79863 -6.4044067,683.51286 -6.7467216,683.3645 C -7.0890365,683.21128 -7.4976255,683.14014 -7.9724886,683.14014 C -8.268594,683.14014 -8.5446348,683.16568 -8.8048671,683.22162 C -9.0650993,683.27269 -9.2852024,683.3797 -9.4688242,683.54326 C -9.6530542,683.70134 -9.7448648,683.92631 -9.7448648,684.21755 C -9.7448648,684.44252 -9.6883193,684.62614 -9.5813078,684.76903 C -9.4688242,684.91191 -9.3308038,685.01953 -9.1575183,685.09614 C -8.9836248,685.16789 -8.7945308,685.21835 -8.5957084,685.24936 C -8.3962781,685.2749 -8.1865114,685.2901 -7.9724886,685.2901 C -7.6763832,685.2901 -7.4052066,685.25909 -7.1498384,685.20801 C -6.8944703,685.15208 -6.6749753,685.04507 -6.5016898,684.88637 C -6.3277963,684.72829 -6.2359854,684.50332 -6.2359854,684.21755 M -6.3636694,684.21755 C -6.3636694,684.40665 -6.4609525,684.54953 -6.6543027,684.64134 C -6.8488689,684.73315 -7.0634997,684.78909 -7.2981951,684.80976 C -7.5328906,684.83043 -7.7888668,684.84563 -8.0539632,684.84563 C -8.3093313,684.84563 -8.5446348,684.83043 -8.7586576,684.80976 C -8.9732885,684.78909 -9.1727188,684.73315 -9.3460043,684.64134 C -9.5198978,684.54953 -9.6117087,684.40665 -9.6117087,684.21755 C -9.6117087,684.02359 -9.5198978,683.8801 -9.3460043,683.78829 C -9.1727188,683.69648 -8.9732885,683.63507 -8.7586576,683.615 C -8.5446348,683.59433 -8.3093313,683.584 -8.0539632,683.584 C -7.860005,683.584 -7.6812473,683.584 -7.5176901,683.59433 C -7.3492688,683.60467 -7.1753753,683.6302 -6.9966176,683.67094 C -6.8184679,683.71168 -6.6701112,683.77309 -6.5472913,683.8649 C -6.4250794,683.95185 -6.3636694,684.0692 -6.3636694,684.21755"
     style="fill:#000000;fill-opacity:1;fill-rule:nonzero;stroke:none"
     id="path3436" /><text
     xml:space="preserve"
     style="font-size:6.4000001px;font-style:normal;font-variant:normal;font-weight:normal;font-stretch:normal;text-align:center;line-height:125%;writing-mode:lr-tb;text-anchor:middle;fill:#000000;fill-opacity:1;stroke:none;font-family:Helvetica Neue;-inkscape-font-specification:Helvetica Neue"
     x="694.07483"
     y="-8.2026176"
     id="text3438"
     sodipodi:linespacing="125%"
     transform="matrix(0,1,1,0,0,0)"><tspan
       sodipodi:role="line"
       id="tspan3440"
       x="694.07483"
       y="-8.2026176">(nm)</tspan></text>
</g><g
   transform="translate(16.768212,-218.75775)"
   id="g3442"><path
     d="M -8.1313034,676.34717 C -8.1313034,676.04073 -8.2407469,675.79266 -8.4742263,675.61755 C -8.7004095,675.44244 -8.9703701,675.35488 -9.2914043,675.35488 C -9.597846,675.35488 -9.9261764,675.43514 -10.261803,675.59566 C -10.59743,675.75617 -10.874687,675.96777 -11.093574,676.24502 C -11.31246,676.52228 -11.4292,676.81413 -11.4292,677.13516 C -11.4292,677.28109 -11.38542,677.40512 -11.305164,677.52186 C -11.224906,677.6386 -11.122759,677.72616 -10.991426,677.79182 L -12.618486,678.20041 C -12.698745,678.215 -12.764411,678.2296 -12.815484,678.23689 C -12.888447,678.23689 -12.932224,678.07638 -12.932224,677.76264 C -12.932224,677.71157 -12.961409,677.68968 -13.027075,677.68968 C -13.04167,677.68968 -13.063557,677.68968 -13.092741,677.70427 C -13.121926,677.71157 -13.143815,677.71886 -13.158407,677.73346 C -13.173002,677.74805 -13.187592,677.76264 -13.187592,677.79183 L -13.267851,678.77682 C -13.267851,678.83519 -13.231369,678.86437 -13.173,678.86437 L -8.9776663,677.81372 C -8.8901115,677.77723 -8.7733718,677.76264 -8.6274472,677.76264 C -8.4158564,677.76264 -8.3137092,677.82831 -8.3137092,677.97423 C -8.3137092,678.12016 -8.4085602,678.2369 -8.6055584,678.31716 C -8.7952605,678.39741 -9.0214437,678.46308 -9.2768118,678.52145 C -9.3059967,678.52875 -9.3205892,678.55063 -9.3205892,678.57982 L -9.3205892,678.66737 C -9.3205892,678.68196 -9.3059967,678.69656 -9.2914043,678.71115 C -9.2768118,678.72574 -9.2622193,678.73304 -9.2476269,678.73304 C -8.904704,678.64548 -8.6347434,678.55063 -8.4304489,678.44848 C -8.2261544,678.34634 -8.1313034,678.18582 -8.1313034,677.95964 C -8.1313034,677.79182 -8.182377,677.6459 -8.2699318,677.52186 C -8.3574866,677.39783 -8.4888188,677.31757 -8.6493359,677.28838 C -8.2991167,676.97465 -8.1313034,676.66091 -8.1313034,676.34717 M -8.3137092,676.35447 C -8.3137092,676.52958 -8.3793752,676.69739 -8.5107074,676.8652 C -8.6420396,677.02572 -8.7952605,677.17165 -8.9776663,677.28838 C -8.9776663,677.28838 -8.9922587,677.29568 -9.0068512,677.29568 L -10.612022,677.69697 C -10.779836,677.66779 -10.92576,677.60212 -11.049796,677.50727 C -11.173832,677.40513 -11.239498,677.28109 -11.239498,677.12057 C -11.239498,676.95276 -11.166536,676.79954 -11.035204,676.66091 C -10.903872,676.51498 -10.743354,676.39825 -10.560949,676.30339 C -10.36395,676.20125 -10.09399,676.11369 -9.7583631,676.02614 C -9.4227364,675.93858 -9.1600721,675.9021 -8.97037,675.9021 C -8.7952605,675.9021 -8.6420396,675.93858 -8.5107074,676.01155 C -8.3793752,676.08451 -8.3137091,676.19395 -8.3137091,676.35447"
     style="fill:#000000;fill-opacity:1;fill-rule:nonzero;stroke:none"
     id="path3444" /><path
     d="M -6.3431804,679.34659 L -6.5219381,679.34659 C -6.5219381,679.77037 -6.5730117,679.98501 -6.6854953,679.98501 L -9.3668605,679.98501 C -9.2799138,679.80625 -9.2391765,679.58189 -9.2391765,679.31618 L -9.4179342,679.31618 C -9.4179342,679.72964 -9.5249456,680.04642 -9.7444404,680.26105 L -9.7444404,680.33279 C -9.7444404,680.34252 -9.7395755,680.35833 -9.7292398,680.36806 C -9.7189042,680.37839 -9.7091753,680.38387 -9.6988387,680.38387 L -6.6854949,680.38387 C -6.5730113,680.38387 -6.5219377,680.59302 -6.5219377,681.02168 L -6.34318,681.02168 L -6.34318,679.34658"
     style="fill:#000000;fill-opacity:1;fill-rule:nonzero;stroke:none"
     id="path3446" /><path
     d="M -5.4290832,681.93099 C -5.4442837,681.93099 -5.4594843,681.93646 -5.4698204,681.95166 C -5.5926403,682.07387 -5.7306607,682.16629 -5.8838816,682.23743 C -6.0371025,682.3037 -6.2000516,682.33958 -6.3636089,682.33958 L -6.4250188,682.33958 C -6.368473,682.28364 -6.3429362,682.21736 -6.3429362,682.13528 C -6.3429362,682.05381 -6.3684729,681.98753 -6.4250188,681.93646 C -6.4760924,681.87991 -6.5423665,681.85438 -6.6238411,681.85438 C -6.7059238,681.85438 -6.7721978,681.87991 -6.8232715,681.93646 C -6.8743451,681.98753 -6.9047461,682.05381 -6.9047461,682.13528 C -6.9047461,682.2581 -6.8488083,682.34505 -6.7363247,682.39612 C -6.6238411,682.44719 -6.4961571,682.47273 -6.3636089,682.47273 C -6.179987,682.47273 -6.0006213,682.43138 -5.8273358,682.36025 C -5.6589145,682.28364 -5.5056936,682.17602 -5.3676732,682.03861 C -5.3628092,682.0228 -5.3573366,682.01307 -5.3573366,682.0076 C -5.3573366,681.98753 -5.3676732,681.97173 -5.3828733,681.95652 C -5.3980739,681.93646 -5.4138821,681.93099 -5.4290828,681.93099"
     style="fill:#000000;fill-opacity:1;fill-rule:nonzero;stroke:none"
     id="path3448" /><path
     d="M -6.2359854,684.21755 C -6.2359854,683.79863 -6.4044067,683.51286 -6.7467216,683.3645 C -7.0890365,683.21128 -7.4976255,683.14014 -7.9724886,683.14014 C -8.268594,683.14014 -8.5446348,683.16568 -8.8048671,683.22162 C -9.0650993,683.27269 -9.2852024,683.3797 -9.4688242,683.54326 C -9.6530542,683.70134 -9.7448648,683.92631 -9.7448648,684.21755 C -9.7448648,684.44252 -9.6883193,684.62614 -9.5813078,684.76903 C -9.4688242,684.91191 -9.3308038,685.01953 -9.1575183,685.09614 C -8.9836248,685.16789 -8.7945308,685.21835 -8.5957084,685.24936 C -8.3962781,685.2749 -8.1865114,685.2901 -7.9724886,685.2901 C -7.6763832,685.2901 -7.4052066,685.25909 -7.1498384,685.20801 C -6.8944703,685.15208 -6.6749753,685.04507 -6.5016898,684.88637 C -6.3277963,684.72829 -6.2359854,684.50332 -6.2359854,684.21755 M -6.3636694,684.21755 C -6.3636694,684.40665 -6.4609525,684.54953 -6.6543027,684.64134 C -6.8488689,684.73315 -7.0634997,684.78909 -7.2981951,684.80976 C -7.5328906,684.83043 -7.7888668,684.84563 -8.0539632,684.84563 C -8.3093313,684.84563 -8.5446348,684.83043 -8.7586576,684.80976 C -8.9732885,684.78909 -9.1727188,684.73315 -9.3460043,684.64134 C -9.5198978,684.54953 -9.6117087,684.40665 -9.6117087,684.21755 C -9.6117087,684.02359 -9.5198978,683.8801 -9.3460043,683.78829 C -9.1727188,683.69648 -8.9732885,683.63507 -8.7586576,683.615 C -8.5446348,683.59433 -8.3093313,683.584 -8.0539632,683.584 C -7.860005,683.584 -7.6812473,683.584 -7.5176901,683.59433 C -7.3492688,683.60467 -7.1753753,683.6302 -6.9966176,683.67094 C -6.8184679,683.71168 -6.6701112,683.77309 -6.5472913,683.8649 C -6.4250794,683.95185 -6.3636694,684.0692 -6.3636694,684.21755"
     style="fill:#000000;fill-opacity:1;fill-rule:nonzero;stroke:none"
     id="path3450" /><text
     xml:space="preserve"
     style="font-size:6.4000001px;font-style:normal;font-variant:normal;font-weight:normal;font-stretch:normal;text-align:center;line-height:125%;writing-mode:lr-tb;text-anchor:middle;fill:#000000;fill-opacity:1;stroke:none;font-family:Helvetica Neue;-inkscape-font-specification:Helvetica Neue"
     x="694.07483"
     y="-8.2026176"
     id="text3452"
     sodipodi:linespacing="125%"
     transform="matrix(0,1,1,0,0,0)"><tspan
       sodipodi:role="line"
       id="tspan3454"
       x="694.07483"
       y="-8.2026176">(nm)</tspan></text>
</g></g></svg>