<?xml version="1.0" encoding="UTF-8" standalone="no"?>
<!-- Created with matplotlib (http://matplotlib.sourceforge.net/) -->

<svg
   xmlns:dc="http://purl.org/dc/elements/1.1/"
   xmlns:cc="http://creativecommons.org/ns#"
   xmlns:rdf="http://www.w3.org/1999/02/22-rdf-syntax-ns#"
   xmlns:svg="http://www.w3.org/2000/svg"
   xmlns="http://www.w3.org/2000/svg"
   xmlns:xlink="http://www.w3.org/1999/xlink"
   xmlns:sodipodi="http://sodipodi.sourceforge.net/DTD/sodipodi-0.dtd"
   xmlns:inkscape="http://www.inkscape.org/namespaces/inkscape"
   width="349pt"
   height="435pt"
   viewBox="0 0 349 435"
   version="1.1"
   id="svg1"
   inkscape:version="0.48.0 r9654"
   sodipodi:docname="fig_multiple_kinetics_cuts.svg">
  <metadata
     id="metadata2101">
    <rdf:RDF>
      <cc:Work
         rdf:about="">
        <dc:format>image/svg+xml</dc:format>
        <dc:type
           rdf:resource="http://purl.org/dc/dcmitype/StillImage" />
      </cc:Work>
    </rdf:RDF>
  </metadata>
  <defs
     id="defs2099">
    <defs
       id="defs15">
      <clipPath
         id="pb5c5f7e6ef1bc36d557ba335e3a42bfe">
        <rect
           id="rect18"
           height="68.778946"
           width="119.38461"
           y="34.848"
           x="59.363998" />
      </clipPath>
    </defs>
    <clipPath
       clipPathUnits="userSpaceOnUse"
       id="clipPath4617">
      <rect
         x="59.363998"
         y="34.848"
         width="119.38461"
         height="68.778946"
         id="rect4619" />
    </clipPath>
    <defs
       id="defs195">
      <path
         inkscape:connector-curvature="0"
         id="c_437b65db52fcab09cc82d5f27f415467"
         d="m 7.796875,-71.40625 0,71.40625 9.5,0 0,-32.703125 32.796875,0 0,-8 -32.796875,0 0,-22.703125 37.40625,0 0,-8 z" />
      <path
         inkscape:connector-curvature="0"
         id="c_7c04c5bf3a262db07459812e41b09b63"
         d="m 6.09375,-51.703125 0,51.703125 8.5,0 0,-23 q 0,-5 1,-8.84375 1,-3.859375 3.203125,-6.546875 Q 21,-41.09375 24.59375,-42.5 q 3.609375,-1.40625 8.703125,-1.40625 l 0,-9 q -6.890625,-0.1875 -11.390625,2.8125 -4.5,3 -7.609375,9.296875 l -0.203125,0 0,-10.90625 z" />
      <path
         inkscape:connector-curvature="0"
         id="c_e9ced793d0f052dbde121a427cbfbc89"
         d="m 42.296875,-30.796875 -29.703125,0 q 0.203125,-3 1.296875,-5.640625 1.109375,-2.65625 3,-4.65625 1.90625,-2 4.546875,-3.15625 2.65625,-1.15625 5.96875,-1.15625 3.1875,0 5.84375,1.15625 2.65625,1.15625 4.59375,3.109375 1.953125,1.9375 3.09375,4.640625 1.15625,2.703125 1.359375,5.703125 M 50.5,-16.40625 l -8.40625,0 Q 41,-11.296875 37.546875,-8.796875 q -3.453125,2.5 -8.84375,2.5 -4.203125,0 -7.3125,-1.390625 -3.09375,-1.40625 -5.09375,-3.75 -2,-2.359375 -2.90625,-5.40625 Q 12.5,-19.90625 12.59375,-23.296875 l 38.703125,0 Q 51.5,-28 50.453125,-33.203125 q -1.046875,-5.203125 -3.796875,-9.59375 -2.75,-4.40625 -7.3125,-7.25 -4.546875,-2.859375 -11.4375,-2.859375 -5.3125,0 -9.765625,2 -4.4375,2 -7.6875,5.609375 -3.25,3.59375 -5.0625,8.5 Q 3.59375,-31.90625 3.59375,-26 q 0.203125,5.90625 1.75,10.90625 1.5625,5 4.65625,8.59375 3.09375,3.59375 7.640625,5.59375 4.5625,2 10.765625,2 8.796875,0 14.59375,-4.390625 5.796875,-4.40625 7.5,-13.109375" />
      <path
         inkscape:connector-curvature="0"
         id="c_d41d8cd98f00b204e9800998ecf8427e"
         d="" />
      <path
         inkscape:connector-curvature="0"
         id="c_34d812fbf17cb9f807ce508bf1e91008"
         d="m 7.796875,-71.40625 0,71.40625 49.609375,0 0,-8 -40.109375,0 0,-24.703125 37.109375,0 0,-8 -37.109375,0 0,-22.703125 39.796875,0 0,-8 z" />
      <path
         inkscape:connector-curvature="0"
         id="c_f9efa76c63fb21a1e656baacc7d7e5fe"
         d="m 6.40625,-51.703125 0,51.703125 8.5,0 0,-29.203125 q 0,-3.5 0.9375,-6.4375 0.953125,-2.953125 2.84375,-5.15625 1.90625,-2.203125 4.75,-3.40625 2.859375,-1.203125 6.765625,-1.203125 4.890625,0 7.6875,2.8125 2.8125,2.796875 2.8125,7.59375 l 0,35 8.5,0 0,-34 q 0,-4.203125 -0.859375,-7.640625 -0.84375,-3.453125 -2.953125,-5.953125 -2.09375,-2.5 -5.5,-3.90625 -3.390625,-1.40625 -8.484375,-1.40625 -11.5,0 -16.8125,9.40625 l -0.1875,0 0,-8.203125 z" />
      <path
         inkscape:connector-curvature="0"
         id="c_3414d9930ebf88ac484c4ad95b01f20a"
         d="m 51,-4.40625 0,-47.296875 -8,0 0,7.40625 -0.09375,0 Q 40.59375,-48.59375 36.5,-50.75 q -4.09375,-2.15625 -9,-2.15625 -6.703125,0 -11.3125,2.5625 -4.59375,2.546875 -7.390625,6.5 -2.796875,3.9375 -4,8.796875 -1.203125,4.84375 -1.203125,9.453125 0,5.296875 1.453125,10.046875 1.453125,4.75 4.34375,8.296875 2.90625,3.546875 7.203125,5.65625 Q 20.90625,0.5 26.703125,0.5 q 5,0 9.4375,-2.25 4.453125,-2.25 6.65625,-7.046875 l 0.203125,0 0,3.390625 q 0,4.3125 -0.859375,7.90625 -0.84375,3.59375 -2.75,6.140625 -1.890625,2.5625 -4.796875,4 -2.890625,1.453125 -7.09375,1.453125 -2.09375,0 -4.40625,-0.453125 -2.296875,-0.4375 -4.25,-1.4375 -1.9375,-1 -3.296875,-2.609375 Q 14.203125,8 14.09375,5.703125 l -8.5,0 q 0.203125,4.203125 2.203125,7.09375 2,2.90625 5.046875,4.703125 3.0625,1.796875 6.8125,2.59375 3.75,0.8125 7.34375,0.8125 12.40625,0 18.203125,-6.3125 Q 51,8.296875 51,-4.40625 m -23.796875,-2.5 q -4.203125,0 -7,-1.75 -2.796875,-1.75 -4.5,-4.59375 -1.703125,-2.84375 -2.40625,-6.34375 -0.703125,-3.5 -0.703125,-7 0,-3.703125 0.84375,-7.09375 0.859375,-3.40625 2.703125,-6 1.859375,-2.609375 4.75,-4.15625 2.90625,-1.5625 7.015625,-1.5625 4,0 6.796875,1.609375 2.796875,1.59375 4.546875,4.25 1.75,2.640625 2.546875,5.953125 0.796875,3.296875 0.796875,6.6875 0,3.609375 -0.84375,7.21875 -0.84375,3.59375 -2.65625,6.4375 -1.796875,2.84375 -4.75,4.59375 -2.9375,1.75 -7.140625,1.75" />
      <path
         inkscape:connector-curvature="0"
         id="c_828d91897ffc04864f9ed738803a9c13"
         d="m 26.703125,6.796875 22.5,-58.5 -9,0 -14.5,42.296875 -0.203125,0 -15.09375,-42.296875 -9.609375,0 20.5,51.40625 -3.5,8.703125 Q 16.59375,10.703125 15,11.890625 13.40625,13.09375 10.796875,13.09375 9.5,13.09375 8.25,12.6875 7,12.296875 5.796875,11.90625 l 0,7.796875 q 1.40625,0.5 2.90625,0.6875 1.5,0.203125 3,0.203125 2.890625,0 4.984375,-0.75 2.109375,-0.75 3.859375,-2.40625 1.75,-1.640625 3.203125,-4.25 1.453125,-2.59375 2.953125,-6.390625" />
      <path
         inkscape:connector-curvature="0"
         id="c_6800f5c7ba9aab03567d151ea6ca68b3"
         d="m 20.40625,19.703125 6.5,0 Q 19.796875,8.203125 16.75,-3.09375 13.703125,-14.40625 13.703125,-27 q 0,-12.296875 3,-23.5 3,-11.203125 10.203125,-22.59375 l -6.5,0 q -7.8125,10.296875 -11.765625,22.296875 -3.9375,12 -3.9375,23.796875 0,6.59375 1.09375,12.59375 1.109375,6 3.15625,11.703125 Q 11,3 13.890625,8.546875 q 2.90625,5.546875 6.515625,11.15625" />
      <path
         inkscape:connector-curvature="0"
         id="c_260173507ef26c40aad6ea9314411c2b"
         d="m 7.796875,-71.40625 0,71.40625 9.5,0 0,-30.5 23.203125,0 q 3.5,0 5.59375,1.046875 2.109375,1.046875 3.40625,2.796875 1.296875,1.75 1.890625,4.109375 Q 52,-20.203125 52.40625,-17.59375 52.90625,-15 53,-12.296875 53.09375,-9.59375 53.1875,-7.25 53.296875,-4.90625 53.640625,-3 54,-1.09375 55,0 l 10.59375,0 q -1.5,-1.796875 -2.25,-4.140625 -0.75,-2.359375 -1.15625,-4.953125 -0.390625,-2.609375 -0.5,-5.296875 -0.09375,-2.703125 -0.28125,-5.3125 -0.3125,-2.59375 -0.859375,-4.984375 Q 60,-27.09375 58.84375,-29.046875 57.703125,-31 55.75,-32.390625 q -1.953125,-1.40625 -5.046875,-2.015625 l 0,-0.1875 q 6.5,-1.8125 9.4375,-6.703125 2.953125,-4.90625 2.953125,-11.40625 0,-8.703125 -5.75,-13.703125 -5.75,-5 -15.9375,-5 z M 37.09375,-38.5 l -19.796875,0 0,-24.90625 23.609375,0 q 6.6875,0 9.6875,3.40625 3,3.40625 3,8.796875 0,3.90625 -1.34375,6.359375 -1.34375,2.4375 -3.59375,3.890625 -2.25,1.453125 -5.25,1.953125 -3,0.5 -6.3125,0.5" />
      <path
         inkscape:connector-curvature="0"
         id="c_816410242196cfbdc995d58702189d6c"
         d="M 24,-63.40625 24,0 l 9.5,0 0,-63.40625 23.796875,0 0,-8 -57.09375,0 0,8 z" />
      <path
         inkscape:connector-curvature="0"
         id="c_2a0ecea85e77bc35c3772a22d6496c06"
         d="m -0.90625,19.703125 6.40625,0 q 7.796875,-10.296875 11.75,-22.25 3.953125,-11.953125 3.953125,-23.75 0,-6.609375 -1.109375,-12.609375 -1.09375,-6 -3.140625,-11.75 Q 14.90625,-56.40625 12,-61.953125 9.09375,-67.5 5.5,-73.09375 l -6.40625,0 q 7,11.5 10.046875,22.84375 3.0625,11.34375 3.0625,23.953125 0,12.203125 -3,23.453125 -3,11.25 -10.109375,22.546875" />
    </defs>
    <clipPath
       clipPathUnits="userSpaceOnUse"
       id="clipPath6366">
      <rect
         id="rect6368"
         height="68.778946"
         width="119.38461"
         y="34.848"
         x="219.33939" />
    </clipPath>
    <clipPath
       clipPathUnits="userSpaceOnUse"
       id="clipPath6820">
      <rect
         x="59.363998"
         y="133.88968"
         width="119.38461"
         height="68.778946"
         id="rect6822" />
    </clipPath>
    <clipPath
       clipPathUnits="userSpaceOnUse"
       id="clipPath7122">
      <rect
         x="219.33939"
         y="133.88968"
         width="119.38461"
         height="68.778946"
         id="rect7124" />
    </clipPath>
    <clipPath
       clipPathUnits="userSpaceOnUse"
       id="clipPath7303">
      <rect
         x="59.363998"
         y="232.93137"
         width="119.38461"
         height="68.778946"
         id="rect7305" />
    </clipPath>
    <defs
       id="defs1188">
      <path
         d="m 6.90625,-71.40625 0,71.40625 54.1875,0 0,-13.203125 -38.5,0 0,-17.5 34.609375,0 0,-12.203125 -34.609375,0 0,-15.296875 37.703125,0 0,-13.203125 z"
         id="c_77b1d39659bf21b8a57787fc9c636a55"
         inkscape:connector-curvature="0" />
    </defs>
    <clipPath
       clipPathUnits="userSpaceOnUse"
       id="clipPath7616">
      <rect
         x="219.33939"
         y="232.93137"
         width="119.38461"
         height="68.778946"
         id="rect7618" />
    </clipPath>
    <clipPath
       clipPathUnits="userSpaceOnUse"
       id="clipPath7920">
      <rect
         x="59.363998"
         y="331.97305"
         width="119.38461"
         height="68.778946"
         id="rect7922" />
    </clipPath>
    <clipPath
       clipPathUnits="userSpaceOnUse"
       id="clipPath8185">
      <rect
         x="219.33939"
         y="331.97305"
         width="119.38461"
         height="68.778946"
         id="rect8187" />
    </clipPath>
  </defs>
  <sodipodi:namedview
     pagecolor="#ffffff"
     bordercolor="#666666"
     borderopacity="1"
     objecttolerance="10"
     gridtolerance="10"
     guidetolerance="10"
     inkscape:pageopacity="1"
     inkscape:pageshadow="2"
     inkscape:window-width="1050"
     inkscape:window-height="1031"
     id="namedview2097"
     showgrid="false"
     inkscape:zoom="1.5245977"
     inkscape:cx="218.125"
     inkscape:cy="271.875"
     inkscape:window-x="0"
     inkscape:window-y="0"
     inkscape:window-maximized="0"
     inkscape:current-layer="svg1" />
  <filter
     id="colorAdd">
    <feComposite
       in="SourceGraphic"
       in2="BackgroundImage"
       operator="arithmetic"
       k2="1"
       k3="1"
       id="feComposite4" />
  </filter>
  <g
     id="g8171"
     clip-path="url(#clipPath8185)">
    <g
       id="line2d123">
      <defs
         id="defs1810">
        <clipPath
           id="p23d671e64cd464d11cd3e48097adb336">
          <rect
             id="rect1813"
             height="68.778946"
             width="119.38461"
             y="331.97305"
             x="219.33939" />
        </clipPath>
      </defs>
      <path
         style="fill:none;stroke:#000000;stroke-width:2;stroke-linecap:square;stroke-linejoin:round"
         clip-path="url(#p23d671e64cd464d11cd3e48097adb336)"
         d="m 219.33938,384.3463 c 14.12746,2.19188 28.447,0.63814 42.64574,0.21682 12.2407,-0.5632 24.79607,-0.44944 36.4835,-4.65012 15.50807,-5.5323 28.08766,-16.77106 39.65846,-28.11506"
         id="path1815"
         inkscape:connector-curvature="0" />
    </g>
    <path
       inkscape:connector-curvature="0"
       id="path1818"
       d="m 219.33938,387.5387 c 10.78459,3.74189 22.29772,5.39379 33.69088,4.42772 17.2597,-1.22392 34.48385,-5.86351 49.24243,-15.07851 13.33579,-8.1112 24.91258,-18.77326 35.85439,-29.81768"
       clip-path="none"
       style="fill:none;stroke:#0077bb;stroke-width:2;stroke-linecap:square;stroke-linejoin:round" />
    <g
       id="line2d125">
      <path
         style="fill:none;stroke:#00b840;stroke-width:2;stroke-linecap:square;stroke-linejoin:round"
         clip-path="none"
         d="m 219.33938,387.66835 c 9.21267,4.15794 18.56383,8.01758 28.05539,11.49067 3.15108,-0.48578 6.06903,-2.1707 9.11537,-3.16 16.21788,-6.08803 32.11711,-13.38334 46.24679,-23.50862 12.82851,-9.05277 24.37674,-19.76975 35.37015,-30.94285"
         id="path1821"
         inkscape:connector-curvature="0" />
    </g>
    <g
       id="line2d126">
      <path
         style="fill:none;stroke:#ff5500;stroke-width:2;stroke-linecap:square;stroke-linejoin:round"
         clip-path="none"
         d="m 219.33938,383.81043 c 10.51301,4.35201 21.86413,8.57322 33.4277,6.6572 12.78827,-2.29966 24.54655,-8.31089 35.6694,-14.80682 18.43961,-11.11309 34.58376,-25.57455 49.6906,-40.80902"
         id="path1824"
         inkscape:connector-curvature="0" />
    </g>
    <g
       id="line2d127">
      <path
         style="fill:none;stroke:#f6e010;stroke-width:2;stroke-linecap:square;stroke-linejoin:round"
         clip-path="none"
         d="m 219.33938,377.9675 c 11.52738,4.14023 24.08105,6.41087 36.24024,3.95149 15.60969,-3.05667 29.79647,-10.93665 42.78779,-19.85276 14.37227,-9.94453 27.35467,-21.74428 39.75967,-34.0145"
         id="path1827"
         inkscape:connector-curvature="0" />
    </g>
  </g>
  <g
     id="g7906"
     clip-path="url(#clipPath7920)">
    <g
       id="line2d107">
      <defs
         id="defs1488">
        <clipPath
           id="ped540f7e6e311d4d949def5956ebc03e">
          <rect
             id="rect1491"
             height="68.778946"
             width="119.38461"
             y="331.97305"
             x="59.363998" />
        </clipPath>
      </defs>
      <path
         style="fill:none;stroke:#000000;stroke-width:2;stroke-linecap:square;stroke-linejoin:round"
         clip-path="url(#ped540f7e6e311d4d949def5956ebc03e)"
         d="m 59.364,375.14474 c 12.248269,1.6956 23.9772,5.733 35.569937,9.88472 7.079983,2.52355 14.595283,5.59103 22.234313,3.85573 8.93189,-2.10459 16.46999,-7.72041 23.80424,-12.97143 13.0619,-9.77502 25.20171,-20.70987 37.1792,-31.767"
         id="path1493"
         inkscape:connector-curvature="0" />
    </g>
    <g
       id="line2d108">
      <path
         style="fill:none;stroke:#0077bb;stroke-width:2;stroke-linecap:square;stroke-linejoin:round"
         clip-path="none"
         d="m 59.364,383.09976 c 11.590649,2.16598 22.711539,6.13435 33.939127,9.62748 5.032649,1.59516 10.563923,1.64086 15.460643,-0.46155 10.58051,-4.49138 19.87465,-11.43877 29.0671,-18.22945 14.0447,-10.65245 27.30738,-22.28958 40.32082,-34.16693"
         id="path1496"
         inkscape:connector-curvature="0" />
    </g>
    <g
       id="line2d109">
      <path
         style="fill:none;stroke:#00b840;stroke-width:2;stroke-linecap:square;stroke-linejoin:round"
         clip-path="none"
         d="m 59.364,389.24837 c 9.546864,2.74813 18.886538,6.15211 28.055385,9.96881 8.698145,-3.52997 16.878905,-8.26002 24.935825,-13.06026 23.67847,-14.60261 45.09773,-32.53705 65.79648,-51.03445"
         id="path1499"
         inkscape:connector-curvature="0" />
    </g>
    <path
       inkscape:connector-curvature="0"
       id="path1502"
       d="m 59.364,389.05407 c 8.697307,2.33681 17.98975,3.72747 26.820824,1.24086 12.744751,-3.4731 24.275826,-10.24072 35.414556,-17.16659 20.08981,-12.82535 38.59395,-27.9569 56.55231,-43.57844"
       clip-path="none"
       style="fill:none;stroke:#ff5500;stroke-width:2;stroke-linecap:square;stroke-linejoin:round" />
    <g
       id="line2d111">
      <path
         style="fill:none;stroke:#f6e010;stroke-width:2;stroke-linecap:square;stroke-linejoin:round"
         clip-path="none"
         d="m 59.364,382.75466 c 11.389612,1.83862 23.162072,0.60341 34.013427,-3.26222 17.673983,-6.21044 33.588823,-16.43364 48.820283,-27.1637 12.41577,-8.88029 24.31367,-18.45847 35.95398,-28.32694"
         id="path1505"
         inkscape:connector-curvature="0" />
    </g>
  </g>
  <g
     id="g7602"
     clip-path="url(#clipPath7616)">
    <g
       id="line2d81">
      <defs
         id="defs1200">
        <clipPath
           id="pe80065927164141b95a62aae87ed1385">
          <rect
             id="rect1203"
             height="68.778946"
             width="119.38461"
             y="232.93137"
             x="219.33939" />
        </clipPath>
      </defs>
      <path
         style="fill:none;stroke:#000000;stroke-width:2;stroke-linecap:square;stroke-linejoin:round"
         clip-path="url(#pe80065927164141b95a62aae87ed1385)"
         d="m 219.33938,287.88575 c 25.62765,0.0572 51.26119,-0.007 76.88516,0.12614 2.98825,-0.0745 5.88094,1.40553 7.37918,4.0246 2.40852,3.28273 4.0516,7.94518 8.49457,8.90563 6.00228,1.08401 12.1565,0.50511 18.22636,0.6893 2.6008,0.0122 5.20162,0.007 7.80243,0.009"
         id="path1205"
         inkscape:connector-curvature="0" />
    </g>
    <g
       id="line2d82">
      <path
         style="fill:none;stroke:#0077bb;stroke-width:2;stroke-linecap:square;stroke-linejoin:round"
         clip-path="none"
         d="m 219.33938,287.88575 c 23.8373,0.054 47.67881,0.006 71.51348,0.12354 3.16648,-0.0226 6.39417,1.19224 8.20756,3.90193 2.70819,3.16663 4.49659,7.81161 8.95068,8.85389 5.36159,1.23127 10.94291,0.682 16.40508,0.86432 4.5703,0.004 9.1406,0.008 13.7109,0.0113"
         id="path1208"
         inkscape:connector-curvature="0" />
    </g>
    <g
       id="line2d83">
      <path
         style="fill:none;stroke:#00b840;stroke-width:2;stroke-linecap:square;stroke-linejoin:round"
         clip-path="none"
         d="m 219.33938,287.88575 c 21.72838,0.0665 43.46258,-0.0136 65.18733,0.14467 3.59488,-0.028 7.30308,1.26538 9.44515,4.29178 2.81059,3.33186 5.287,7.67766 9.95408,8.53362 6.69339,1.15954 13.54125,0.60108 20.30464,0.76783 4.63216,0.0108 9.26432,0.0203 13.8965,0.0172"
         id="path1211"
         inkscape:connector-curvature="0" />
    </g>
    <g
       id="line2d84">
      <path
         style="fill:none;stroke:#ff5500;stroke-width:2;stroke-linecap:square;stroke-linejoin:round"
         clip-path="none"
         d="m 219.33938,287.88575 c 18.94305,0.0683 37.89067,0.007 56.83086,0.15636 3.98954,0.0193 8.15501,1.18041 10.81578,4.33074 3.16106,3.02758 5.71065,7.22029 10.28315,8.2172 6.07887,1.39566 12.39506,0.85375 18.58612,1.02301 7.42389,0.0381 14.84784,0.0226 22.27179,0.0277"
         id="path1214"
         inkscape:connector-curvature="0" />
    </g>
    <path
       inkscape:connector-curvature="0"
       id="path1217"
       d="m 219.33938,287.88576 c 15.7207,0.0822 31.44672,-0.0126 47.1641,0.1803 4.63136,0.0311 9.4795,1.17416 12.82744,4.57569 3.49854,3.12722 6.74533,7.07187 11.61099,7.97553 7.17926,1.39201 14.55831,0.81663 21.83132,1.00334 8.4512,0.0327 16.90259,0.0111 25.35385,0.021"
       clip-path="none"
       style="fill:none;stroke:#f6e010;stroke-width:2;stroke-linecap:square;stroke-linejoin:round" />
  </g>
  <g
     id="g7289"
     clip-path="url(#clipPath7303)">
    <g
       id="line2d65">
      <defs
         id="defs930">
        <clipPath
           id="p30f3389251a384a870bc6ba26d3722bb">
          <rect
             id="rect933"
             height="68.778946"
             width="119.38461"
             y="232.93137"
             x="59.363998" />
        </clipPath>
      </defs>
      <path
         style="fill:none;stroke:#000000;stroke-width:2;stroke-linecap:square;stroke-linejoin:round"
         clip-path="url(#p30f3389251a384a870bc6ba26d3722bb)"
         d="m 59.364,287.88575 c 24.75178,0.0478 49.50852,0.0166 74.2572,0.11367 2.60838,-0.10775 4.75911,1.76448 5.51816,4.17563 1.48363,2.84256 1.97315,6.4783 4.60551,8.53384 2.95154,1.47811 6.42672,0.69633 9.6133,0.92273 8.26445,0.022 16.52903,0.004 24.79352,0.01"
         id="path935"
         inkscape:connector-curvature="0" />
    </g>
    <path
       inkscape:connector-curvature="0"
       id="path938"
       d="m 59.364,287.88575 c 22.563011,0.0532 45.1312,0.026 67.69097,0.12939 2.5674,-0.0605 4.8212,1.62685 5.66876,4.02007 1.67878,2.87794 2.18943,6.70281 5.05512,8.70381 3.13859,1.42915 6.74411,0.6679 10.09126,0.89683 10.09382,0.0126 20.18773,0.002 30.28158,0.006"
       clip-path="none"
       style="fill:none;stroke:#0077bb;stroke-width:2;stroke-linecap:square;stroke-linejoin:round" />
    <g
       id="line2d67">
      <path
         style="fill:none;stroke:#00b840;stroke-width:2;stroke-linecap:square;stroke-linejoin:round"
         clip-path="none"
         d="m 59.364,287.88575 c 19.857179,0.0644 39.721089,-4.2e-4 59.57406,0.14472 2.81659,-0.0834 5.29484,1.7398 6.31483,4.32154 1.8889,3.04385 2.57609,7.48815 6.3388,8.82437 4.80985,0.81751 9.74192,0.31136 14.60343,0.46449 10.65219,2.1e-4 21.30438,4.3e-4 31.95657,6.4e-4"
         id="path941"
         inkscape:connector-curvature="0" />
    </g>
    <g
       id="line2d68">
      <path
         style="fill:none;stroke:#ff5500;stroke-width:2;stroke-linecap:square;stroke-linejoin:round"
         clip-path="none"
         d="m 59.364,287.88575 c 16.156485,0.0755 32.321241,-0.0236 48.47256,0.16096 3.0088,-0.0907 5.88765,1.52384 7.21971,4.24926 2.14728,3.03311 3.08784,7.50852 6.98465,8.81002 4.88546,0.91986 9.91545,0.36994 14.86238,0.52985 13.74946,0.004 27.49892,0.006 41.24839,0.005"
         id="path944"
         inkscape:connector-curvature="0" />
    </g>
    <g
       id="line2d69">
      <path
         style="fill:none;stroke:#f6e010;stroke-width:2;stroke-linecap:square;stroke-linejoin:round"
         clip-path="none"
         d="m 59.364,287.88576 c 11.660071,0.0899 23.329225,-0.0275 34.983608,0.19213 3.268653,-0.005 6.633382,1.22137 8.475292,4.05869 2.5161,3.28503 4.18769,8.10411 8.71063,9.02884 5.69758,0.81432 11.49467,0.32943 17.23511,0.47527 16.46102,2.8e-4 32.92203,5.5e-4 49.38305,8.3e-4"
         id="path947"
         inkscape:connector-curvature="0" />
    </g>
  </g>
  <g
     id="g4596"
     clip-path="url(#clipPath4617)">
    <path
       inkscape:connector-curvature="0"
       id="path20"
       d="m 107.11785,36.695121 c 5.79728,13.353326 11.59544,26.794368 19.31998,39.172398 3.70784,5.778367 7.79396,11.603151 13.54737,15.513616 3.69741,2.615807 8.7841,3.569278 12.92648,1.430806 5.41561,-2.639854 9.02062,-7.793372 12.07849,-12.801274 5.76192,-9.85009 9.61616,-20.686031 13.16152,-31.489622"
       clip-path="url(#pb5c5f7e6ef1bc36d557ba335e3a42bfe)"
       style="fill:none;stroke:#000000;stroke-width:2;stroke-linecap:square;stroke-linejoin:round" />
    <path
       inkscape:connector-curvature="0"
       id="path23"
       d="m 91.000923,30.35512 c 6.320769,11.499787 12.245487,23.222911 18.955377,34.503991 5.26626,8.544139 10.70371,17.234651 18.28024,23.944335 4.25978,3.798595 10.12034,6.895177 15.95425,5.291265 6.56671,-1.827469 11.02779,-7.540528 14.62285,-12.991389 7.25755,-11.700971 11.83875,-24.805478 15.97985,-37.867498 1.21165,-3.746882 2.24594,-7.546925 3.3582,-11.323854"
       clip-path="none"
       style="fill:none;stroke:#0077bb;stroke-width:2;stroke-linecap:square;stroke-linejoin:round" />
    <path
       inkscape:connector-curvature="0"
       id="path26"
       d="m 74.287077,32.77602 c 10.298474,13.047598 19.65882,26.804971 29.689853,40.051544 5.83825,7.179521 11.99027,14.563898 20.28139,18.986219 5.16494,2.855315 11.79882,3.158609 16.89444,-0.01773 7.25903,-4.350084 11.84501,-11.842217 15.78296,-19.102911 7.27557,-13.927865 12.03638,-29.00437 16.44059,-44.036516"
       clip-path="none"
       style="fill:none;stroke:#00b840;stroke-width:2;stroke-linecap:square;stroke-linejoin:round" />
    <path
       inkscape:connector-curvature="0"
       id="path29"
       d="m 59.364,43.280468 c 13.921738,11.151267 25.54106,24.804637 38.910548,36.562046 6.503322,5.518092 13.751922,11.11373 22.462562,12.246068 7.61909,1.054634 14.82928,-3.242725 19.70445,-8.786461 8.15607,-9.089586 13.21385,-20.42527 17.76436,-31.629354 2.77181,-6.984029 5.12952,-14.115319 7.41039,-21.271729"
       clip-path="none"
       style="fill:none;stroke:#ff5500;stroke-width:2;stroke-linecap:square;stroke-linejoin:round" />
    <path
       inkscape:connector-curvature="0"
       sodipodi:nodetypes="ccccc"
       id="path32"
       d="m 59.364,58.15873 c 10.351728,7.672576 20.342551,15.87673 31.249866,22.764458 7.722335,4.670167 16.674184,8.913161 25.934294,7.349116 9.19924,-1.5732 16.21433,-8.608191 21.42598,-15.911809 8.8324,-12.673889 14.47451,-27.220227 19.4955,-41.734087"
       clip-path="none"
       style="fill:none;stroke:#f6e010;stroke-width:2;stroke-linecap:square;stroke-linejoin:round" />
  </g>
  <g
     style="fill:#000000"
     transform="matrix(0,-0.1,0.1,0,36.903063,69.237474)"
     id="g245" />
  <g
     id="patch3" />
  <g
     id="patch4" />
  <g
     id="text13">
    <defs
       id="defs260">
      <path
         inkscape:connector-curvature="0"
         id="c_4a3951bc1f5039ad945f29830f9ea8fb"
         d="m 24.90625,-27.59375 9.296875,-26.203125 0.203125,0 9,26.203125 z m 1.5,-43.8125 -27,71.40625 15.796875,0 5.59375,-15.90625 26.703125,0 L 52.90625,0 69.203125,0 42.5,-71.40625 z" />
    </defs>
    <g
       style="fill:#000000"
       transform="matrix(0.12,0,0,0.12,31.291764,27.096842)"
       id="g263">
      <use
         xlink:href="#c_4a3951bc1f5039ad945f29830f9ea8fb"
         id="use265"
         x="0"
         y="0"
         width="349"
         height="435" />
    </g>
  </g>
  <g
     id="line2d17">
    <defs
       id="defs272">
      <clipPath
         id="pc06924a5705d88b96119839957ffd1c1">
        <rect
           x="219.33939"
           y="34.848"
           width="119.38461"
           height="68.778946"
           id="rect275" />
      </clipPath>
    </defs>
  </g>
  <g
     id="g6345"
     clip-path="url(#clipPath6366)">
    <path
       style="fill:none;stroke:#000000;stroke-width:2;stroke-linecap:square;stroke-linejoin:round"
       clip-path="url(#pc06924a5705d88b96119839957ffd1c1)"
       d="m 264.10861,28.676976 c 8.38284,13.493976 15.49047,27.718364 23.08863,41.656487 3.4573,6.413752 7.13046,12.830712 12.07252,18.230579 2.73413,2.915959 6.55497,5.83724 10.80193,4.899395 4.69232,-1.286455 7.55905,-5.652094 9.92101,-9.592082 5.03955,-9.060179 8.07468,-19.059184 10.87019,-28.993565 2.57718,-9.311382 4.67382,-18.742768 6.66726,-28.193696"
       id="path277"
       inkscape:connector-curvature="0" />
    <path
       inkscape:connector-curvature="0"
       id="path280"
       d="m 241.42554,27.572751 c 11.23154,10.536689 20.33678,23.03591 29.07623,35.645847 4.94664,6.842176 9.46131,14.009007 14.79183,20.563751 3.68658,4.231249 7.66648,8.880776 13.27642,10.434222 4.48944,1.295856 8.90865,-1.475753 11.66786,-4.842162 5.61402,-6.749399 8.74444,-15.129773 11.67442,-23.300711 4.59394,-13.451105 7.8439,-27.313245 10.84247,-41.193135"
       clip-path="none"
       style="fill:none;stroke:#0077bb;stroke-width:2;stroke-linecap:square;stroke-linejoin:round" />
    <path
       inkscape:connector-curvature="0"
       id="path283"
       d="m 219.33938,28.518475 c 10.39841,9.315537 21.06917,18.365394 30.59464,28.59932 8.8733,9.208811 16.91703,19.212855 26.18887,28.033111 4.63553,4.174767 10.04579,8.693211 16.63803,8.601796 6.42385,-0.411002 10.94597,-5.782873 14.18826,-10.818757 6.90492,-11.338833 10.7473,-24.190004 14.37656,-36.867001 1.55343,-5.569645 2.91088,-11.186042 4.26595,-16.806361"
       clip-path="none"
       style="fill:none;stroke:#00b840;stroke-width:2;stroke-linecap:square;stroke-linejoin:round" />
    <path
       inkscape:connector-curvature="0"
       id="path286"
       d="m 219.33938,41.565086 c 11.01001,11.371008 22.48982,22.289071 34.29579,32.828705 6.46218,5.556749 13.04273,11.399167 21.09563,14.509553 5.12046,2.096717 11.27617,1.691359 15.78662,-1.645166 6.7589,-4.866214 10.76493,-12.499384 14.24052,-19.866307 5.41079,-11.989435 9.10535,-24.664588 12.47683,-37.352025"
       clip-path="none"
       style="fill:none;stroke:#ff5500;stroke-width:2;stroke-linecap:square;stroke-linejoin:round" />
    <path
       inkscape:connector-curvature="0"
       id="path289"
       d="m 219.33938,45.885672 c 9.50509,10.944379 19.85393,21.313701 31.80995,29.583738 6.36331,4.179928 13.65349,8.122431 21.51924,7.435792 7.3292,-0.700903 13.1482,-6.02667 17.27235,-11.754467 6.47388,-9.079265 10.61754,-19.560567 14.28711,-30.021038 1.47639,-4.190842 2.75154,-8.444904 4.05289,-12.692155"
       clip-path="none"
       style="fill:none;stroke:#f6e010;stroke-width:2;stroke-linecap:square;stroke-linejoin:round" />
  </g>
  <g
     id="patch8" />
  <g
     id="patch9" />
  <g
     id="text25">
    <defs
       id="defs443">
      <path
         inkscape:connector-curvature="0"
         id="c_695123952af5dfea3e730808efba0b75"
         d="m 22.59375,-42.5 0,-16.703125 14.703125,0 q 2.109375,0 4.046875,0.359375 1.953125,0.34375 3.453125,1.25 1.5,0.890625 2.390625,2.5 0.90625,1.59375 0.90625,4.09375 0,4.5 -2.703125,6.5 -2.6875,2 -6.890625,2 z M 6.90625,-71.40625 6.90625,0 41.5,0 q 4.796875,0 9.34375,-1.203125 4.5625,-1.203125 8.109375,-3.703125 3.546875,-2.5 5.640625,-6.4375 2.109375,-3.953125 2.109375,-9.359375 0,-6.703125 -3.25,-11.453125 -3.25,-4.75 -9.859375,-6.640625 4.8125,-2.296875 7.25,-5.890625 2.453125,-3.609375 2.453125,-9.015625 0,-5 -1.65625,-8.390625 Q 60,-65.5 57,-67.546875 54,-69.59375 49.796875,-70.5 45.59375,-71.40625 40.5,-71.40625 z m 15.6875,59.203125 0,-19.59375 17.109375,0 q 5.09375,0 8.1875,2.359375 Q 51,-27.09375 51,-21.59375 51,-18.796875 50.046875,-17 49.09375,-15.203125 47.5,-14.140625 q -1.59375,1.046875 -3.703125,1.5 -2.09375,0.4375 -4.390625,0.4375 z" />
    </defs>
    <g
       style="fill:#000000"
       transform="matrix(0.12,0,0,0.12,191.87652,27.096842)"
       id="g446">
      <use
         xlink:href="#c_695123952af5dfea3e730808efba0b75"
         id="use448"
         x="0"
         y="0"
         width="349"
         height="435" />
    </g>
  </g>
  <g
     id="patch12" />
  <g
     id="g6809"
     clip-path="url(#clipPath6820)">
    <g
       id="line2d33">
      <defs
         id="defs455">
        <clipPath
           id="p6108f5a0c6cf9217d826ce8a1ab6e0d0">
          <rect
             id="rect458"
             height="68.778946"
             width="119.38461"
             y="133.88968"
             x="59.363998" />
        </clipPath>
      </defs>
      <path
         style="fill:none;stroke:#000000;stroke-width:2;stroke-linecap:square;stroke-linejoin:round"
         clip-path="url(#p6108f5a0c6cf9217d826ce8a1ab6e0d0)"
         d="m 59.364,202.66691 c 13.25636,-0.11351 26.518433,0.004 39.771154,-0.2566 8.040586,-0.21992 16.256496,-1.08059 23.624866,-4.53179 7.25587,-2.97277 13.51532,-8.54605 21.48751,-9.61997 2.29698,-0.38162 4.65159,0.21257 6.89576,0.65989 7.73974,2.43698 13.71666,8.37132 21.3078,11.15145 1.84493,0.71354 3.77769,1.15518 5.7006,1.60399"
         id="path460"
         inkscape:connector-curvature="0" />
    </g>
    <path
       inkscape:connector-curvature="0"
       id="path463"
       d="m 59.364,202.65481 c 12.97241,-0.20733 25.989762,0.27963 38.918314,-0.99054 6.985126,-0.81232 13.890146,-2.63155 20.132646,-5.92219 6.22276,-2.91392 12.12184,-7.0074 19.02978,-8.06297 4.58337,-0.61285 9.18737,0.7658 13.08941,3.13814 6.28765,3.11089 11.80231,7.79213 18.62747,9.79318 2.90339,0.93775 5.95578,1.40779 8.99007,1.6804"
       clip-path="none"
       style="fill:none;stroke:#0077bb;stroke-width:2;stroke-linecap:square;stroke-linejoin:round" />
    <path
       inkscape:connector-curvature="0"
       id="path466"
       d="m 59.364,202.57131 c 10.564468,-0.17084 21.167593,-0.1168 31.655706,-1.56002 7.553632,-0.88577 14.799034,-3.42243 21.709874,-6.52191 5.42888,-2.35774 10.81903,-5.17142 16.71505,-6.0777 5.68613,-0.82383 11.40384,0.91807 16.3315,3.70483 6.40413,3.40149 12.56769,7.62909 19.79516,9.09377 4.10357,1.02115 8.371,1.20013 12.5804,1.35678"
       clip-path="none"
       style="fill:none;stroke:#00b840;stroke-width:2;stroke-linecap:square;stroke-linejoin:round" />
    <path
       inkscape:connector-curvature="0"
       id="path469"
       d="m 59.364,202.27054 c 10.939562,-0.45499 22.01596,-0.82806 32.660266,-3.6162 6.900081,-1.70631 13.570394,-4.15851 20.332904,-6.31519 4.29767,-1.16531 8.69869,-2.20287 13.17052,-1.87456 7.3941,0.20339 14.01184,3.92625 20.67326,6.73855 6.79801,3.41386 14.36402,4.99705 21.93652,5.2388 3.33463,0.14278 6.6764,0.18453 10.01422,0.20968"
       clip-path="none"
       style="fill:none;stroke:#ff5500;stroke-width:2;stroke-linecap:square;stroke-linejoin:round" />
    <path
       inkscape:connector-curvature="0"
       id="path472"
       d="m 59.364,201.85099 c 10.233595,-0.65215 20.485516,-1.59418 30.479202,-3.99251 7.68787,-1.52819 15.244658,-3.91368 23.120898,-4.27744 6.79848,-0.46102 13.58572,0.95867 19.97975,3.20684 6.88043,2.2338 13.81529,4.49822 21.0562,5.17846 8.0154,0.80974 16.10356,0.62435 24.15164,0.69992"
       clip-path="none"
       style="fill:none;stroke:#f6e010;stroke-width:2;stroke-linecap:square;stroke-linejoin:round" />
  </g>
  <g
     id="patch13" />
  <g
     id="patch14" />
  <g
     id="text38">
    <defs
       id="defs723">
      <path
         inkscape:connector-curvature="0"
         id="c_df55013cc244854347911bf7a700aee6"
         d="m 54.5,-47.40625 15.203125,0 Q 69,-53.59375 66.296875,-58.390625 q -2.703125,-4.8125 -6.859375,-8.0625 -4.140625,-3.25 -9.390625,-4.9375 -5.25,-1.703125 -11.140625,-1.703125 -8.203125,0 -14.765625,2.90625 -6.546875,2.890625 -11.046875,8 -4.5,5.09375 -6.90625,11.9375 -2.390625,6.84375 -2.390625,14.84375 0,7.8125 2.390625,14.5625 2.40625,6.75 6.90625,11.75 4.5,5 11.046875,7.84375 6.5625,2.84375 14.765625,2.84375 6.59375,0 12.09375,-2 5.5,-2 9.59375,-5.796875 4.109375,-3.796875 6.609375,-9.1875 2.5,-5.40625 3.09375,-12.109375 l -15.203125,0 q -0.890625,7.203125 -4.953125,11.609375 Q 46.09375,-11.5 38.90625,-11.5 q -5.3125,0 -9.015625,-2.046875 -3.6875,-2.046875 -6,-5.453125 -2.296875,-3.40625 -3.34375,-7.65625 -1.046875,-4.25 -1.046875,-8.75 0,-4.6875 1.046875,-9.09375 1.046875,-4.40625 3.34375,-7.84375 2.3125,-3.453125 6,-5.5 3.703125,-2.0625 9.015625,-2.0625 2.890625,0 5.53125,0.953125 2.65625,0.953125 4.75,2.65625 2.109375,1.703125 3.5,3.953125 1.40625,2.25 1.8125,4.9375" />
    </defs>
    <g
       style="fill:#000000"
       transform="matrix(0.12,0,0,0.12,31.494889,126.13853)"
       id="g726">
      <use
         xlink:href="#c_df55013cc244854347911bf7a700aee6"
         id="use728"
         x="0"
         y="0"
         width="349"
         height="435" />
    </g>
  </g>
  <g
     id="g7111"
     clip-path="url(#clipPath7122)">
    <g
       id="line2d49">
      <defs
         id="defs735">
        <clipPath
           id="p95cb6d656afbd6c93dd842757b80b1b8">
          <rect
             id="rect738"
             height="68.778946"
             width="119.38461"
             y="133.88968"
             x="219.33939" />
        </clipPath>
      </defs>
      <path
         style="fill:none;stroke:#000000;stroke-width:2;stroke-linecap:square;stroke-linejoin:round"
         clip-path="url(#p95cb6d656afbd6c93dd842757b80b1b8)"
         d="m 219.33938,202.66512 c 16.1182,-0.13342 32.25111,0.22772 48.35655,-0.48574 6.96524,-0.34738 14.02616,-1.71657 20.06285,-5.36892 4.12284,-2.23049 7.7968,-5.27733 12.02194,-7.31077 3.04549,-1.34017 6.5582,-2.08979 9.74499,-0.75639 5.03012,1.76304 8.97651,5.5771 13.34748,8.50806 4.41096,3.32955 9.77423,4.93649 15.25389,5.20334"
         id="path740"
         inkscape:connector-curvature="0" />
    </g>
    <path
       inkscape:connector-curvature="0"
       id="path743"
       d="m 219.33938,202.65006 c 13.056,-0.22953 26.13805,0.1578 39.16987,-0.78257 8.1356,-0.56182 16.25964,-2.67633 23.20616,-7.05301 5.46569,-3.05602 10.74471,-7.34742 17.25494,-7.61972 6.37476,0.16202 11.19002,4.84338 16.13028,8.27579 4.6107,3.77363 10.21838,6.45963 16.22949,6.80698 2.25373,0.2751 4.53187,0.23085 6.79696,0.35169"
       clip-path="none"
       style="fill:none;stroke:#0077bb;stroke-width:2;stroke-linecap:square;stroke-linejoin:round" />
    <path
       inkscape:connector-curvature="0"
       id="path746"
       d="m 219.33938,202.5982 c 13.34626,-0.3212 26.85997,0.21572 39.99385,-2.59462 5.10425,-1.34734 10.14346,-2.97168 14.81696,-5.46591 5.70224,-2.57982 11.42242,-6.24915 17.89609,-5.92527 3.08148,0.0607 5.91331,1.24099 8.5871,2.67441 6.44319,3.34285 11.99274,8.63784 19.29636,10.14165 5.94037,1.42492 12.13496,1.11112 18.19734,1.23468"
       clip-path="none"
       style="fill:none;stroke:#00b840;stroke-width:2;stroke-linecap:square;stroke-linejoin:round" />
    <path
       inkscape:connector-curvature="0"
       id="path749"
       d="m 219.33938,202.49758 c 13.93303,-0.3219 28.12898,-0.64121 41.51487,-4.94863 5.1904,-1.45184 10.30635,-3.23597 15.54411,-4.47643 5.00469,-1.0733 10.31288,-0.89496 15.11584,0.94549 7.27114,2.63658 14.06113,6.84417 21.86065,7.8288 8.18697,1.14453 16.50878,0.68359 24.75223,0.82157"
       clip-path="none"
       style="fill:none;stroke:#ff5500;stroke-width:2;stroke-linecap:square;stroke-linejoin:round" />
    <path
       inkscape:connector-curvature="0"
       id="path752"
       d="m 219.33938,202.46057 c 11.3997,-0.26508 22.83136,-0.88418 34.05395,-3.01927 9.54846,-1.54459 19.29326,-3.69078 28.96655,-1.85559 8.05899,1.43822 15.89678,4.12934 24.11737,4.63366 10.52852,0.7051 21.10388,0.3337 31.64983,0.44962"
       clip-path="none"
       style="fill:none;stroke:#f6e010;stroke-width:2;stroke-linecap:square;stroke-linejoin:round" />
  </g>
  <g
     id="patch18" />
  <g
     id="patch19" />
  <g
     id="text50">
    <defs
       id="defs918">
      <path
         inkscape:connector-curvature="0"
         id="c_52b8bef8f9526a7efc4cf863f3c5046a"
         d="m 22.59375,-13.203125 0,-45 11.203125,0 q 5.796875,0 9.75,1.65625 3.953125,1.640625 6.34375,4.75 2.40625,3.09375 3.453125,7.453125 1.0625,4.34375 1.0625,9.75 0,5.890625 -1.5,10 -1.5,4.09375 -4,6.640625 -2.5,2.546875 -5.703125,3.65625 Q 40,-13.203125 36.59375,-13.203125 z M 6.90625,-71.40625 6.90625,0 37.703125,0 q 8.203125,0 14.25,-2.75 Q 58,-5.5 62.046875,-10.296875 66.09375,-15.09375 68.09375,-21.6875 q 2,-6.609375 2,-14.40625 0,-8.90625 -2.453125,-15.5 -2.4375,-6.609375 -6.796875,-11 Q 56.5,-67 50.546875,-69.203125 44.59375,-71.40625 37.703125,-71.40625 z" />
    </defs>
    <g
       style="fill:#000000"
       transform="matrix(0.12,0,0,0.12,191.6734,126.13853)"
       id="g921">
      <use
         xlink:href="#c_52b8bef8f9526a7efc4cf863f3c5046a"
         id="use923"
         x="0"
         y="0"
         width="349"
         height="435" />
    </g>
  </g>
  <g
     id="patch23" />
  <g
     id="patch24" />
  <use
     style="fill:#000000"
     xlink:href="#c_77b1d39659bf21b8a57787fc9c636a55"
     id="use1193"
     x="0"
     y="0"
     width="349"
     height="435"
     transform="matrix(0.12,0,0,0.12,32.237077,225.18021)" />
  <g
     id="patch28" />
  <g
     id="patch29" />
  <g
     id="text75">
    <defs
       id="defs1383">
      <path
         inkscape:connector-curvature="0"
         id="c_79c6116bc63fe008a958077769926b5b"
         d="m 6.90625,-71.40625 0,71.40625 15.6875,0 0,-29.5 29.90625,0 0,-12.203125 -29.90625,0 0,-16.5 34.5,0 0,-13.203125 z" />
    </defs>
    <g
       style="fill:#000000"
       transform="matrix(0.12,0,0,0.12,192.44684,225.18021)"
       id="g1386">
      <use
         xlink:href="#c_79c6116bc63fe008a958077769926b5b"
         id="use1388"
         x="0"
         y="0"
         width="349"
         height="435" />
    </g>
  </g>
  <g
     id="legend1">
    <g
       id="patch32">
      <path
         inkscape:connector-curvature="0"
         style="fill:#ffffff;stroke:#000000;stroke-width:1;stroke-linecap:square;stroke-linejoin:round"
         d="m 236.42232,267.52199 85.21875,0 q 1.8,0 1.8,-1.8 l 0,-26.49062 q 0,-1.8 -1.8,-1.8 l -85.21875,0 q -1.8,0 -1.8,1.8 l 0,26.49062 q 0,1.8 1.8,1.8 z"
         id="path1392" />
    </g>
    <g
       id="line2d97">
      <path
         inkscape:connector-curvature="0"
         style="fill:none;stroke:#000000;stroke-width:2;stroke-linecap:square;stroke-linejoin:round"
         d="m 240.02232,243.40324 7.2,0"
         id="path1395" />
    </g>
    <g
       id="line2d98" />
    <g
       id="text76">
      <defs
         id="defs1399">
        <path
           inkscape:connector-curvature="0"
           id="c_f30be8312028b1788198ab747ac7f123"
           d="m 21.796875,-40.5 0,7.203125 q 2.40625,-0.296875 5.109375,-0.296875 3.1875,0 5.9375,0.84375 2.75,0.84375 4.75,2.59375 2,1.75 3.203125,4.3125 Q 42,-23.296875 42,-20 q 0,3.203125 -1.25,5.75 -1.25,2.546875 -3.359375,4.296875 -2.09375,1.75 -4.890625,2.703125 -2.796875,0.953125 -5.90625,0.953125 -7.296875,0 -11.09375,-4.34375 Q 11.703125,-15 11.5,-21.90625 l -8.5,0 q -0.09375,5.5 1.546875,9.8125 1.65625,4.296875 4.75,7.25 3.109375,2.9375 7.5,4.4375 4.40625,1.5 9.796875,1.5 5,0 9.453125,-1.34375 4.453125,-1.34375 7.75,-4.046875 3.296875,-2.703125 5.25,-6.75 Q 51,-15.09375 51,-20.40625 51,-26.796875 47.84375,-31.5 q -3.140625,-4.703125 -9.640625,-6.09375 l 0,-0.203125 q 4.203125,-1.90625 7,-5.59375 Q 48,-47.09375 48,-51.90625 48,-56.796875 46.34375,-60.390625 44.703125,-64 41.796875,-66.296875 38.90625,-68.59375 34.953125,-69.75 31,-70.90625 26.40625,-70.90625 q -5.3125,0 -9.359375,1.703125 Q 13,-67.5 10.296875,-64.5 7.59375,-61.5 6.140625,-57.296875 4.703125,-53.09375 4.5,-48 l 8.5,0 q 0,-3.09375 0.796875,-5.890625 0.796875,-2.8125 2.453125,-4.90625 1.65625,-2.109375 4.203125,-3.359375 2.546875,-1.25 5.953125,-1.25 5.390625,0 8.984375,2.859375 Q 39,-57.703125 39,-52 q 0,2.796875 -1.109375,5 -1.09375,2.203125 -2.953125,3.65625 -1.84375,1.4375 -4.296875,2.1875 -2.4375,0.75 -5.140625,0.75 l -1.796875,0 q -0.5,0 -1,0 -0.40625,0 -0.90625,-0.09375" />
        <path
           inkscape:connector-curvature="0"
           id="c_0e1798cc3c9da8cd940acfbed075b097"
           d="m 6.40625,-51.703125 0,51.703125 8.5,0 0,-32.203125 q 0,-1.5 0.75,-3.75 0.75,-2.25 2.390625,-4.34375 1.65625,-2.109375 4.296875,-3.609375 2.65625,-1.5 6.359375,-1.5 2.890625,0 4.734375,0.859375 1.859375,0.84375 2.953125,2.40625 1.109375,1.546875 1.5625,3.640625 0.453125,2.09375 0.453125,4.59375 l 0,33.90625 8.5,0 0,-32.203125 q 0,-6 3.59375,-9.59375 3.59375,-3.609375 9.90625,-3.609375 3.09375,0 5.046875,0.90625 1.953125,0.90625 3.046875,2.453125 1.09375,1.546875 1.5,3.65625 0.40625,2.09375 0.40625,4.484375 l 0,33.90625 8.5,0 0,-37.90625 q 0,-4 -1.25,-6.84375 -1.25,-2.84375 -3.5,-4.640625 -2.25,-1.8125 -5.40625,-2.65625 -3.15625,-0.859375 -7.046875,-0.859375 -5.109375,0 -9.359375,2.3125 -4.25,2.296875 -6.84375,6.5 -1.59375,-4.8125 -5.5,-6.8125 -3.90625,-2 -8.703125,-2 -10.890625,0 -16.703125,8.8125 l -0.1875,0 0,-7.609375 z" />
      </defs>
      <g
         style="fill:#000000"
         transform="matrix(0.09,0,0,0.09,250.82232,246.55324)"
         id="g1403">
        <use
           xlink:href="#c_f30be8312028b1788198ab747ac7f123"
           id="use1405"
           x="0"
           y="0"
           width="349"
           height="435" />
        <path
           inkscape:connector-curvature="0"
           id="use1407"
           d="m 68.803116,-34.90625 q 0,-2.59375 0.04687,-5.734375 0.04687,-3.15625 0.5,-6.296875 0.453125,-3.15625 1.296875,-6.15625 0.859375,-3 2.5,-5.25 1.65625,-2.25 4.15625,-3.65625 2.5,-1.40625 6.09375,-1.40625 3.609375,0 6.109375,1.40625 2.5,1.40625 4.140625,3.65625 1.65625,2.25 2.5,5.25 0.859375,3 1.296875,6.15625 0.453125,3.140625 0.5,6.296875 0.0625,3.140625 0.0625,5.734375 0,4 -0.25,8.953125 -0.25,4.953125 -1.609375,9.3125 -1.34375,4.34375 -4.34375,7.34375 -3,3 -8.40625,3 -5.390625,0 -8.390625,-3 -3,-3 -4.359375,-7.34375 -1.34375,-4.359375 -1.59375,-9.3125 -0.25,-4.953125 -0.25,-8.953125 m -9,0.109375 q 0,3.890625 0.1875,8.09375 0.203125,4.203125 1,8.203125 0.8125,4 2.3125,7.546875 1.5,3.546875 4.09375,6.25 2.609375,2.703125 6.546875,4.25 3.953125,1.546875 9.453125,1.546875 5.609375,0 9.5,-1.546875 3.90625,-1.546875 6.5,-4.25 2.609379,-2.703125 4.109379,-6.25 1.5,-3.546875 2.29687,-7.546875 0.79688,-4 1,-8.203125 0.20313,-4.203125 0.20313,-8.09375 0,-3.90625 -0.20313,-8.09375 -0.20312,-4.203125 -1,-8.203125 -0.79687,-4 -2.29687,-7.59375 -1.5,-3.609375 -4.109379,-6.3125 -2.59375,-2.703125 -6.546875,-4.296875 -3.953125,-1.609375 -9.453125,-1.609375 -5.5,0 -9.453125,1.609375 -3.9375,1.59375 -6.546875,4.296875 -2.59375,2.703125 -4.09375,6.3125 -1.5,3.59375 -2.3125,7.59375 -0.796875,4 -1,8.203125 -0.1875,4.1875 -0.1875,8.09375" />
        <use
           xlink:href="#c_d41d8cd98f00b204e9800998ecf8427e"
           x="111.19998"
           id="use1409"
           y="0"
           width="349"
           height="435" />
        <use
           xlink:href="#c_f9efa76c63fb21a1e656baacc7d7e5fe"
           x="138.99997"
           id="use1411"
           y="0"
           width="349"
           height="435" />
        <use
           xlink:href="#c_0e1798cc3c9da8cd940acfbed075b097"
           x="194.59996"
           id="use1413"
           y="0"
           width="349"
           height="435" />
      </g>
    </g>
    <g
       id="line2d99">
      <path
         inkscape:connector-curvature="0"
         style="fill:none;stroke:#0077bb;stroke-width:2;stroke-linecap:square;stroke-linejoin:round"
         d="m 240.02232,252.49074 7.2,0"
         id="path1416" />
    </g>
    <g
       id="line2d100" />
    <g
       id="text77">
      <g
         style="fill:#000000"
         transform="matrix(0.09,0,0,0.09,250.82232,255.64074)"
         id="g1420">
        <use
           xlink:href="#c_f30be8312028b1788198ab747ac7f123"
           id="use1422"
           x="0"
           y="0"
           width="349"
           height="435" />
        <path
           inkscape:connector-curvature="0"
           id="use1424"
           d="m 60.006241,-45.796875 8.5,0 Q 68.396866,-49 69.146866,-52.140625 q 0.75,-3.15625 2.453125,-5.65625 1.703125,-2.5 4.34375,-4.046875 2.65625,-1.5625 6.359375,-1.5625 2.796875,0 5.296875,0.90625 2.5,0.90625 4.34375,2.609375 1.859375,1.6875 2.953125,4.046875 1.109375,2.34375 1.109375,5.25 0,3.6875 -1.15625,6.5 -1.15625,2.796875 -3.40625,5.203125 -2.25,2.390625 -5.65625,4.75 -3.390625,2.34375 -7.890625,5.140625 -3.703125,2.203125 -7.109375,4.703125 -3.390625,2.5 -6.09375,5.796875 -2.6875,3.296875 -4.4375,7.75 -1.75,4.453125 -2.25,10.75 l 46.296879,0 0,-7.5 -36.406254,0 q 0.609375,-3.296875 2.546875,-5.84375 1.953125,-2.5625 4.703125,-4.75 2.75,-2.203125 6.046875,-4.15625 3.3125,-1.953125 6.609375,-3.953125 3.296875,-2.09375 6.390625,-4.390625 3.109375,-2.3125 5.5,-5.15625 2.406249,-2.84375 3.859379,-6.4375 1.45312,-3.609375 1.45312,-8.3125 0,-5 -1.75,-8.796875 -1.75,-3.796875 -4.749999,-6.34375 -3,-2.5625 -7.0625,-3.90625 -4.046875,-1.359375 -8.640625,-1.359375 -5.609375,0 -10.015625,1.90625 -4.390625,1.90625 -7.34375,5.25 -2.9375,3.34375 -4.34375,7.953125 -1.40625,4.59375 -1.09375,10" />
        <use
           xlink:href="#c_d41d8cd98f00b204e9800998ecf8427e"
           x="111.19998"
           id="use1426"
           y="0"
           width="349"
           height="435" />
        <use
           xlink:href="#c_f9efa76c63fb21a1e656baacc7d7e5fe"
           x="138.99997"
           id="use1428"
           y="0"
           width="349"
           height="435" />
        <use
           xlink:href="#c_0e1798cc3c9da8cd940acfbed075b097"
           x="194.59996"
           id="use1430"
           y="0"
           width="349"
           height="435" />
      </g>
    </g>
    <g
       id="line2d101">
      <path
         inkscape:connector-curvature="0"
         style="fill:none;stroke:#00b840;stroke-width:2;stroke-linecap:square;stroke-linejoin:round"
         d="m 240.02232,261.57824 7.2,0"
         id="path1433" />
    </g>
    <g
       id="line2d102" />
    <g
       id="text78">
      <g
         style="fill:#000000"
         transform="matrix(0.09,0,0,0.09,250.82232,264.72824)"
         id="g1437">
        <use
           xlink:href="#c_f30be8312028b1788198ab747ac7f123"
           id="use1439"
           x="0"
           y="0"
           width="349"
           height="435" />
        <path
           d="m 89.506241,-24.09375 -23.8125,0 23.609375,-34.703125 0.203125,0 z m 8,0 0,-46.8125 -6.8125,0 -32.296875,46.109375 0,8.203125 31.109375,0 0,16.59375 8,0 0,-16.59375 9.593749,0 0,-7.5 z"
           id="use1441"
           inkscape:connector-curvature="0" />
        <use
           xlink:href="#c_d41d8cd98f00b204e9800998ecf8427e"
           x="111.19998"
           id="use1443"
           y="0"
           width="349"
           height="435" />
        <use
           xlink:href="#c_f9efa76c63fb21a1e656baacc7d7e5fe"
           x="138.99997"
           id="use1445"
           y="0"
           width="349"
           height="435" />
        <use
           xlink:href="#c_0e1798cc3c9da8cd940acfbed075b097"
           x="194.59996"
           id="use1447"
           y="0"
           width="349"
           height="435" />
      </g>
    </g>
    <g
       id="line2d103">
      <path
         inkscape:connector-curvature="0"
         style="fill:none;stroke:#ff5500;stroke-width:2;stroke-linecap:square;stroke-linejoin:round"
         d="m 285.33169,243.40324 7.2,0"
         id="path1450" />
    </g>
    <g
       id="line2d104" />
    <g
       id="text79">
      <g
         style="fill:#000000"
         transform="matrix(0.09,0,0,0.09,296.13169,246.55324)"
         id="g1454">
        <use
           xlink:href="#c_f30be8312028b1788198ab747ac7f123"
           id="use1456"
           x="0"
           y="0"
           width="349"
           height="435" />
        <path
           d="m 97.006241,-52.796875 8.499999,0 q -0.8125,-8.796875 -6.015624,-13.453125 -5.1875,-4.65625 -13.984375,-4.65625 -7.609375,0 -12.609375,3.203125 -5,3.203125 -8,8.5 -3,5.296875 -4.25,12.15625 -1.25,6.84375 -1.25,14.140625 0,5.609375 0.84375,11.609375 0.859375,6 3.453125,11 2.609375,5 7.40625,8.203125 4.796875,3.1875 12.703125,3.1875 6.703125,0 11.25,-2.25 4.546875,-2.25 7.296874,-5.6875 2.75,-3.453125 3.95313,-7.65625 1.20312,-4.203125 1.20312,-8.09375 0,-4.90625 -1.5,-9.109375 -1.5,-4.203125 -4.25,-7.296875 -2.749999,-3.09375 -6.812499,-4.84375 -4.046875,-1.75 -9.140625,-1.75 -5.796875,0 -10.25,2.203125 -4.453125,2.1875 -7.453125,7.09375 L 67.896866,-36.5 q 0.109375,-4.09375 0.796875,-8.796875 0.703125,-4.703125 2.546875,-8.75 1.859375,-4.046875 5.15625,-6.703125 3.296875,-2.65625 8.703125,-2.65625 5.09375,0 8.1875,2.90625 3.109375,2.90625 3.71875,7.703125 m -12.8125,14.703125 q 3.609375,0 6.296875,1.296875 2.703125,1.296875 4.5,3.453125 1.8125,2.140625 2.65625,5.09375 0.859375,2.953125 0.859375,6.25 0,3.09375 -0.953125,5.953125 -0.953125,2.84375 -2.75,5.046875 -1.796875,2.203125 -4.453125,3.453125 -2.65625,1.25 -6.15625,1.25 -3.5,0 -6.25,-1.25 -2.75,-1.25 -4.59375,-3.34375 -1.84375,-2.109375 -2.84375,-5 -1,-2.90625 -1,-6.203125 0,-3.3125 0.9375,-6.25 0.953125,-2.953125 2.84375,-5.09375 1.90625,-2.15625 4.609375,-3.40625 2.703125,-1.25 6.296875,-1.25"
           id="use1458"
           inkscape:connector-curvature="0" />
        <use
           xlink:href="#c_d41d8cd98f00b204e9800998ecf8427e"
           x="111.19998"
           id="use1460"
           y="0"
           width="349"
           height="435" />
        <use
           xlink:href="#c_f9efa76c63fb21a1e656baacc7d7e5fe"
           x="138.99997"
           id="use1462"
           y="0"
           width="349"
           height="435" />
        <use
           xlink:href="#c_0e1798cc3c9da8cd940acfbed075b097"
           x="194.59996"
           id="use1464"
           y="0"
           width="349"
           height="435" />
      </g>
    </g>
    <g
       id="line2d105">
      <path
         inkscape:connector-curvature="0"
         style="fill:none;stroke:#f6e010;stroke-width:2;stroke-linecap:square;stroke-linejoin:round"
         d="m 285.33169,252.49074 7.2,0"
         id="path1467" />
    </g>
    <g
       id="line2d106" />
    <g
       id="text80">
      <g
         style="fill:#000000"
         transform="matrix(0.09,0,0,0.09,296.13169,255.64074)"
         id="g1471">
        <use
           xlink:href="#c_f30be8312028b1788198ab747ac7f123"
           id="use1473"
           x="0"
           y="0"
           width="349"
           height="435" />
        <path
           d="m 71.099991,-52.5 q 0,-2.703125 1,-4.703125 1,-2 2.640625,-3.390625 1.65625,-1.40625 3.953125,-2.109375 2.3125,-0.703125 4.8125,-0.703125 5.1875,0 8.53125,2.75 3.359375,2.75 3.359375,8.15625 0,5.40625 -3.296875,8.40625 -3.296875,3 -8.40625,3 -2.59375,0 -4.890625,-0.703125 -2.296875,-0.703125 -4,-2.09375 -1.703125,-1.40625 -2.703125,-3.546875 -1,-2.15625 -1,-5.0625 m -9,-0.296875 q 0,4.796875 2.703125,8.84375 2.703125,4.046875 7.203125,5.859375 -6,2.09375 -9.203125,6.75 -3.203125,4.640625 -3.203125,10.9375 0,5.40625 1.84375,9.453125 1.859375,4.046875 5.109375,6.75 3.25,2.703125 7.640625,4 4.40625,1.296875 9.5,1.296875 4.90625,0 9.203125,-1.390625 4.296875,-1.40625 7.453124,-4.15625 3.15625,-2.75 5,-6.75 1.84375,-4 1.84375,-9.203125 0,-6.59375 -3.09375,-11.140625 -3.09375,-4.546875 -9.499999,-6.546875 4.5,-2 7.140629,-5.953125 2.65625,-3.953125 2.65625,-8.75 0,-3.40625 -1.20313,-6.65625 -1.1875,-3.25 -3.749999,-5.796875 -2.546875,-2.546875 -6.65625,-4.09375 -4.09375,-1.5625 -9.890625,-1.5625 -4.09375,0 -7.84375,1.203125 -3.75,1.203125 -6.65625,3.5 -2.890625,2.296875 -4.59375,5.65625 -1.703125,3.34375 -1.703125,7.75 m 6.5,32.796875 q 0,-3.09375 1.140625,-5.59375 1.15625,-2.5 3.203125,-4.296875 2.0625,-1.8125 4.8125,-2.75 2.75,-0.953125 5.84375,-0.953125 3,0 5.640625,1.046875 2.65625,1.046875 4.65625,2.84375 2,1.796875 3.140625,4.25 1.15625,2.453125 1.15625,5.359375 0,3 -1.046875,5.5 -1.046875,2.5 -3,4.34375 -1.953125,1.84375 -4.609375,2.90625 -2.640625,1.046875 -5.84375,1.046875 -6.59375,0 -10.84375,-3.640625 -4.25,-3.65625 -4.25,-10.0625"
           id="use1475"
           inkscape:connector-curvature="0" />
        <use
           xlink:href="#c_d41d8cd98f00b204e9800998ecf8427e"
           x="111.19998"
           id="use1477"
           y="0"
           width="349"
           height="435" />
        <use
           xlink:href="#c_f9efa76c63fb21a1e656baacc7d7e5fe"
           x="138.99997"
           id="use1479"
           y="0"
           width="349"
           height="435" />
        <use
           xlink:href="#c_0e1798cc3c9da8cd940acfbed075b097"
           x="194.59996"
           id="use1481"
           y="0"
           width="349"
           height="435" />
      </g>
    </g>
  </g>
  <g
     id="patch34" />
  <g
     id="patch35" />
  <g
     id="text94">
    <defs
       id="defs1798">
      <path
         inkscape:connector-curvature="0"
         id="c_93890f3cb0c6860e8df713a6b69e69dc"
         d="M 58.5,-8.09375 60.09375,0 l 10,0 0,-38.59375 -30,0 0,11.6875 15.8125,0 q -0.703125,7.5 -4.953125,11.453125 -4.25,3.953125 -12.046875,3.953125 -5.3125,0 -9.015625,-2.046875 -3.6875,-2.046875 -6,-5.453125 -2.296875,-3.40625 -3.34375,-7.65625 -1.046875,-4.25 -1.046875,-8.75 0,-4.6875 1.046875,-9.09375 1.046875,-4.40625 3.34375,-7.84375 2.3125,-3.453125 6,-5.5 3.703125,-2.0625 9.015625,-2.0625 5.6875,0 9.6875,3 4,3 5.40625,9 l 15,0 Q 68.40625,-54 65.703125,-58.703125 63,-63.40625 58.84375,-66.59375 q -4.140625,-3.203125 -9.296875,-4.84375 -5.140625,-1.65625 -10.640625,-1.65625 -8.203125,0 -14.765625,2.90625 -6.546875,2.890625 -11.046875,8 -4.5,5.09375 -6.90625,11.9375 -2.390625,6.84375 -2.390625,14.84375 0,7.8125 2.390625,14.5625 2.40625,6.75 6.90625,11.75 4.5,5 11.046875,7.84375 6.5625,2.84375 14.765625,2.84375 5.1875,0 10.28125,-2.140625 5.109375,-2.15625 9.3125,-7.546875" />
    </defs>
    <g
       style="fill:#000000"
       transform="matrix(0.12,0,0,0.12,31.510514,324.2219)"
       id="g1801">
      <use
         xlink:href="#c_93890f3cb0c6860e8df713a6b69e69dc"
         id="use1803"
         x="0"
         y="0"
         width="349"
         height="435" />
    </g>
  </g>
  <g
     id="patch39" />
  <g
     id="patch40" />
  <g
     id="text107">
    <defs
       id="defs2044">
      <path
         inkscape:connector-curvature="0"
         id="c_bc894cffaad76a89f786cdc6c7004a81"
         d="m 6.90625,-71.40625 0,71.40625 15.6875,0 0,-30.796875 28.90625,0 L 51.5,0 l 15.703125,0 0,-71.40625 -15.703125,0 0,27.40625 -28.90625,0 0,-27.40625 z" />
    </defs>
    <g
       style="fill:#000000"
       transform="matrix(0.12,0,0,0.12,191.84527,324.2219)"
       id="g2047">
      <use
         xlink:href="#c_bc894cffaad76a89f786cdc6c7004a81"
         id="use2049"
         x="0"
         y="0"
         width="349"
         height="435" />
    </g>
  </g>
  <g
     id="text108">
    <defs
       id="defs2052">
      <path
         d="M 24.796875,-36.703125 0,0 10.59375,0 30.40625,-29.5 49.59375,0 61.203125,0 36.09375,-36.703125 59.703125,-71.40625 l -10.609375,0 L 30.5,-43.5 12.703125,-71.40625 l -11.40625,0 z"
         id="c_8d3948eb1ab2e0f6cbad895a57927d5b" />
      <path
         d="m 49.203125,0 0,-51.703125 -8.5,0 0,29.203125 q 0,3.5 -0.953125,6.453125 -0.953125,2.953125 -2.859375,5.15625 -1.890625,2.1875 -4.75,3.390625 -2.84375,1.203125 -6.734375,1.203125 -4.90625,0 -7.703125,-2.796875 -2.796875,-2.8125 -2.796875,-7.609375 l 0,-35 -8.5,0 0,34 q 0,4.203125 0.84375,7.65625 0.84375,3.453125 2.9375,5.953125 2.109375,2.5 5.5,3.84375 3.40625,1.34375 8.515625,1.34375 5.703125,0 9.890625,-2.25 4.203125,-2.25 6.90625,-7.046875 l 0.203125,0 0,8.203125 z"
         id="c_c7d149b2c90f2598e17ac6aa8f55cca9" />
    </defs>
    <g
       id="g2056"
       transform="matrix(0.12,0,0,0.12,90.563938,17.424)"
       style="fill:#000000">
      <path
         d="m 4.40625,-45.796875 8.5,0 Q 12.796875,-49 13.546875,-52.140625 q 0.75,-3.15625 2.453125,-5.65625 1.703125,-2.5 4.34375,-4.046875 2.65625,-1.5625 6.359375,-1.5625 2.796875,0 5.296875,0.90625 2.5,0.90625 4.34375,2.609375 1.859375,1.6875 2.953125,4.046875 1.109375,2.34375 1.109375,5.25 0,3.6875 -1.15625,6.5 -1.15625,2.796875 -3.40625,5.203125 -2.25,2.390625 -5.65625,4.75 -3.390625,2.34375 -7.890625,5.140625 -3.703125,2.203125 -7.109375,4.703125 -3.390625,2.5 -6.09375,5.796875 -2.6875,3.296875 -4.4375,7.75 -1.75,4.453125 -2.25,10.75 l 46.296875,0 0,-7.5 -36.40625,0 q 0.609375,-3.296875 2.546875,-5.84375 1.953125,-2.5625 4.703125,-4.75 2.75,-2.203125 6.046875,-4.15625 3.3125,-1.953125 6.609375,-3.953125 3.296875,-2.09375 6.390625,-4.390625 3.109375,-2.3125 5.5,-5.15625 2.40625,-2.84375 3.859375,-6.4375 1.453125,-3.609375 1.453125,-8.3125 0,-5 -1.75,-8.796875 -1.75,-3.796875 -4.75,-6.34375 -3,-2.5625 -7.0625,-3.90625 -4.046875,-1.359375 -8.640625,-1.359375 -5.609375,0 -10.015625,1.90625 -4.390625,1.90625 -7.34375,5.25 -2.9375,3.34375 -4.34375,7.953125 -1.40625,4.59375 -1.09375,10"
         id="use2058"
         inkscape:connector-curvature="0" />
      <path
         inkscape:connector-curvature="0"
         id="use2060"
         d="m 67.193741,-16.296875 -8.5,0 q 0.203125,4.796875 2,8.15625 1.8125,3.34375 4.8125,5.390625 3,2.046875 6.890625,2.9375 3.90625,0.90625 8.203125,0.90625 3.90625,0 7.84375,-0.75 3.953125,-0.75 7.09375,-2.640625 3.15625,-1.90625 5.109379,-5 1.95312,-3.109375 1.95312,-7.796875 0,-3.703125 -1.45312,-6.203125 -1.453129,-2.5 -3.796879,-4.140625 -2.34375,-1.65625 -5.40625,-2.65625 -3.046875,-1 -6.25,-1.703125 -3,-0.703125 -6,-1.34375 -3,-0.65625 -5.40625,-1.609375 -2.390625,-0.953125 -3.9375,-2.390625 -1.546875,-1.453125 -1.546875,-3.65625 0,-2 1,-3.25 1,-1.25 2.59375,-2 1.609375,-0.75 3.546875,-1.046875 1.953125,-0.3125 3.859375,-0.3125 2.09375,0 4.140625,0.453125 2.0625,0.453125 3.75,1.453125 1.703125,1 2.796875,2.65625 1.109375,1.640625 1.3125,4.140625 l 8.500004,0 q -0.29688,-4.703125 -2.000004,-7.84375 -1.703125,-3.15625 -4.5625,-5 -2.84375,-1.859375 -6.546875,-2.609375 -3.6875,-0.75 -8.09375,-0.75 -3.40625,0 -6.859375,0.859375 -3.4375,0.84375 -6.1875,2.59375 -2.75,1.75 -4.5,4.5625 -1.75,2.796875 -1.75,6.6875 0,5 2.5,7.8125 2.5,2.796875 6.25,4.34375 3.75,1.546875 8.140625,2.40625 4.40625,0.84375 8.15625,1.890625 3.75,1.046875 6.25,2.75 2.5,1.703125 2.5,5 0,2.40625 -1.203125,3.953125 -1.203125,1.546875 -3.046875,2.34375 -1.84375,0.796875 -4.046875,1.109375 -2.203125,0.296875 -4.203125,0.296875 -2.59375,0 -5.046875,-0.5 -2.453125,-0.5 -4.40625,-1.640625 -1.953125,-1.15625 -3.15625,-3.109375 -1.1875,-1.953125 -1.296875,-4.75" />
      <use
         height="435"
         width="349"
         y="0"
         id="use2062"
         x="105.59998"
         xlink:href="#c_8d3948eb1ab2e0f6cbad895a57927d5b" />
      <path
         inkscape:connector-curvature="0"
         id="use2064"
         d="m 183.99684,-40.703125 0,-22.703125 19,0 q 3.10938,0 5.85938,0.359375 2.75,0.34375 4.84375,1.546875 2.09375,1.203125 3.29687,3.40625 1.20313,2.1875 1.20313,6 0,5.6875 -3.54688,8.546875 -3.54687,2.84375 -11.65625,2.84375 z m -9.5,-30.703125 0,71.40625 34.5,0 q 5.29688,0 9.34375,-1.75 4.0625,-1.75 6.8125,-4.59375 2.75,-2.859375 4.14063,-6.546875 1.40625,-3.703125 1.40625,-7.609375 0,-6.59375 -3.5,-11.1875 -3.5,-4.609375 -10.09375,-6.015625 l 0,-0.203125 q 5.09375,-2 7.84375,-6.140625 2.75,-4.15625 2.75,-9.859375 0,-5.390625 -2.45313,-9.09375 -2.45312,-3.703125 -5.95312,-5.796875 -1.59375,-1 -3.84375,-1.5 -2.25,-0.5 -4.85938,-0.75 -2.59375,-0.25 -5.25,-0.296875 -2.64062,-0.0625 -4.9375,-0.0625 z m 9.5,63.40625 0,-24.703125 21.70313,0 q 3,0 5.79687,0.5625 2.79688,0.546875 4.95313,1.890625 2.15625,1.34375 3.45312,3.65625 1.29688,2.296875 1.29688,5.796875 0,6 -3.54688,9.40625 Q 214.10622,-8 207.79372,-8 z" />
      <use
         height="435"
         width="349"
         y="0"
         id="use2066"
         x="235.19995"
         xlink:href="#c_d41d8cd98f00b204e9800998ecf8427e" />
      <path
         inkscape:connector-curvature="0"
         id="use2068"
         d="m 320.99994,-49.90625 9.5,0 q -0.79688,-5.6875 -3.40625,-10.03125 -2.59375,-4.359375 -6.5,-7.25 -3.89063,-2.90625 -8.89063,-4.40625 -5,-1.5 -10.60937,-1.5 -8.1875,0 -14.54688,2.953125 -6.34375,2.9375 -10.59375,8.046875 -4.25,5.09375 -6.45312,11.953125 -2.20313,6.84375 -2.20313,14.640625 0,7.796875 2.04688,14.609375 2.0625,6.796875 6.15625,11.796875 4.09375,5 10.29687,7.84375 6.20313,2.84375 14.5,2.84375 13.70313,0 21.59375,-7.5 7.90625,-7.5 9.3125,-21 l -9.5,0 q -0.29687,4.40625 -1.79687,8.203125 -1.5,3.796875 -4.15625,6.546875 -2.65625,2.75 -6.3125,4.3125 -3.64063,1.546875 -8.34375,1.546875 -6.39063,0 -11,-2.390625 -4.59375,-2.40625 -7.54688,-6.453125 -2.95312,-4.0625 -4.35937,-9.5 -1.39063,-5.453125 -1.39063,-11.5625 0,-5.59375 1.39063,-10.796875 1.40625,-5.203125 4.35937,-9.25 2.95313,-4.046875 7.5,-6.4375 4.54688,-2.40625 10.95313,-2.40625 7.5,0 12.95312,3.796875 5.45313,3.796875 7.04688,11.390625" />
      <use
         height="435"
         width="349"
         y="0"
         id="use2070"
         x="335.19992"
         xlink:href="#c_c7d149b2c90f2598e17ac6aa8f55cca9" />
      <path
         inkscape:connector-curvature="0"
         id="use2072"
         d="m 409.00302,-51.703125 0,-15.5 -8.5,0 0,15.5 -8.79687,0 0,7.5 8.79687,0 0,32.90625 q 0,3.59375 0.6875,5.796875 0.70313,2.203125 2.15625,3.40625 1.45313,1.1875 3.79688,1.640625 Q 409.50302,0 412.7999,0 l 6.5,0 0,-7.5 -3.90625,0 q -2,0 -3.25,-0.140625 -1.25,-0.15625 -1.95313,-0.65625 -0.6875,-0.5 -0.9375,-1.390625 -0.25,-0.90625 -0.25,-2.40625 l 0,-32.109375 10.29688,0 0,-7.5 z" />
      <path
         inkscape:connector-curvature="0"
         id="use2074"
         d="m 433.89365,-16.296875 -8.5,0 q 0.20312,4.796875 2,8.15625 1.8125,3.34375 4.8125,5.390625 3,2.046875 6.89062,2.9375 3.90625,0.90625 8.20313,0.90625 3.90625,0 7.84375,-0.75 3.95312,-0.75 7.09375,-2.640625 3.15625,-1.90625 5.10937,-5 1.95313,-3.109375 1.95313,-7.796875 0,-3.703125 -1.45313,-6.203125 -1.45312,-2.5 -3.79687,-4.140625 -2.34375,-1.65625 -5.40625,-2.65625 -3.04688,-1 -6.25,-1.703125 -3,-0.703125 -6,-1.34375 -3,-0.65625 -5.40625,-1.609375 -2.39063,-0.953125 -3.9375,-2.390625 -1.54688,-1.453125 -1.54688,-3.65625 0,-2 1,-3.25 1,-1.25 2.59375,-2 1.60938,-0.75 3.54688,-1.046875 1.95312,-0.3125 3.85937,-0.3125 2.09375,0 4.14063,0.453125 2.0625,0.453125 3.75,1.453125 1.70312,1 2.79687,2.65625 1.10938,1.640625 1.3125,4.140625 l 8.5,0 q -0.29687,-4.703125 -2,-7.84375 -1.70312,-3.15625 -4.5625,-5 -2.84375,-1.859375 -6.54687,-2.609375 -3.6875,-0.75 -8.09375,-0.75 -3.40625,0 -6.85938,0.859375 -3.4375,0.84375 -6.1875,2.59375 -2.75,1.75 -4.5,4.5625 -1.75,2.796875 -1.75,6.6875 0,5 2.5,7.8125 2.5,2.796875 6.25,4.34375 3.75,1.546875 8.14063,2.40625 4.40625,0.84375 8.15625,1.890625 3.75,1.046875 6.25,2.75 2.5,1.703125 2.5,5 0,2.40625 -1.20313,3.953125 -1.20312,1.546875 -3.04687,2.34375 -1.84375,0.796875 -4.04688,1.109375 -2.20312,0.296875 -4.20312,0.296875 -2.59375,0 -5.04688,-0.5 -2.45312,-0.5 -4.40625,-1.640625 -1.95312,-1.15625 -3.15625,-3.109375 -1.1875,-1.953125 -1.29687,-4.75" />
    </g>
  </g>
  <g
     id="text109">
    <g
       id="g2077"
       transform="matrix(0.12,0,0,0.12,251.19594,17.424)"
       style="fill:#000000">
      <path
         inkscape:connector-curvature="0"
         id="use2079"
         d="m 33.90625,-24.09375 -23.8125,0 23.609375,-34.703125 0.203125,0 z m 8,0 0,-46.8125 -6.8125,0 -32.296875,46.109375 0,8.203125 31.109375,0 0,16.59375 8,0 0,-16.59375 9.59375,0 0,-7.5 z" />
      <path
         inkscape:connector-curvature="0"
         id="use2081"
         d="m 67.193741,-16.296875 -8.5,0 q 0.203125,4.796875 2,8.15625 1.8125,3.34375 4.8125,5.390625 3,2.046875 6.890625,2.9375 3.90625,0.90625 8.203125,0.90625 3.90625,0 7.84375,-0.75 3.953125,-0.75 7.09375,-2.640625 3.15625,-1.90625 5.109379,-5 1.95312,-3.109375 1.95312,-7.796875 0,-3.703125 -1.45312,-6.203125 -1.453129,-2.5 -3.796879,-4.140625 -2.34375,-1.65625 -5.40625,-2.65625 -3.046875,-1 -6.25,-1.703125 -3,-0.703125 -6,-1.34375 -3,-0.65625 -5.40625,-1.609375 -2.390625,-0.953125 -3.9375,-2.390625 -1.546875,-1.453125 -1.546875,-3.65625 0,-2 1,-3.25 1,-1.25 2.59375,-2 1.609375,-0.75 3.546875,-1.046875 1.953125,-0.3125 3.859375,-0.3125 2.09375,0 4.140625,0.453125 2.0625,0.453125 3.75,1.453125 1.703125,1 2.796875,2.65625 1.109375,1.640625 1.3125,4.140625 l 8.500004,0 q -0.29688,-4.703125 -2.000004,-7.84375 -1.703125,-3.15625 -4.5625,-5 -2.84375,-1.859375 -6.546875,-2.609375 -3.6875,-0.75 -8.09375,-0.75 -3.40625,0 -6.859375,0.859375 -3.4375,0.84375 -6.1875,2.59375 -2.75,1.75 -4.5,4.5625 -1.75,2.796875 -1.75,6.6875 0,5 2.5,7.8125 2.5,2.796875 6.25,4.34375 3.75,1.546875 8.140625,2.40625 4.40625,0.84375 8.15625,1.890625 3.75,1.046875 6.25,2.75 2.5,1.703125 2.5,5 0,2.40625 -1.203125,3.953125 -1.203125,1.546875 -3.046875,2.34375 -1.84375,0.796875 -4.046875,1.109375 -2.203125,0.296875 -4.203125,0.296875 -2.59375,0 -5.046875,-0.5 -2.453125,-0.5 -4.40625,-1.640625 -1.953125,-1.15625 -3.15625,-3.109375 -1.1875,-1.953125 -1.296875,-4.75" />
      <use
         height="435"
         width="349"
         y="0"
         id="use2083"
         x="105.59998"
         xlink:href="#c_8d3948eb1ab2e0f6cbad895a57927d5b" />
      <path
         inkscape:connector-curvature="0"
         id="use2085"
         d="m 183.99684,-40.703125 0,-22.703125 19,0 q 3.10938,0 5.85938,0.359375 2.75,0.34375 4.84375,1.546875 2.09375,1.203125 3.29687,3.40625 1.20313,2.1875 1.20313,6 0,5.6875 -3.54688,8.546875 -3.54687,2.84375 -11.65625,2.84375 z m -9.5,-30.703125 0,71.40625 34.5,0 q 5.29688,0 9.34375,-1.75 4.0625,-1.75 6.8125,-4.59375 2.75,-2.859375 4.14063,-6.546875 1.40625,-3.703125 1.40625,-7.609375 0,-6.59375 -3.5,-11.1875 -3.5,-4.609375 -10.09375,-6.015625 l 0,-0.203125 q 5.09375,-2 7.84375,-6.140625 2.75,-4.15625 2.75,-9.859375 0,-5.390625 -2.45313,-9.09375 -2.45312,-3.703125 -5.95312,-5.796875 -1.59375,-1 -3.84375,-1.5 -2.25,-0.5 -4.85938,-0.75 -2.59375,-0.25 -5.25,-0.296875 -2.64062,-0.0625 -4.9375,-0.0625 z m 9.5,63.40625 0,-24.703125 21.70313,0 q 3,0 5.79687,0.5625 2.79688,0.546875 4.95313,1.890625 2.15625,1.34375 3.45312,3.65625 1.29688,2.296875 1.29688,5.796875 0,6 -3.54688,9.40625 Q 214.10622,-8 207.79372,-8 z" />
      <use
         height="435"
         width="349"
         y="0"
         id="use2087"
         x="235.19995"
         xlink:href="#c_d41d8cd98f00b204e9800998ecf8427e" />
      <path
         inkscape:connector-curvature="0"
         id="use2089"
         d="m 320.99994,-49.90625 9.5,0 q -0.79688,-5.6875 -3.40625,-10.03125 -2.59375,-4.359375 -6.5,-7.25 -3.89063,-2.90625 -8.89063,-4.40625 -5,-1.5 -10.60937,-1.5 -8.1875,0 -14.54688,2.953125 -6.34375,2.9375 -10.59375,8.046875 -4.25,5.09375 -6.45312,11.953125 -2.20313,6.84375 -2.20313,14.640625 0,7.796875 2.04688,14.609375 2.0625,6.796875 6.15625,11.796875 4.09375,5 10.29687,7.84375 6.20313,2.84375 14.5,2.84375 13.70313,0 21.59375,-7.5 7.90625,-7.5 9.3125,-21 l -9.5,0 q -0.29687,4.40625 -1.79687,8.203125 -1.5,3.796875 -4.15625,6.546875 -2.65625,2.75 -6.3125,4.3125 -3.64063,1.546875 -8.34375,1.546875 -6.39063,0 -11,-2.390625 -4.59375,-2.40625 -7.54688,-6.453125 -2.95312,-4.0625 -4.35937,-9.5 -1.39063,-5.453125 -1.39063,-11.5625 0,-5.59375 1.39063,-10.796875 1.40625,-5.203125 4.35937,-9.25 2.95313,-4.046875 7.5,-6.4375 4.54688,-2.40625 10.95313,-2.40625 7.5,0 12.95312,3.796875 5.45313,3.796875 7.04688,11.390625" />
      <use
         height="435"
         width="349"
         y="0"
         id="use2091"
         x="335.19992"
         xlink:href="#c_c7d149b2c90f2598e17ac6aa8f55cca9" />
      <path
         inkscape:connector-curvature="0"
         id="use2093"
         d="m 409.00302,-51.703125 0,-15.5 -8.5,0 0,15.5 -8.79687,0 0,7.5 8.79687,0 0,32.90625 q 0,3.59375 0.6875,5.796875 0.70313,2.203125 2.15625,3.40625 1.45313,1.1875 3.79688,1.640625 Q 409.50302,0 412.7999,0 l 6.5,0 0,-7.5 -3.90625,0 q -2,0 -3.25,-0.140625 -1.25,-0.15625 -1.95313,-0.65625 -0.6875,-0.5 -0.9375,-1.390625 -0.25,-0.90625 -0.25,-2.40625 l 0,-32.109375 10.29688,0 0,-7.5 z" />
      <path
         inkscape:connector-curvature="0"
         id="use2095"
         d="m 433.89365,-16.296875 -8.5,0 q 0.20312,4.796875 2,8.15625 1.8125,3.34375 4.8125,5.390625 3,2.046875 6.89062,2.9375 3.90625,0.90625 8.20313,0.90625 3.90625,0 7.84375,-0.75 3.95312,-0.75 7.09375,-2.640625 3.15625,-1.90625 5.10937,-5 1.95313,-3.109375 1.95313,-7.796875 0,-3.703125 -1.45313,-6.203125 -1.45312,-2.5 -3.79687,-4.140625 -2.34375,-1.65625 -5.40625,-2.65625 -3.04688,-1 -6.25,-1.703125 -3,-0.703125 -6,-1.34375 -3,-0.65625 -5.40625,-1.609375 -2.39063,-0.953125 -3.9375,-2.390625 -1.54688,-1.453125 -1.54688,-3.65625 0,-2 1,-3.25 1,-1.25 2.59375,-2 1.60938,-0.75 3.54688,-1.046875 1.95312,-0.3125 3.85937,-0.3125 2.09375,0 4.14063,0.453125 2.0625,0.453125 3.75,1.453125 1.70312,1 2.79687,2.65625 1.10938,1.640625 1.3125,4.140625 l 8.5,0 q -0.29687,-4.703125 -2,-7.84375 -1.70312,-3.15625 -4.5625,-5 -2.84375,-1.859375 -6.54687,-2.609375 -3.6875,-0.75 -8.09375,-0.75 -3.40625,0 -6.85938,0.859375 -3.4375,0.84375 -6.1875,2.59375 -2.75,1.75 -4.5,4.5625 -1.75,2.796875 -1.75,6.6875 0,5 2.5,7.8125 2.5,2.796875 6.25,4.34375 3.75,1.546875 8.14063,2.40625 4.40625,0.84375 8.15625,1.890625 3.75,1.046875 6.25,2.75 2.5,1.703125 2.5,5 0,2.40625 -1.20313,3.953125 -1.20312,1.546875 -3.04687,2.34375 -1.84375,0.796875 -4.04688,1.109375 -2.20312,0.296875 -4.20312,0.296875 -2.59375,0 -5.04688,-0.5 -2.45312,-0.5 -4.40625,-1.640625 -1.95312,-1.15625 -3.15625,-3.109375 -1.1875,-1.953125 -1.29687,-4.75" />
    </g>
  </g>
  <g
     id="g5999">
    <g
       id="g5962">
      <g
         id="patch5">
        <path
           inkscape:connector-curvature="0"
           style="fill:none;stroke:#000000;stroke-width:1;stroke-linecap:square;stroke-linejoin:round"
           d="m 59.364,103.62695 119.38461,0"
           id="path254" />
      </g>
      <g
         id="g5041"
         transform="translate(0,-16)">
        <text
           sodipodi:linespacing="125%"
           id="text4621"
           y="129.90588"
           x="59.683601"
           style="font-size:8.80000019px;font-style:normal;font-variant:normal;font-weight:normal;font-stretch:normal;text-align:center;line-height:125%;letter-spacing:0px;word-spacing:0px;text-anchor:middle;fill:#000000;fill-opacity:1;stroke:none;font-family:Helvetica Neue;-inkscape-font-specification:Helvetica Neue"
           xml:space="preserve"><tspan
             y="129.90588"
             x="59.683601"
             id="tspan4623"
             sodipodi:role="line">0</tspan></text>
        <text
           xml:space="preserve"
           style="font-size:8.80000019px;font-style:normal;font-variant:normal;font-weight:normal;font-stretch:normal;text-align:center;line-height:125%;letter-spacing:0px;word-spacing:0px;text-anchor:middle;fill:#000000;fill-opacity:1;stroke:none;font-family:Helvetica Neue;-inkscape-font-specification:Helvetica Neue"
           x="89.550232"
           y="129.90588"
           id="text4625"
           sodipodi:linespacing="125%"><tspan
             sodipodi:role="line"
             id="tspan4627"
             x="89.550232"
             y="129.90588">5</tspan></text>
        <text
           sodipodi:linespacing="125%"
           id="text4629"
           y="129.90588"
           x="119.57919"
           style="font-size:8.80000019px;font-style:normal;font-variant:normal;font-weight:normal;font-stretch:normal;text-align:center;line-height:125%;letter-spacing:0px;word-spacing:0px;text-anchor:middle;fill:#000000;fill-opacity:1;stroke:none;font-family:Helvetica Neue;-inkscape-font-specification:Helvetica Neue"
           xml:space="preserve"><tspan
             y="129.90588"
             x="119.57919"
             id="tspan4631"
             sodipodi:role="line">10</tspan></text>
        <text
           xml:space="preserve"
           style="font-size:8.80000019px;font-style:normal;font-variant:normal;font-weight:normal;font-stretch:normal;text-align:center;line-height:125%;letter-spacing:0px;word-spacing:0px;text-anchor:middle;fill:#000000;fill-opacity:1;stroke:none;font-family:Helvetica Neue;-inkscape-font-specification:Helvetica Neue"
           x="149.48421"
           y="129.90588"
           id="text4633"
           sodipodi:linespacing="125%"><tspan
             sodipodi:role="line"
             id="tspan4635"
             x="149.48421"
             y="129.90588">15</tspan></text>
        <text
           sodipodi:linespacing="125%"
           id="text4637"
           y="129.90588"
           x="178.95595"
           style="font-size:8.80000019px;font-style:normal;font-variant:normal;font-weight:normal;font-stretch:normal;text-align:center;line-height:125%;letter-spacing:0px;word-spacing:0px;text-anchor:middle;fill:#000000;fill-opacity:1;stroke:none;font-family:Helvetica Neue;-inkscape-font-specification:Helvetica Neue"
           xml:space="preserve"><tspan
             y="129.90588"
             x="178.95595"
             id="tspan4639"
             sodipodi:role="line">20</tspan></text>
      </g>
      <g
         id="g5445"
         style="stroke:#000000;stroke-width:0.5;stroke-opacity:1">
        <path
           inkscape:connector-curvature="0"
           id="path5053"
           d="m 89.236872,103.8619 0,-4.10123"
           style="fill:none;stroke:#000000;stroke-width:0.5;stroke-linecap:butt;stroke-linejoin:miter;stroke-opacity:1" />
        <path
           style="fill:none;stroke:#000000;stroke-width:0.5;stroke-linecap:butt;stroke-linejoin:miter;stroke-opacity:1"
           d="m 119.04937,103.8619 0,-4.10123"
           id="path5055"
           inkscape:connector-curvature="0" />
        <path
           inkscape:connector-curvature="0"
           id="path5057"
           d="m 148.89937,103.8619 0,-4.10123"
           style="fill:none;stroke:#000000;stroke-width:0.5;stroke-linecap:butt;stroke-linejoin:miter;stroke-opacity:1" />
        <path
           style="fill:none;stroke:#000000;stroke-width:0.5;stroke-linecap:butt;stroke-linejoin:miter;stroke-opacity:1"
           d="m 178.76187,103.8619 0,-4.10123"
           id="path5059"
           inkscape:connector-curvature="0" />
      </g>
    </g>
    <g
       id="g5982">
      <g
         id="patch6">
        <path
           inkscape:connector-curvature="0"
           style="fill:none;stroke:#000000;stroke-width:1;stroke-linecap:square;stroke-linejoin:round"
           d="m 59.364,103.62695 0,-68.77895"
           id="path257" />
      </g>
      <text
         xml:space="preserve"
         style="font-size:8.80000019px;font-style:normal;font-variant:normal;font-weight:normal;font-stretch:normal;text-align:end;line-height:155.99999428%;letter-spacing:0px;word-spacing:0px;text-anchor:end;fill:#000000;fill-opacity:1;stroke:none;font-family:Helvetica Neue;-inkscape-font-specification:Helvetica Neue"
         x="56.544601"
         y="37.97723"
         id="text4241"
         sodipodi:linespacing="155.99999%"><tspan
           sodipodi:role="line"
           id="tspan4243"
           x="56.544601"
           y="37.97723">15</tspan><tspan
           sodipodi:role="line"
           x="56.544601"
           y="51.705231"
           id="tspan4245">10</tspan><tspan
           sodipodi:role="line"
           x="56.544601"
           y="65.433228"
           id="tspan4247">5</tspan><tspan
           sodipodi:role="line"
           x="56.544601"
           y="79.161232"
           id="tspan4249">0</tspan><tspan
           sodipodi:role="line"
           x="56.544601"
           y="92.889229"
           id="tspan4251">-5</tspan><tspan
           sodipodi:role="line"
           x="56.544601"
           y="106.61723"
           id="tspan4253">-10</tspan></text>
      <g
         id="g5474"
         transform="translate(-16,0)">
        <path
           inkscape:connector-curvature="0"
           id="path5464"
           d="m 75.255548,89.8435 4.10122,0"
           style="fill:none;stroke:#000000;stroke-width:0.5;stroke-linecap:butt;stroke-linejoin:miter;stroke-opacity:1" />
        <path
           style="fill:none;stroke:#000000;stroke-width:0.5;stroke-linecap:butt;stroke-linejoin:miter;stroke-opacity:1"
           d="m 75.255548,76.124261 4.10122,0"
           id="path5466"
           inkscape:connector-curvature="0" />
        <path
           inkscape:connector-curvature="0"
           id="path5468"
           d="m 75.255548,61.626863 4.10122,0"
           style="fill:none;stroke:#000000;stroke-width:0.5;stroke-linecap:butt;stroke-linejoin:miter;stroke-opacity:1" />
        <path
           style="fill:none;stroke:#000000;stroke-width:0.5;stroke-linecap:butt;stroke-linejoin:miter;stroke-opacity:1"
           d="m 75.255548,48.632408 4.10122,0"
           id="path5470"
           inkscape:connector-curvature="0" />
        <path
           inkscape:connector-curvature="0"
           id="path5472"
           d="m 75.255548,34.895492 4.10122,0"
           style="fill:none;stroke:#000000;stroke-width:0.5;stroke-linecap:butt;stroke-linejoin:miter;stroke-opacity:1" />
      </g>
    </g>
  </g>
  <text
     xml:space="preserve"
     style="font-size:10.39999962px;font-style:normal;font-variant:normal;font-weight:normal;font-stretch:normal;text-align:center;line-height:125%;letter-spacing:0px;word-spacing:0px;text-anchor:middle;fill:#000000;fill-opacity:1;stroke:none;font-family:Helvetica Neue;-inkscape-font-specification:Helvetica Neue"
     x="-66.782486"
     y="23.691673"
     id="text5958"
     sodipodi:linespacing="125%"
     transform="matrix(0,-1,1,0,0,0)"><tspan
       sodipodi:role="line"
       id="tspan5960"
       x="-66.782486"
       y="23.691673">Free Energy (RT)</tspan></text>
  <use
     x="0"
     y="0"
     xlink:href="#g5999"
     id="use6187"
     transform="translate(160,0)"
     width="349"
     height="435" />
  <g
     id="g6370"
     transform="translate(80,99.2)">
    <g
       id="g6442">
      <g
         transform="translate(-80,0)"
         id="g6372">
        <g
           id="g6374">
          <path
             inkscape:connector-curvature="0"
             style="fill:none;stroke:#000000;stroke-width:1;stroke-linecap:square;stroke-linejoin:round"
             d="m 59.364,103.62695 119.38461,0"
             id="path6376" />
        </g>
        <g
           id="g6378"
           transform="translate(0,-16)">
          <text
             sodipodi:linespacing="125%"
             id="text6380"
             y="129.90588"
             x="59.683601"
             style="font-size:8.80000019px;font-style:normal;font-variant:normal;font-weight:normal;font-stretch:normal;text-align:center;line-height:125%;letter-spacing:0px;word-spacing:0px;text-anchor:middle;fill:#000000;fill-opacity:1;stroke:none;font-family:Helvetica Neue;-inkscape-font-specification:Helvetica Neue"
             xml:space="preserve"><tspan
               y="129.90588"
               x="59.683601"
               id="tspan6382"
               sodipodi:role="line">0</tspan></text>
          <text
             xml:space="preserve"
             style="font-size:8.80000019px;font-style:normal;font-variant:normal;font-weight:normal;font-stretch:normal;text-align:center;line-height:125%;letter-spacing:0px;word-spacing:0px;text-anchor:middle;fill:#000000;fill-opacity:1;stroke:none;font-family:Helvetica Neue;-inkscape-font-specification:Helvetica Neue"
             x="89.550232"
             y="129.90588"
             id="text6384"
             sodipodi:linespacing="125%"><tspan
               sodipodi:role="line"
               id="tspan6386"
               x="89.550232"
               y="129.90588">5</tspan></text>
          <text
             sodipodi:linespacing="125%"
             id="text6388"
             y="129.90588"
             x="119.57919"
             style="font-size:8.80000019px;font-style:normal;font-variant:normal;font-weight:normal;font-stretch:normal;text-align:center;line-height:125%;letter-spacing:0px;word-spacing:0px;text-anchor:middle;fill:#000000;fill-opacity:1;stroke:none;font-family:Helvetica Neue;-inkscape-font-specification:Helvetica Neue"
             xml:space="preserve"><tspan
               y="129.90588"
               x="119.57919"
               id="tspan6390"
               sodipodi:role="line">10</tspan></text>
          <text
             xml:space="preserve"
             style="font-size:8.80000019px;font-style:normal;font-variant:normal;font-weight:normal;font-stretch:normal;text-align:center;line-height:125%;letter-spacing:0px;word-spacing:0px;text-anchor:middle;fill:#000000;fill-opacity:1;stroke:none;font-family:Helvetica Neue;-inkscape-font-specification:Helvetica Neue"
             x="149.48421"
             y="129.90588"
             id="text6392"
             sodipodi:linespacing="125%"><tspan
               sodipodi:role="line"
               id="tspan6394"
               x="149.48421"
               y="129.90588">15</tspan></text>
          <text
             sodipodi:linespacing="125%"
             id="text6396"
             y="129.90588"
             x="178.95595"
             style="font-size:8.80000019px;font-style:normal;font-variant:normal;font-weight:normal;font-stretch:normal;text-align:center;line-height:125%;letter-spacing:0px;word-spacing:0px;text-anchor:middle;fill:#000000;fill-opacity:1;stroke:none;font-family:Helvetica Neue;-inkscape-font-specification:Helvetica Neue"
             xml:space="preserve"><tspan
               y="129.90588"
               x="178.95595"
               id="tspan6398"
               sodipodi:role="line">20</tspan></text>
        </g>
        <g
           id="g6400"
           style="stroke:#000000;stroke-width:0.5;stroke-opacity:1">
          <path
             inkscape:connector-curvature="0"
             id="path6402"
             d="m 89.236872,103.8619 0,-4.10123"
             style="fill:none;stroke:#000000;stroke-width:0.5;stroke-linecap:butt;stroke-linejoin:miter;stroke-opacity:1" />
          <path
             style="fill:none;stroke:#000000;stroke-width:0.5;stroke-linecap:butt;stroke-linejoin:miter;stroke-opacity:1"
             d="m 119.04937,103.8619 0,-4.10123"
             id="path6404"
             inkscape:connector-curvature="0" />
          <path
             inkscape:connector-curvature="0"
             id="path6406"
             d="m 148.89937,103.8619 0,-4.10123"
             style="fill:none;stroke:#000000;stroke-width:0.5;stroke-linecap:butt;stroke-linejoin:miter;stroke-opacity:1" />
          <path
             style="fill:none;stroke:#000000;stroke-width:0.5;stroke-linecap:butt;stroke-linejoin:miter;stroke-opacity:1"
             d="m 178.76187,103.8619 0,-4.10123"
             id="path6408"
             inkscape:connector-curvature="0" />
        </g>
      </g>
      <g
         transform="translate(-80,0)"
         id="g6410">
        <g
           id="g6412">
          <path
             inkscape:connector-curvature="0"
             style="fill:none;stroke:#000000;stroke-width:1;stroke-linecap:square;stroke-linejoin:round"
             d="m 59.364,103.62695 0,-68.77895"
             id="path6414" />
        </g>
        <text
           xml:space="preserve"
           style="font-size:8.80000019px;font-style:normal;font-variant:normal;font-weight:normal;font-stretch:normal;text-align:end;line-height:155.99999428%;letter-spacing:0px;word-spacing:0px;text-anchor:end;fill:#000000;fill-opacity:1;stroke:none;font-family:Helvetica Neue;-inkscape-font-specification:Helvetica Neue"
           x="56.544601"
           y="37.97723"
           id="text6416"
           sodipodi:linespacing="155.99999%"><tspan
             sodipodi:role="line"
             id="tspan6418"
             x="56.544601"
             y="37.97723">1000</tspan><tspan
             sodipodi:role="line"
             x="56.544601"
             y="51.705231"
             id="tspan6420">800</tspan><tspan
             sodipodi:role="line"
             x="56.544601"
             y="65.433228"
             id="tspan6422">600</tspan><tspan
             sodipodi:role="line"
             x="56.544601"
             y="79.161232"
             id="tspan6424">400</tspan><tspan
             sodipodi:role="line"
             x="56.544601"
             y="92.889229"
             id="tspan6426">200</tspan><tspan
             sodipodi:role="line"
             x="56.544601"
             y="106.61723"
             id="tspan6428">0</tspan></text>
        <g
           id="g6430"
           transform="translate(-16,0)">
          <path
             inkscape:connector-curvature="0"
             id="path6432"
             d="m 75.255548,89.8435 4.10122,0"
             style="fill:none;stroke:#000000;stroke-width:0.5;stroke-linecap:butt;stroke-linejoin:miter;stroke-opacity:1" />
          <path
             style="fill:none;stroke:#000000;stroke-width:0.5;stroke-linecap:butt;stroke-linejoin:miter;stroke-opacity:1"
             d="m 75.255548,76.124261 4.10122,0"
             id="path6434"
             inkscape:connector-curvature="0" />
          <path
             inkscape:connector-curvature="0"
             id="path6436"
             d="m 75.255548,61.626863 4.10122,0"
             style="fill:none;stroke:#000000;stroke-width:0.5;stroke-linecap:butt;stroke-linejoin:miter;stroke-opacity:1" />
          <path
             style="fill:none;stroke:#000000;stroke-width:0.5;stroke-linecap:butt;stroke-linejoin:miter;stroke-opacity:1"
             d="m 75.255548,48.632408 4.10122,0"
             id="path6438"
             inkscape:connector-curvature="0" />
          <path
             inkscape:connector-curvature="0"
             id="path6440"
             d="m 75.255548,34.895492 4.10122,0"
             style="fill:none;stroke:#000000;stroke-width:0.5;stroke-linecap:butt;stroke-linejoin:miter;stroke-opacity:1" />
        </g>
      </g>
    </g>
  </g>
  <text
     transform="matrix(0,-1,1,0,0,0)"
     sodipodi:linespacing="125%"
     id="text6824"
     y="16.891674"
     x="-165.7825"
     style="font-size:10.39999962px;font-style:normal;font-variant:normal;font-weight:normal;font-stretch:normal;text-align:center;line-height:125%;letter-spacing:0px;word-spacing:0px;text-anchor:middle;fill:#000000;fill-opacity:1;stroke:none;font-family:Helvetica Neue;-inkscape-font-specification:Helvetica Neue"
     xml:space="preserve"><tspan
       y="16.891674"
       x="-165.7825"
       id="tspan6826"
       sodipodi:role="line">Binding Rate</tspan><tspan
       y="29.891674"
       x="-165.7825"
       sodipodi:role="line"
       id="tspan6828">Constant (s<tspan
   style="font-size:52.00042725%;baseline-shift:super"
   id="tspan6830">-1</tspan>)</tspan></text>
  <use
     x="0"
     y="0"
     xlink:href="#g6370"
     id="use6974"
     transform="translate(160,0)"
     width="349"
     height="435" />
  <use
     x="0"
     y="0"
     xlink:href="#g6370"
     id="use7307"
     transform="translate(0,99.2)"
     width="349"
     height="435" />
  <text
     xml:space="preserve"
     style="font-size:10.39999962px;font-style:normal;font-variant:normal;font-weight:normal;font-stretch:normal;text-align:center;line-height:125%;letter-spacing:0px;word-spacing:0px;text-anchor:middle;fill:#000000;fill-opacity:1;stroke:none;font-family:Helvetica Neue;-inkscape-font-specification:Helvetica Neue"
     x="-268.18246"
     y="16.891674"
     id="text7402"
     sodipodi:linespacing="125%"
     transform="matrix(0,-1,1,0,0,0)"><tspan
       sodipodi:role="line"
       id="tspan7404"
       x="-268.18246"
       y="16.891674">Powerstroke Rate</tspan><tspan
       id="tspan7406"
       sodipodi:role="line"
       x="-268.18246"
       y="29.891674">Constant (s<tspan
   id="tspan7408"
   style="font-size:52.00042725%;baseline-shift:super">-1</tspan>)</tspan></text>
  <use
     x="0"
     y="0"
     xlink:href="#g6370"
     id="use7421"
     transform="translate(160,99.2)"
     width="349"
     height="435" />
  <use
     x="0"
     y="0"
     xlink:href="#g6370"
     id="use7904"
     transform="translate(0,198.4)"
     width="349"
     height="435" />
  <text
     transform="matrix(0,-1,1,0,0,0)"
     sodipodi:linespacing="125%"
     id="text7990"
     y="16.891674"
     x="-367.38248"
     style="font-size:10.39999962px;font-style:normal;font-variant:normal;font-weight:normal;font-stretch:normal;text-align:center;line-height:125%;letter-spacing:0px;word-spacing:0px;text-anchor:middle;fill:#000000;fill-opacity:1;stroke:none;font-family:Helvetica Neue;-inkscape-font-specification:Helvetica Neue"
     xml:space="preserve"><tspan
       y="16.891674"
       x="-367.38248"
       id="tspan7992"
       sodipodi:role="line">Detachment Rate</tspan><tspan
       y="29.891674"
       x="-367.38248"
       sodipodi:role="line"
       id="tspan7994">Constant (s<tspan
   style="font-size:52.00042725%;baseline-shift:super"
   id="tspan7996">-1</tspan>)</tspan></text>
  <text
     xml:space="preserve"
     style="font-size:10.39999962px;font-style:normal;font-variant:normal;font-weight:normal;font-stretch:normal;text-align:center;line-height:125%;letter-spacing:0px;word-spacing:0px;text-anchor:middle;fill:#000000;fill-opacity:1;stroke:none;font-family:Helvetica Neue;-inkscape-font-specification:Helvetica Neue"
     x="119.76799"
     y="423.6033"
     id="text8004"
     sodipodi:linespacing="125%"><tspan
       id="tspan8008"
       sodipodi:role="line"
       x="119.76799"
       y="423.6033">Binding site offset (nm)</tspan></text>
  <use
     x="0"
     y="0"
     xlink:href="#g6370"
     id="use8189"
     transform="translate(160,197.8)"
     width="349"
     height="435" />
  <text
     sodipodi:linespacing="125%"
     id="text8191"
     y="423.6033"
     x="281.36801"
     style="font-size:10.39999962px;font-style:normal;font-variant:normal;font-weight:normal;font-stretch:normal;text-align:center;line-height:125%;letter-spacing:0px;word-spacing:0px;text-anchor:middle;fill:#000000;fill-opacity:1;stroke:none;font-family:Helvetica Neue;-inkscape-font-specification:Helvetica Neue"
     xml:space="preserve"><tspan
       y="423.6033"
       x="281.36801"
       sodipodi:role="line"
       id="tspan8193">Binding site offset (nm)</tspan></text>
</svg>
