<?xml version="1.0" encoding="UTF-8" standalone="no"?>
<!-- Created with Inkscape (http://www.inkscape.org/) -->

<svg
   xmlns:dc="http://purl.org/dc/elements/1.1/"
   xmlns:cc="http://creativecommons.org/ns#"
   xmlns:rdf="http://www.w3.org/1999/02/22-rdf-syntax-ns#"
   xmlns:svg="http://www.w3.org/2000/svg"
   xmlns="http://www.w3.org/2000/svg"
   xmlns:xlink="http://www.w3.org/1999/xlink"
   xmlns:sodipodi="http://sodipodi.sourceforge.net/DTD/sodipodi-0.dtd"
   xmlns:inkscape="http://www.inkscape.org/namespaces/inkscape"
   id="svg3815"
   sodipodi:version="0.32"
   inkscape:version="0.47 r22583"
   width="294.09448"
   height="361.41733"
   xml:space="preserve"
   sodipodi:docname="Figure2.svg"
   version="1.0"
   inkscape:output_extension="org.inkscape.output.svg.inkscape"><metadata
     id="metadata3820"><rdf:RDF><cc:Work
         rdf:about=""><dc:format>image/svg+xml</dc:format><dc:type
           rdf:resource="http://purl.org/dc/dcmitype/StillImage" /></cc:Work></rdf:RDF></metadata><defs
     id="defs3818"><inkscape:perspective
   sodipodi:type="inkscape:persp3d"
   inkscape:vp_x="0 : 180 : 1"
   inkscape:vp_y="0 : 1000 : 0"
   inkscape:vp_z="292.5 : 180 : 1"
   inkscape:persp3d-origin="146.25 : 120 : 1"
   id="perspective7158" /><clipPath
   clipPathUnits="userSpaceOnUse"
   id="clipPath6043"><path
     d="m 512.64,410.4 4.68,0 0,93.6 -4.68,0 0,-93.6 z"
     id="path6045" /></clipPath><clipPath
   clipPathUnits="userSpaceOnUse"
   id="clipPath3729"><path
     d="m 315.697,572.733 191.183,0 0,104.067 -191.183,0 0,-104.067 z"
     id="path3731" /></clipPath><clipPath
   clipPathUnits="userSpaceOnUse"
   id="clipPath5969"><path
     d="m 512.64,576 4.68,0 0,93.6 -4.68,0 0,-93.6 z"
     id="path5971" /></clipPath><clipPath
   clipPathUnits="userSpaceOnUse"
   id="clipPath4043"><path
     d="m 57.6,401.022 191.183,0 0,104.067 -191.183,0 0,-104.067 z"
     id="path4045" /></clipPath><clipPath
   clipPathUnits="userSpaceOnUse"
   id="clipPath4353"><path
     d="m 315.697,401.022 191.183,0 0,104.067 -191.183,0 0,-104.067 z"
     id="path4355" /></clipPath><clipPath
   clipPathUnits="userSpaceOnUse"
   id="clipPath5001"><path
     d="m 315.697,229.31 191.183,0 0,104.068 -191.183,0 0,-104.068 z"
     id="path5003" /></clipPath><clipPath
   clipPathUnits="userSpaceOnUse"
   id="clipPath4687"><path
     d="m 57.6,229.31 191.183,0 0,104.068 -191.183,0 0,-104.068 z"
     id="path4689" /></clipPath><clipPath
   clipPathUnits="userSpaceOnUse"
   id="clipPath5315"><path
     d="m 57.6,57.6 191.183,0 0,104.067 -191.183,0 0,-104.067 z"
     id="path5317" /></clipPath><clipPath
   clipPathUnits="userSpaceOnUse"
   id="clipPath5641"><path
     d="m 315.697,57.6 191.183,0 0,104.067 -191.183,0 0,-104.067 z"
     id="path5643" /></clipPath>
</defs><sodipodi:namedview
     inkscape:window-height="751"
     inkscape:window-width="1022"
     inkscape:pageshadow="2"
     inkscape:pageopacity="0.0"
     guidetolerance="10.0"
     gridtolerance="10.0"
     objecttolerance="10.0"
     borderopacity="1.0"
     bordercolor="#666666"
     pagecolor="#ffffff"
     id="base"
     showgrid="false"
     units="cm"
     width="3.25in"
     inkscape:zoom="3.4133334"
     inkscape:cx="198.5786"
     inkscape:cy="62.327566"
     inkscape:window-x="0"
     inkscape:window-y="14"
     inkscape:current-layer="g3824"
     inkscape:window-maximized="0" /><g
     id="g3824"
     inkscape:groupmode="layer"
     inkscape:label="Figure2"
     transform="matrix(1.25,0,0,-1.25,0,901.41704)"><text
   xml:space="preserve"
   style="font-size:7.2;font-style:normal;font-variant:normal;font-weight:normal;font-stretch:normal;text-align:center;line-height:125%;writing-mode:lr-tb;text-anchor:middle;fill:#000000;fill-opacity:1;stroke:none;font-family:Helvetica Neue;-inkscape-font-specification:Helvetica Neue"
   x="61.262547"
   y="-709.64325"
   id="text7135"
   sodipodi:linespacing="125%"
   transform="scale(1,-1)"><tspan
     sodipodi:role="line"
     id="tspan7137"
     x="61.262547"
     y="-709.64325">4sXB Free Energy</tspan></text>


<text
   xml:space="preserve"
   style="font-size:7.2;font-style:normal;font-variant:normal;font-weight:normal;font-stretch:normal;text-align:center;line-height:125%;writing-mode:lr-tb;text-anchor:middle;fill:#000000;fill-opacity:1;stroke:none;font-family:Helvetica Neue;-inkscape-font-specification:Helvetica Neue"
   x="167.66"
   y="-709.64325"
   id="text7139"
   sodipodi:linespacing="125%"
   transform="scale(1,-1)"><tspan
     sodipodi:role="line"
     id="tspan7141"
     x="167.66"
     y="-709.64325">2sXB Free Energy</tspan></text>


<text
   xml:space="preserve"
   style="font-size:7.2;font-style:normal;font-variant:normal;font-weight:normal;font-stretch:normal;text-align:center;line-height:125%;writing-mode:lr-tb;text-anchor:middle;fill:#000000;fill-opacity:1;stroke:none;font-family:Helvetica Neue;-inkscape-font-specification:Helvetica Neue"
   x="61.262543"
   y="-637.11157"
   id="text7143"
   sodipodi:linespacing="125%"
   transform="scale(1,-1)"><tspan
     sodipodi:role="line"
     id="tspan7145"
     x="61.262543"
     y="-637.11157">4sXB Attachment Rate</tspan></text>


<text
   xml:space="preserve"
   style="font-size:7.2;font-style:normal;font-variant:normal;font-weight:normal;font-stretch:normal;text-align:center;line-height:125%;writing-mode:lr-tb;text-anchor:middle;fill:#000000;fill-opacity:1;stroke:none;font-family:Helvetica Neue;-inkscape-font-specification:Helvetica Neue"
   x="167.66"
   y="-637.11157"
   id="text7147"
   sodipodi:linespacing="125%"
   transform="scale(1,-1)"><tspan
     sodipodi:role="line"
     id="tspan7149"
     x="167.66"
     y="-637.11157">2sXB Attachment Rate</tspan></text>


<text
   xml:space="preserve"
   style="font-size:7.2;font-style:normal;font-variant:normal;font-weight:normal;font-stretch:normal;text-align:center;line-height:125%;writing-mode:lr-tb;text-anchor:middle;fill:#000000;fill-opacity:1;stroke:none;font-family:Helvetica Neue;-inkscape-font-specification:Helvetica Neue"
   x="62.256916"
   y="-565.57434"
   id="text7151"
   sodipodi:linespacing="125%"
   transform="scale(1,-1)"><tspan
     sodipodi:role="line"
     id="tspan7153"
     x="62.256916"
     y="-565.57434">4sXB Powerstroke Rate</tspan></text>


<text
   xml:space="preserve"
   style="font-size:7.2;font-style:normal;font-variant:normal;font-weight:normal;font-stretch:normal;text-align:center;line-height:125%;writing-mode:lr-tb;text-anchor:middle;fill:#000000;fill-opacity:1;stroke:none;font-family:Helvetica Neue;-inkscape-font-specification:Helvetica Neue"
   x="167.32857"
   y="-565.90582"
   id="text7155"
   sodipodi:linespacing="125%"
   transform="scale(1,-1)"><tspan
     sodipodi:role="line"
     id="tspan7157"
     x="167.32857"
     y="-565.90582">2sXB Powerstroke Rate</tspan></text>


<text
   xml:space="preserve"
   style="font-size:7.2;font-style:normal;font-variant:normal;font-weight:normal;font-stretch:normal;text-align:center;line-height:125%;writing-mode:lr-tb;text-anchor:middle;fill:#000000;fill-opacity:1;stroke:none;font-family:Helvetica Neue;-inkscape-font-specification:Helvetica Neue"
   x="61.319828"
   y="-492.37979"
   id="text7159"
   sodipodi:linespacing="125%"
   transform="scale(1,-1)"><tspan
     sodipodi:role="line"
     id="tspan7161"
     x="61.319828"
     y="-492.37979">4sXB Detachment Rate</tspan></text>


<text
   xml:space="preserve"
   style="font-size:7.2;font-style:normal;font-variant:normal;font-weight:normal;font-stretch:normal;text-align:center;line-height:125%;writing-mode:lr-tb;text-anchor:middle;fill:#000000;fill-opacity:1;stroke:none;font-family:Helvetica Neue;-inkscape-font-specification:Helvetica Neue"
   x="167.32855"
   y="-492.37979"
   id="text7163"
   sodipodi:linespacing="125%"
   transform="scale(1,-1)"><tspan
     sodipodi:role="line"
     id="tspan7165"
     x="167.32855"
     y="-492.37979">2sXB Detachment Rate</tspan></text>


<g
   transform="matrix(0.2943977,0,0,0.2943977,-680.98523,664.96102)"
   id="g3011"><path
     d="m 2387.8139,141.1305 264.9319,0 0,-144.2108 -264.9319,0 0,144.2108 z"
     style="fill:#ffffff;fill-opacity:1;fill-rule:nonzero;stroke:none"
     id="path3413" /><g
     id="g3415"
     transform="matrix(1.3857503,0,0,-1.3857503,2611.681,138.4668)"><path
       style="fill:#4444bb;fill-opacity:1;fill-rule:nonzero;stroke:#4444bb;stroke-width:0.18792467;stroke-miterlimit:4;stroke-opacity:1;stroke-dasharray:none"
       d="M -6.4348773,4.4006871 C -3.051281,1.6095744 -2.3536248,1.0090332 1.713053,-0.57101767 7.968632,-2.2462381 6.2257513,11.098967 3.6587103,16.004936 -5.2816441,42.957755 -28.213427,67.61619 -55.389501,77.462583 c -6.383346,2.364614 -17.776726,6.309092 -23.089735,1.360845 -3.917282,-2.013802 0.09362,-10.469065 4.708074,-13.643107 C -60.095025,52.081549 -46.227568,40.876333 -32.545085,28.627725 -22.367893,18.76927 -9.8747844,7.2382503 -6.4348773,4.4006871 z"
       id="path3417"
       sodipodi:nodetypes="cccccccz" /></g><g
     id="g3419"
     transform="matrix(1.3857503,0,0,-1.3857503,2581.4584,141.1308)"><path
       style="fill:#2288ff;fill-opacity:1;fill-rule:nonzero;stroke:#2288ff;stroke-width:0.26041669"
       d="m 2451.4062,2184.5625 -2.6562,0.5 -5.3125,2.1563 -5.2813,3.0624 -3.625,3.0313 -2.4062,2.9063 -1.5625,2.9062 -0.8437,2.9375 -0.063,4.3437 1.2188,4.375 2.4062,4.375 3.5313,4.375 4.5937,4.375 7.3438,5.6876 10.5938,6.9374 19.875,11.75 26.5,15.8438 15.875,10.5 15.9062,11.75 12.5,10.3438 12.5938,11.6562 11.2187,11.6562 7.6563,8.75 67.3124,0 -1.2187,-4.375 -4.7813,-13.0937 -5.0624,-11.6563 -6.7188,-13.125 -6.9375,-11.6562 -7.9063,-11.6562 -9.0937,-11.6563 -9,-10.1875 -10.2187,-10.1562 -10.0313,-8.7813 -11.1563,-8.5625 -10.625,-7.0938 -10.5937,-6.125 -10.5937,-5.2812 -12.0626,-4.9688 -13.0937,-4.25 -5.3125,-1.3437 -5.2812,-0.25 -47.6876,0 4e-4,0 z m 59.5938,29.5 5.3125,0.062 6.9375,1.0312 7.625,2.0938 9.6562,3.75 10.2188,5.1875 10.2188,6.4375 9.625,7.3125 9.7812,8.7187 8.3438,8.75 8.3437,10.1876 7.0625,10.1874 5.875,10.2188 4.75,10.1875 3.0625,8.75 1.6875,7.2813 0.4062,5.8124 -0.375,2.9063 -1.5312,2.9375 -2.3438,1.0625 -2,-0.25 -2.4687,-0.8125 -4.8125,-2.9062 -7.1562,-5.8438 -13.9376,-13.0938 -24.7812,-23.3124 -21.6875,-18.9063 -25.0625,-21.875 -6.9375,-7.3125 -3.2187,-4.3438 -2.125,-4.375 L 2501,2221 l 0.8438,-2.9375 1.2187,-1.4063 2.5937,-1.5 5.3438,-1.0937 z"
       transform="matrix(0.7216307,0,0,-0.7216307,-1862.8597,1680.5188)"
       id="path3421"
       sodipodi:nodetypes="ccccccccccccccccccccccccccccccccccccccccccccccccccccccccccccccccccccccccccccccc" /></g><g
     id="g3423"
     transform="matrix(1.3857503,0,0,-1.3857503,2565.1725,141.1308)"><path
       d="m 0,0 11.752,0 -7.462,8.409 -8.329,8.41 -9.239,8.313 -9.265,7.454 -9.853,7.146 -11.471,7.527 -15.295,9.175 -21.03,12.553 -7.647,5.481 -4.775,4.371 -2.56,3.153 -1.748,3.154 -0.88,3.153 0.058,3.154 0.611,2.102 1.13,2.103 1.733,2.102 2.486,2.102 2.989,1.819 3.824,1.695 1.911,0.667 -26.765,0.024 -13.9216,0 -1.1524,-1.051 -2.657,-3.154 -0.431,-1.051 0.085,-19.972 2.652,-3.154 3.5,-3.153 4.278,-3.072 6.691,-3.9 8.603,-4.19 15.616,-6.708 20.709,-8.971 13.383,-6.56 11.471,-6.403 10.149,-6.449 8.782,-6.307 7.818,-6.306 L -6.163,6.307 0,0 z"
       style="fill:#77dd55;fill-opacity:1;fill-rule:nonzero;stroke:#77dd55;stroke-width:0.18792467"
       id="path3425"
       sodipodi:nodetypes="ccccccccccccccccccccccccccccccccccccccccccc" /></g><g
     id="g3427"
     transform="matrix(1.3857503,0,0,-1.3857503,2648.9231,141.1308)"><path
       d="m 0,0 1.803,0 0,19.972 -1.369,3.154 -4.907,9.46 -5.628,9.461 -6.433,9.461 -6.486,8.409 -7.333,8.41 -7.234,7.358 -8.17,7.358 -7.884,6.271 -8.603,6.017 -8.603,5.242 -5.736,3.094 -1.911,0.4 -26.561,0 9.354,-2.59 8.603,-3.147 7.648,-3.422 7.647,-4.033 9.231,-5.729 8.651,-6.307 7.516,-6.307 7.681,-7.359 6.746,-7.358 6.769,-8.409 5.918,-8.41 5.773,-9.46 4.934,-9.461 4.162,-9.461 L -0.984,3.153 0,0 z"
       style="fill:#77dd55;fill-opacity:1;fill-rule:nonzero;stroke:#77dd55;stroke-width:0.18792467"
       id="path3429" /></g><g
     id="g3431"
     transform="matrix(1.3857503,0,0,-1.3857503,2550.6606,141.1308)"><path
       d="m 0,0 10.472,0 -7.256,7.358 -8.236,7.358 -9.256,7.263 -9.271,6.403 -9.848,6.027 -11.471,6.201 -13.383,6.388 -19.118,8.201 -17.206,7.5 -8.604,4.435 -6.691,4.313 -3.823,3.171 -2.945,3.17 -0.794,1.051 -0.085,-4.205 0,-18.922 2.868,-1.527 12.426,-4.13 36.325,-11.557 12.475,-4.86 11.573,-5.256 9.409,-4.931 9.309,-5.581 8.854,-6.073 L -5.945,5.256 0,0 z"
       style="fill:#ffdd44;fill-opacity:1;fill-rule:nonzero;stroke:#ffdd44;stroke-width:0.18792467"
       id="path3433" /></g><g
     id="g3435"
     transform="matrix(1.3857503,0,0,-1.3857503,2651.4212,113.0944)"><path
       d="m 0,0 0,14.457 -1.654,3.153 -5.826,9.461 -6.596,9.461 -7.474,9.461 -7.504,8.409 -8.474,8.41 -8.356,7.331 -8.136,6.334 -9.07,6.236 -1.771,1.122 -14.304,0 9.383,-5.158 9.559,-6.153 8.603,-6.388 8.855,-7.529 7.612,-7.358 7.686,-8.41 6.787,-8.409 6.726,-9.461 5.886,-9.461 5.143,-9.461 2.555,-5.255"
       style="fill:#ffdd44;fill-opacity:1;fill-rule:nonzero;stroke:#ffdd44;stroke-width:0.18792467"
       id="path3437" /></g><g
     id="g3439"
     transform="matrix(1.3857503,0,0,-1.3857503,2387.814,2.7465)"><path
       d="M 0,0 0,-0.629 0.432,0 l 0.524,0.691 0.275,0.36 0.681,0.811 0.203,0.241 0.753,0.814 0.22,0.237 0.736,0.726 0.332,0.325 -0.332,0 -0.956,0 -0.956,0 -0.956,0 L 0,4.205 0,3.154 0,2.103 0,1.051 0,0 z"
       style="fill:#ffdd44;fill-opacity:1;fill-rule:nonzero;stroke:none"
       id="path3441" /></g><g
     id="g3443"
     transform="matrix(1.3857503,0,0,-1.3857503,2387.814,141.1308)"><path
       d="m 0,0 117.81861,0 -1.44361,1.051 -7.361,6.307 -8.375,6.308 -7.913,5.255 -8.605,5.061 L 73.493,29.433 63.09,34.059 50.511,38.894 36.325,43.63 0,55.258 0,0 z"
       style="fill:#ff7722;fill-opacity:1;fill-rule:nonzero;stroke:#ff7722;stroke-width:0.18792467"
       id="path3445"
       sodipodi:nodetypes="ccccccccccccc" /></g><g
     id="g3447"
     transform="matrix(1.3857503,0,0,-1.3857503,2651.4212,92.7283)"><path
       d="m 0,0 0,69.138 -64.861,0 9.396,-6.306 9.548,-7.359 8.389,-7.358 7.471,-7.359 7.616,-8.409 6.784,-8.409 6.78,-9.461 5.992,-9.461 2.429,-4.204"
       style="fill:#ff7722;fill-opacity:1;fill-rule:nonzero;stroke:#ff7722;stroke-width:0.18792467"
       id="path3449" /></g></g><g
   id="g4041"
   clip-path="url(#clipPath4043)"
   transform="matrix(0.4042426,0,0,-0.4042426,-1.2254986,796.73051)"><g
     id="g4047"
     transform="translate(57.6001,401.022)"><path
       style="fill:#4444bb;fill-opacity:1;fill-rule:nonzero;stroke:#4444bb;stroke-width:0.18792467"
       d="m 0,0 c 46.417999,0 92.835999,0 139.254,0 -5.58122,4.5219866 -10.68159,9.49497 -16.25565,13.935994 -2.9385,2.954741 -6.34989,5.884181 -9.55617,8.642731 -10.31415,10.459532 -22.009791,19.571158 -31.704467,30.672347 -3.637277,3.384509 -6.495127,7.230826 -8.934935,11.288453 -2.197094,3.284275 -3.529662,7.091732 -4.515535,10.650649 -0.09625,3.374231 0.50477,7.240076 2.065984,9.490337 3.432303,3.004798 6.21322,4.747937 10.209744,6.352525 5.301303,1.191088 9.954428,1.21648 15.527458,0.700246 6.711901,-1.040751 13.605631,-2.766354 19.575571,-5.399282 4.87095,-2.01991 9.32665,-4.685841 13.89699,-7.162722 8.33151,-5.412809 15.38336,-12.022421 21.88769,-19.510388 8.33398,-9.249365 15.03033,-20.311306 19.33939,-31.770701 3.2585,-8.304259 5.7333,-18.9400358 5.69883,-27.88512643 3.57916,-0.00120167 9.39563,-0.05405457 14.74603,0 0.16799,4.02971833 0.084,94.48865543 0,104.14592743 -4.9669,0.084 -173.7976,0.0358 -191.19551941,-0.13223 C 0.03133236,99.813435 0,31.133595 0,0 z"
       id="path4049"
       sodipodi:nodetypes="ccccccccccccccccccc" /></g><g
     id="g4051"
     transform="translate(196.854,401.022)"><path
       style="fill:#2288ff;fill-opacity:1;fill-rule:nonzero;stroke:#2288ff;stroke-width:0.26041669"
       d="m 2511.0625,2438.8125 c -0.6856,0.01 -1.3751,0.01 -2.0625,0.031 -8.147,0.2546 -15.893,3.3366 -22.0938,8.6874 -6.3243,6.1119 -5.4292,15.5019 -2.0312,23.0626 3.9554,7.5959 8.817,14.719 14.8438,20.9374 11.0581,12.4431 23.3569,23.6619 35.5312,35 14.9383,13.7278 30.0789,27.025 45.5312,40.1876 8.3889,1.0869 39.2261,0 51.4376,0 1.5202,-20.3688 -7.0871,-39.5142 -15.8438,-57.3438 -11.4188,-19.9464 -27.5542,-37.1086 -46.125,-50.5312 -17.5753,-11.3944 -37.9346,-20.2517 -59.1875,-20.0313 l 0,3e-4 z m 25.6875,28.5 c 3.2533,-0.017 6.4971,0.5309 9,1.375 13.5389,4.1135 25.4896,12.8918 35.4688,22.5937 4.8656,5.8757 9.9869,11.5561 13.2812,18.5313 3.5554,7.2695 8.3909,14.5921 8.0625,22.9375 -1.0967,6.6092 -3.7333,9.7501 -8.822,12.0169 -6.2404,-2.2668 -23.3993,-11.9015 -29.8967,-17.6419 -10.5241,-8.1381 -19.7211,-17.9168 -28.5938,-27.8125 -4.8599,-6.4663 -10.2364,-13.1973 -12.0625,-21.0313 -0.7477,-8.1757 6.4053,-10.9318 13.5625,-10.9687 z"
       transform="matrix(0.7216307,0,0,-0.7216307,-1862.3739,1852.2296)"
       id="path4053"
       sodipodi:nodetypes="ccccccccccccccccccccc" /></g><g
     id="g4055"
     transform="translate(205.7666,416.7813)"><path
       style="fill:#77dd55;fill-opacity:1;fill-rule:nonzero;stroke:#77dd55;stroke-width:0.18792467"
       d="M -13.838251,6.9691257 C -10.280261,4.8277668 -4.0669864,0.36908459 0,0 3.8352882,-0.34805765 6.1899032,2.6222498 6.6349589,5.2843323 7.0766368,7.9262103 7.5163895,10.116959 5.5970632,15.774949 c -1.9193263,5.65799 -7.4825093,15.295802 -11.2405194,19.643717 -3.7580098,4.347915 -6.3893618,6.473991 -9.0367198,8.651351 -2.647357,2.177361 -5.877005,4.380396 -8.962774,6.247088 -3.085768,1.866692 -7.594459,4.075591 -11.409199,4.985338 -3.81474,0.909747 -8.589031,1.246143 -12.031293,-0.635822 -3.442262,-1.881964 -4.1104,-5.168185 -3.064085,-8.413102 1.046315,-3.244917 3.399172,-6.294855 5.568654,-9.715956 2.169482,-3.421101 5.739423,-6.963719 9.180597,-10.793938 3.441174,-3.830219 8.193792,-8.594372 12.064684,-11.600941 3.870892,-3.00657 5.937351,-5.0321994 9.495341,-7.1735583 l 0,0 z"
       id="path4057"
       sodipodi:nodetypes="cszzzzzzzzzzzs" /></g></g><g
   id="g4351"
   clip-path="url(#clipPath4353)"
   transform="matrix(0.4051003,0,0,-0.4051003,-0.421172,797.09459)"><g
     id="g4357"
     transform="translate(315.6973,401.022)"><path
       style="fill:#4444bb;fill-opacity:1;fill-rule:nonzero;stroke:#4444bb;stroke-width:0.18792467"
       d="m 0,0 c 11.439767,-0.19135124 132.71515,-0.1275675 141.476,0 -3.97692,5.3231826 -8.9431,9.3905299 -13.28574,14.471257 -10.53943,11.303544 -22.15874,22.32778 -33.017384,33.38442 -4.464689,4.16328 -8.363591,9.263449 -13.135253,13.300541 -1.784104,2.808979 -4.539762,5.290173 -6.934726,7.868973 -1.817948,2.638534 -3.611705,4.775742 -5.358531,7.416683 -1.892572,2.908497 -2.959644,5.110038 -3.651152,8.516914 0.145169,2.236339 1.415261,5.720343 3.088227,8.277419 2.962091,2.029962 4.63401,2.745026 7.545875,3.504669 4.115295,0.09616 6.827535,0.09641 10.521152,-0.131366 7.00414,-1.42764 13.817902,-3.000442 20.049702,-5.613616 4.98993,-2.355466 9.93874,-4.802915 14.70197,-7.904586 10.23307,-6.662223 16.48391,-12.550814 23.29886,-19.236145 8.04889,-7.8958 13.1284,-16.964722 18.31633,-27.067328 5.6408,-9.588294 10.56816,-20.153777 12.75981,-31.0817789 0.47672,-3.9009653 0.38039,-4.96953348 0.45486,-5.78052794 3.19005,-0.01839985 11.5346,-0.04460258 14.30942,-0.0262258 0.12757,6.06348434 0.40328,97.52459264 0.0844,104.16769764 -63.09034,0 -128.132183,0 -191.22251841,0 C -0.04365039,97.992866 -0.14262467,6.328516 0,0 z"
       id="path4359"
       sodipodi:nodetypes="cccccccccccccsccccccc" /></g><g
     id="g4361"
     transform="translate(457.7188,401.022)"><path
       style="fill:#2288ff;fill-opacity:1;fill-rule:nonzero;stroke:#2288ff;stroke-width:0.18792467"
       d="m -20.747316,46.960867 c -5.198982,6.151461 -6.386212,10.153263 -4.485176,11.748082 1.870667,1.569341 7.87142,-1.406986 12.099328,-4.947008 4.2408797,-3.673677 7.5588121,-8.532361 10.2709702,-13.118524 2.03575454,-4.786464 0.6240403,-8.899893 -5.8211062,-4.132525 m -51.638738,60.487336 c -5.578639,0.474328 -12.076418,-1.200721 -14.616341,-6.709145 -3.072776,-5.663286 0.956738,-11.599492 4.087965,-16.209846 8.964169,-12.408656 20.583722,-22.550021 31.138581,-33.553663 C -28.122083,28.912444 -16.590424,17.2138 -5.4374773,5.1941023 -2.1623662,1.2467926 -2.2620136,1.7041519 -0.65219979,-0.12871794 11.172152,-0.13247042 22.996071,9.313961e-5 34.820423,0.00651565 34.96843,10.201426 30.616203,19.727239 27.072274,29.05944 19.900564,42.971469 11.481948,56.492375 0.02923608,67.312795 -13.649057,80.650911 -30.433105,91.423847 -49.202359,95.751611 c -3.65441,0.773011 -7.382859,1.216669 -11.119679,1.246617 l 0,0 z"
       id="path4363"
       sodipodi:nodetypes="czcccccccccccccc" /></g><g
     id="g4365"
     transform="translate(434.2305,453.9136)" /><g
     id="g4369"
     transform="translate(433.2744,457.7358)"><path
       d="M 0,0 0.023,0.05 0,0.136 -0.033,0.05 0,0 z"
       style="fill:#2288ff;fill-opacity:1;fill-rule:nonzero;stroke:none"
       id="path4371" /></g><g
     id="g4373"
     transform="translate(437.0986,458.7495)" /><g
     id="g4377"
     transform="translate(453.2217,433.6084)"><path
       d="M 0,0 0.127,-0.08"
       style="fill:#77dd55;fill-opacity:1;fill-rule:nonzero;stroke:none"
       id="path4379" /></g><g
     id="g4381"
     transform="translate(454.708,436.7622)"><path
       style="fill:#77dd55;fill-opacity:1;fill-rule:nonzero;stroke:#77dd55;stroke-width:0.18792467"
       d="m -1.7495418,-1.3621756 c 1.66895266,-0.192818 2.2824297,0.252284 2.69886849,1.53173001 C 1.3840888,1.5052954 0.84131882,3.4578424 0.16345011,5.1967684 c -0.69903499,1.793223 -2.44078301,3.905762 -3.60550181,5.5794666 -1.1854408,1.703482 -2.2324825,2.783896 -3.7456275,4.402814 -1.4837272,1.587443 -2.0327459,2.1081 -3.6995678,3.501968 -3.370863,2.66306 -9.352877,6.881306 -12.138282,3.610002 -1.374984,-1.586379 1.863057,-6.526858 3.486074,-8.906463 1.623016,-2.379606 4.792857,-5.4013876 6.732914,-7.0531896 1.940057,-1.651802 3.7386511,-3.182381 5.6524219,-4.56369 1.9137708,-1.38130899 3.7972232,-2.94415 5.4045773,-3.129852 l 0,0 z"
       id="path4383"
       sodipodi:nodetypes="czzzzcczzzz" /></g><g
     id="g4385"
     transform="translate(458.1279,437.8018)"><path
       d="M 0,0 0.013,0.012 0,0.039 -0.136,0.012 0,0 z"
       style="fill:#77dd55;fill-opacity:1;fill-rule:nonzero;stroke:none"
       id="path4387" /></g><g
     id="g4389"
     transform="translate(431.3623,461.9531)"><path
       d="M 0,0 0.052,0.038 0,0.052 -0.017,0.038 0,0 z"
       style="fill:#77dd55;fill-opacity:1;fill-rule:nonzero;stroke:none"
       id="path4391" /></g></g><g
   id="g5313"
   clip-path="url(#clipPath5315)"
   transform="matrix(0.4053966,0,0,-0.4053966,-1.4677478,513.98324)"><g
     id="g5319"
     transform="translate(100.6162,108.0479)"><path
       style="fill:#4444bb;fill-opacity:1;fill-rule:nonzero;stroke:#4444bb;stroke-width:0.18792467"
       d="m 0,0 c 6.6786103,0.07226489 13.469551,0.4470324 19.860171,2.5410263 2.474926,0.8331085 4.955326,2.264371 5.949828,4.8069737 0.411164,3.232727 -2.207583,5.731238 -4.654681,7.388631 C 14.998726,18.674526 7.5289556,20.178316 0.29654273,20.041167 -5.7958723,19.759304 -12.129181,18.412146 -16.998345,14.526143 -19.194632,12.677449 -21.138919,9.5924309 -19.776044,6.703484 -18.651085,4.2759432 -16.050589,3.094273 -13.726366,2.0958366 -9.6354939,0.67266936 -5.2575637,0.24483621 -0.95599997,0.023"
       id="path5321" /></g><g
     id="g5323"
     transform="translate(72.8945,95.4326)"><path
       style="fill:#2288ff;fill-opacity:1;fill-rule:nonzero;stroke:#2288ff;stroke-width:0.18792467"
       d="M 24.845114,44.658801 C 20.493031,44.325985 16.140082,43.999591 11.883111,42.980937 8.8104794,42.291347 5.7763109,41.308919 2.8389132,40.180216 -0.31850979,38.895642 -3.3362972,37.3463 -6.1697802,35.447329 c -3.4075401,-2.156016 -6.4072868,-4.939273 -8.9003048,-8.107665 -0.481399,-5.081435 -0.107378,-10.208693 -0.225509,-15.30954 0,-1.902651 0,-3.8053026 0,-5.7079541 2.619519,-2.3792164 5.825075,-3.9502065 9.210389,-4.916903 4.7875867,-1.48590974 9.8307028,-1.84275612 14.8066351,-2.189644 8.2657749,-0.330579 16.5398479,-0.073029 24.7970349,0.35785666 9.273604,0.54526416 18.563228,0.88544087 27.793246,1.98881424 3.639255,0.3433519 7.267903,1.0076851 10.810677,1.8756625 2.941728,0.9437486 6.069492,1.758181 8.238713,4.1169753 2.648313,2.1005226 3.120259,6.0279254 1.867653,9.0421774 -1.064045,3.293811 -3.214793,6.182065 -5.596318,8.657547 -4.65156,5.036622 -10.501459,8.779432 -16.601115,11.823486 -5.806601,2.768104 -11.953957,4.843081 -18.277751,6.050802 -5.092115,1.158145 -10.332308,1.470394 -15.543203,1.497672 -0.455061,0.01068 -0.910193,0.02143 -1.365253,0.03218 l 0,5e-6 z m 2.886522,-11.974524 c 3.432004,-0.03572 6.852461,-0.185747 10.212085,-0.942954 3.955619,-0.910338 7.938876,-2.225149 11.236007,-4.67126 1.941908,-1.261122 3.822261,-3.098105 4.296517,-5.417715 0.461338,-2.015298 -0.805196,-3.86693 -2.556449,-4.761752 -1.852354,-1.417139 -4.243117,-1.876529 -6.40671,-2.647014 -4.367453,-1.006747 -8.85578,-1.379541 -13.322746,-1.559444 -4.730506,-0.03529 -9.484681,0.07707 -14.114519,1.137074 -2.321847,0.58582 -4.642611,1.499981 -6.70164,2.713909 -1.1241564,1.243658 -2.6733532,2.239941 -2.8126279,4.057079 -0.4242467,2.4814 1.1940102,4.771928 2.9743449,6.36233 2.330868,2.097636 5.35782,3.232184 8.266569,4.277754 2.931047,0.832113 5.894063,1.238463 8.929169,1.451993 l 0,0 z"
       id="path5325" /></g><g
     id="g5327"
     transform="translate(57.6001,59.7021)"><path
       style="fill:#77dd55;fill-opacity:1;fill-rule:nonzero;stroke:#77dd55;stroke-width:0.18792467"
       d="M 0,-0.30741581 C 23.92841,3.7478784 47.870732,9.1128126 72.286221,8.4568719 c 19.98764,-0.072111 39.589829,-4.727458 59.394689,-6.7107395 6.91524,-0.6225056 16.26867,0.2993367 19.06795,7.9031004 3.11005,9.1291722 -0.6128,18.9509992 -4.41845,27.3175832 -12.82517,25.987609 -36.4528,45.642082 -62.918628,56.767632 -10.334207,3.979593 -21.122107,7.454332 -32.209233,8.221242 -10.864755,-0.24084 -21.805709,0.28246 -32.62278,-0.43657 C 12.317106,100.44791 6.1622777,98.815935 0.17,96.709 -0.22406901,85.509948 0.11133585,74.28146 0,63.070999 c 5.4894292,6.063745 12.214165,10.992918 20.045818,13.547288 21.082814,7.379886 45.500717,3.54475 63.927813,-8.85215 C 90.390199,63.004643 97.7713,56.958942 98.209999,48.354 97.405549,41.367049 89.322717,39.497761 83.572652,38.306011 68.16335,35.84851 52.496982,35.443964 36.925242,34.920002 25.359541,34.877503 12.821427,34.129883 2.4644859,40.120982 -1.1600511,44.383143 0.23284075,38.503859 0,35.910577 0,23.837913 0,11.765248 0,-0.30741581 z"
       id="path5329"
       sodipodi:nodetypes="cccccccccccccccccc" /></g><g
     id="g5331"
     transform="translate(57.6001,57.5996)"><path
       d="m 0,0 189.85508,0 -0.30108,1.052 -2.69,9.461 -3.393,9.46 -4.105,9.461 -4.843,9.461 -5.632,9.459 -5.733,8.411 -6.497,8.409 -7.377,8.409 -7.302,7.358 -8.154,7.273 -8.123,6.393 -9.083,6.272 -4.78,2.964 -3.824,0.224 -54.785,0 1.254,-0.18 8.603,-1.611 8.603,-2.257 8.604,-2.93 7.647,-3.201 8.603,-4.325 8.603,-5.173 7.648,-5.411 7.647,-6.319 6.687,-6.435 5.666,-6.307 5.653,-7.358 4.716,-7.359 3.324,-6.306 2.632,-6.279 1.89,-6.336 0.854,-5.256 0.062,-4.205 -0.477,-3.153 -1.167,-3.153 L 148.855,8.41 146.382,6.308 144.266,5.256 140.52,4.271 136.696,3.93 129.652,4.205 119.489,5.511 92.724,9.308 80.297,10.313 68.826,10.618 57.355,10.29 45.884,9.337 33.457,7.668 16.25,4.618 0,1.856 0,0 z"
       style="fill:#ffdd44;fill-opacity:1;fill-rule:nonzero;stroke:#ffdd44;stroke-width:0.18792467"
       id="path5333"
       sodipodi:nodetypes="cccccccccccccccccccccccccccccccccccccccccccccccccccccc" /></g><g
     id="g5335"
     transform="translate(57.6001,156.4111)"><path
       d="M 0,0 0,-0.063 0.17,0 0.956,0.284 1.912,0.621 2.868,0.947 3.182,1.052 3.824,1.262 4.779,1.565 5.735,1.86 6.55,2.103 l 0.141,0.042 0.956,0.272 0.956,0.264 0.956,0.254 0.857,0.218 0.099,0.026 0.956,0.233 0.956,0.225 0.956,0.216 0.955,0.206 0.708,0.146 0.248,0.051 0.956,0.186 0.957,0.179 0.955,0.17 0.956,0.16 0.956,0.153 0.956,0.142 0.068,0.01 -0.068,0 -0.956,0 -0.956,0 -0.956,0 -0.955,0 -0.957,0 -0.956,0 -0.956,0 -0.955,0 -0.956,0 -0.956,0 -0.956,0 -0.956,0 -0.956,0 -0.956,0 -0.956,0 -0.956,0 -0.956,0 -0.955,0 -0.956,0 -0.956,0 -0.956,0 L 0,5.256 0,4.205 0,3.153 0,2.103 0,1.052 0,0 z"
       style="fill:#ffdd44;fill-opacity:1;fill-rule:nonzero;stroke:none"
       id="path5337" /></g><g
     id="g5339"
     transform="translate(247.4092,57.5996)"><path
       style="fill:#ff7722;fill-opacity:1;fill-rule:nonzero;stroke:#ff7722;stroke-width:0.18792467"
       d="M 0,0 C 0.83940138,-0.10027361 0.72131743,-0.04809412 1.4524073,-0.01307666 1.4524073,13.325858 1.8612615,37.118067 1.8612615,50.457001 -2.8909702,58.771685 -10.075824,66.522996 -16.088476,73.971503 -25.002554,85.01721 -35.148042,95.030394 -46.084,104.067 c -10.627667,0 -21.255335,0 -31.883003,0 9.322399,-6.223183 18.641231,-12.519244 26.863032,-20.183796 14.112445,-12.662996 26.020108,-27.724203 35.358376,-44.21631 C -8.8102562,27.187533 -3.4318966,13.868185 0,0 z"
       id="path5341"
       sodipodi:nodetypes="ccccccccc" /></g><g
     id="g5343"
     transform="translate(247.8271,108.3955)"><path
       d="m 1.040352,53.271 c -15.769472,0.01653 -31.750418,0.100237 -47.520211,0 0.744883,-0.696202 0.911388,-0.738279 1.261859,-1.05 2.508747,-2.231368 5.965836,-5.288893 8.432,-7.567236 5.754934,-5.283034 11.142043,-10.944017 16.286,-16.819 8.594665,-9.985225 14.0652568,-17.422311 21.5052615,-27.58288767"
       style="fill:#ff4466;fill-opacity:1;fill-rule:nonzero;stroke:none"
       id="path5345"
       sodipodi:nodetypes="ccsccc" /></g></g><g
   id="g5639"
   clip-path="url(#clipPath5641)"
   transform="matrix(0.4070909,0,0,-0.4070909,-1.0281089,514.13445)"><g
     id="g5645"
     transform="translate(379.7432,104.873)"><path
       style="fill:#4444bb;fill-opacity:1;fill-rule:nonzero;stroke:#4444bb;stroke-width:0.18792467"
       d="M -23.578911,6.292675 C -16.671915,3.6813704 -6.6573651,0.88845791 0,0 2.5577958,-0.1385367 6.5458791,-0.63924856 7.6350868,2.3202581 7.9800679,5.4492896 5.5771895,7.9991182 3.5482197,9.9461134 -3.2844159,16.359611 -12.028052,20.411383 -21.025249,22.750529 c -6.980325,1.581489 -14.855972,2.635561 -21.481279,0.208911 -3.849985,-0.760543 -5.00899,-4.663703 -1.198997,-7.346633 6.003761,-4.42829 13.219618,-6.7088274 20.126614,-9.320132 l 0,0 z"
       id="path5647"
       sodipodi:nodetypes="cccccccc" /></g><g
     id="g5649"
     transform="translate(403.6416,83.832)"><path
       style="fill:#2288ff;fill-opacity:1;fill-rule:nonzero;stroke:#2288ff;stroke-width:0.26041669"
       d="m 2772,2926.2188 c -9.7051,-0.034 -19.0893,1.2347 -26.5312,4.375 0,10.5661 0,25.1213 0,35.6874 28.5617,8.926 51.5029,16.0431 76.9374,25.0449 3.9542,1.3681 7.8922,2.6695 11.8126,4.1317 10.5764,3.6069 21.0096,7.6258 31.8124,10.511 l 1.3126,0.3124 c 5.6502,0.7774 12.3189,2.5563 17.2187,-1.3437 4.1968,-4.9183 1.8299,-11.747 -0.3125,-17.0313 -6.8993,-14.5302 -18.8064,-26.0063 -31.625,-35.4062 -17.2066,-12.3657 -37.2905,-20.561 -58.1562,-24.125 -7.1589,-1.3313 -14.9204,-2.1297 -22.4688,-2.1562 l 0,0 z m 13.6562,17.25 c 2.8426,-0.084 5.6929,0.09 8.4376,0.3437 14.459,1.3492 28.5122,6.8674 40.2187,15.4063 4.4704,3.6794 10.5558,8.9565 10.5177,13.9374 -1.0321,4.2683 -4.5845,4.3346 -10.6114,3.9688 -13.7458,-2.1327 -26.9862,-6.6438 -40,-11.4375 -7.8113,-3.1896 -16.117,-6.0303 -22.375,-11.9063 -1.5926,-2.0367 -2.1774,-5.1909 0.4062,-6.75 3.9954,-2.5576 8.6686,-3.4233 13.4062,-3.5624 z"
       transform="matrix(0.7216307,0,0,-0.7216307,-2069.1615,2169.4196)"
       id="path5651"
       sodipodi:nodetypes="ccccccccccccccccccccc" /></g><g
     id="g5653"
     transform="translate(397.3369,57.5996)"><path
       style="fill:#77dd55;fill-opacity:1;fill-rule:nonzero;stroke:#77dd55;stroke-width:0.18792467"
       d="M 0,0 C 22.629333,0 45.258667,0 67.888,0 61.011752,30.915622 41.196869,57.963439 16.153708,76.862864 -2.1831606,90.554586 -23.719446,100.3008 -46.369181,103.89103 c -11.421425,0.40675 -23.499278,0.0615 -34.93485,0.17597 -0.464153,-7.66396 -0.335968,-15.394125 -0.335968,-23.093001 26.013565,6.926099 54.446187,-0.09006 76.2875905,-15.209664 C 4.9359775,58.343763 14.914402,49.111939 19.418393,36.971744 21.330205,32.957718 20.796737,26.403225 15.35979,25.821089 c -9.6201603,-0.908707 -18.6006345,3.623056 -27.600935,6.334969 -19.762087,6.939324 -39.442346,14.127816 -59.588828,19.896657 -3.270009,1.001095 -6.540018,2.00219 -9.810026,3.003285 0,-8.178334 0,-16.356667 0,-24.535 C -54.74884,26.753557 -28.755881,17.345029 -5.5227739,3.3186302 -3.7750943,2.352984 -2.0826666,1.2961393 -0.38699999,0.243"
       id="path5655"
       sodipodi:nodetypes="ccccccccccccccc" /></g><g
     id="g5657"
     transform="translate(351.4668,57.5996)"><path
       style="fill:#ffdd44;fill-opacity:1;fill-rule:nonzero;stroke:#ffdd44;stroke-width:0.18792467"
       d="M 0,0 C 15.161001,0 30.322001,0 45.483002,0 40.99532,3.2389772 36.031724,5.7488399 31.243053,8.5043382 25.338402,11.58339 19.369818,14.526772 13.207115,17.058228 c -7.8113646,3.377415 -15.9168226,6.043485 -24.101527,8.354834 -6.30232,1.609786 -12.626037,3.11902 -19.057011,4.124252 -1.854028,0.324768 -3.976651,0.705507 -5.844279,0.946685 -0.314645,-6.353739 0.159414,-10.543386 0.0257,-15.810623 0,-1.737459 0,-4.308017 0,-6.0454752 C -23.552997,7.2540539 -11.510307,4.3143166 0,0 z"
       id="path5659"
       sodipodi:nodetypes="cccccccccc" /></g><g
     id="g5661"
     transform="translate(465.2246,57.5996)"><path
       style="fill:#ffdd44;fill-opacity:1;fill-rule:nonzero;stroke:#ffdd44;stroke-width:0.18792467"
       d="m 0,0 c 9.3293336,0 18.658667,0 27.988001,0 -11.337517,35.422109 -33.3890453,67.346143 -62.718656,90.248296 -6.552432,4.999773 -13.398801,10.012554 -20.649585,13.755124 -19.592528,0.13266 -39.185873,0.0324 -58.77876,0.0636 25.783231,-4.615127 50.249762,-16.208795 70.066624,-33.345209 C -22.826944,52.322037 -6.0922211,27.698913 0,0 z"
       id="path5663" /></g><g
     id="g5665"
     transform="translate(315.6973,57.5996)"><path
       style="fill:#ff7722;fill-opacity:1;fill-rule:nonzero;stroke:#ff7722;stroke-width:0.18792467"
       d="M 0,0 C 11.923333,0 23.846667,0 35.77,0 24.294751,4.430451 12.233184,7.3354657 0,8.6219997 0,5.7479998 0,2.8739999 0,0 z"
       id="path5667" /></g><g
     id="g5669"
     transform="translate(493.2129,57.5996)"><path
       style="fill:#ff7722;fill-opacity:1;fill-rule:nonzero;stroke:#ff7722;stroke-width:0.18792467"
       d="M 0,0 C 4.2370001,0 8.6128502,0 12.84985,0 12.80752,9.4609998 12.76518,18.922 12.72285,28.382999 2.5538098,49.370487 -10.848956,68.881745 -26.981113,85.744744 -33.106844,92.209691 -39.753922,98.144877 -46.556,103.887 c -12.100041,0.39824 -24.217038,0.0758 -36.323997,0.18 9.952613,-6.377844 19.894145,-12.854741 28.618523,-20.885855 C -35.839799,66.933043 -20.695018,46.957424 -10.004985,24.843437 -6.0477701,16.831118 -2.7831749,8.4879442 0,0 z"
       id="path5671"
       sodipodi:nodetypes="ccccccccc" /></g><g
     id="g5673"
     transform="translate(505.9238,85.7139)"><path
       style="fill:#ff4466;fill-opacity:1;fill-rule:nonzero;stroke:none"
       d="m 0,0 c 0.00599267,25.317681 -2.246062e-4,50.635354 -0.044,75.953003 -19.740999,-0.02223 -39.745965,-0.01951 -59.486965,0 6.934031,-6.110648 14.12063,-12.242803 20.468758,-18.97052 5.691948,-6.073107 11.060298,-12.440776 16.099688,-19.067166 C -16.294328,28.922346 -10.202278,19.491822 -4.9388748,9.6056513 -3.1887643,6.5687209 -1.7007727,3.3982833 -0.127,0.26899999"
       id="path5675"
       sodipodi:nodetypes="ccccccc" /></g></g><g
   id="g4685"
   clip-path="url(#clipPath4687)"
   transform="matrix(0.4061756,0,0,-0.4061756,-1.3000903,655.85196)"><g
     id="g4691"
     transform="translate(206.6523,229.3105)"><path
       style="fill:#4444bb;fill-opacity:1;fill-rule:nonzero;stroke:#4444bb;stroke-width:0.18792467"
       d="m 0,0 c 13.725,0 27.449999,0 41.174999,0 0,34.689 0,69.378001 0,104.067 -35.5079992,0 -71.015999,0 -106.523998,0 C -45.565833,87.747187 -28.86535,67.657983 -16.852451,44.976839 -9.3047119,30.790422 -3.6520922,15.649458 0,0 z"
       id="path4693" /></g><g
     id="g4695"
     transform="translate(194.5723,229.3105)"><path
       style="fill:#2288ff;fill-opacity:1;fill-rule:nonzero;stroke:#2288ff;stroke-width:0.18792467"
       d="M 0,0 C 3.7313334,0 8.2833704,0 12.014704,0 11.151054,3.8567962 11.556062,2.1789253 10.283381,6.9218122 3.6363783,31.747155 -8.5386621,55.003809 -24.588816,75.035831 -33.076328,85.704699 -42.80075,95.347213 -53.269001,104.067 c -12.471666,0 -24.943331,0 -37.414997,0 17.917185,-9.014704 34.534539,-20.71901 48.524073,-35.130567 C -28.468569,55.11056 -17.143645,38.968022 -8.6370238,21.470523 -5.4891053,14.447246 -2.4433829,7.3070125 0,0 z"
       id="path4697"
       sodipodi:nodetypes="ccccccccc" /></g><g
     id="g4699"
     transform="translate(57.6001,229.3105)"><path
       style="fill:#77dd55;fill-opacity:1;fill-rule:nonzero;stroke:#77dd55;stroke-width:0.18792467"
       d="M 0,0 C 45.657333,0 91.314667,0 136.972,0 134.02806,8.7024821 130.64638,17.255539 126.43119,25.412581 116.39836,45.008327 102.56012,62.719262 86.046485,77.290208 74.235096,87.815104 60.955834,96.649504 46.84,103.777 31.760721,104.43704 16.635585,103.886 1.5381669,104.067 -1.3852621,103.15739 0.56544287,98.764817 0,96.342405 0,64.22827 0,32.114135 0,0 z"
       id="path4701"
       sodipodi:nodetypes="cccccccc" /></g></g><g
   id="g4999"
   clip-path="url(#clipPath5001)"
   transform="matrix(0.4054986,0,0,-0.4054986,-0.48172,655.61831)"
   style="font-size:15.78303814px"><g
     id="g5005"
     transform="translate(463.3311,229.3105)"
     style="font-size:15.78303814px"><path
       style="font-size:15.78303814px;fill:#4444bb;fill-opacity:1;fill-rule:nonzero;stroke:#4444bb;stroke-width:0.18792467"
       d="m 0,0 c 13.879,0 29.950274,0 43.829274,0 -0.08491,31.620184 -0.07071,69.551298 -0.07071,104.067 -48.8023347,0 -98.77023,0 -147.572564,0 C -69.211795,89.909849 -39.186901,65.107532 -18.437355,34.040035 -11.154017,23.357212 -5.1455518,11.849766 0,0 z"
       id="path5007"
       sodipodi:nodetypes="cccccc" /></g><g
     id="g5009"
     transform="translate(453.251,229.3105)"
     style="font-size:15.78303814px"><path
       style="font-size:15.78303814px;fill:#2288ff;fill-opacity:1;fill-rule:nonzero;stroke:#2288ff;stroke-width:0.18792467"
       d="M -0.13884994,0 C 3.2211501,0 6.7199999,0 10.08,0 -1.6064233,27.604003 -19.436599,52.604791 -42.075828,72.28944 -57.46411,85.547649 -74.951931,96.32825 -93.734001,104.067 c -11.420339,0 -22.840669,0 -34.260999,0 9.98484,-2.74302 20.2048,-4.777686 29.636463,-9.187253 26.610852,-9.919255 50.130103,-27.317424 68.787506,-48.599423 C -17.584356,32.359587 -7.761333,16.712138 -0.13884994,0 z"
       id="path5011"
       sodipodi:nodetypes="cccccccc" /></g><g
     id="g5013"
     transform="translate(315.6973,229.3105)"
     style="font-size:15.78303814px"><path
       style="font-size:15.78303814px;fill:#77dd55;fill-opacity:1;fill-rule:nonzero;stroke:#77dd55;stroke-width:0.18792467"
       d="M 0,0 C 45.851334,0 91.702667,0 137.554,0 132.80183,9.4731027 128.11772,18.985005 122.07174,27.720491 103.92199,55.083246 78.204953,77.464675 48.354664,91.233725 36.93532,96.706447 24.747532,100.30443 12.497135,103.38894 8.4435736,104.60933 4.1669265,103.85175 0,104.067 0,69.378001 0,34.689 0,0 z"
       id="path5015" /></g></g><g
   transform="matrix(0.3045848,0,0,-0.3045848,-708.98008,1373.7038)"
   id="g3159"><g
   id="g3146"><g
     transform="matrix(1.3857503,0,0,-1.3857503,2307.9947,3122.4441)"
     id="g5967"
     clip-path="url(#clipPath5969)"><g
       id="g5973"
       transform="translate(512.6396,576)"><path
         d="m 0,0 0,18.72 0,56.16 0,18.72 4.681,0 0,-18.72 0,-56.16 L 4.681,0 0,0 z"
         style="fill:#ffffff;fill-opacity:1;fill-rule:nonzero;stroke:none"
         id="path5975" /></g><g
       id="g5977"
       transform="translate(512.6396,576)"><path
         d="m 0,0 0,18.72 0,56.16 0,18.72 4.681,0 0,-18.72 0,-56.16 L 4.681,0 0,0"
         style="fill:none;stroke:#ffffff;stroke-width:0.01;stroke-linecap:square;stroke-linejoin:round;stroke-miterlimit:10;stroke-opacity:1;stroke-dasharray:none"
         id="path5979" /></g><path
       d="m 512.64,594.72 4.681,0 0,-18.72 -4.681,0 0,18.72 z"
       style="fill:#4444bb;fill-opacity:1;fill-rule:nonzero;stroke:#4444bb;stroke-width:1;stroke-linecap:butt;stroke-linejoin:round;stroke-miterlimit:10;stroke-opacity:1;stroke-dasharray:none"
       id="path5981" /><path
       d="m 512.64,613.44 4.681,0 0,-18.72 -4.681,0 0,18.72 z"
       style="fill:#2288ff;fill-opacity:1;fill-rule:nonzero;stroke:#2288ff;stroke-width:1;stroke-linecap:butt;stroke-linejoin:round;stroke-miterlimit:10;stroke-opacity:1;stroke-dasharray:none"
       id="path5983" /><path
       d="m 512.64,632.16 4.681,0 0,-18.72 -4.681,0 0,18.72 z"
       style="fill:#77dd55;fill-opacity:1;fill-rule:nonzero;stroke:#77dd55;stroke-width:1;stroke-linecap:butt;stroke-linejoin:round;stroke-miterlimit:10;stroke-opacity:1;stroke-dasharray:none"
       id="path5985" /><path
       d="m 512.64,650.88 4.681,0 0,-18.72 -4.681,0 0,18.72 z"
       style="fill:#ffdd44;fill-opacity:1;fill-rule:nonzero;stroke:#ffdd44;stroke-width:1;stroke-linecap:butt;stroke-linejoin:round;stroke-miterlimit:10;stroke-opacity:1;stroke-dasharray:none"
       id="path5987" /><path
       d="m 512.64,669.6 4.681,0 0,-18.72 -4.681,0 0,18.72 z"
       style="fill:#ff7722;fill-opacity:1;fill-rule:nonzero;stroke:#ff7722;stroke-width:1;stroke-linecap:butt;stroke-linejoin:round;stroke-miterlimit:10;stroke-opacity:1;stroke-dasharray:none"
       id="path5989" /></g><path
     d="m 3018.3852,2324.2519 0,-25.9412 0,-77.8238 0,-25.9412 6.4867,0 0,25.9412 0,77.8238 0,25.9412 -6.4867,0"
     style="fill:none;stroke:#000000;stroke-width:1.38575029;stroke-linecap:square;stroke-linejoin:round;stroke-miterlimit:10;stroke-opacity:1;stroke-dasharray:none"
     id="path6001" /></g><g
   id="g3064"
   transform="translate(-76,4)"><text
   sodipodi:linespacing="125%"
   id="text3040"
   y="2223.7373"
   x="3137.5"
   style="font-size:18.38568497px;font-style:normal;font-variant:normal;font-weight:normal;font-stretch:normal;text-align:end;line-height:125%;writing-mode:lr-tb;text-anchor:end;fill:#000000;fill-opacity:1;stroke:none;font-family:Helvetica Neue;-inkscape-font-specification:Helvetica Neue"
   xml:space="preserve"><tspan
     id="tspan3046"
     y="2223.7373"
     x="3137.5"
     sodipodi:role="line">5RT</tspan></text>


<text
   sodipodi:linespacing="125%"
   id="text3052"
   y="2248.825"
   x="3137.5"
   style="font-size:18.38568497px;font-style:normal;font-variant:normal;font-weight:normal;font-stretch:normal;text-align:end;line-height:125%;writing-mode:lr-tb;text-anchor:end;fill:#000000;fill-opacity:1;stroke:none;font-family:Helvetica Neue;-inkscape-font-specification:Helvetica Neue"
   xml:space="preserve"><tspan
     y="2248.825"
     x="3137.5"
     id="tspan3054"
     sodipodi:role="line">3RT</tspan></text>


<text
   sodipodi:linespacing="125%"
   id="text3056"
   y="2273.9124"
   x="3137.5"
   style="font-size:18.38568497px;font-style:normal;font-variant:normal;font-weight:normal;font-stretch:normal;text-align:end;line-height:125%;writing-mode:lr-tb;text-anchor:end;fill:#000000;fill-opacity:1;stroke:none;font-family:Helvetica Neue;-inkscape-font-specification:Helvetica Neue"
   xml:space="preserve"><tspan
     y="2273.9124"
     x="3137.5"
     id="tspan3058"
     sodipodi:role="line">RT</tspan></text>


<text
   sodipodi:linespacing="125%"
   id="text3060"
   y="2299"
   x="3137.5"
   style="font-size:18.38568497px;font-style:normal;font-variant:normal;font-weight:normal;font-stretch:normal;text-align:end;line-height:125%;writing-mode:lr-tb;text-anchor:end;fill:#000000;fill-opacity:1;stroke:none;font-family:Helvetica Neue;-inkscape-font-specification:Helvetica Neue"
   xml:space="preserve"><tspan
     y="2299"
     x="3137.5"
     id="tspan3062"
     sodipodi:role="line">-RT</tspan></text>


</g><text
   xml:space="preserve"
   style="font-size:21.01221085px;font-style:normal;font-variant:normal;font-weight:normal;font-stretch:normal;text-align:start;line-height:125%;writing-mode:lr-tb;text-anchor:start;fill:#000000;fill-opacity:1;stroke:none;font-family:Helvetica Neue;-inkscape-font-specification:Helvetica Neue"
   x="-2286.3899"
   y="3090.915"
   id="text3074"
   sodipodi:linespacing="125%"
   transform="matrix(0,-1,1,0,0,0)"><tspan
     sodipodi:role="line"
     x="-2286.3899"
     y="3090.915"
     id="tspan3078">Energy</tspan></text>


</g><g
   id="g3727"
   clip-path="url(#clipPath3729)"
   transform="matrix(0.4053571,0,0,-0.4053571,-0.4560524,938.74052)"><g
     id="g3733"
     transform="translate(467.4395,572.7329)"><path
       style="fill:#4444bb;fill-opacity:1;fill-rule:nonzero;stroke:#4444bb;stroke-width:0.18792467"
       d="M 0,0 C 7.3603331,0 14.720666,0 22.080999,0 18.909139,19.033913 9.1888266,36.383674 -2.6979657,51.339827 -15.63901,67.154644 -31.93938,80.613205 -50.909349,88.488649 c -8.210234,3.170769 -17.196603,6.183961 -26.060229,4.383566 -3.608891,-0.458289 -5.836393,-4.55535 -3.934485,-7.738582 C -77.16202,77.200134 -69.979072,71.64942 -63.955589,65.490486 -50.758981,52.823943 -37.183655,40.540121 -24.699598,27.154597 -16.408298,18.157694 -8.2323762,9.051803 0,0 z"
       id="path3735" /></g><g
     id="g3737"
     transform="translate(444.3779,572.7329)"><path
       style="fill:#2288ff;fill-opacity:1;fill-rule:nonzero;stroke:#2288ff;stroke-width:0.18792467"
       d="M -0.08115265,0 C 7.3701808,0 15.633041,0 23.084374,0 c -27.1095932,30.646841 -34.91244,38.100688 -53.560081,55.839049 -8.506043,8.751777 -18.350521,16.231488 -25.587801,26.113908 -3.092673,5.17247 -3.189045,8.711395 1.201129,10.526205 10.076689,2.518055 20.164355,-1.239926 29.256623,-4.954294 C 2.1345466,74.916586 24.19142,51.238855 37.464315,24.109902 41.066278,16.45688 43.834538,8.3715885 45.143002,0 c 5.467666,0 11.891679,0 17.359345,0 0.13344,5.7168435 0.04282,6.9683301 0.0033,11.798095 -17.547632,42.885663 -46.494421,73.355263 -79.993898,92.262665 -35.962276,-0.0323 -71.927484,0.006 -107.891779,0.006 1.25356,-8.950016 10.31125,-13.61954 17.09909,-18.232673 C -85.237381,72.171034 -61.432519,59.411725 -40.870005,42.039418 -25.700847,29.634641 -12.20988,15.373802 -0.08115265,0 z"
       id="path3739"
       sodipodi:nodetypes="ccccccccccccccc" /></g><g
     id="g3741"
     transform="translate(430.8457,572.7329)"><path
       style="fill:#77dd55;fill-opacity:1;fill-rule:nonzero;stroke:#77dd55;stroke-width:0.18792467"
       d="m 0,0 c 4.3146667,0 9.197402,0 13.512069,0 -29.897801,36.958297 -48.697022,50.198722 -79.940582,69.210756 -12.040733,7.463652 -24.472754,14.360683 -36.334147,22.070307 -4.10551,3.248567 -8.59484,7.690712 -9.08534,12.785937 -1.89491,0.0916 -1.54046,0.13616 -3.3,0.0113 0,-7.767196 0,-20.577058 0,-28.344249 23.915828,-8.349337 47.508784,-18.344599 68.374485,-32.892277 C -29.152264,31.007827 -13.51614,16.337146 0,0 z"
       id="path3743"
       sodipodi:nodetypes="ccccccccc" /></g><g
     id="g3745"
     transform="translate(505.9238,586.6479)"><path
       style="fill:#77dd55;fill-opacity:1;fill-rule:nonzero;stroke:#77dd55;stroke-width:0.18792467"
       d="M 0.95634557,-2.2547879 C 0.86591161,5.8123788 1.2995748,16.211586 0.98287546,24.230439 -1.553201,29.272654 -5.8447059,34.011282 -8.9576146,38.722432 -19.702669,54.596478 -32.596987,69.04314 -47.333966,81.310931 c -3.748282,2.868408 -7.273231,6.272554 -11.308774,8.615501 -6.81263,0.461139 -13.651103,0.121476 -20.475256,0.225568 11.96917,-6.792285 23.179978,-14.904427 33.284974,-24.252682 C -34.808885,55.639232 -25.021153,44.066552 -16.73836,31.485646 -10.336461,21.781269 -4.9551854,11.464348 -0.336,0.801"
       id="path3747"
       sodipodi:nodetypes="ccccccccc" /></g><g
     id="g3749"
     transform="translate(419.8633,572.7329)"><path
       style="fill:#ffdd44;fill-opacity:1;fill-rule:nonzero;stroke:#ffdd44;stroke-width:0.18792467"
       d="m 0,0 c 3.6606668,0 7.3213336,0 10.982,0 -12.4060426,15.012527 -26.603172,28.559945 -42.45778,39.891811 -23.979228,17.248422 -48.30453,27.663541 -72.69312,35.87213 -0.0213,-3.663389 -0.0687,-9.279128 -0.0378,-12.692942 C -82.671916,57.288417 -61.293209,48.847052 -42.548638,36.67123 -26.662059,26.63015 -12.422902,14.079388 0,0 z"
       id="path3751"
       sodipodi:nodetypes="ccccccc" /></g><g
     id="g6668"
     transform="translate(505.9238,611.0303)"><path
       style="fill:#ffdd44;fill-opacity:1;fill-rule:nonzero;stroke:#ffdd44;stroke-width:0.18792467"
       d="M 0.95634557,-2.643065 C 0.89567891,2.8116018 1.1596228,9.1414619 1.0989562,14.596128 -3.12949,20.731286 -8.6720733,28.609733 -13.407542,34.369254 c -3.737577,4.591576 -7.651896,9.058807 -11.736999,13.344475 -5.571046,5.879353 -11.540507,11.362938 -17.692044,16.626164 -1.030884,1.224704 -2.326153,1.721357 -3.907542,1.430104 -3.969624,0 -7.939249,0 -11.908873,0 5.630284,-4.244181 11.231257,-8.524398 16.456171,-13.266951 5.402847,-4.881848 10.613778,-9.992673 15.453339,-15.439009 4.109172,-4.482348 7.924319,-9.241353 11.615976,-14.069749 4.810689,-6.370157 9.174326,-13.0578321 13.3127385,-19.8794289 0.4915918,-0.8396197 1.93952922,-4.3223044 2.43112107,-5.1619241"
       id="path3755"
       sodipodi:nodetypes="cccccccccccc" /></g><g
     id="g3757"
     transform="translate(315.6973,572.7329)"><path
       style="fill:#ff7722;fill-opacity:1;fill-rule:nonzero;stroke:#ff7722;stroke-width:0.18792467"
       d="M 0,0 C 34.412666,0 69.758588,0 104.17126,0 76.220827,32.711823 38.932339,53.063937 0,63.122778 0,43.30242 0,19.820358 0,0 z"
       id="path3759"
       sodipodi:nodetypes="cccc" /></g><g
     id="g3761"
     transform="translate(505.9238,627.1172)"><path
       style="fill:#ff7722;fill-opacity:1;fill-rule:nonzero;stroke:#ff7722;stroke-width:0.18792467"
       d="m 0.95634557,-1.6055668 c 0,16.5609998 0.0811526,34.7275658 0.0811526,51.2885658 -14.6573332,0 -31.1462052,0 -45.8035382,0 6.851164,-5.295214 13.015273,-11.384774 19.130033,-17.497907 4.240626,-4.650158 8.580196,-9.214973 12.432101,-14.200422 3.9815159,-4.744175 7.5342751,-9.827522 11.1143639,-14.8753203"
       id="path3763"
       sodipodi:nodetypes="cccccc" /></g></g><g
   id="g17721"
   transform="translate(1.6004126,4.8)"><g
   id="g9432"><g
   id="g4034"
   transform="matrix(0.4487915,0,0,0.4487915,8.6237842,671.12784)"><path
     d="m -3.5220551,-5.2183921 c 0,-0.682816 -0.2438627,-1.235571 -0.764103,-1.625751 -0.5039828,-0.390181 -1.1055106,-0.585271 -1.820841,-0.585271 -0.6828154,0 -1.4144033,0.178833 -2.1622488,0.536498 -0.7478454,0.357665 -1.3656308,0.829133 -1.8533561,1.446918 -0.487725,0.617786 -0.747845,1.268086 -0.747845,1.983417 0,0.32515 0.09755,0.601527 0.276377,0.861648 0.178833,0.26012 0.406438,0.45521 0.6990732,0.601527 l -3.6254252,0.910421 c -0.178832,0.03251 -0.32515,0.06503 -0.438952,0.08129 -0.162576,0 -0.260121,-0.357666 -0.260121,-1.056739 0,-0.113802 -0.06503,-0.162575 -0.211347,-0.162575 -0.03252,0 -0.08129,0 -0.146318,0.03252 -0.06503,0.01626 -0.113802,0.03251 -0.146317,0.06503 -0.03252,0.03251 -0.06503,0.06503 -0.06503,0.13006 l -0.178833,2.19476401 c 0,0.13006 0.08129,0.19509 0.211348,0.19509 l 9.3480678,-2.34108101 c 0.1950901,-0.08129 0.4552103,-0.113803 0.7803604,-0.113803 0.4714678,0 0.6990729,0.146318 0.6990729,0.471468 0,0.32515 -0.2113476,0.585271 -0.6503003,0.76410301 -0.4226953,0.178833 -0.9266781,0.32515 -1.4956909,0.45521 -0.06503,0.01626 -0.097545,0.06503 -0.097545,0.13006 l 0,0.195091 c 0,0.03251 0.032515,0.06503 0.06503,0.09754 0.032515,0.03252 0.06503,0.04877 0.097545,0.04877 0.764103,-0.19509 1.3656308,-0.406438 1.8208411,-0.634043 0.4552103,-0.227605 0.6665579,-0.58527001 0.6665579,-1.08925301 0,-0.373923 -0.1138026,-0.699073 -0.3088927,-0.97545 -0.1950901,-0.276378 -0.4877253,-0.455211 -0.8453905,-0.520241 0.7803605,-0.699073 1.1542832,-1.398146 1.1542832,-2.097218 m -0.4064378,0.01626 c 0,0.39018 -0.1463175,0.764103 -0.4389527,1.138026 -0.2926352,0.357665 -0.6340429,0.682815 -1.0404806,0.942935 0,0 -0.032515,0.01626 -0.06503,0.01626 l -3.576652,0.894163 c -0.3739228,-0.06503 -0.6990729,-0.211348 -0.9754508,-0.422695 -0.276378,-0.227606 -0.422695,-0.503983 -0.422695,-0.861648 0,-0.373923 0.162575,-0.715331 0.4552102,-1.024224 0.2926352,-0.32515 0.6503004,-0.58527 1.0567381,-0.796618 0.4389528,-0.227605 1.0404806,-0.422695 1.7883261,-0.617785 0.7478454,-0.19509 1.3331157,-0.276378 1.755811,-0.276378 0.3901802,0 0.7315879,0.08129 1.0242231,0.243863 0.2926352,0.162575 0.4389527,0.406438 0.4389527,0.764103"
     style="fill:#000000;fill-opacity:1;fill-rule:nonzero;stroke:none"
     id="path4036" /></g><g
   id="g4038"
   transform="matrix(0.4487915,0,0,0.4487915,9.9436347,673.34177)"><path
     d="m -2.4786463,-3.4681681 -0.398309,0 c 0,0.94429 -0.1138026,1.422532 -0.3644392,1.422532 l -5.9746347,0 c 0.1937353,-0.398309 0.2845064,-0.898228 0.2845064,-1.490272 l -0.398309,0 c 0,0.921259 -0.2384434,1.627106 -0.7275232,2.105347 l 0,0.159866 c 0,0.02168 0.01084,0.0569 0.03387,0.07858 0.02303,0.02303 0.044708,0.03522 0.06774,0.03522 l 6.7143514,0 c 0.2506366,0 0.3644392,0.46604901 0.3644392,1.42117801 l 0.398309,0 0,-3.73245301"
     style="fill:#000000;fill-opacity:1;fill-rule:nonzero;stroke:none"
     id="path4040" /></g><g
   id="g4042"
   transform="matrix(0.4487915,0,0,0.4487915,10.618348,675.24937)"><path
     d="m -1.9452512,-1.9601141 c -0.03387,0 -0.06774,0.01219 -0.090771,0.04606 -0.2736681,0.272313 -0.581206,0.478242 -0.9226137,0.636753 -0.3414077,0.147672 -0.704492,0.227605 -1.0689312,0.227605 l -0.1368341,0 c 0.1259957,-0.124641 0.182897,-0.272314 0.182897,-0.455211 0,-0.181542 -0.056901,-0.329214 -0.182897,-0.443017 -0.1138025,-0.125995 -0.2614749,-0.182897 -0.4430171,-0.182897 -0.182897,0 -0.3305693,0.0569 -0.4443719,0.182897 -0.1138026,0.113803 -0.1815422,0.261475 -0.1815422,0.443017 0,0.273669 0.1246409,0.467404 0.3752775,0.58120601 0.2506366,0.113803 0.535143,0.170704 0.8304878,0.170704 0.4091473,0 0.8088111,-0.09213 1.1949269,-0.25063601 0.3752775,-0.170704 0.7166852,-0.410502 1.0242231,-0.716686 0.010838,-0.03522 0.023032,-0.0569 0.023032,-0.06909 0,-0.04471 -0.023032,-0.07993 -0.056901,-0.113803 -0.03387,-0.04471 -0.069094,-0.0569 -0.1029642,-0.0569"
     style="fill:#000000;fill-opacity:1;fill-rule:nonzero;stroke:none"
     id="path4044" /></g><g
   id="g4046"
   transform="matrix(0.4487915,0,0,0.4487915,10.022757,676.93713)"><path
     d="m -2.4160961,-0.62585409 c 0,-0.93345201 -0.3752775,-1.57020401 -1.1380257,-1.90077401 -0.7627481,-0.341407 -1.6731687,-0.499918 -2.7312616,-0.499918 -0.6597839,0 -1.2748597,0.0569 -1.8547108,0.181542 -0.5798512,0.113803 -1.0702861,0.352246 -1.4794334,0.716685 -0.4105024,0.352246 -0.6150754,0.85352 -0.6150754,1.50246501 0,0.501273 0.125995,0.910421 0.3644388,1.228797 0.2506366,0.318376 0.5581745,0.55817399 0.9442903,0.72887799 0.3874707,0.159866 0.8088111,0.272313 1.2518283,0.341408 0.4443719,0.0569 0.9117753,0.09077 1.3886622,0.09077 0.659784,0 1.2640214,-0.06909 1.8330342,-0.182897 0.5690128,-0.124641 1.0580929,-0.363084 1.4442088,-0.71668499 0.3874706,-0.352246 0.5920443,-0.853519 0.5920443,-1.490272 m -0.2845064,0 c 0,0.421341 -0.2167668,0.739717 -0.6475908,0.94429 -0.4335336,0.204574 -0.9117754,0.329215 -1.4347252,0.375278 -0.5229499,0.04606 -1.0933176,0.07993 -1.6840071,0.07993 -0.5690128,0 -1.0933175,-0.03387 -1.5702044,-0.07993 -0.4782418,-0.04606 -0.9226137,-0.170704 -1.3087295,-0.375278 -0.3874707,-0.204573 -0.5920443,-0.522949 -0.5920443,-0.94429 0,-0.43217901 0.2045736,-0.75191001 0.5920443,-0.95648301 0.3861158,-0.204574 0.8304877,-0.341408 1.3087295,-0.386116 0.4768869,-0.04606 1.0011916,-0.06909 1.5702044,-0.06909 0.4321788,0 0.8304878,0 1.194927,0.02303 0.3752775,0.02303 0.7627481,0.07993 1.1610571,0.170704 0.3969542,0.09077 0.7275236,0.227605 1.0011916,0.432178 0.2723133,0.193736 0.4091474,0.45521101 0.4091474,0.78578001"
     style="fill:#000000;fill-opacity:1;fill-rule:nonzero;stroke:none"
     id="path4048" /></g><text
   xml:space="preserve"
   style="font-size:6.4000001px;font-style:normal;font-variant:normal;font-weight:normal;font-stretch:normal;text-align:center;line-height:125%;writing-mode:lr-tb;text-anchor:middle;fill:#000000;fill-opacity:1;stroke:none;font-family:Helvetica Neue;-inkscape-font-specification:Helvetica Neue"
   x="686.51355"
   y="6.9718013"
   id="text9416"
   sodipodi:linespacing="125%"
   transform="matrix(0,1,1,0,0,0)"><tspan
     sodipodi:role="line"
     id="tspan9418"
     x="686.51355"
     y="6.9718013">(nm)</tspan></text>


</g><rect
   ry="0"
   rx="4.9077435"
   transform="scale(1,-1)"
   y="-701.92126"
   x="20.382097"
   height="42.412952"
   width="77.440186"
   id="rect9444"
   style="fill:none;stroke:#000000;stroke-width:0.75;stroke-linecap:square;stroke-linejoin:miter;stroke-miterlimit:4;stroke-opacity:1;stroke-dasharray:none;stroke-dashoffset:0;marker:none;visibility:visible;display:inline;overflow:visible;enable-background:accumulate" /><g
   transform="matrix(0.2943977,0,0,-0.2943977,-682.58565,1345.3375)"
   id="g13331"><text
   sodipodi:linespacing="125%"
   id="text13287"
   y="2352.3201"
   x="2388.918"
   style="font-size:21.73929977px;font-style:normal;font-variant:normal;font-weight:normal;font-stretch:normal;text-align:center;line-height:125%;writing-mode:lr-tb;text-anchor:middle;fill:#000000;fill-opacity:1;stroke:none;font-family:Helvetica Neue;-inkscape-font-specification:Helvetica Neue"
   xml:space="preserve"><tspan
     y="2352.3201"
     x="2388.918"
     id="tspan13289"
     sodipodi:role="line">0</tspan></text>


<text
   sodipodi:linespacing="125%"
   id="text13291"
   y="2352.3201"
   x="2454.1604"
   style="font-size:21.73929977px;font-style:normal;font-variant:normal;font-weight:normal;font-stretch:normal;text-align:center;line-height:125%;writing-mode:lr-tb;text-anchor:middle;fill:#000000;fill-opacity:1;stroke:none;font-family:Helvetica Neue;-inkscape-font-specification:Helvetica Neue"
   xml:space="preserve"><tspan
     y="2352.3201"
     x="2454.1604"
     id="tspan13293"
     sodipodi:role="line">5</tspan></text>


<text
   sodipodi:linespacing="125%"
   id="text13295"
   y="2352.3201"
   x="2519.8806"
   style="font-size:21.73929977px;font-style:normal;font-variant:normal;font-weight:normal;font-stretch:normal;text-align:center;line-height:125%;writing-mode:lr-tb;text-anchor:middle;fill:#000000;fill-opacity:1;stroke:none;font-family:Helvetica Neue;-inkscape-font-specification:Helvetica Neue"
   xml:space="preserve"><tspan
     y="2352.3201"
     x="2519.8806"
     id="tspan13297"
     sodipodi:role="line">10</tspan></text>


<text
   sodipodi:linespacing="125%"
   id="text13299"
   y="2352.3201"
   x="2586.1587"
   style="font-size:21.73929977px;font-style:normal;font-variant:normal;font-weight:normal;font-stretch:normal;text-align:center;line-height:125%;writing-mode:lr-tb;text-anchor:middle;fill:#000000;fill-opacity:1;stroke:none;font-family:Helvetica Neue;-inkscape-font-specification:Helvetica Neue"
   xml:space="preserve"><tspan
     y="2352.3201"
     x="2586.1587"
     id="tspan13301"
     sodipodi:role="line">15</tspan></text>


<text
   sodipodi:linespacing="125%"
   id="text13303"
   y="2352.3201"
   x="2650.7393"
   style="font-size:21.73929977px;font-style:normal;font-variant:normal;font-weight:normal;font-stretch:normal;text-align:center;line-height:125%;writing-mode:lr-tb;text-anchor:middle;fill:#000000;fill-opacity:1;stroke:none;font-family:Helvetica Neue;-inkscape-font-specification:Helvetica Neue"
   xml:space="preserve"><tspan
     y="2352.3201"
     x="2650.7393"
     id="tspan13305"
     sodipodi:role="line">20</tspan></text>


</g><g
   transform="matrix(0.2943977,0,0,-0.2943977,-682.25419,1345.5032)"
   id="g13369"><text
   sodipodi:linespacing="125%"
   id="text13353"
   y="2328.2881"
   x="2358.8093"
   style="font-size:21.73929977px;font-style:normal;font-variant:normal;font-weight:normal;font-stretch:normal;text-align:start;line-height:125%;writing-mode:lr-tb;text-anchor:start;fill:#000000;fill-opacity:1;stroke:none;font-family:Helvetica Neue;-inkscape-font-specification:Helvetica Neue"
   xml:space="preserve"><tspan
     y="2328.2881"
     x="2358.8093"
     id="tspan13355"
     sodipodi:role="line">38</tspan></text>


<text
   sodipodi:linespacing="125%"
   id="text13357"
   y="2289.1033"
   x="2358.2996"
   style="font-size:21.73929977px;font-style:normal;font-variant:normal;font-weight:normal;font-stretch:normal;text-align:start;line-height:125%;writing-mode:lr-tb;text-anchor:start;fill:#000000;fill-opacity:1;stroke:none;font-family:Helvetica Neue;-inkscape-font-specification:Helvetica Neue"
   xml:space="preserve"><tspan
     y="2289.1033"
     x="2358.2996"
     id="tspan13359"
     sodipodi:role="line">34</tspan></text>


<text
   sodipodi:linespacing="125%"
   id="text13361"
   y="2251.8611"
   x="2358.2996"
   style="font-size:21.73929977px;font-style:normal;font-variant:normal;font-weight:normal;font-stretch:normal;text-align:start;line-height:125%;writing-mode:lr-tb;text-anchor:start;fill:#000000;fill-opacity:1;stroke:none;font-family:Helvetica Neue;-inkscape-font-specification:Helvetica Neue"
   xml:space="preserve"><tspan
     y="2251.8611"
     x="2358.2996"
     id="tspan13363"
     sodipodi:role="line">30</tspan></text>


<text
   sodipodi:linespacing="125%"
   id="text13365"
   y="2212.0173"
   x="2358.4629"
   style="font-size:21.73929977px;font-style:normal;font-variant:normal;font-weight:normal;font-stretch:normal;text-align:start;line-height:125%;writing-mode:lr-tb;text-anchor:start;fill:#000000;fill-opacity:1;stroke:none;font-family:Helvetica Neue;-inkscape-font-specification:Helvetica Neue"
   xml:space="preserve"><tspan
     y="2212.0173"
     x="2358.4629"
     id="tspan13367"
     sodipodi:role="line">26</tspan></text>


</g><g
   id="g17709"><path
     d="m 20.381353,695.41873 1.631846,0"
     style="fill:none;stroke:#000000;stroke-width:0.75;stroke-linecap:butt;stroke-linejoin:round;stroke-miterlimit:10;stroke-opacity:1;stroke-dasharray:none"
     id="path3601" /><use
     height="3240"
     width="5400"
     transform="translate(-5.7984289e-7,-11.43585)"
     id="use13389"
     xlink:href="#path3601"
     y="0"
     x="0" /><use
     height="3240"
     width="5400"
     transform="translate(-5.7984289e-7,-22.871756)"
     id="use13391"
     xlink:href="#path3601"
     y="0"
     x="0" /><use
     height="3240"
     width="5400"
     transform="translate(-5.7984289e-7,-34.307437)"
     id="use13393"
     xlink:href="#path3601"
     y="0"
     x="0" /></g><g
   id="g17715"><use
     height="3240"
     width="5400"
     transform="matrix(0,1,-1,0,735.29882,639.1281)"
     id="use13395"
     xlink:href="#path3601"
     y="0"
     x="0" /><use
     height="3240"
     width="5400"
     transform="matrix(0,1,-1,0,754.79773,639.1281)"
     id="use13397"
     xlink:href="#path3601"
     y="0"
     x="0" /><use
     height="3240"
     width="5400"
     transform="matrix(0,1,-1,0,793.15532,639.1281)"
     id="use13399"
     xlink:href="#path3601"
     y="0"
     x="0" /><use
     height="3240"
     width="5400"
     transform="matrix(0,1,-1,0,774.2966,639.1281)"
     id="use13401"
     xlink:href="#path3601"
     y="0"
     x="0" /></g><text
   transform="scale(1,-1)"
   sodipodi:linespacing="125%"
   id="text15959"
   y="-645.46149"
   x="58.999222"
   style="font-size:6.4000001px;font-style:normal;font-variant:normal;font-weight:normal;font-stretch:normal;text-align:center;line-height:125%;writing-mode:lr-tb;text-anchor:middle;fill:#000000;fill-opacity:1;stroke:none;font-family:Helvetica Neue;-inkscape-font-specification:Helvetica Neue"
   xml:space="preserve"><tspan
     style="font-size:6.4000001px"
     y="-645.46149"
     x="58.999222"
     id="tspan15961"
     sodipodi:role="line">Axial Offset (nm)</tspan></text>


</g><text
   xml:space="preserve"
   style="font-size:9.59999999999999964;font-style:normal;font-variant:normal;font-weight:bold;font-stretch:normal;text-align:center;line-height:125%;writing-mode:lr-tb;text-anchor:middle;fill:#000000;fill-opacity:1;stroke:none;font-family:Helvetica Neue;-inkscape-font-specification:Helvetica Neue Bold"
   x="6.7629967"
   y="-707.31555"
   id="text15963"
   sodipodi:linespacing="125%"
   transform="scale(1,-1)"><tspan
     sodipodi:role="line"
     id="tspan15965"
     x="6.7629967"
     y="-707.31555">A</tspan></text>


<g
   id="g18440"
   transform="translate(-44.799588,1.6)"><g
   id="g6039"
   transform="matrix(0.4148528,0,0,0.4148528,42.669957,421.97385)"><g
     id="g6041"
     clip-path="url(#clipPath6043)"><g
       id="g6047"
       transform="translate(512.6396,410.3999)"><path
         d="m 0,0 0,9.435 0,65.389 0,18.776 4.681,0 0,-18.776 0,-65.389 L 4.681,0 0,0 z"
         style="fill:#ffffff;fill-opacity:1;fill-rule:nonzero;stroke:none"
         id="path6049" /></g><g
       id="g6051"
       transform="translate(512.6396,410.3999)"><path
         d="m 0,0 0,9.435 0,65.389 0,18.776 4.681,0 0,-18.776 0,-65.389 L 4.681,0 0,0"
         style="fill:none;stroke:#ffffff;stroke-width:0.01;stroke-linecap:square;stroke-linejoin:round;stroke-miterlimit:10;stroke-opacity:1;stroke-dasharray:none"
         id="path6053" /></g><path
       d="m 512.64,419.835 4.681,0 0,-9.435 -4.681,0 0,9.435 z"
       style="fill:#4444bb;fill-opacity:1;fill-rule:nonzero;stroke:#4444bb;stroke-width:1;stroke-linecap:butt;stroke-linejoin:round;stroke-miterlimit:10;stroke-opacity:1;stroke-dasharray:none"
       id="path6055" /><path
       d="m 512.64,429.176 4.681,0 0,-9.341 -4.681,0 0,9.341 z"
       style="fill:#2288ff;fill-opacity:1;fill-rule:nonzero;stroke:#2288ff;stroke-width:1;stroke-linecap:butt;stroke-linejoin:round;stroke-miterlimit:10;stroke-opacity:1;stroke-dasharray:none"
       id="path6057" /><path
       d="m 512.64,447.859 4.681,0 0,-18.683 -4.681,0 0,18.683 z"
       style="fill:#77dd55;fill-opacity:1;fill-rule:nonzero;stroke:#77dd55;stroke-width:1;stroke-linecap:butt;stroke-linejoin:round;stroke-miterlimit:10;stroke-opacity:1;stroke-dasharray:none"
       id="path6059" /><path
       d="m 512.64,466.542 4.681,0 0,-18.683 -4.681,0 0,18.683 z"
       style="fill:#ffdd44;fill-opacity:1;fill-rule:nonzero;stroke:#ffdd44;stroke-width:1;stroke-linecap:butt;stroke-linejoin:round;stroke-miterlimit:10;stroke-opacity:1;stroke-dasharray:none"
       id="path6061" /><path
       d="m 512.64,485.224 4.681,0 0,-18.683 -4.681,0 0,18.683 z"
       style="fill:#ff7722;fill-opacity:1;fill-rule:nonzero;stroke:#ff7722;stroke-width:1;stroke-linecap:butt;stroke-linejoin:round;stroke-miterlimit:10;stroke-opacity:1;stroke-dasharray:none"
       id="path6063" /><path
       d="m 512.64,504 4.681,0 0,-18.776 -4.681,0 0,18.776 z"
       style="fill:#ff4466;fill-opacity:1;fill-rule:nonzero;stroke:#ff4466;stroke-width:1;stroke-linecap:butt;stroke-linejoin:round;stroke-miterlimit:10;stroke-opacity:1;stroke-dasharray:none"
       id="path6065" /></g></g><path
   id="path6077"
   style="fill:none;stroke:#000000;stroke-width:0.41485277;stroke-linecap:square;stroke-linejoin:round;stroke-miterlimit:10;stroke-opacity:1;stroke-dasharray:none"
   d="m 255.33992,592.22938 0,3.91415 0,27.1268 0,7.78926 1.94192,0 0,-7.78926 0,-27.1268 0,-3.91415 -1.94192,0" /><path
   id="path6081"
   style="fill:none;stroke:#000000;stroke-width:0.20742638;stroke-linecap:butt;stroke-linejoin:round;stroke-miterlimit:10;stroke-opacity:1;stroke-dasharray:none"
   d="m 257.28172,592.26809 -1.65941,0" /><path
   id="path6101"
   style="fill:none;stroke:#000000;stroke-width:0.20742638;stroke-linecap:butt;stroke-linejoin:round;stroke-miterlimit:10;stroke-opacity:1;stroke-dasharray:none"
   d="m 257.28172,631.02095 -1.65941,0" /><text
   transform="scale(1,-1)"
   xml:space="preserve"
   style="font-size:5.5999999px;font-style:normal;font-variant:normal;font-weight:normal;font-stretch:normal;text-align:start;line-height:125%;writing-mode:lr-tb;text-anchor:start;fill:#000000;fill-opacity:1;stroke:none;font-family:Helvetica Neue;-inkscape-font-specification:Helvetica Neue"
   x="258.74066"
   y="-629.27118"
   id="text3289"
   sodipodi:linespacing="125%"><tspan
     sodipodi:role="line"
     id="tspan3291"
     x="258.74066"
     y="-629.27118">1000</tspan></text>


<text
   transform="scale(1,-1)"
   xml:space="preserve"
   style="font-size:5.5999999px;font-style:normal;font-variant:normal;font-weight:normal;font-stretch:normal;text-align:start;line-height:125%;writing-mode:lr-tb;text-anchor:start;fill:#000000;fill-opacity:1;stroke:none;font-family:Helvetica Neue;-inkscape-font-specification:Helvetica Neue"
   x="259.03778"
   y="-609.66241"
   id="text3293"
   sodipodi:linespacing="125%"><tspan
     sodipodi:role="line"
     id="tspan3295"
     x="259.03778"
     y="-609.66241">500</tspan></text>


<text
   transform="scale(1,-1)"
   xml:space="preserve"
   style="font-size:5.5999999px;font-style:normal;font-variant:normal;font-weight:normal;font-stretch:normal;text-align:start;line-height:125%;writing-mode:lr-tb;text-anchor:start;fill:#000000;fill-opacity:1;stroke:none;font-family:Helvetica Neue;-inkscape-font-specification:Helvetica Neue"
   x="258.88458"
   y="-590.43634"
   id="text3297"
   sodipodi:linespacing="125%"><tspan
     sodipodi:role="line"
     id="tspan3299"
     x="258.88458"
     y="-590.43634">0</tspan></text>


</g><text
   transform="matrix(0,1,1,0,0,0)"
   sodipodi:linespacing="125%"
   id="text3301"
   y="231.8775"
   x="612.30902"
   style="font-size:6.4000001px;font-style:normal;font-variant:normal;font-weight:normal;font-stretch:normal;text-align:center;line-height:125%;writing-mode:lr-tb;text-anchor:middle;fill:#000000;fill-opacity:1;stroke:none;font-family:Helvetica Neue;-inkscape-font-specification:Helvetica Neue"
   xml:space="preserve"><tspan
     y="231.8775"
     x="612.30902"
     id="tspan3303"
     sodipodi:role="line">Binding Rate</tspan></text>


<text
   xml:space="preserve"
   style="font-size:9.59999999999999964;font-style:normal;font-variant:normal;font-weight:bold;font-stretch:normal;text-align:center;line-height:125%;writing-mode:lr-tb;text-anchor:middle;fill:#000000;fill-opacity:1;stroke:none;font-family:Helvetica Neue;-inkscape-font-specification:Helvetica Neue Bold"
   x="113.53285"
   y="-706.55591"
   id="text17681"
   sodipodi:linespacing="125%"
   transform="scale(1,-1)"><tspan
     sodipodi:role="line"
     id="tspan17683"
     x="113.53285"
     y="-706.55591">B</tspan></text>


<text
   xml:space="preserve"
   style="font-size:9.59999999999999964;font-style:normal;font-variant:normal;font-weight:bold;font-stretch:normal;text-align:center;line-height:125%;writing-mode:lr-tb;text-anchor:middle;fill:#000000;fill-opacity:1;stroke:none;font-family:Helvetica Neue;-inkscape-font-specification:Helvetica Neue Bold"
   x="6.8874216"
   y="-634.47827"
   id="text17685"
   sodipodi:linespacing="125%"
   transform="scale(1,-1)"><tspan
     sodipodi:role="line"
     id="tspan17687"
     x="6.8874216"
     y="-634.47827">C</tspan></text>


<text
   xml:space="preserve"
   style="font-size:9.59999999999999964;font-style:normal;font-variant:normal;font-weight:bold;font-stretch:normal;text-align:center;line-height:125%;writing-mode:lr-tb;text-anchor:middle;fill:#000000;fill-opacity:1;stroke:none;font-family:Helvetica Neue;-inkscape-font-specification:Helvetica Neue Bold"
   x="113.34009"
   y="-634.28613"
   id="text17689"
   sodipodi:linespacing="125%"
   transform="scale(1,-1)"><tspan
     sodipodi:role="line"
     id="tspan17691"
     x="113.34009"
     y="-634.28613">D</tspan></text>


<text
   xml:space="preserve"
   style="font-size:9.59999999999999964;font-style:normal;font-variant:normal;font-weight:bold;font-stretch:normal;text-align:center;line-height:125%;writing-mode:lr-tb;text-anchor:middle;fill:#000000;fill-opacity:1;stroke:none;font-family:Helvetica Neue;-inkscape-font-specification:Helvetica Neue Bold"
   x="7.4735847"
   y="-562.31714"
   id="text17693"
   sodipodi:linespacing="125%"
   transform="scale(1,-1)"><tspan
     sodipodi:role="line"
     id="tspan17695"
     x="7.4735847"
     y="-562.31714">E</tspan></text>


<text
   xml:space="preserve"
   style="font-size:9.59999999999999964;font-style:normal;font-variant:normal;font-weight:bold;font-stretch:normal;text-align:center;line-height:125%;writing-mode:lr-tb;text-anchor:middle;fill:#000000;fill-opacity:1;stroke:none;font-family:Helvetica Neue;-inkscape-font-specification:Helvetica Neue Bold"
   x="113.95101"
   y="-562.39673"
   id="text17697"
   sodipodi:linespacing="125%"
   transform="scale(1,-1)"><tspan
     sodipodi:role="line"
     id="tspan17699"
     x="113.95101"
     y="-562.39673">F</tspan></text>


<text
   xml:space="preserve"
   style="font-size:9.59999999999999964;font-style:normal;font-variant:normal;font-weight:bold;font-stretch:normal;text-align:center;line-height:125%;writing-mode:lr-tb;text-anchor:middle;fill:#000000;fill-opacity:1;stroke:none;font-family:Helvetica Neue;-inkscape-font-specification:Helvetica Neue Bold"
   x="6.9272337"
   y="-490.87466"
   id="text17701"
   sodipodi:linespacing="125%"
   transform="scale(1,-1)"><tspan
     sodipodi:role="line"
     id="tspan17703"
     x="6.9272337"
     y="-490.87466">G</tspan></text>


<text
   xml:space="preserve"
   style="font-size:9.59999999999999964;font-style:normal;font-variant:normal;font-weight:bold;font-stretch:normal;text-align:center;line-height:125%;writing-mode:lr-tb;text-anchor:middle;fill:#000000;fill-opacity:1;stroke:none;font-family:Helvetica Neue;-inkscape-font-specification:Helvetica Neue Bold"
   x="113.69586"
   y="-490.20721"
   id="text17705"
   sodipodi:linespacing="125%"
   transform="scale(1,-1)"><tspan
     sodipodi:role="line"
     id="tspan17707"
     x="113.69586"
     y="-490.20721">H</tspan></text>


<use
   x="0"
   y="0"
   xlink:href="#g17721"
   id="use17767"
   transform="translate(105.6,0)"
   width="292.5"
   height="495" /><use
   x="0"
   y="0"
   xlink:href="#g17721"
   id="use18397"
   transform="translate(0,-72)"
   width="292.5"
   height="495" /><use
   x="0"
   y="0"
   xlink:href="#g17721"
   id="use18399"
   transform="translate(0,-144)"
   width="292.5"
   height="495" /><use
   x="0"
   y="0"
   xlink:href="#g17721"
   id="use18401"
   transform="translate(0,-216)"
   width="292.5"
   height="495" /><use
   x="0"
   y="0"
   xlink:href="#g17721"
   id="use18403"
   transform="translate(105.6,-72)"
   width="292.5"
   height="495" /><use
   x="0"
   y="0"
   xlink:href="#g17721"
   id="use18405"
   transform="translate(105.6,-144)"
   width="292.5"
   height="495" /><use
   x="0"
   y="0"
   xlink:href="#g17721"
   id="use18407"
   transform="translate(105.6,-216)"
   width="292.5"
   height="495" /><use
   x="0"
   y="0"
   xlink:href="#g18440"
   id="use18463"
   transform="translate(0,-71.337088)"
   width="292.5"
   height="495" /><text
   xml:space="preserve"
   style="font-size:6.4000001px;font-style:normal;font-variant:normal;font-weight:normal;font-stretch:normal;text-align:center;line-height:125%;writing-mode:lr-tb;text-anchor:middle;fill:#000000;fill-opacity:1;stroke:none;font-family:Helvetica Neue;-inkscape-font-specification:Helvetica Neue"
   x="540.97186"
   y="231.8775"
   id="text18465"
   sodipodi:linespacing="125%"
   transform="matrix(0,1,1,0,0,0)"><tspan
     sodipodi:role="line"
     id="tspan18467"
     x="540.97186"
     y="231.8775">Powerstroke Rate</tspan></text>


<use
   x="0"
   y="0"
   xlink:href="#g18440"
   id="use18469"
   transform="translate(0,-143.33708)"
   width="292.5"
   height="495" /><text
   xml:space="preserve"
   style="font-size:6.4000001px;font-style:normal;font-variant:normal;font-weight:normal;font-stretch:normal;text-align:center;line-height:125%;writing-mode:lr-tb;text-anchor:middle;fill:#000000;fill-opacity:1;stroke:none;font-family:Helvetica Neue;-inkscape-font-specification:Helvetica Neue"
   x="468.97195"
   y="231.8775"
   id="text18471"
   sodipodi:linespacing="125%"
   transform="matrix(0,1,1,0,0,0)"><tspan
     sodipodi:role="line"
     id="tspan18473"
     x="468.97195"
     y="231.8775">Detachment Rate</tspan></text>


</g></svg>