<?xml version="1.0" encoding="UTF-8" standalone="no"?>
<!-- Created with Inkscape (http://www.inkscape.org/) -->

<svg
   xmlns:i="http://ns.adobe.com/AdobeIllustrator/10.0/"
   xmlns:dc="http://purl.org/dc/elements/1.1/"
   xmlns:cc="http://creativecommons.org/ns#"
   xmlns:rdf="http://www.w3.org/1999/02/22-rdf-syntax-ns#"
   xmlns:svg="http://www.w3.org/2000/svg"
   xmlns="http://www.w3.org/2000/svg"
   xmlns:xlink="http://www.w3.org/1999/xlink"
   xmlns:sodipodi="http://sodipodi.sourceforge.net/DTD/sodipodi-0.dtd"
   xmlns:inkscape="http://www.inkscape.org/namespaces/inkscape"
   width="294.09448"
   height="212.59842"
   id="svg2"
   sodipodi:version="0.32"
   inkscape:version="0.47 r22583"
   version="1.0"
   sodipodi:docname="FigureS2.svg"
   inkscape:output_extension="org.inkscape.output.svg.inkscape"
   inkscape:export-filename="/Users/dave/code/singlexb/imgs/Figure1.tiff.png"
   inkscape:export-xdpi="600"
   inkscape:export-ydpi="600">
  <defs
     id="defs4" />
  <sodipodi:namedview
     id="base"
     pagecolor="#ffffff"
     bordercolor="#666666"
     borderopacity="1.0"
     gridtolerance="10000"
     guidetolerance="10"
     objecttolerance="10"
     inkscape:pageopacity="0.0"
     inkscape:pageshadow="2"
     inkscape:zoom="1.6970563"
     inkscape:cx="240.29866"
     inkscape:cy="146.23858"
     inkscape:document-units="cm"
     inkscape:current-layer="layer1"
     showgrid="false"
     units="cm"
     inkscape:window-width="1680"
     inkscape:window-height="1028"
     inkscape:window-x="325"
     inkscape:window-y="0"
     showguides="false"
     inkscape:guide-bbox="true"
     inkscape:window-maximized="0">
    <inkscape:grid
       type="xygrid"
       id="grid2387"
       visible="true"
       enabled="true"
       units="cm"
       empspacing="5"
       snapvisiblegridlinesonly="true" />
  </sodipodi:namedview>
  <metadata
     id="metadata7">
    <rdf:RDF>
      <cc:Work
         rdf:about="">
        <dc:format>image/svg+xml</dc:format>
        <dc:type
           rdf:resource="http://purl.org/dc/dcmitype/StillImage" />
        <dc:title></dc:title>
      </cc:Work>
    </rdf:RDF>
  </metadata>
  <g
     inkscape:groupmode="layer"
     id="layer8"
     inkscape:label="Background"
     transform="translate(0,-192.40089)"
     sodipodi:insensitive="true"
     style="display:none">
    <rect
       style="fill:#ffffff;fill-opacity:1;stroke:none"
       id="rect3384"
       width="294.09448"
       height="407.48032"
       x="0"
       y="-2.4803085" />
  </g>
  <g
     inkscape:groupmode="layer"
     id="layer5"
     inkscape:label="XB Proteins"
     style="display:inline"
     transform="translate(0,-192.40089)">
    <g
       id="g3600"
       transform="translate(42,110)">
      <image
         sodipodi:absref="/Users/dave/code/singlexb/imgs/./1QVI.png"
         xlink:href="./1QVI.png"
         transform="matrix(0.9364402,0.3508272,-0.3508272,0.9364402,0,0)"
         width="47.095367"
         height="47.095367"
         id="image5333"
         x="87.962837"
         y="92.601791"
         style="display:inline" />
      <path
         id="path2780"
         d="M 49.217415,122.74976 19.172418,111.76947"
         style="fill:none;stroke:#ff5555;stroke-width:2;stroke-linecap:butt;stroke-linejoin:miter;stroke-miterlimit:4;stroke-opacity:1;stroke-dasharray:none" />
    </g>
    <g
       id="g3586"
       transform="translate(34,110)">
      <image
         sodipodi:absref="/Users/dave/code/singlexb/imgs/./1QVI.png"
         xlink:href="./1QVI.png"
         transform="matrix(0.9364402,0.3508272,-0.3508272,0.9364402,0,0)"
         width="47.095367"
         height="47.095367"
         id="image3562"
         x="170.18552"
         y="61.797951"
         style="display:inline" />
      <path
         inkscape:label="#path3564"
         id="2sXB_S2"
         d="M 137.02087,122.74976 106.97588,111.76947"
         style="fill:none;stroke:#ff5555;stroke-width:2;stroke-linecap:butt;stroke-linejoin:miter;stroke-miterlimit:4;stroke-opacity:1;stroke-dasharray:none" />
    </g>
    <g
       id="g3590"
       transform="translate(26,110)">
      <image
         sodipodi:absref="/Users/dave/code/singlexb/imgs/./1QVI.png"
         xlink:href="./1QVI.png"
         transform="matrix(0.9364402,0.3508272,-0.3508272,0.9364402,0,0)"
         width="47.095367"
         height="47.095367"
         id="image3568"
         x="252.40819"
         y="30.994123"
         style="display:inline" />
      <path
         inkscape:label="#path3570"
         id="4sXB_S2"
         d="m 224.8243,122.74976 -30.045,-10.98029"
         style="fill:none;stroke:#ff5555;stroke-width:2;stroke-linecap:butt;stroke-linejoin:miter;stroke-miterlimit:4;stroke-opacity:1;stroke-dasharray:none" />
    </g>
    <text
       xml:space="preserve"
       style="font-size:11px;font-style:normal;font-variant:normal;font-weight:bold;font-stretch:normal;text-align:center;text-anchor:middle;fill:#000000;fill-opacity:1;stroke:none;font-family:Helvetica Neue;-inkscape-font-specification:Bitstream Vera Sans Bold"
       x="-249.40018"
       y="17.364222"
       id="text3601"
       transform="matrix(0,-1,1,0,0,0)"><tspan
         sodipodi:role="line"
         id="tspan3603"
         x="-249.40018"
         y="17.364222">Pre-</tspan><tspan
         sodipodi:role="line"
         x="-249.40018"
         y="31.11422"
         id="tspan3611">power stroke</tspan></text>
    <text
       xml:space="preserve"
       style="font-size:11px;font-style:normal;font-variant:normal;font-weight:bold;font-stretch:normal;text-align:center;text-anchor:middle;fill:#000000;fill-opacity:1;stroke:none;font-family:Helvetica Neue;-inkscape-font-specification:Bitstream Vera Sans Bold"
       x="-356.55948"
       y="17.170242"
       id="text3605"
       transform="matrix(0,-1,1,0,0,0)"><tspan
         sodipodi:role="line"
         id="tspan3607"
         x="-356.55948"
         y="17.170242">Post-</tspan><tspan
         sodipodi:role="line"
         x="-356.55948"
         y="30.920242"
         id="tspan3609">power stroke</tspan></text>
  </g>
  <g
     inkscape:groupmode="layer"
     id="layer4"
     inkscape:label="Spring Diagrams"
     style="display:inline"
     transform="translate(0,-192.40089)">
    <path
       style="fill:none;stroke:#c83737;stroke-width:4;stroke-linecap:butt;stroke-linejoin:miter;stroke-opacity:1"
       d="m 53.95812,221.70421 58.53659,0"
       id="path2383"
       sodipodi:nodetypes="cc" />
    <path
       style="fill:none;stroke:#000000;stroke-width:3;stroke-linecap:butt;stroke-linejoin:miter;stroke-opacity:1"
       d="m 61.2752,221.70421 0,25.95122 13.85365,0 2.34146,-2.92683 4.68293,5.85366 4.68292,-5.85366 4.68292,5.85366 4.68292,-5.85366 2.34147,2.92683 13.1489,0 0,25.95122"
       id="path2389"
       sodipodi:nodetypes="ccccccccccc" />
    <path
       sodipodi:type="arc"
       style="fill:#000000;stroke:#000000;stroke-width:0.68333334;stroke-miterlimit:4;stroke-opacity:1;stroke-dasharray:none"
       id="path2391"
       sodipodi:cx="10.5"
       sodipodi:cy="27.5"
       sodipodi:rx="0.5"
       sodipodi:ry="0.5"
       d="m 11,27.5 a 0.5,0.5 0 1 1 -1,0 0.5,0.5 0 1 1 1,0 z"
       transform="matrix(4.4304848,0,0,4.4304848,65.09397,152.50002)" />
    <path
       style="fill:none;stroke:#c83737;stroke-width:4;stroke-linecap:butt;stroke-linejoin:miter;stroke-miterlimit:4;stroke-opacity:1;stroke-dasharray:none"
       d="m 134.2381,221.70421 58.53659,0"
       id="path3163"
       sodipodi:nodetypes="cc" />
    <g
       id="g13574"
       transform="translate(120,2)">
      <path
         inkscape:transform-center-y="17.005809"
         inkscape:transform-center-x="-25.402306"
         sodipodi:nodetypes="cccccccccccc"
         id="path3165"
         d="m 26.59876,223.42288 2.44726,1.60538 6.11816,4.01344 4.85532,-2.06552 0.0784,10.55254 9.71065,-4.13103 0.0784,10.55254 9.71066,-4.13104 0.0392,5.27627 6.11816,4.01345 5.45899,3.60537 0,17.79719"
         style="fill:none;stroke:#000000;stroke-width:2.5;stroke-linecap:butt;stroke-linejoin:miter;stroke-miterlimit:4;stroke-opacity:1;stroke-dasharray:none" />
      <path
         inkscape:transform-center-y="31.86695"
         inkscape:transform-center-x="-49.197702"
         transform="matrix(3.9567459,-1.9931158,1.9931158,3.9567459,-25.160626,184.04692)"
         d="M 11,27.5 C 11,27.776142 10.776142,28 10.5,28 10.223858,28 10,27.776142 10,27.5 10,27.223858 10.223858,27 10.5,27 c 0.276142,0 0.5,0.223858 0.5,0.5 z"
         sodipodi:ry="0.5"
         sodipodi:rx="0.5"
         sodipodi:cy="27.5"
         sodipodi:cx="10.5"
         id="path3167"
         style="fill:#000000;stroke:#000000;stroke-width:0.68333334;stroke-miterlimit:4;stroke-opacity:1;stroke-dasharray:none"
         sodipodi:type="arc" />
      <path
         inkscape:transform-center-y="-0.010640699"
         inkscape:transform-center-x="-0.63554523"
         transform="matrix(-0.5849544,-1.341421,1.341421,-0.5849544,41.96303,321.89978)"
         d="m 69,15 c 0.648658,0.648659 -0.364705,1.168996 -0.946061,0.94606 -0.991579,-0.380247 -1.099711,-1.682251 -0.590818,-2.48294 0.772201,-1.214978 2.479182,-1.319119 3.578165,-0.504405 1.441112,1.068346 1.538991,3.182628 0.455382,4.537954 -1.326407,1.659006 -3.826091,1.751302 -5.415425,0.422087 -0.38967,-0.325894 -0.717352,-0.724119 -0.964661,-1.167704"
         sodipodi:t0="0"
         sodipodi:argument="-18.064157"
         sodipodi:radius="4.259944"
         sodipodi:revolution="1.3075809"
         sodipodi:expansion="0.69999999"
         sodipodi:cy="15"
         sodipodi:cx="69"
         id="path3169"
         style="fill:none;stroke:#000000;stroke-width:1.70833349;stroke-linecap:butt;stroke-linejoin:miter;stroke-miterlimit:4;stroke-opacity:1;stroke-dasharray:none"
         sodipodi:type="spiral" />
    </g>
    <path
       style="fill:none;stroke:#c83737;stroke-width:4;stroke-linecap:butt;stroke-linejoin:miter;stroke-opacity:1"
       d="m 214.51809,221.70421 58.53658,0"
       id="path3171"
       sodipodi:nodetypes="cc" />
    <text
       xml:space="preserve"
       style="font-size:7.9999752px;font-style:normal;font-variant:normal;font-weight:normal;font-stretch:normal;fill:#000000;fill-opacity:1;stroke:none;font-family:Helvetica Neue;-inkscape-font-specification:Helvetica Neue"
       x="152.41714"
       y="187.07167"
       id="text4962"
       transform="matrix(0.93972564,0.34192941,-0.34192941,0.93972564,0,0)"><tspan
         sodipodi:role="line"
         id="tspan4964"
         x="152.41714"
         y="187.07167"
         style="font-size:6px">S2</tspan></text>
    <text
       xml:space="preserve"
       style="font-size:7px;font-style:normal;font-variant:normal;font-weight:normal;font-stretch:normal;text-align:center;text-anchor:middle;fill:#000000;fill-opacity:1;stroke:none;font-family:Helvetica Neue;-inkscape-font-specification:Helvetica Neue"
       x="85.142937"
       y="219.7243"
       id="text4966"><tspan
         sodipodi:role="line"
         id="tspan4968"
         x="85.142937"
         y="219.7243">Thick Filament</tspan></text>
    <g
       id="g13561"
       transform="translate(200,-108)">
      <path
         inkscape:transform-center-y="24.366788"
         inkscape:transform-center-x="-20.960375"
         transform="matrix(3.9649663,-1.9769263,1.9769263,3.9649663,-24.71375,293.54079)"
         d="M 11,27.5 C 11,27.776142 10.776142,28 10.5,28 10.223858,28 10,27.776142 10,27.5 10,27.223858 10.223858,27 10.5,27 c 0.276142,0 0.5,0.223858 0.5,0.5 z"
         sodipodi:ry="0.5"
         sodipodi:rx="0.5"
         sodipodi:cy="27.5"
         sodipodi:cx="10.5"
         id="path3175"
         style="fill:#000000;stroke:#000000;stroke-width:0.68333334;stroke-miterlimit:4;stroke-opacity:1;stroke-dasharray:none"
         sodipodi:type="arc" />
      <path
         inkscape:transform-center-y="3.3390462"
         inkscape:transform-center-x="-9.5451"
         sodipodi:nodetypes="ccccccccccc"
         id="path3177"
         d="m 24.71371,331.53698 4.43454,1.51604 2.77517,0.94874 1.67929,-1.2856 1.08165,4.08918 3.3586,-2.57119 1.08164,4.08917 3.35861,-2.5712 0.54082,2.04459 2.77515,0.94874 4.54052,1.56901"
         style="fill:none;stroke:#000000;stroke-width:2;stroke-linecap:butt;stroke-linejoin:miter;stroke-opacity:1" />
      <path
         inkscape:transform-center-y="-0.27140504"
         inkscape:transform-center-x="-0.67912022"
         transform="matrix(-0.6531887,-0.8375169,0.8375169,-0.6531887,53.39876,398.1867)"
         d="m 69,15 c 0.648658,0.648659 -0.364705,1.168997 -0.946061,0.94606 -0.991579,-0.380247 -1.099711,-1.682251 -0.590818,-2.48294 0.772201,-1.214978 2.479183,-1.319119 3.578165,-0.504405 1.441112,1.068346 1.538991,3.182628 0.455382,4.537954 -1.326407,1.659006 -3.826091,1.751302 -5.415426,0.422087 -0.37212,-0.311217 -0.687827,-0.688429 -0.930834,-1.10817"
         sodipodi:t0="0"
         sodipodi:argument="-18.064157"
         sodipodi:radius="4.2541256"
         sodipodi:revolution="1.3050302"
         sodipodi:expansion="0.69999999"
         sodipodi:cy="15"
         sodipodi:cx="69"
         id="path3179"
         style="fill:none;stroke:#000000;stroke-width:1.88303387;stroke-linecap:butt;stroke-linejoin:miter;stroke-opacity:1"
         sodipodi:type="spiral" />
      <path
         inkscape:transform-center-y="20.089382"
         inkscape:transform-center-x="-8.8883293"
         sodipodi:nodetypes="cccccccccccc"
         id="path3181"
         d="m 52.56788,343.59507 3.10542,3.50996 1.94339,2.19656 2.09531,-0.28744 -1.08115,4.08932 4.19057,-0.57483 -1.08113,4.0893 4.19057,-0.57484 -0.54058,2.04465 1.9434,2.19656 3.93586,4.54803 0,19.19544"
         style="fill:none;stroke:#000000;stroke-width:2;stroke-linecap:butt;stroke-linejoin:miter;stroke-opacity:1" />
      <path
         inkscape:transform-center-y="0.54203278"
         inkscape:transform-center-x="-0.13279635"
         transform="matrix(-0.153796,-1.0509218,1.0509218,-0.153796,44.63502,415.54134)"
         d="m 69,15 c 0.648659,0.648659 -0.364705,1.168997 -0.946061,0.94606 -0.991579,-0.380247 -1.099711,-1.682252 -0.590819,-2.482941 0.772201,-1.214977 2.479184,-1.319119 3.578167,-0.504405 1.441112,1.068346 1.538991,3.182629 0.455382,4.537956 -1.326407,1.659006 -3.826092,1.751302 -5.415427,0.422087 -0.419362,-0.350727 -0.766665,-0.785148 -1.01966,-1.269602"
         sodipodi:t0="0"
         sodipodi:argument="-18.064157"
         sodipodi:radius="4.2697597"
         sodipodi:revolution="1.3118867"
         sodipodi:expansion="0.69999999"
         sodipodi:cy="15"
         sodipodi:cx="69"
         id="path3183"
         style="fill:none;stroke:#000000;stroke-width:1.88303387;stroke-linecap:butt;stroke-linejoin:miter;stroke-opacity:1;display:inline"
         sodipodi:type="spiral" />
    </g>
    <text
       id="text3171"
       y="265.7243"
       x="72.241837"
       style="font-size:6px;font-style:normal;font-variant:normal;font-weight:normal;font-stretch:normal;fill:#000000;fill-opacity:1;stroke:none;font-family:Helvetica Neue;-inkscape-font-specification:Helvetica Neue"
       xml:space="preserve"><tspan
         y="265.7243"
         x="72.241837"
         id="tspan3173"
         sodipodi:role="line"
         style="font-size:7px;text-align:center;text-anchor:middle">M-line</tspan></text>
    <path
       style="fill:none;stroke:#000000;stroke-width:1.5;stroke-linecap:butt;stroke-linejoin:miter;stroke-opacity:1"
       d="m 82.89565,267.76343 -21.48082,0"
       id="path105" />
    <path
       sodipodi:type="star"
       style="fill:#000000;fill-opacity:1;stroke:none"
       id="path3178"
       sodipodi:sides="3"
       sodipodi:cx="20.249998"
       sodipodi:cy="174.07896"
       sodipodi:r1="2.9247842"
       sodipodi:r2="1.462392"
       sodipodi:arg1="1.0471976"
       sodipodi:arg2="2.0943951"
       inkscape:flatsided="false"
       inkscape:rounded="0"
       inkscape:randomized="0"
       d="m 21.71239,176.6119 -2.193588,-1.26647 -2.193588,-1.26647 2.193588,-1.26646 2.193588,-1.26647 0,2.53293 0,2.53294 z"
       transform="matrix(0.95505334,0,0,0.94004033,40.64068,104.12218)" />
    <path
       sodipodi:nodetypes="cc"
       id="path3190"
       d="m 214.51809,329.70421 58.53658,0"
       style="fill:none;stroke:#c83737;stroke-width:4;stroke-linecap:butt;stroke-linejoin:miter;stroke-opacity:1" />
    <g
       transform="translate(200,0)"
       id="g3176">
      <path
         sodipodi:type="arc"
         style="fill:#000000;stroke:#000000;stroke-width:0.68333334;stroke-miterlimit:4;stroke-opacity:1;stroke-dasharray:none"
         id="path3180"
         sodipodi:cx="10.5"
         sodipodi:cy="27.5"
         sodipodi:rx="0.5"
         sodipodi:ry="0.5"
         d="M 11,27.5 C 11,27.776142 10.776142,28 10.5,28 10.223858,28 10,27.776142 10,27.5 10,27.223858 10.223858,27 10.5,27 c 0.276142,0 0.5,0.223858 0.5,0.5 z"
         transform="matrix(3.9649663,-1.9769263,1.9769263,3.9649663,-55.920603,304.12896)"
         inkscape:transform-center-x="-20.960375"
         inkscape:transform-center-y="24.366788" />
      <path
         style="fill:none;stroke:#000000;stroke-width:2;stroke-linecap:butt;stroke-linejoin:miter;stroke-opacity:1"
         d="m 24.71371,331.53698 4.43454,1.51604 2.77517,0.94874 1.67929,-1.2856 1.08165,4.08918 3.3586,-2.57119 1.08164,4.08917 3.35861,-2.5712 0.54082,2.04459 2.77515,0.94874 4.54052,1.56901"
         id="path3182"
         sodipodi:nodetypes="ccccccccccc"
         inkscape:transform-center-x="-16.211767"
         inkscape:transform-center-y="5.4223795" />
      <path
         sodipodi:type="spiral"
         style="fill:none;stroke:#000000;stroke-width:1.88303387;stroke-linecap:butt;stroke-linejoin:miter;stroke-opacity:1"
         id="path3184"
         sodipodi:cx="69"
         sodipodi:cy="15"
         sodipodi:expansion="0.69999999"
         sodipodi:revolution="1.3050302"
         sodipodi:radius="4.2541256"
         sodipodi:argument="-18.064157"
         sodipodi:t0="0"
         d="m 69,15 c 0.648658,0.648659 -0.364705,1.168997 -0.946061,0.94606 -0.991579,-0.380247 -1.099711,-1.682251 -0.590818,-2.48294 0.772201,-1.214978 2.479183,-1.319119 3.578165,-0.504405 1.441112,1.068346 1.538991,3.182628 0.455382,4.537954 -1.326407,1.659006 -3.826091,1.751302 -5.415426,0.422087 -0.37212,-0.311217 -0.687827,-0.688429 -0.930834,-1.10817"
         transform="matrix(-0.6531887,-0.8375169,0.8375169,-0.6531887,53.39876,398.1867)"
         inkscape:transform-center-x="-0.23130559"
         inkscape:transform-center-y="-0.61319592" />
      <path
         id="path3186"
         style="fill:none;stroke:#000000;stroke-width:2;stroke-linecap:butt;stroke-linejoin:miter;stroke-opacity:1"
         d="m 39.989443,390.09638 0.002,-19.20314 1.972779,-5.69027 0.930577,-2.78132 2.041009,-0.55417 -2.593111,-3.34172 4.082003,-1.10836 -2.593103,-3.34173 4.08203,-1.10835 -1.296585,-1.67087 0.930582,-2.78131 1.487004,-4.44435"
         sodipodi:nodetypes="cccccccccccc"
         inkscape:transform-center-x="3.5416667"
         inkscape:transform-center-y="22.5" />
      <path
         sodipodi:type="spiral"
         style="fill:none;stroke:#000000;stroke-width:1.88303387;stroke-linecap:butt;stroke-linejoin:miter;stroke-opacity:1;display:inline"
         id="path3188"
         sodipodi:cx="69"
         sodipodi:cy="15"
         sodipodi:expansion="0.69999999"
         sodipodi:revolution="1.3118867"
         sodipodi:radius="4.2697597"
         sodipodi:argument="-18.064157"
         sodipodi:t0="0"
         d="m 69,15 c 0.648659,0.648659 -0.364705,1.168997 -0.946061,0.94606 -0.991579,-0.380247 -1.099711,-1.682252 -0.590819,-2.482941 0.772201,-1.214977 2.479184,-1.319119 3.578167,-0.504405 1.441112,1.068346 1.538991,3.182629 0.455382,4.537956 -1.326407,1.659006 -3.826092,1.751302 -5.415427,0.422087 -0.419362,-0.350727 -0.766665,-0.785148 -1.01966,-1.269602"
         transform="matrix(0.83322698,-0.65865214,0.65865214,0.83322698,-17.239099,373.17386)"
         inkscape:transform-center-x="0.23414911"
         inkscape:transform-center-y="0.10050126" />
    </g>
    <path
       sodipodi:nodetypes="cc"
       id="path3307"
       d="m 134.2381,329.70421 58.53659,0"
       style="fill:none;stroke:#c83737;stroke-width:4;stroke-linecap:butt;stroke-linejoin:miter;stroke-miterlimit:4;stroke-opacity:1;stroke-dasharray:none" />
    <g
       transform="matrix(0.70480065,0.59139797,-0.59139797,0.70480065,256.42153,161.28244)"
       id="g3310"
       inkscape:transform-center-x="-4.9298905"
       inkscape:transform-center-y="32.703784">
      <path
         id="path3312"
         style="fill:none;stroke:#000000;stroke-width:2.71723795;stroke-linecap:butt;stroke-linejoin:miter;stroke-miterlimit:4;stroke-opacity:1;stroke-dasharray:none"
         d="m 26.598765,223.42286 1.871273,1.25391 4.678189,3.13478 3.641925,-1.50562 0.201243,8.02688 7.283856,-3.01123 0.201243,8.02688 7.283864,-3.01124 0.100622,4.01344 4.67819,3.13479 4.179932,2.81298 13.171526,15.68965"
         sodipodi:nodetypes="cccccccccccc" />
      <path
         sodipodi:type="arc"
         style="fill:#000000;stroke:#000000;stroke-width:0.74271172;stroke-miterlimit:4;stroke-opacity:1;stroke-dasharray:none"
         id="path3314"
         sodipodi:cx="10.5"
         sodipodi:cy="27.5"
         sodipodi:rx="0.5"
         sodipodi:ry="0.5"
         d="M 11,27.5 C 11,27.776142 10.776142,28 10.5,28 10.223858,28 10,27.776142 10,27.5 10,27.223858 10.223858,27 10.5,27 c 0.276142,0 0.5,0.223858 0.5,0.5 z"
         transform="matrix(1.7498932,-4.0701626,4.0701626,1.7498932,-54.39005,258.9486)"
         inkscape:transform-center-x="-58.171311"
         inkscape:transform-center-y="-7.2121718" />
      <path
         sodipodi:type="spiral"
         style="fill:none;stroke:#000000;stroke-width:1.85677946;stroke-linecap:butt;stroke-linejoin:miter;stroke-miterlimit:4;stroke-opacity:1;stroke-dasharray:none"
         id="path3316"
         sodipodi:cx="69"
         sodipodi:cy="15"
         sodipodi:expansion="0.69999999"
         sodipodi:revolution="1.3075809"
         sodipodi:radius="4.259944"
         sodipodi:argument="-18.064157"
         sodipodi:t0="0"
         d="m 69,15 c 0.648658,0.648659 -0.364705,1.168996 -0.946061,0.94606 -0.991579,-0.380247 -1.099711,-1.682251 -0.590818,-2.48294 0.772201,-1.214978 2.479182,-1.319119 3.578165,-0.504405 1.441112,1.068346 1.538991,3.182628 0.455382,4.537954 -1.326407,1.659006 -3.826091,1.751302 -5.415425,0.422087 -0.38967,-0.325894 -0.717352,-0.724119 -0.964661,-1.167704"
         transform="matrix(-0.5849544,-1.341421,1.341421,-0.5849544,41.96303,321.89978)"
         inkscape:transform-center-x="-0.63554523"
         inkscape:transform-center-y="-0.010640699" />
    </g>
    <path
       sodipodi:nodetypes="cc"
       id="path3595"
       d="m 53.95812,329.70421 58.53659,0"
       style="fill:none;stroke:#c83737;stroke-width:4;stroke-linecap:butt;stroke-linejoin:miter;stroke-opacity:1" />
    <path
       sodipodi:nodetypes="ccccccccc"
       id="path3597"
       d="m 61.2752,329.70421 0,25.95122 1.320402,0 2.561194,-4.92683 2.244777,7.85366 2.244778,-7.85366 2.561197,4.92683 1.151489,0 0,25.95122"
       style="fill:none;stroke:#000000;stroke-width:3;stroke-linecap:butt;stroke-linejoin:miter;stroke-opacity:1" />
    <path
       transform="matrix(4.4304848,0,0,4.4304848,27.09397,260.50002)"
       d="m 11,27.5 a 0.5,0.5 0 1 1 -1,0 0.5,0.5 0 1 1 1,0 z"
       sodipodi:ry="0.5"
       sodipodi:rx="0.5"
       sodipodi:cy="27.5"
       sodipodi:cx="10.5"
       id="path3599"
       style="fill:#000000;stroke:#000000;stroke-width:0.68333334;stroke-miterlimit:4;stroke-opacity:1;stroke-dasharray:none"
       sodipodi:type="arc" />
  </g>
  <g
     inkscape:groupmode="layer"
     id="layer6"
     inkscape:label="Energy Beans"
     style="display:inline"
     transform="translate(0,-192.40089)" />
  <g
     inkscape:groupmode="layer"
     id="layer7"
     inkscape:label="Energy Cuts"
     style="display:inline"
     transform="translate(0,-192.40089)">
    <g
       id="line2d3"
       transform="matrix(0.3893475,0,0,0.3893475,80.98103,89.76643)">
      <defs
         id="defs11110" />
      <g
         id="g11113" />
    </g>
    <g
       id="line2d5"
       transform="matrix(0.3893475,0,0,0.3893475,80.98103,89.76643)">
      <g
         id="g11132" />
    </g>
    <g
       id="line2d7"
       transform="matrix(0.3893475,0,0,0.3893475,80.98103,89.76643)">
      <g
         id="g11151" />
    </g>
    <g
       id="line2d9"
       transform="matrix(0.3893475,0,0,0.3893475,80.98103,89.76643)">
      <g
         id="g11172" />
    </g>
    <g
       id="line2d11"
       transform="matrix(0.3893475,0,0,0.3893475,80.98103,89.76643)">
      <g
         id="g11190" />
    </g>
    <g
       id="line2d13"
       transform="matrix(0.3893475,0,0,0.3893475,80.981034,89.76643)">
      <defs
         id="defs11283" />
      <g
         id="g11286" />
    </g>
    <g
       id="line2d15"
       transform="matrix(0.3893475,0,0,0.3893475,80.981034,89.76643)">
      <g
         id="g11302" />
    </g>
    <g
       id="line2d17"
       transform="matrix(0.3893475,0,0,0.3893475,80.981034,89.76643)">
      <g
         id="g11320" />
    </g>
    <g
       id="line2d19"
       transform="matrix(0.3893475,0,0,0.3893475,80.981034,89.76643)">
      <g
         id="g11338" />
    </g>
    <g
       id="patch3"
       transform="matrix(0.3893475,0,0,0.3893475,80.981034,89.76643)" />
    <g
       id="patch4"
       transform="matrix(0.3893475,0,0,0.3893475,80.981034,89.76643)" />
  </g>
  <g
     inkscape:groupmode="layer"
     id="layer2"
     inkscape:label="3State Cartoon"
     style="display:inline"
     transform="translate(0,-192.40089)" />
  <g
     inkscape:groupmode="layer"
     id="layer3"
     inkscape:label="3State Diagram"
     style="display:none"
     sodipodi:insensitive="true"
     transform="translate(0,-192.40089)">
    <g
       id="g3466">
      <text
         id="text3412"
         y="30"
         x="64.643188"
         style="font-size:40px;font-style:normal;font-weight:normal;text-align:center;text-anchor:middle;fill:#000000;fill-opacity:1;stroke:none;font-family:Bitstream Vera Sans"
         xml:space="preserve"><tspan
           style="font-size:12px;text-align:center;text-anchor:middle"
           y="30"
           x="64.643188"
           id="tspan3414"
           sodipodi:role="line">A~M.D.P</tspan></text>
      <text
         id="text3416"
         y="30"
         x="138.13281"
         style="font-size:40px;font-style:normal;font-weight:normal;text-align:center;text-anchor:middle;fill:#000000;fill-opacity:1;stroke:none;display:inline;font-family:Bitstream Vera Sans"
         xml:space="preserve"><tspan
           style="font-size:12px;text-align:center;text-anchor:middle"
           y="30"
           x="138.13281"
           id="tspan3418"
           sodipodi:role="line">A.M.D.P</tspan></text>
      <text
         id="text3420"
         y="30"
         x="212.86853"
         style="font-size:40px;font-style:normal;font-weight:normal;text-align:center;text-anchor:middle;fill:#000000;fill-opacity:1;stroke:none;display:inline;font-family:Bitstream Vera Sans"
         xml:space="preserve"><tspan
           style="font-size:12px;text-align:center;text-anchor:middle"
           y="30"
           x="212.86853"
           id="tspan3422"
           sodipodi:role="line">A.M.D</tspan></text>
      <g
         transform="translate(0.01308836,0)"
         id="g3452">
        <path
           i:knockout="Off"
           stroke-miterlimit="10"
           d="m 96.001976,27.145288 13.646274,0 -5.43046,3.13538"
           id="path3424"
           style="fill:none;stroke:#515151;stroke-width:0.77210259;stroke-miterlimit:10;display:inline" />
        <path
           i:knockout="Off"
           stroke-miterlimit="10"
           d="m 109.64825,23.495495 -13.646274,0 5.430774,-3.13538"
           id="path3426"
           style="fill:none;stroke:#515151;stroke-width:0.77210259;stroke-miterlimit:10;display:inline" />
      </g>
      <path
         style="fill:none;stroke:#515151;stroke-width:0.96512818;display:inline"
         id="path3432"
         d="m 194.0963,39.204727 c -35.34557,9.934386 -71.97765,14.279071 -112.32291,2.493248 l 5.993125,-1.827631 M 81.84674,45 c 37.70274,10.969969 75.07186,6.85241 112.32323,-2.49357 l -5.93232,4.615565 m -44.51268,11.311946 c -1.82859,-5.170192 -26.49566,-7.31728 -27.11849,2.127143 l 4.92601,-2.315665"
         i:knockout="Off" />
      <g
         transform="translate(-3.5523412,0)"
         id="g3460">
        <g
           id="g3456">
          <path
             style="fill:none;stroke:#515151;stroke-width:0.77210259;stroke-miterlimit:10;display:inline"
             id="path3428"
             d="m 174.66761,29.207683 13.64627,0 -5.43046,3.13538"
             stroke-miterlimit="10"
             i:knockout="Off" />
          <path
             style="fill:none;stroke:#515151;stroke-width:0.77210259;stroke-miterlimit:10;display:inline"
             id="path3430"
             d="m 188.31388,25.55789 -13.64627,0 5.43077,-3.13538"
             stroke-miterlimit="10"
             i:knockout="Off" />
        </g>
        <path
           i:knockout="Off"
           stroke-miterlimit="10"
           d="m 178.45887,18.418274 c 9.57085,0 10.18853,-7.408968 10.18853,-7.408968 l -4.17771,2.411855"
           id="path3434"
           style="fill:none;stroke:#515151;stroke-width:0.77210259;stroke-miterlimit:10;display:inline" />
      </g>
      <text
         id="text3440"
         y="11.95435"
         x="190.75905"
         style="font-size:40px;font-style:normal;font-weight:normal;text-align:center;text-anchor:middle;fill:#000000;fill-opacity:1;stroke:none;display:inline;font-family:Bitstream Vera Sans"
         xml:space="preserve"><tspan
           style="font-size:12px;text-align:center;text-anchor:middle"
           y="11.95435"
           x="190.75905"
           id="tspan3442"
           sodipodi:role="line">P</tspan></text>
      <text
         id="text3444"
         y="72"
         x="147.67969"
         style="font-size:40px;font-style:normal;font-weight:normal;text-align:center;text-anchor:middle;fill:#000000;fill-opacity:1;stroke:none;display:inline;font-family:Bitstream Vera Sans"
         xml:space="preserve"><tspan
           style="font-size:12px;text-align:center;text-anchor:middle"
           y="72"
           x="147.67969"
           id="tspan3446"
           sodipodi:role="line">T</tspan></text>
      <text
         id="text3448"
         y="72"
         x="110.61719"
         style="font-size:40px;font-style:normal;font-weight:normal;text-align:center;text-anchor:middle;fill:#000000;fill-opacity:1;stroke:none;display:inline;font-family:Bitstream Vera Sans"
         xml:space="preserve"><tspan
           style="font-size:12px;text-align:center;text-anchor:middle"
           y="72"
           x="110.61719"
           id="tspan3450"
           sodipodi:role="line">D</tspan></text>
    </g>
  </g>
  <g
     inkscape:label="Subfig Labels"
     inkscape:groupmode="layer"
     id="layer1"
     style="display:inline"
     transform="translate(0,-192.40089)">
    <text
       xml:space="preserve"
       style="font-size:12px;font-style:normal;font-variant:normal;font-weight:bold;font-stretch:normal;fill:#000000;fill-opacity:1;stroke:none;font-family:Helvetica Neue;-inkscape-font-specification:Helvetica Neue Bold"
       x="128.13315"
       y="206.05379"
       id="text6070"><tspan
         sodipodi:role="line"
         id="tspan6072"
         x="128.13315"
         y="206.05379">B</tspan></text>
    <text
       xml:space="preserve"
       style="font-size:12px;font-style:normal;font-variant:normal;font-weight:bold;font-stretch:normal;fill:#000000;fill-opacity:1;stroke:none;font-family:Helvetica Neue;-inkscape-font-specification:Helvetica Neue Bold"
       x="207.33392"
       y="206.05377"
       id="text6074"><tspan
         sodipodi:role="line"
         id="tspan6076"
         x="207.33392"
         y="206.05377">C</tspan></text>
    <text
       id="text3587"
       y="206.05379"
       x="48.133148"
       style="font-size:12px;font-style:normal;font-variant:normal;font-weight:bold;font-stretch:normal;fill:#000000;fill-opacity:1;stroke:none;font-family:Helvetica Neue;-inkscape-font-specification:Helvetica Neue Bold"
       xml:space="preserve"><tspan
         y="206.05379"
         x="48.133148"
         id="tspan3589"
         sodipodi:role="line">A</tspan></text>
  </g>
  <g
     transform="matrix(1.25,0,0,1.25,111.07858,-475.71389)"
     id="g16350">
    <use
       transform="translate(10.594804,206.13668)"
       style="fill:#4444bb;stroke:#4444bb;stroke-width:1;stroke-linecap:butt;stroke-linejoin:round"
       xlink:href="#coll12_0_ce048c91dde5e84535885880c1160ee0"
       x="0"
       y="1728"
       id="use4746"
       width="2304"
       height="1728" />
    <use
       transform="translate(10.594804,206.13668)"
       style="fill:#2288ff;stroke:#2288ff;stroke-width:1;stroke-linecap:butt;stroke-linejoin:round"
       xlink:href="#coll12_1_3d895d83e56bdb3c54062db22df1a898"
       x="0"
       y="1728"
       id="use4750"
       width="2304"
       height="1728" />
    <use
       transform="translate(10.594804,206.13668)"
       style="fill:#77dd55;stroke:#77dd55;stroke-width:1;stroke-linecap:butt;stroke-linejoin:round"
       xlink:href="#coll12_2_eae96751b283ff93a9afa47e6d2d8036"
       x="0"
       y="1728"
       id="use4754"
       width="2304"
       height="1728" />
    <use
       transform="translate(10.594804,206.13668)"
       style="fill:#ffdd44;stroke:#ffdd44;stroke-width:1;stroke-linecap:butt;stroke-linejoin:round"
       xlink:href="#coll12_3_06341ea7d75fa7a58f13a2db1dbbb4d1"
       x="0"
       y="1728"
       id="use4758"
       width="2304"
       height="1728" />
    <use
       transform="translate(10.594804,206.13668)"
       style="fill:#ff7722;stroke:#ff7722;stroke-width:1;stroke-linecap:butt;stroke-linejoin:round"
       xlink:href="#coll12_4_27a3b44f5027004169e7d2cdf877ab30"
       x="0"
       y="1728"
       id="use4762"
       width="2304"
       height="1728" />
    <use
       transform="translate(10.594804,206.13668)"
       style="fill:#ff4466;stroke:#ff4466;stroke-width:1;stroke-linecap:butt;stroke-linejoin:round"
       xlink:href="#coll12_5_c5c125dbf1e6f3d6820626e0bdfa99bb"
       x="0"
       y="1728"
       id="use4766"
       width="2304"
       height="1728" />
  </g>
</svg>
